<svg xmlns="http://www.w3.org/2000/svg" viewBox="0 0 1922.21 1082"><defs><style>.cls-1{opacity:0.5;}.cls-2{fill:#ffd360;stroke:#575756;stroke-miterlimit:10;stroke-width:2px;}</style></defs><g id="Ebene_2" data-name="Ebene 2"><g id="Ebene_1-2" data-name="Ebene 1"><g class="cls-1"><polygon class="cls-2" points="52.77 1.17 4.89 1.17 1 7.91 1 43.32 1 77.37 4.89 84.11 52.77 84.11 76.72 42.64 52.77 1.17"/><polygon class="cls-2" points="124.41 42.64 76.53 42.64 52.59 84.11 76.53 125.58 124.41 125.58 148.35 84.11 124.41 42.64"/><polygon class="cls-2" points="196.11 1.17 148.22 1.17 124.28 42.64 148.22 84.11 196.11 84.11 220.05 42.64 196.11 1.17"/><polygon class="cls-2" points="115.94 1.09 76.72 1.09 52.59 1.09 76.53 42.55 124.41 42.55 148.35 1.09 115.94 1.09"/><polygon class="cls-2" points="259.32 1.23 220.1 1.23 195.98 1.23 219.92 42.7 267.8 42.7 291.74 1.23 259.32 1.23"/><polygon class="cls-2" points="402.71 1.09 363.49 1.09 339.36 1.09 363.3 42.55 411.19 42.55 435.13 1.09 402.71 1.09"/><polygon class="cls-2" points="546.12 1.09 506.9 1.09 482.77 1.09 506.72 42.55 554.6 42.55 578.54 1.09 546.12 1.09"/><polygon class="cls-2" points="689.52 1.09 650.3 1.09 626.17 1.09 650.12 42.55 698 42.55 721.94 1.09 689.52 1.09"/><polygon class="cls-2" points="832.92 1.09 793.7 1.09 769.57 1.09 793.51 42.55 841.4 42.55 865.34 1.09 832.92 1.09"/><polygon class="cls-2" points="976.44 1.09 937.21 1.09 913.09 1.09 937.03 42.55 984.91 42.55 1008.85 1.09 976.44 1.09"/><polygon class="cls-2" points="1119.69 1.09 1080.47 1.09 1056.35 1.09 1080.29 42.55 1128.17 42.55 1152.11 1.09 1119.69 1.09"/><polygon class="cls-2" points="1263.08 1.09 1223.86 1.09 1199.73 1.09 1223.67 42.55 1271.56 42.55 1295.5 1.09 1263.08 1.09"/><polygon class="cls-2" points="1406.47 1.09 1367.24 1.09 1343.12 1.09 1367.06 42.55 1414.94 42.55 1438.88 1.09 1406.47 1.09"/><polygon class="cls-2" points="1550.06 1.09 1510.84 1.09 1486.71 1.09 1510.66 42.55 1558.54 42.55 1582.48 1.09 1550.06 1.09"/><polygon class="cls-2" points="1693.45 1.09 1654.23 1.09 1630.1 1.09 1654.04 42.55 1701.92 42.55 1725.87 1.09 1693.45 1.09"/><polygon class="cls-2" points="1836.84 1.09 1797.61 1.09 1773.49 1.09 1797.43 42.55 1845.31 42.55 1869.25 1.09 1836.84 1.09"/><polygon class="cls-2" points="267.8 42.64 219.92 42.64 195.98 84.11 219.92 125.58 267.8 125.58 291.74 84.11 267.8 42.64"/><polygon class="cls-2" points="339.44 1.17 291.56 1.17 267.62 42.64 291.56 84.11 339.44 84.11 363.38 42.64 339.44 1.17"/><polygon class="cls-2" points="411.19 42.64 363.3 42.64 339.36 84.11 363.3 125.58 411.19 125.58 435.13 84.11 411.19 42.64"/><polygon class="cls-2" points="482.77 1.17 434.89 1.17 410.95 42.64 434.89 84.11 482.77 84.11 506.72 42.64 482.77 1.17"/><polygon class="cls-2" points="554.57 42.76 506.69 42.76 482.75 84.22 506.69 125.69 554.57 125.69 578.51 84.22 554.57 42.76"/><polygon class="cls-2" points="626.27 1.29 578.38 1.29 554.44 42.76 578.38 84.22 626.27 84.22 650.21 42.76 626.27 1.29"/><polygon class="cls-2" points="697.96 42.76 650.08 42.76 626.13 84.22 650.08 125.69 697.96 125.69 721.9 84.22 697.96 42.76"/><polygon class="cls-2" points="769.76 1.09 721.87 1.09 697.93 42.55 721.87 84.02 769.76 84.02 793.7 42.55 769.76 1.09"/><polygon class="cls-2" points="841.4 42.55 793.51 42.55 769.57 84.02 793.51 125.49 841.4 125.49 865.34 84.02 841.4 42.55"/><polygon class="cls-2" points="984.78 42.55 936.9 42.55 912.96 84.02 936.9 125.49 984.78 125.49 1008.73 84.02 984.78 42.55"/><polygon class="cls-2" points="1056.42 1.09 1008.54 1.09 984.6 42.55 1008.54 84.02 1056.42 84.02 1080.37 42.55 1056.42 1.09"/><polygon class="cls-2" points="1128.17 42.55 1080.29 42.55 1056.35 84.02 1080.29 125.49 1128.17 125.49 1152.11 84.02 1128.17 42.55"/><polygon class="cls-2" points="1199.76 1.09 1151.88 1.09 1127.93 42.55 1151.88 84.02 1199.76 84.02 1223.7 42.55 1199.76 1.09"/><polygon class="cls-2" points="1271.56 42.67 1223.67 42.67 1199.73 84.14 1223.67 125.61 1271.56 125.61 1295.5 84.14 1271.56 42.67"/><polygon class="cls-2" points="1343.25 1.2 1295.37 1.2 1271.43 42.67 1295.37 84.14 1343.25 84.14 1367.19 42.67 1343.25 1.2"/><polygon class="cls-2" points="1414.94 42.67 1367.06 42.67 1343.12 84.14 1367.06 125.61 1414.94 125.61 1438.88 84.14 1414.94 42.67"/><polygon class="cls-2" points="1486.79 1 1438.91 1 1414.97 42.47 1438.91 83.94 1486.79 83.94 1510.73 42.47 1486.79 1"/><polygon class="cls-2" points="1630.13 1 1582.24 1 1558.3 42.47 1582.24 83.94 1630.13 83.94 1654.07 42.47 1630.13 1"/><polygon class="cls-2" points="1701.92 42.58 1654.04 42.58 1630.1 84.05 1654.04 125.52 1701.92 125.52 1725.87 84.05 1701.92 42.58"/><polygon class="cls-2" points="1773.62 1.12 1725.74 1.12 1701.79 42.58 1725.74 84.05 1773.62 84.05 1797.56 42.58 1773.62 1.12"/><polygon class="cls-2" points="1845.31 42.58 1797.43 42.58 1773.49 84.05 1797.43 125.52 1845.31 125.52 1869.25 84.05 1845.31 42.58"/><line class="cls-2" x1="1845.29" y1="42.53" x2="1869.23" y2="83.99"/><polygon class="cls-2" points="1917.11 1.06 1869.23 1.06 1845.29 42.52 1869.23 83.99 1917.11 83.99 1921 77.25 1921 42.12 1921 7.8 1917.11 1.06"/><polygon class="cls-2" points="1921 8.12 1921 1.09 1917.11 1.06 1921 8.12"/><polygon class="cls-2" points="1 7.91 4.89 1.17 1 1.17 1 7.91"/><polygon class="cls-2" points="1558.54 42.47 1510.66 42.47 1486.71 83.94 1510.66 125.4 1558.54 125.4 1582.48 83.94 1558.54 42.47"/><polygon class="cls-2" points="124.41 125.64 76.53 125.64 52.59 167.11 76.53 208.58 124.41 208.58 148.35 167.11 124.41 125.64"/><polygon class="cls-2" points="267.8 125.64 219.92 125.64 195.98 167.11 219.92 208.58 267.8 208.58 291.74 167.11 267.8 125.64"/><polygon class="cls-2" points="411.19 125.64 363.3 125.64 339.36 167.11 363.3 208.58 411.19 208.58 435.13 167.11 411.19 125.64"/><polygon class="cls-2" points="554.57 125.76 506.69 125.76 482.75 167.22 506.69 208.69 554.57 208.69 578.51 167.22 554.57 125.76"/><polygon class="cls-2" points="697.96 125.76 650.08 125.76 626.13 167.22 650.08 208.69 697.96 208.69 721.9 167.22 697.96 125.76"/><polygon class="cls-2" points="841.4 125.55 793.51 125.55 769.57 167.02 793.51 208.49 841.4 208.49 865.34 167.02 841.4 125.55"/><polygon class="cls-2" points="984.78 125.55 936.9 125.55 912.96 167.02 936.9 208.49 984.78 208.49 1008.73 167.02 984.78 125.55"/><polygon class="cls-2" points="1128.17 125.55 1080.29 125.55 1056.35 167.02 1080.29 208.49 1128.17 208.49 1152.11 167.02 1128.17 125.55"/><polygon class="cls-2" points="1271.56 125.67 1223.67 125.67 1199.73 167.14 1223.67 208.6 1271.56 208.6 1295.5 167.14 1271.56 125.67"/><polygon class="cls-2" points="1414.94 125.67 1367.06 125.67 1343.12 167.14 1367.06 208.6 1414.94 208.6 1438.88 167.14 1414.94 125.67"/><polygon class="cls-2" points="1701.92 125.58 1654.04 125.58 1630.1 167.05 1654.04 208.52 1701.92 208.52 1725.87 167.05 1701.92 125.58"/><polygon class="cls-2" points="1845.31 125.58 1797.43 125.58 1773.49 167.05 1797.43 208.52 1845.31 208.52 1869.25 167.05 1845.31 125.58"/><polygon class="cls-2" points="1558.54 125.47 1510.66 125.47 1486.71 166.94 1510.66 208.4 1558.54 208.4 1582.48 166.94 1558.54 125.47"/><polygon class="cls-2" points="124.41 208.64 76.53 208.64 52.59 250.11 76.53 291.58 124.41 291.58 148.35 250.11 124.41 208.64"/><polygon class="cls-2" points="267.8 208.64 219.92 208.64 195.98 250.11 219.92 291.58 267.8 291.58 291.74 250.11 267.8 208.64"/><polygon class="cls-2" points="411.19 208.64 363.3 208.64 339.36 250.11 363.3 291.58 411.19 291.58 435.13 250.11 411.19 208.64"/><polygon class="cls-2" points="554.57 208.76 506.69 208.76 482.75 250.22 506.69 291.69 554.57 291.69 578.51 250.22 554.57 208.76"/><polygon class="cls-2" points="697.96 208.76 650.08 208.76 626.13 250.22 650.08 291.69 697.96 291.69 721.9 250.22 697.96 208.76"/><polygon class="cls-2" points="841.4 208.55 793.51 208.55 769.57 250.02 793.51 291.49 841.4 291.49 865.34 250.02 841.4 208.55"/><polygon class="cls-2" points="984.78 208.55 936.9 208.55 912.96 250.02 936.9 291.49 984.78 291.49 1008.73 250.02 984.78 208.55"/><polygon class="cls-2" points="1128.17 208.55 1080.29 208.55 1056.35 250.02 1080.29 291.49 1128.17 291.49 1152.11 250.02 1128.17 208.55"/><polygon class="cls-2" points="1271.56 208.67 1223.67 208.67 1199.73 250.14 1223.67 291.61 1271.56 291.61 1295.5 250.14 1271.56 208.67"/><polygon class="cls-2" points="1414.94 208.67 1367.06 208.67 1343.12 250.14 1367.06 291.61 1414.94 291.61 1438.88 250.14 1414.94 208.67"/><polygon class="cls-2" points="1701.92 208.58 1654.04 208.58 1630.1 250.05 1654.04 291.52 1701.92 291.52 1725.87 250.05 1701.92 208.58"/><polygon class="cls-2" points="1845.31 208.58 1797.43 208.58 1773.49 250.05 1797.43 291.52 1845.31 291.52 1869.25 250.05 1845.31 208.58"/><polygon class="cls-2" points="1558.54 208.47 1510.66 208.47 1486.71 249.94 1510.66 291.4 1558.54 291.4 1582.48 249.94 1558.54 208.47"/><polygon class="cls-2" points="124.41 291.64 76.53 291.64 52.59 333.11 76.53 374.58 124.41 374.58 148.35 333.11 124.41 291.64"/><polygon class="cls-2" points="267.8 291.64 219.92 291.64 195.98 333.11 219.92 374.58 267.8 374.58 291.74 333.11 267.8 291.64"/><polygon class="cls-2" points="411.19 291.64 363.3 291.64 339.36 333.11 363.3 374.58 411.19 374.58 435.13 333.11 411.19 291.64"/><polygon class="cls-2" points="554.57 291.76 506.69 291.76 482.75 333.22 506.69 374.69 554.57 374.69 578.51 333.22 554.57 291.76"/><polygon class="cls-2" points="697.96 291.76 650.08 291.76 626.13 333.22 650.08 374.69 697.96 374.69 721.9 333.22 697.96 291.76"/><polygon class="cls-2" points="841.4 291.55 793.51 291.55 769.57 333.02 793.51 374.49 841.4 374.49 865.34 333.02 841.4 291.55"/><polygon class="cls-2" points="984.78 291.55 936.9 291.55 912.96 333.02 936.9 374.49 984.78 374.49 1008.73 333.02 984.78 291.55"/><polygon class="cls-2" points="1128.17 291.55 1080.29 291.55 1056.35 333.02 1080.29 374.49 1128.17 374.49 1152.11 333.02 1128.17 291.55"/><polygon class="cls-2" points="1271.56 291.67 1223.67 291.67 1199.73 333.14 1223.67 374.61 1271.56 374.61 1295.5 333.14 1271.56 291.67"/><polygon class="cls-2" points="1414.94 291.67 1367.06 291.67 1343.12 333.14 1367.06 374.61 1414.94 374.61 1438.88 333.14 1414.94 291.67"/><polygon class="cls-2" points="1701.92 291.58 1654.04 291.58 1630.1 333.05 1654.04 374.52 1701.92 374.52 1725.87 333.05 1701.92 291.58"/><polygon class="cls-2" points="1845.31 291.58 1797.43 291.58 1773.49 333.05 1797.43 374.52 1845.31 374.52 1869.25 333.05 1845.31 291.58"/><polygon class="cls-2" points="1558.54 291.47 1510.66 291.47 1486.71 332.94 1510.66 374.4 1558.54 374.4 1582.48 332.94 1558.54 291.47"/><polygon class="cls-2" points="124.41 374.64 76.53 374.64 52.59 416.11 76.53 457.58 124.41 457.58 148.35 416.11 124.41 374.64"/><polygon class="cls-2" points="267.8 374.64 219.92 374.64 195.98 416.11 219.92 457.58 267.8 457.58 291.74 416.11 267.8 374.64"/><polygon class="cls-2" points="411.19 374.64 363.3 374.64 339.36 416.11 363.3 457.58 411.19 457.58 435.13 416.11 411.19 374.64"/><polygon class="cls-2" points="554.57 374.76 506.69 374.76 482.75 416.22 506.69 457.69 554.57 457.69 578.51 416.22 554.57 374.76"/><polygon class="cls-2" points="697.96 374.76 650.08 374.76 626.13 416.22 650.08 457.69 697.96 457.69 721.9 416.22 697.96 374.76"/><polygon class="cls-2" points="841.4 374.55 793.51 374.55 769.57 416.02 793.51 457.49 841.4 457.49 865.34 416.02 841.4 374.55"/><polygon class="cls-2" points="984.78 374.55 936.9 374.55 912.96 416.02 936.9 457.49 984.78 457.49 1008.73 416.02 984.78 374.55"/><polygon class="cls-2" points="1128.17 374.55 1080.29 374.55 1056.35 416.02 1080.29 457.49 1128.17 457.49 1152.11 416.02 1128.17 374.55"/><polygon class="cls-2" points="1271.56 374.67 1223.67 374.67 1199.73 416.14 1223.67 457.61 1271.56 457.61 1295.5 416.14 1271.56 374.67"/><polygon class="cls-2" points="1414.94 374.67 1367.06 374.67 1343.12 416.14 1367.06 457.61 1414.94 457.61 1438.88 416.14 1414.94 374.67"/><polygon class="cls-2" points="1701.92 374.58 1654.04 374.58 1630.1 416.05 1654.04 457.52 1701.92 457.52 1725.87 416.05 1701.92 374.58"/><polygon class="cls-2" points="1845.31 374.58 1797.43 374.58 1773.49 416.05 1797.43 457.52 1845.31 457.52 1869.25 416.05 1845.31 374.58"/><polygon class="cls-2" points="1558.54 374.47 1510.66 374.47 1486.71 415.94 1510.66 457.4 1558.54 457.4 1582.48 415.94 1558.54 374.47"/><polygon class="cls-2" points="124.41 457.64 76.53 457.64 52.59 499.11 76.53 540.58 124.41 540.58 148.35 499.11 124.41 457.64"/><polygon class="cls-2" points="267.8 457.64 219.92 457.64 195.98 499.11 219.92 540.58 267.8 540.58 291.74 499.11 267.8 457.64"/><polygon class="cls-2" points="411.19 457.64 363.3 457.64 339.36 499.11 363.3 540.58 411.19 540.58 435.13 499.11 411.19 457.64"/><polygon class="cls-2" points="554.57 457.76 506.69 457.76 482.75 499.22 506.69 540.69 554.57 540.69 578.51 499.22 554.57 457.76"/><polygon class="cls-2" points="697.96 457.76 650.08 457.76 626.13 499.22 650.08 540.69 697.96 540.69 721.9 499.22 697.96 457.76"/><polygon class="cls-2" points="841.4 457.55 793.51 457.55 769.57 499.02 793.51 540.49 841.4 540.49 865.34 499.02 841.4 457.55"/><polygon class="cls-2" points="984.78 457.55 936.9 457.55 912.96 499.02 936.9 540.49 984.78 540.49 1008.73 499.02 984.78 457.55"/><polygon class="cls-2" points="1128.17 457.55 1080.29 457.55 1056.35 499.02 1080.29 540.49 1128.17 540.49 1152.11 499.02 1128.17 457.55"/><polygon class="cls-2" points="1271.56 457.67 1223.67 457.67 1199.73 499.14 1223.67 540.61 1271.56 540.61 1295.5 499.14 1271.56 457.67"/><polygon class="cls-2" points="1414.94 457.67 1367.06 457.67 1343.12 499.14 1367.06 540.61 1414.94 540.61 1438.88 499.14 1414.94 457.67"/><polygon class="cls-2" points="1701.92 457.58 1654.04 457.58 1630.1 499.05 1654.04 540.52 1701.92 540.52 1725.87 499.05 1701.92 457.58"/><polygon class="cls-2" points="1845.31 457.58 1797.43 457.58 1773.49 499.05 1797.43 540.52 1845.31 540.52 1869.25 499.05 1845.31 457.58"/><polygon class="cls-2" points="1558.54 457.47 1510.66 457.47 1486.71 498.94 1510.66 540.4 1558.54 540.4 1582.48 498.94 1558.54 457.47"/><polygon class="cls-2" points="124.41 540.64 76.53 540.64 52.59 582.11 76.53 623.58 124.41 623.58 148.35 582.11 124.41 540.64"/><polygon class="cls-2" points="267.8 540.64 219.92 540.64 195.98 582.11 219.92 623.58 267.8 623.58 291.74 582.11 267.8 540.64"/><polygon class="cls-2" points="411.19 540.64 363.3 540.64 339.36 582.11 363.3 623.58 411.19 623.58 435.13 582.11 411.19 540.64"/><polygon class="cls-2" points="554.57 540.76 506.69 540.76 482.75 582.22 506.69 623.69 554.57 623.69 578.51 582.22 554.57 540.76"/><polygon class="cls-2" points="697.96 540.76 650.08 540.76 626.13 582.22 650.08 623.69 697.96 623.69 721.9 582.22 697.96 540.76"/><polygon class="cls-2" points="841.4 540.55 793.51 540.55 769.57 582.02 793.51 623.49 841.4 623.49 865.34 582.02 841.4 540.55"/><polygon class="cls-2" points="984.78 540.55 936.9 540.55 912.96 582.02 936.9 623.49 984.78 623.49 1008.73 582.02 984.78 540.55"/><polygon class="cls-2" points="1128.17 540.55 1080.29 540.55 1056.35 582.02 1080.29 623.49 1128.17 623.49 1152.11 582.02 1128.17 540.55"/><polygon class="cls-2" points="1271.56 540.67 1223.67 540.67 1199.73 582.14 1223.67 623.61 1271.56 623.61 1295.5 582.14 1271.56 540.67"/><polygon class="cls-2" points="1414.94 540.67 1367.06 540.67 1343.12 582.14 1367.06 623.61 1414.94 623.61 1438.88 582.14 1414.94 540.67"/><polygon class="cls-2" points="1701.92 540.58 1654.04 540.58 1630.1 582.05 1654.04 623.52 1701.92 623.52 1725.87 582.05 1701.92 540.58"/><polygon class="cls-2" points="1845.31 540.58 1797.43 540.58 1773.49 582.05 1797.43 623.52 1845.31 623.52 1869.25 582.05 1845.31 540.58"/><polygon class="cls-2" points="1558.54 540.47 1510.66 540.47 1486.71 581.93 1510.66 623.4 1558.54 623.4 1582.48 581.93 1558.54 540.47"/><polygon class="cls-2" points="124.41 623.64 76.53 623.64 52.59 665.11 76.53 706.58 124.41 706.58 148.35 665.11 124.41 623.64"/><polygon class="cls-2" points="267.8 623.64 219.92 623.64 195.98 665.11 219.92 706.58 267.8 706.58 291.74 665.11 267.8 623.64"/><polygon class="cls-2" points="411.19 623.64 363.3 623.64 339.36 665.11 363.3 706.58 411.19 706.58 435.13 665.11 411.19 623.64"/><polygon class="cls-2" points="554.57 623.76 506.69 623.76 482.75 665.22 506.69 706.69 554.57 706.69 578.51 665.22 554.57 623.76"/><polygon class="cls-2" points="697.96 623.76 650.08 623.76 626.13 665.22 650.08 706.69 697.96 706.69 721.9 665.22 697.96 623.76"/><polygon class="cls-2" points="841.4 623.55 793.51 623.55 769.57 665.02 793.51 706.49 841.4 706.49 865.34 665.02 841.4 623.55"/><polygon class="cls-2" points="984.78 623.55 936.9 623.55 912.96 665.02 936.9 706.49 984.78 706.49 1008.73 665.02 984.78 623.55"/><polygon class="cls-2" points="1128.17 623.55 1080.29 623.55 1056.35 665.02 1080.29 706.49 1128.17 706.49 1152.11 665.02 1128.17 623.55"/><polygon class="cls-2" points="1271.56 623.67 1223.67 623.67 1199.73 665.14 1223.67 706.61 1271.56 706.61 1295.5 665.14 1271.56 623.67"/><polygon class="cls-2" points="1414.94 623.67 1367.06 623.67 1343.12 665.14 1367.06 706.61 1414.94 706.61 1438.88 665.14 1414.94 623.67"/><polygon class="cls-2" points="1701.92 623.58 1654.04 623.58 1630.1 665.05 1654.04 706.52 1701.92 706.52 1725.87 665.05 1701.92 623.58"/><polygon class="cls-2" points="1845.31 623.58 1797.43 623.58 1773.49 665.05 1797.43 706.52 1845.31 706.52 1869.25 665.05 1845.31 623.58"/><polygon class="cls-2" points="1558.54 623.47 1510.66 623.47 1486.71 664.93 1510.66 706.4 1558.54 706.4 1582.48 664.93 1558.54 623.47"/><polygon class="cls-2" points="124.41 706.64 76.53 706.64 52.59 748.11 76.53 789.58 124.41 789.58 148.35 748.11 124.41 706.64"/><polygon class="cls-2" points="267.8 706.64 219.92 706.64 195.98 748.11 219.92 789.58 267.8 789.58 291.74 748.11 267.8 706.64"/><polygon class="cls-2" points="411.19 706.64 363.3 706.64 339.36 748.11 363.3 789.58 411.19 789.58 435.13 748.11 411.19 706.64"/><polygon class="cls-2" points="554.57 706.76 506.69 706.76 482.75 748.22 506.69 789.69 554.57 789.69 578.51 748.22 554.57 706.76"/><polygon class="cls-2" points="697.96 706.76 650.08 706.76 626.13 748.22 650.08 789.69 697.96 789.69 721.9 748.22 697.96 706.76"/><polygon class="cls-2" points="841.4 706.55 793.51 706.55 769.57 748.02 793.51 789.49 841.4 789.49 865.34 748.02 841.4 706.55"/><polygon class="cls-2" points="984.78 706.55 936.9 706.55 912.96 748.02 936.9 789.49 984.78 789.49 1008.73 748.02 984.78 706.55"/><polygon class="cls-2" points="1128.17 706.55 1080.29 706.55 1056.35 748.02 1080.29 789.49 1128.17 789.49 1152.11 748.02 1128.17 706.55"/><polygon class="cls-2" points="1271.56 706.67 1223.67 706.67 1199.73 748.14 1223.67 789.61 1271.56 789.61 1295.5 748.14 1271.56 706.67"/><polygon class="cls-2" points="1414.94 706.67 1367.06 706.67 1343.12 748.14 1367.06 789.61 1414.94 789.61 1438.88 748.14 1414.94 706.67"/><polygon class="cls-2" points="1701.92 706.58 1654.04 706.58 1630.1 748.05 1654.04 789.52 1701.92 789.52 1725.87 748.05 1701.92 706.58"/><polygon class="cls-2" points="1845.31 706.58 1797.43 706.58 1773.49 748.05 1797.43 789.52 1845.31 789.52 1869.25 748.05 1845.31 706.58"/><polygon class="cls-2" points="1558.54 706.47 1510.66 706.47 1486.71 747.93 1510.66 789.4 1558.54 789.4 1582.48 747.93 1558.54 706.47"/><polygon class="cls-2" points="124.41 789.64 76.53 789.64 52.59 831.11 76.53 872.58 124.41 872.58 148.35 831.11 124.41 789.64"/><polygon class="cls-2" points="267.8 789.64 219.92 789.64 195.98 831.11 219.92 872.58 267.8 872.58 291.74 831.11 267.8 789.64"/><polygon class="cls-2" points="411.19 789.64 363.3 789.64 339.36 831.11 363.3 872.58 411.19 872.58 435.13 831.11 411.19 789.64"/><polygon class="cls-2" points="554.57 789.76 506.69 789.76 482.75 831.22 506.69 872.69 554.57 872.69 578.51 831.22 554.57 789.76"/><polygon class="cls-2" points="697.96 789.76 650.08 789.76 626.13 831.22 650.08 872.69 697.96 872.69 721.9 831.22 697.96 789.76"/><polygon class="cls-2" points="841.4 789.55 793.51 789.55 769.57 831.02 793.51 872.49 841.4 872.49 865.34 831.02 841.4 789.55"/><polygon class="cls-2" points="984.78 789.55 936.9 789.55 912.96 831.02 936.9 872.49 984.78 872.49 1008.73 831.02 984.78 789.55"/><polygon class="cls-2" points="1128.17 789.55 1080.29 789.55 1056.35 831.02 1080.29 872.49 1128.17 872.49 1152.11 831.02 1128.17 789.55"/><polygon class="cls-2" points="1271.56 789.67 1223.67 789.67 1199.73 831.14 1223.67 872.61 1271.56 872.61 1295.5 831.14 1271.56 789.67"/><polygon class="cls-2" points="1414.94 789.67 1367.06 789.67 1343.12 831.14 1367.06 872.61 1414.94 872.61 1438.88 831.14 1414.94 789.67"/><polygon class="cls-2" points="1701.92 789.58 1654.04 789.58 1630.1 831.05 1654.04 872.52 1701.92 872.52 1725.87 831.05 1701.92 789.58"/><polygon class="cls-2" points="1845.31 789.58 1797.43 789.58 1773.49 831.05 1797.43 872.52 1845.31 872.52 1869.25 831.05 1845.31 789.58"/><polygon class="cls-2" points="1558.54 789.47 1510.66 789.47 1486.71 830.93 1510.66 872.4 1558.54 872.4 1582.48 830.93 1558.54 789.47"/><polygon class="cls-2" points="124.41 872.64 76.53 872.64 52.59 914.11 76.53 955.58 124.41 955.58 148.35 914.11 124.41 872.64"/><polygon class="cls-2" points="267.8 872.64 219.92 872.64 195.98 914.11 219.92 955.58 267.8 955.58 291.74 914.11 267.8 872.64"/><polygon class="cls-2" points="411.19 872.64 363.3 872.64 339.36 914.11 363.3 955.58 411.19 955.58 435.13 914.11 411.19 872.64"/><polygon class="cls-2" points="554.57 872.76 506.69 872.76 482.75 914.22 506.69 955.69 554.57 955.69 578.51 914.22 554.57 872.76"/><polygon class="cls-2" points="697.96 872.76 650.08 872.76 626.13 914.22 650.08 955.69 697.96 955.69 721.9 914.22 697.96 872.76"/><polygon class="cls-2" points="841.4 872.55 793.51 872.55 769.57 914.02 793.51 955.49 841.4 955.49 865.34 914.02 841.4 872.55"/><polygon class="cls-2" points="984.78 872.55 936.9 872.55 912.96 914.02 936.9 955.49 984.78 955.49 1008.73 914.02 984.78 872.55"/><polygon class="cls-2" points="1128.17 872.55 1080.29 872.55 1056.35 914.02 1080.29 955.49 1128.17 955.49 1152.11 914.02 1128.17 872.55"/><polygon class="cls-2" points="1271.56 872.67 1223.67 872.67 1199.73 914.14 1223.67 955.61 1271.56 955.61 1295.5 914.14 1271.56 872.67"/><polygon class="cls-2" points="1414.94 872.67 1367.06 872.67 1343.12 914.14 1367.06 955.61 1414.94 955.61 1438.88 914.14 1414.94 872.67"/><polygon class="cls-2" points="1701.92 872.58 1654.04 872.58 1630.1 914.05 1654.04 955.52 1701.92 955.52 1725.87 914.05 1701.92 872.58"/><polygon class="cls-2" points="1845.31 872.58 1797.43 872.58 1773.49 914.05 1797.43 955.52 1845.31 955.52 1869.25 914.05 1845.31 872.58"/><polygon class="cls-2" points="1558.54 872.47 1510.66 872.47 1486.71 913.93 1510.66 955.4 1558.54 955.4 1582.48 913.93 1558.54 872.47"/><polygon class="cls-2" points="124.41 955.64 76.53 955.64 52.59 997.11 76.53 1038.58 124.41 1038.58 148.35 997.11 124.41 955.64"/><polygon class="cls-2" points="267.8 955.64 219.92 955.64 195.98 997.11 219.92 1038.58 267.8 1038.58 291.74 997.11 267.8 955.64"/><polygon class="cls-2" points="411.19 955.64 363.3 955.64 339.36 997.11 363.3 1038.58 411.19 1038.58 435.13 997.11 411.19 955.64"/><polygon class="cls-2" points="554.57 955.76 506.69 955.76 482.75 997.22 506.69 1038.69 554.57 1038.69 578.51 997.22 554.57 955.76"/><polygon class="cls-2" points="697.96 955.76 650.08 955.76 626.13 997.22 650.08 1038.69 697.96 1038.69 721.9 997.22 697.96 955.76"/><polygon class="cls-2" points="841.4 955.55 793.51 955.55 769.57 997.02 793.51 1038.49 841.4 1038.49 865.34 997.02 841.4 955.55"/><polygon class="cls-2" points="984.78 955.55 936.9 955.55 912.96 997.02 936.9 1038.49 984.78 1038.49 1008.73 997.02 984.78 955.55"/><polygon class="cls-2" points="1128.17 955.55 1080.29 955.55 1056.35 997.02 1080.29 1038.49 1128.17 1038.49 1152.11 997.02 1128.17 955.55"/><polygon class="cls-2" points="1271.56 955.67 1223.67 955.67 1199.73 997.14 1223.67 1038.61 1271.56 1038.61 1295.5 997.14 1271.56 955.67"/><polygon class="cls-2" points="1414.94 955.67 1367.06 955.67 1343.12 997.14 1367.06 1038.61 1414.94 1038.61 1438.88 997.14 1414.94 955.67"/><polygon class="cls-2" points="1701.92 955.58 1654.04 955.58 1630.1 997.05 1654.04 1038.52 1701.92 1038.52 1725.87 997.05 1701.92 955.58"/><polygon class="cls-2" points="1845.31 955.58 1797.43 955.58 1773.49 997.05 1797.43 1038.52 1845.31 1038.52 1869.25 997.05 1845.31 955.58"/><polygon class="cls-2" points="1558.54 955.47 1510.66 955.47 1486.71 996.93 1510.66 1038.4 1558.54 1038.4 1582.48 996.93 1558.54 955.47"/><polygon class="cls-2" points="124.41 1038.64 76.53 1038.64 52 1081 84.53 1081 132.41 1081 149 1081 124.41 1038.64"/><polygon class="cls-2" points="267.8 1038.64 219.92 1038.64 195 1081 222.92 1081 270.8 1081 293 1081 267.8 1038.64"/><polygon class="cls-2" points="411.19 1038.64 363.3 1038.64 338 1081 371 1081 404 1081 436 1081 411.19 1038.64"/><polygon class="cls-2" points="554.57 1038.76 506.69 1038.76 482 1081 513 1081 550 1081 578 1081 554.57 1038.76"/><polygon class="cls-2" points="697.96 1038.76 650.08 1038.76 626 1081 654 1081 688 1081 722 1081 697.96 1038.76"/><polygon class="cls-2" points="841.4 1038.55 793.51 1038.55 769 1081 804 1081 839 1081 866 1081 841.4 1038.55"/><polygon class="cls-2" points="984.78 1038.55 936.9 1038.55 912 1081 943 1081 976 1081 1009 1081 984.78 1038.55"/><polygon class="cls-2" points="1128.17 1038.55 1080.29 1038.55 1056 1081 1084 1081 1111 1081 1153 1081 1128.17 1038.55"/><polygon class="cls-2" points="1271.56 1038.67 1223.67 1038.67 1199 1081 1227 1081 1259 1081 1296 1081 1271.56 1038.67"/><polygon class="cls-2" points="1414.94 1038.67 1367.06 1038.67 1343 1081 1369 1081 1400 1081 1440 1081 1414.94 1038.67"/><polygon class="cls-2" points="1701.92 1038.58 1654.04 1038.58 1630 1081 1652 1081 1701 1081 1727 1081 1701.92 1038.58"/><polygon class="cls-2" points="1845.31 1038.58 1797.43 1038.58 1772 1081 1800 1081 1845 1081 1870 1081 1845.31 1038.58"/><polygon class="cls-2" points="1558.54 1038.47 1510.66 1038.47 1486 1081 1512 1081 1544 1081 1583 1081 1558.54 1038.47"/><polygon class="cls-2" points="913.09 1.09 865.21 1.09 841.27 42.55 865.21 84.02 913.09 84.02 937.03 42.55 913.09 1.09"/><polygon class="cls-2" points="52.77 84.17 4.89 84.17 1 90.91 1 126.32 1 160.37 4.89 167.11 52.77 167.11 76.72 125.64 52.77 84.17"/><polygon class="cls-2" points="196.11 84.17 148.22 84.17 124.28 125.64 148.22 167.11 196.11 167.11 220.05 125.64 196.11 84.17"/><polygon class="cls-2" points="339.44 84.17 291.56 84.17 267.62 125.64 291.56 167.11 339.44 167.11 363.38 125.64 339.44 84.17"/><polygon class="cls-2" points="482.77 84.17 434.89 84.17 410.95 125.64 434.89 167.11 482.77 167.11 506.72 125.64 482.77 84.17"/><polygon class="cls-2" points="626.27 84.29 578.38 84.29 554.44 125.76 578.38 167.22 626.27 167.22 650.21 125.76 626.27 84.29"/><polygon class="cls-2" points="769.76 84.09 721.87 84.09 697.93 125.55 721.87 167.02 769.76 167.02 793.7 125.55 769.76 84.09"/><polygon class="cls-2" points="1056.42 84.09 1008.54 84.09 984.6 125.55 1008.54 167.02 1056.42 167.02 1080.37 125.55 1056.42 84.09"/><polygon class="cls-2" points="1199.76 84.09 1151.88 84.09 1127.93 125.55 1151.88 167.02 1199.76 167.02 1223.7 125.55 1199.76 84.09"/><polygon class="cls-2" points="1343.25 84.2 1295.37 84.2 1271.43 125.67 1295.37 167.14 1343.25 167.14 1367.19 125.67 1343.25 84.2"/><polygon class="cls-2" points="1486.79 84 1438.91 84 1414.97 125.47 1438.91 166.94 1486.79 166.94 1510.73 125.47 1486.79 84"/><polygon class="cls-2" points="1630.13 84 1582.24 84 1558.3 125.47 1582.24 166.94 1630.13 166.94 1654.07 125.47 1630.13 84"/><polygon class="cls-2" points="1773.62 84.12 1725.74 84.12 1701.79 125.58 1725.74 167.05 1773.62 167.05 1797.56 125.58 1773.62 84.12"/><polygon class="cls-2" points="1917.11 84.06 1869.23 84.06 1845.29 125.53 1869.23 166.99 1917.11 166.99 1921 160.25 1921 125.12 1921 90.8 1917.11 84.06"/><polygon class="cls-2" points="1921 91.11 1921 77 1917.11 84.06 1921 91.11"/><polygon class="cls-2" points="1 90.91 4.89 84.17 1 77 1 90.91"/><polygon class="cls-2" points="913.09 84.09 865.21 84.09 841.27 125.55 865.21 167.02 913.09 167.02 937.03 125.55 913.09 84.09"/><polygon class="cls-2" points="52.77 167.17 4.89 167.17 1 173.91 1 209.32 1 243.37 4.89 250.11 52.77 250.11 76.72 208.64 52.77 167.17"/><polygon class="cls-2" points="196.11 167.17 148.22 167.17 124.28 208.64 148.22 250.11 196.11 250.11 220.05 208.64 196.11 167.17"/><polygon class="cls-2" points="339.44 167.17 291.56 167.17 267.62 208.64 291.56 250.11 339.44 250.11 363.38 208.64 339.44 167.17"/><polygon class="cls-2" points="482.77 167.17 434.89 167.17 410.95 208.64 434.89 250.11 482.77 250.11 506.72 208.64 482.77 167.17"/><polygon class="cls-2" points="626.27 167.29 578.38 167.29 554.44 208.76 578.38 250.22 626.27 250.22 650.21 208.76 626.27 167.29"/><polygon class="cls-2" points="769.76 167.09 721.87 167.09 697.93 208.55 721.87 250.02 769.76 250.02 793.7 208.55 769.76 167.09"/><polygon class="cls-2" points="1056.42 167.09 1008.54 167.09 984.6 208.55 1008.54 250.02 1056.42 250.02 1080.37 208.55 1056.42 167.09"/><polygon class="cls-2" points="1199.76 167.09 1151.88 167.09 1127.93 208.55 1151.88 250.02 1199.76 250.02 1223.7 208.55 1199.76 167.09"/><polygon class="cls-2" points="1343.25 167.2 1295.37 167.2 1271.43 208.67 1295.37 250.14 1343.25 250.14 1367.19 208.67 1343.25 167.2"/><polygon class="cls-2" points="1486.79 167 1438.91 167 1414.97 208.47 1438.91 249.94 1486.79 249.94 1510.73 208.47 1486.79 167"/><polygon class="cls-2" points="1630.13 167 1582.24 167 1558.3 208.47 1582.24 249.94 1630.13 249.94 1654.07 208.47 1630.13 167"/><polygon class="cls-2" points="1773.62 167.12 1725.74 167.12 1701.79 208.58 1725.74 250.05 1773.62 250.05 1797.56 208.58 1773.62 167.12"/><polygon class="cls-2" points="1917.11 167.06 1869.23 167.06 1845.29 208.53 1869.23 249.99 1917.11 249.99 1921 243.25 1921 208.12 1921 173.8 1917.11 167.06"/><polygon class="cls-2" points="1921 174.12 1921 160 1917.11 167.06 1921 174.12"/><polygon class="cls-2" points="1 173.91 4.89 167.17 1 160 1 173.91"/><polygon class="cls-2" points="913.09 167.09 865.21 167.09 841.27 208.55 865.21 250.02 913.09 250.02 937.03 208.55 913.09 167.09"/><polygon class="cls-2" points="52.77 250.17 4.89 250.17 1 256.91 1 292.32 1 326.37 4.89 333.11 52.77 333.11 76.72 291.64 52.77 250.17"/><polygon class="cls-2" points="196.11 250.17 148.22 250.17 124.28 291.64 148.22 333.11 196.11 333.11 220.05 291.64 196.11 250.17"/><polygon class="cls-2" points="339.44 250.17 291.56 250.17 267.62 291.64 291.56 333.11 339.44 333.11 363.38 291.64 339.44 250.17"/><polygon class="cls-2" points="482.77 250.17 434.89 250.17 410.95 291.64 434.89 333.11 482.77 333.11 506.72 291.64 482.77 250.17"/><polygon class="cls-2" points="626.27 250.29 578.38 250.29 554.44 291.76 578.38 333.22 626.27 333.22 650.21 291.76 626.27 250.29"/><polygon class="cls-2" points="769.76 250.09 721.87 250.09 697.93 291.55 721.87 333.02 769.76 333.02 793.7 291.55 769.76 250.09"/><polygon class="cls-2" points="1056.42 250.09 1008.54 250.09 984.6 291.55 1008.54 333.02 1056.42 333.02 1080.37 291.55 1056.42 250.09"/><polygon class="cls-2" points="1199.76 250.09 1151.88 250.09 1127.93 291.55 1151.88 333.02 1199.76 333.02 1223.7 291.55 1199.76 250.09"/><polygon class="cls-2" points="1343.25 250.2 1295.37 250.2 1271.43 291.67 1295.37 333.14 1343.25 333.14 1367.19 291.67 1343.25 250.2"/><polygon class="cls-2" points="1486.79 250 1438.91 250 1414.97 291.47 1438.91 332.94 1486.79 332.94 1510.73 291.47 1486.79 250"/><polygon class="cls-2" points="1630.13 250 1582.24 250 1558.3 291.47 1582.24 332.94 1630.13 332.94 1654.07 291.47 1630.13 250"/><polygon class="cls-2" points="1773.62 250.12 1725.74 250.12 1701.79 291.58 1725.74 333.05 1773.62 333.05 1797.56 291.58 1773.62 250.12"/><polygon class="cls-2" points="1917.11 250.06 1869.23 250.06 1845.29 291.52 1869.23 332.99 1917.11 332.99 1921 326.25 1921 291.12 1921 256.8 1917.11 250.06"/><polygon class="cls-2" points="1921 257.12 1921 243 1917.11 250.06 1921 257.12"/><polygon class="cls-2" points="1 256.91 4.89 250.17 1 243 1 256.91"/><polygon class="cls-2" points="913.09 250.09 865.21 250.09 841.27 291.55 865.21 333.02 913.09 333.02 937.03 291.55 913.09 250.09"/><polygon class="cls-2" points="52.77 333.17 4.89 333.17 1 339.91 1 375.32 1 409.37 4.89 416.11 52.77 416.11 76.72 374.64 52.77 333.17"/><polygon class="cls-2" points="196.11 333.17 148.22 333.17 124.28 374.64 148.22 416.11 196.11 416.11 220.05 374.64 196.11 333.17"/><polygon class="cls-2" points="339.44 333.17 291.56 333.17 267.62 374.64 291.56 416.11 339.44 416.11 363.38 374.64 339.44 333.17"/><polygon class="cls-2" points="482.77 333.17 434.89 333.17 410.95 374.64 434.89 416.11 482.77 416.11 506.72 374.64 482.77 333.17"/><polygon class="cls-2" points="626.27 333.29 578.38 333.29 554.44 374.76 578.38 416.22 626.27 416.22 650.21 374.76 626.27 333.29"/><polygon class="cls-2" points="769.76 333.09 721.87 333.09 697.93 374.55 721.87 416.02 769.76 416.02 793.7 374.55 769.76 333.09"/><polygon class="cls-2" points="1056.42 333.09 1008.54 333.09 984.6 374.55 1008.54 416.02 1056.42 416.02 1080.37 374.55 1056.42 333.09"/><polygon class="cls-2" points="1199.76 333.09 1151.88 333.09 1127.93 374.55 1151.88 416.02 1199.76 416.02 1223.7 374.55 1199.76 333.09"/><polygon class="cls-2" points="1343.25 333.2 1295.37 333.2 1271.43 374.67 1295.37 416.14 1343.25 416.14 1367.19 374.67 1343.25 333.2"/><polygon class="cls-2" points="1486.79 333 1438.91 333 1414.97 374.47 1438.91 415.94 1486.79 415.94 1510.73 374.47 1486.79 333"/><polygon class="cls-2" points="1630.13 333 1582.24 333 1558.3 374.47 1582.24 415.94 1630.13 415.94 1654.07 374.47 1630.13 333"/><polygon class="cls-2" points="1773.62 333.12 1725.74 333.12 1701.79 374.58 1725.74 416.05 1773.62 416.05 1797.56 374.58 1773.62 333.12"/><polygon class="cls-2" points="1917.11 333.06 1869.23 333.06 1845.29 374.52 1869.23 415.99 1917.11 415.99 1921 409.25 1921 374.12 1921 339.8 1917.11 333.06"/><polygon class="cls-2" points="1921 340.12 1921 326 1917.11 333.06 1921 340.12"/><polygon class="cls-2" points="1 339.91 4.89 333.17 1 326 1 339.91"/><polygon class="cls-2" points="913.09 333.09 865.21 333.09 841.27 374.55 865.21 416.02 913.09 416.02 937.03 374.55 913.09 333.09"/><polygon class="cls-2" points="52.77 416.17 4.89 416.17 1 422.91 1 458.32 1 492.37 4.89 499.11 52.77 499.11 76.72 457.64 52.77 416.17"/><polygon class="cls-2" points="196.11 416.17 148.22 416.17 124.28 457.64 148.22 499.11 196.11 499.11 220.05 457.64 196.11 416.17"/><polygon class="cls-2" points="339.44 416.17 291.56 416.17 267.62 457.64 291.56 499.11 339.44 499.11 363.38 457.64 339.44 416.17"/><polygon class="cls-2" points="482.77 416.17 434.89 416.17 410.95 457.64 434.89 499.11 482.77 499.11 506.72 457.64 482.77 416.17"/><polygon class="cls-2" points="626.27 416.29 578.38 416.29 554.44 457.76 578.38 499.22 626.27 499.22 650.21 457.76 626.27 416.29"/><polygon class="cls-2" points="769.76 416.09 721.87 416.09 697.93 457.55 721.87 499.02 769.76 499.02 793.7 457.55 769.76 416.09"/><polygon class="cls-2" points="1056.42 416.09 1008.54 416.09 984.6 457.55 1008.54 499.02 1056.42 499.02 1080.37 457.55 1056.42 416.09"/><polygon class="cls-2" points="1199.76 416.09 1151.88 416.09 1127.93 457.55 1151.88 499.02 1199.76 499.02 1223.7 457.55 1199.76 416.09"/><polygon class="cls-2" points="1343.25 416.2 1295.37 416.2 1271.43 457.67 1295.37 499.14 1343.25 499.14 1367.19 457.67 1343.25 416.2"/><polygon class="cls-2" points="1486.79 416 1438.91 416 1414.97 457.47 1438.91 498.94 1486.79 498.94 1510.73 457.47 1486.79 416"/><polygon class="cls-2" points="1630.13 416 1582.24 416 1558.3 457.47 1582.24 498.94 1630.13 498.94 1654.07 457.47 1630.13 416"/><polygon class="cls-2" points="1773.62 416.12 1725.74 416.12 1701.79 457.58 1725.74 499.05 1773.62 499.05 1797.56 457.58 1773.62 416.12"/><polygon class="cls-2" points="1917.11 416.06 1869.23 416.06 1845.29 457.52 1869.23 498.99 1917.11 498.99 1921 492.25 1921 457.12 1921 422.8 1917.11 416.06"/><polygon class="cls-2" points="1921 423.12 1921 409 1917.11 416.06 1921 423.12"/><polygon class="cls-2" points="1 422.91 4.89 416.17 1 409 1 422.91"/><polygon class="cls-2" points="913.09 416.09 865.21 416.09 841.27 457.55 865.21 499.02 913.09 499.02 937.03 457.55 913.09 416.09"/><polygon class="cls-2" points="52.77 499.17 4.89 499.17 1 505.91 1 541.32 1 575.37 4.89 582.11 52.77 582.11 76.72 540.64 52.77 499.17"/><polygon class="cls-2" points="196.11 499.17 148.22 499.17 124.28 540.64 148.22 582.11 196.11 582.11 220.05 540.64 196.11 499.17"/><polygon class="cls-2" points="339.44 499.17 291.56 499.17 267.62 540.64 291.56 582.11 339.44 582.11 363.38 540.64 339.44 499.17"/><polygon class="cls-2" points="482.77 499.17 434.89 499.17 410.95 540.64 434.89 582.11 482.77 582.11 506.72 540.64 482.77 499.17"/><polygon class="cls-2" points="626.27 499.29 578.38 499.29 554.44 540.76 578.38 582.22 626.27 582.22 650.21 540.76 626.27 499.29"/><polygon class="cls-2" points="769.76 499.09 721.87 499.09 697.93 540.55 721.87 582.02 769.76 582.02 793.7 540.55 769.76 499.09"/><polygon class="cls-2" points="1056.42 499.09 1008.54 499.09 984.6 540.55 1008.54 582.02 1056.42 582.02 1080.37 540.55 1056.42 499.09"/><polygon class="cls-2" points="1199.76 499.09 1151.88 499.09 1127.93 540.55 1151.88 582.02 1199.76 582.02 1223.7 540.55 1199.76 499.09"/><polygon class="cls-2" points="1343.25 499.2 1295.37 499.2 1271.43 540.67 1295.37 582.14 1343.25 582.14 1367.19 540.67 1343.25 499.2"/><polygon class="cls-2" points="1486.79 499 1438.91 499 1414.97 540.47 1438.91 581.93 1486.79 581.93 1510.73 540.47 1486.79 499"/><polygon class="cls-2" points="1630.13 499 1582.24 499 1558.3 540.47 1582.24 581.93 1630.13 581.93 1654.07 540.47 1630.13 499"/><polygon class="cls-2" points="1773.62 499.12 1725.74 499.12 1701.79 540.58 1725.74 582.05 1773.62 582.05 1797.56 540.58 1773.62 499.12"/><polygon class="cls-2" points="1917.11 499.06 1869.23 499.06 1845.29 540.52 1869.23 581.99 1917.11 581.99 1921 575.25 1921 540.12 1921 505.8 1917.11 499.06"/><polygon class="cls-2" points="1921 506.12 1921 492 1917.11 499.06 1921 506.12"/><polygon class="cls-2" points="1 505.91 4.89 499.17 1 492 1 505.91"/><polygon class="cls-2" points="913.09 499.09 865.21 499.09 841.27 540.55 865.21 582.02 913.09 582.02 937.03 540.55 913.09 499.09"/><polygon class="cls-2" points="52.77 582.17 4.89 582.17 1 588.91 1 624.32 1 658.37 4.89 665.11 52.77 665.11 76.72 623.64 52.77 582.17"/><polygon class="cls-2" points="196.11 582.17 148.22 582.17 124.28 623.64 148.22 665.11 196.11 665.11 220.05 623.64 196.11 582.17"/><polygon class="cls-2" points="339.44 582.17 291.56 582.17 267.62 623.64 291.56 665.11 339.44 665.11 363.38 623.64 339.44 582.17"/><polygon class="cls-2" points="482.77 582.17 434.89 582.17 410.95 623.64 434.89 665.11 482.77 665.11 506.72 623.64 482.77 582.17"/><polygon class="cls-2" points="626.27 582.29 578.38 582.29 554.44 623.76 578.38 665.22 626.27 665.22 650.21 623.76 626.27 582.29"/><polygon class="cls-2" points="769.76 582.09 721.87 582.09 697.93 623.55 721.87 665.02 769.76 665.02 793.7 623.55 769.76 582.09"/><polygon class="cls-2" points="1056.42 582.09 1008.54 582.09 984.6 623.55 1008.54 665.02 1056.42 665.02 1080.37 623.55 1056.42 582.09"/><polygon class="cls-2" points="1199.76 582.09 1151.88 582.09 1127.93 623.55 1151.88 665.02 1199.76 665.02 1223.7 623.55 1199.76 582.09"/><polygon class="cls-2" points="1343.25 582.2 1295.37 582.2 1271.43 623.67 1295.37 665.14 1343.25 665.14 1367.19 623.67 1343.25 582.2"/><polygon class="cls-2" points="1486.79 582 1438.91 582 1414.97 623.47 1438.91 664.93 1486.79 664.93 1510.73 623.47 1486.79 582"/><polygon class="cls-2" points="1630.13 582 1582.24 582 1558.3 623.47 1582.24 664.93 1630.13 664.93 1654.07 623.47 1630.13 582"/><polygon class="cls-2" points="1773.62 582.12 1725.74 582.12 1701.79 623.58 1725.74 665.05 1773.62 665.05 1797.56 623.58 1773.62 582.12"/><polygon class="cls-2" points="1917.11 582.06 1869.23 582.06 1845.29 623.52 1869.23 664.99 1917.11 664.99 1921 658.25 1921 623.12 1921 588.8 1917.11 582.06"/><polygon class="cls-2" points="1921 589.12 1921 575 1917.11 582.06 1921 589.12"/><polygon class="cls-2" points="1 588.91 4.89 582.17 1 575 1 588.91"/><polygon class="cls-2" points="913.09 582.09 865.21 582.09 841.27 623.55 865.21 665.02 913.09 665.02 937.03 623.55 913.09 582.09"/><polygon class="cls-2" points="52.77 665.17 4.89 665.17 1 671.91 1 707.32 1 741.37 4.89 748.11 52.77 748.11 76.72 706.64 52.77 665.17"/><polygon class="cls-2" points="196.11 665.17 148.22 665.17 124.28 706.64 148.22 748.11 196.11 748.11 220.05 706.64 196.11 665.17"/><polygon class="cls-2" points="339.44 665.17 291.56 665.17 267.62 706.64 291.56 748.11 339.44 748.11 363.38 706.64 339.44 665.17"/><polygon class="cls-2" points="482.77 665.17 434.89 665.17 410.95 706.64 434.89 748.11 482.77 748.11 506.72 706.64 482.77 665.17"/><polygon class="cls-2" points="626.27 665.29 578.38 665.29 554.44 706.76 578.38 748.22 626.27 748.22 650.21 706.76 626.27 665.29"/><polygon class="cls-2" points="769.76 665.09 721.87 665.09 697.93 706.55 721.87 748.02 769.76 748.02 793.7 706.55 769.76 665.09"/><polygon class="cls-2" points="1056.42 665.09 1008.54 665.09 984.6 706.55 1008.54 748.02 1056.42 748.02 1080.37 706.55 1056.42 665.09"/><polygon class="cls-2" points="1199.76 665.09 1151.88 665.09 1127.93 706.55 1151.88 748.02 1199.76 748.02 1223.7 706.55 1199.76 665.09"/><polygon class="cls-2" points="1343.25 665.2 1295.37 665.2 1271.43 706.67 1295.37 748.14 1343.25 748.14 1367.19 706.67 1343.25 665.2"/><polygon class="cls-2" points="1486.79 665 1438.91 665 1414.97 706.47 1438.91 747.93 1486.79 747.93 1510.73 706.47 1486.79 665"/><polygon class="cls-2" points="1630.13 665 1582.24 665 1558.3 706.47 1582.24 747.93 1630.13 747.93 1654.07 706.47 1630.13 665"/><polygon class="cls-2" points="1773.62 665.12 1725.74 665.12 1701.79 706.58 1725.74 748.05 1773.62 748.05 1797.56 706.58 1773.62 665.12"/><polygon class="cls-2" points="1917.11 665.06 1869.23 665.06 1845.29 706.52 1869.23 747.99 1917.11 747.99 1921 741.25 1921 706.12 1921 671.8 1917.11 665.06"/><polygon class="cls-2" points="1921 672.12 1921 658 1917.11 665.06 1921 672.12"/><polygon class="cls-2" points="1 671.91 4.89 665.17 1 658 1 671.91"/><polygon class="cls-2" points="913.09 665.09 865.21 665.09 841.27 706.55 865.21 748.02 913.09 748.02 937.03 706.55 913.09 665.09"/><polygon class="cls-2" points="52.77 748.17 4.89 748.17 1 754.91 1 790.32 1 824.37 4.89 831.11 52.77 831.11 76.72 789.64 52.77 748.17"/><polygon class="cls-2" points="196.11 748.17 148.22 748.17 124.28 789.64 148.22 831.11 196.11 831.11 220.05 789.64 196.11 748.17"/><polygon class="cls-2" points="339.44 748.17 291.56 748.17 267.62 789.64 291.56 831.11 339.44 831.11 363.38 789.64 339.44 748.17"/><polygon class="cls-2" points="482.77 748.17 434.89 748.17 410.95 789.64 434.89 831.11 482.77 831.11 506.72 789.64 482.77 748.17"/><polygon class="cls-2" points="626.27 748.29 578.38 748.29 554.44 789.76 578.38 831.22 626.27 831.22 650.21 789.76 626.27 748.29"/><polygon class="cls-2" points="769.76 748.09 721.87 748.09 697.93 789.55 721.87 831.02 769.76 831.02 793.7 789.55 769.76 748.09"/><polygon class="cls-2" points="1056.42 748.09 1008.54 748.09 984.6 789.55 1008.54 831.02 1056.42 831.02 1080.37 789.55 1056.42 748.09"/><polygon class="cls-2" points="1199.76 748.09 1151.88 748.09 1127.93 789.55 1151.88 831.02 1199.76 831.02 1223.7 789.55 1199.76 748.09"/><polygon class="cls-2" points="1343.25 748.2 1295.37 748.2 1271.43 789.67 1295.37 831.14 1343.25 831.14 1367.19 789.67 1343.25 748.2"/><polygon class="cls-2" points="1486.79 748 1438.91 748 1414.97 789.47 1438.91 830.93 1486.79 830.93 1510.73 789.47 1486.79 748"/><polygon class="cls-2" points="1630.13 748 1582.24 748 1558.3 789.47 1582.24 830.93 1630.13 830.93 1654.07 789.47 1630.13 748"/><polygon class="cls-2" points="1773.62 748.12 1725.74 748.12 1701.79 789.58 1725.74 831.05 1773.62 831.05 1797.56 789.58 1773.62 748.12"/><polygon class="cls-2" points="1917.11 748.06 1869.23 748.06 1845.29 789.52 1869.23 830.99 1917.11 830.99 1921 824.25 1921 789.12 1921 754.8 1917.11 748.06"/><polygon class="cls-2" points="1921 755.12 1921 741 1917.11 748.06 1921 755.12"/><polygon class="cls-2" points="1 754.91 4.89 748.17 1 741 1 754.91"/><polygon class="cls-2" points="913.09 748.09 865.21 748.09 841.27 789.55 865.21 831.02 913.09 831.02 937.03 789.55 913.09 748.09"/><polygon class="cls-2" points="52.77 831.17 4.89 831.17 1 837.91 1 873.32 1 907.37 4.89 914.11 52.77 914.11 76.72 872.64 52.77 831.17"/><polygon class="cls-2" points="196.11 831.17 148.22 831.17 124.28 872.64 148.22 914.11 196.11 914.11 220.05 872.64 196.11 831.17"/><polygon class="cls-2" points="339.44 831.17 291.56 831.17 267.62 872.64 291.56 914.11 339.44 914.11 363.38 872.64 339.44 831.17"/><polygon class="cls-2" points="482.77 831.17 434.89 831.17 410.95 872.64 434.89 914.11 482.77 914.11 506.72 872.64 482.77 831.17"/><polygon class="cls-2" points="626.27 831.29 578.38 831.29 554.44 872.76 578.38 914.22 626.27 914.22 650.21 872.76 626.27 831.29"/><polygon class="cls-2" points="769.76 831.09 721.87 831.09 697.93 872.55 721.87 914.02 769.76 914.02 793.7 872.55 769.76 831.09"/><polygon class="cls-2" points="1056.42 831.09 1008.54 831.09 984.6 872.55 1008.54 914.02 1056.42 914.02 1080.37 872.55 1056.42 831.09"/><polygon class="cls-2" points="1199.76 831.09 1151.88 831.09 1127.93 872.55 1151.88 914.02 1199.76 914.02 1223.7 872.55 1199.76 831.09"/><polygon class="cls-2" points="1343.25 831.2 1295.37 831.2 1271.43 872.67 1295.37 914.14 1343.25 914.14 1367.19 872.67 1343.25 831.2"/><polygon class="cls-2" points="1486.79 831 1438.91 831 1414.97 872.47 1438.91 913.93 1486.79 913.93 1510.73 872.47 1486.79 831"/><polygon class="cls-2" points="1630.13 831 1582.24 831 1558.3 872.47 1582.24 913.93 1630.13 913.93 1654.07 872.47 1630.13 831"/><polygon class="cls-2" points="1773.62 831.12 1725.74 831.12 1701.79 872.58 1725.74 914.05 1773.62 914.05 1797.56 872.58 1773.62 831.12"/><polygon class="cls-2" points="1917.11 831.06 1869.23 831.06 1845.29 872.52 1869.23 913.99 1917.11 913.99 1921 907.25 1921 872.12 1921 837.8 1917.11 831.06"/><polygon class="cls-2" points="1921 838.12 1921 824 1917.11 831.06 1921 838.12"/><polygon class="cls-2" points="1 837.91 4.89 831.17 1 824 1 837.91"/><polygon class="cls-2" points="913.09 831.09 865.21 831.09 841.27 872.55 865.21 914.02 913.09 914.02 937.03 872.55 913.09 831.09"/><polygon class="cls-2" points="52.77 914.17 4.89 914.17 1 920.91 1 956.32 1 990.37 4.89 997.11 52.77 997.11 76.72 955.64 52.77 914.17"/><polygon class="cls-2" points="196.11 914.17 148.22 914.17 124.28 955.64 148.22 997.11 196.11 997.11 220.05 955.64 196.11 914.17"/><polygon class="cls-2" points="339.44 914.17 291.56 914.17 267.62 955.64 291.56 997.11 339.44 997.11 363.38 955.64 339.44 914.17"/><polygon class="cls-2" points="482.77 914.17 434.89 914.17 410.95 955.64 434.89 997.11 482.77 997.11 506.72 955.64 482.77 914.17"/><polygon class="cls-2" points="626.27 914.29 578.38 914.29 554.44 955.76 578.38 997.22 626.27 997.22 650.21 955.76 626.27 914.29"/><polygon class="cls-2" points="769.76 914.09 721.87 914.09 697.93 955.55 721.87 997.02 769.76 997.02 793.7 955.55 769.76 914.09"/><polygon class="cls-2" points="1056.42 914.09 1008.54 914.09 984.6 955.55 1008.54 997.02 1056.42 997.02 1080.37 955.55 1056.42 914.09"/><polygon class="cls-2" points="1199.76 914.09 1151.88 914.09 1127.93 955.55 1151.88 997.02 1199.76 997.02 1223.7 955.55 1199.76 914.09"/><polygon class="cls-2" points="1343.25 914.2 1295.37 914.2 1271.43 955.67 1295.37 997.14 1343.25 997.14 1367.19 955.67 1343.25 914.2"/><polygon class="cls-2" points="1486.79 914 1438.91 914 1414.97 955.47 1438.91 996.93 1486.79 996.93 1510.73 955.47 1486.79 914"/><polygon class="cls-2" points="1630.13 914 1582.24 914 1558.3 955.47 1582.24 996.93 1630.13 996.93 1654.07 955.47 1630.13 914"/><polygon class="cls-2" points="1773.62 914.12 1725.74 914.12 1701.79 955.58 1725.74 997.05 1773.62 997.05 1797.56 955.58 1773.62 914.12"/><polygon class="cls-2" points="1917.11 914.06 1869.23 914.06 1845.29 955.52 1869.23 996.99 1917.11 996.99 1921 990.25 1921 955.12 1921 920.8 1917.11 914.06"/><polygon class="cls-2" points="1921 921.12 1921 907 1917.11 914.06 1921 921.12"/><polygon class="cls-2" points="1 920.91 4.89 914.17 1 907 1 920.91"/><polygon class="cls-2" points="913.09 914.09 865.21 914.09 841.27 955.55 865.21 997.02 913.09 997.02 937.03 955.55 913.09 914.09"/><polygon class="cls-2" points="52.77 997.17 4.89 997.17 1 1003.91 1 1039.32 1 1073.37 6 1081 52 1081 76.72 1038.64 52.77 997.17"/><polygon class="cls-2" points="196.11 997.17 148.22 997.17 124.28 1038.64 149 1081 195 1081 220.05 1038.64 196.11 997.17"/><polygon class="cls-2" points="339.44 997.17 291.56 997.17 267.62 1038.64 293 1081 338 1081 363.38 1038.64 339.44 997.17"/><polygon class="cls-2" points="482.77 997.17 434.89 997.17 410.95 1038.64 436 1081 482 1081 506.72 1038.64 482.77 997.17"/><polygon class="cls-2" points="626.27 997.29 578.38 997.29 554.44 1038.76 578 1081 626 1081 650.21 1038.76 626.27 997.29"/><polygon class="cls-2" points="769.76 997.09 721.87 997.09 697.93 1038.55 722 1081 769 1081 793.7 1038.55 769.76 997.09"/><polygon class="cls-2" points="1056.42 997.09 1008.54 997.09 984.6 1038.55 1009 1081 1056 1081 1080.37 1038.55 1056.42 997.09"/><polygon class="cls-2" points="1199.76 997.09 1151.88 997.09 1127.93 1038.55 1153 1081 1199 1081 1223.7 1038.55 1199.76 997.09"/><polygon class="cls-2" points="1343.25 997.2 1295.37 997.2 1271.43 1038.67 1296 1081 1343 1081 1367.19 1038.67 1343.25 997.2"/><polygon class="cls-2" points="1486.79 997 1438.91 997 1414.97 1038.47 1440 1081 1486 1081 1510.73 1038.47 1486.79 997"/><polygon class="cls-2" points="1630.13 997 1582.24 997 1558.3 1038.47 1583 1081 1630 1081 1654.07 1038.47 1630.13 997"/><polygon class="cls-2" points="1773.62 997.12 1725.74 997.12 1701.79 1038.58 1727 1081 1772 1081 1797.56 1038.58 1773.62 997.12"/><polygon class="cls-2" points="1917.11 997.06 1869.23 997.06 1845.29 1038.53 1870 1081 1916 1081 1921 1073.25 1921 1038.12 1921 1003.8 1917.11 997.06"/><polygon class="cls-2" points="1921 1004.12 1921 990 1917.11 997.06 1921 1004.12"/><polygon class="cls-2" points="1 1003.91 4.89 997.17 1 990 1 1003.91"/><polygon class="cls-2" points="913.09 997.09 865.21 997.09 841.27 1038.55 866 1081 912 1081 937.03 1038.55 913.09 997.09"/><polygon class="cls-2" points="1 1081 6 1081 1 1073 1 1081"/><polygon class="cls-2" points="1921 1073 1921.19 1081 1916 1081 1921 1073"/></g></g></g></svg>