<svg xmlns="http://www.w3.org/2000/svg" xmlns:xlink="http://www.w3.org/1999/xlink" viewBox="0 0 3517.25 1979.55"><defs><style>.cls-1,.cls-4{fill:none;}.cls-2{clip-path:url(#clip-path);}.cls-3{fill:#ffd360;stroke-width:3px;}.cls-3,.cls-4,.cls-5{stroke:#000;stroke-miterlimit:10;}.cls-4{stroke-width:2px;}.cls-5{font-size:900px;fill:#fff;stroke-width:5px;font-family:Kalam-Regular, Kalam;}</style><clipPath id="clip-path" transform="translate(1295.72 477.38)"><circle class="cls-1" cx="512" cy="512" r="511"/></clipPath></defs><g id="Ebene_2" data-name="Ebene 2"><g id="Ebene_1-2" data-name="Ebene 1"><g class="cls-2"><polygon class="cls-3" points="96.25 1.82 8.62 1.82 1.5 14.15 1.5 78.94 1.5 141.27 8.62 153.6 96.25 153.6 140.07 77.71 96.25 1.82"/><polygon class="cls-3" points="227.37 77.71 139.73 77.71 95.92 153.6 139.73 229.49 227.37 229.49 271.18 153.6 227.37 77.71"/><polygon class="cls-3" points="358.57 1.82 270.94 1.82 227.13 77.71 270.94 153.6 358.57 153.6 402.39 77.71 358.57 1.82"/><polygon class="cls-3" points="211.85 1.66 140.07 1.66 95.92 1.66 139.73 77.55 227.37 77.55 271.18 1.66 211.85 1.66"/><polygon class="cls-3" points="474.27 1.92 402.49 1.92 358.33 1.92 402.15 77.81 489.78 77.81 533.6 1.92 474.27 1.92"/><polygon class="cls-3" points="736.69 1.66 664.9 1.66 620.75 1.66 664.57 77.55 752.2 77.55 796.01 1.66 736.69 1.66"/><polygon class="cls-3" points="999.15 1.66 927.37 1.66 883.22 1.66 927.03 77.55 1014.66 77.55 1058.48 1.66 999.15 1.66"/><polygon class="cls-3" points="1261.59 1.66 1189.81 1.66 1145.66 1.66 1189.47 77.55 1277.1 77.55 1320.92 1.66 1261.59 1.66"/><polygon class="cls-3" points="1524.03 1.66 1452.25 1.66 1408.1 1.66 1451.91 77.55 1539.55 77.55 1583.36 1.66 1524.03 1.66"/><polygon class="cls-3" points="1786.68 1.66 1714.9 1.66 1670.75 1.66 1714.56 77.55 1802.2 77.55 1846.01 1.66 1786.68 1.66"/><polygon class="cls-3" points="2048.87 1.66 1977.08 1.66 1932.93 1.66 1976.75 77.55 2064.38 77.55 2108.2 1.66 2048.87 1.66"/><polygon class="cls-3" points="2311.28 1.66 2239.5 1.66 2195.35 1.66 2239.16 77.55 2326.8 77.55 2370.61 1.66 2311.28 1.66"/><polygon class="cls-3" points="2573.7 1.66 2501.92 1.66 2457.76 1.66 2501.58 77.55 2589.21 77.55 2633.03 1.66 2573.7 1.66"/><polygon class="cls-3" points="2836.5 1.66 2764.72 1.66 2720.57 1.66 2764.38 77.55 2852.01 77.55 2895.83 1.66 2836.5 1.66"/><polygon class="cls-3" points="3098.92 1.66 3027.13 1.66 2982.98 1.66 3026.8 77.55 3114.43 77.55 3158.25 1.66 3098.92 1.66"/><polygon class="cls-3" points="3361.34 1.66 3289.55 1.66 3245.4 1.66 3289.22 77.55 3376.85 77.55 3420.66 1.66 3361.34 1.66"/><polygon class="cls-3" points="489.78 77.71 402.15 77.71 358.33 153.6 402.15 229.49 489.78 229.49 533.6 153.6 489.78 77.71"/><polygon class="cls-3" points="620.89 1.82 533.26 1.82 489.45 77.71 533.26 153.6 620.89 153.6 664.71 77.71 620.89 1.82"/><polygon class="cls-3" points="752.2 77.71 664.57 77.71 620.75 153.6 664.57 229.49 752.2 229.49 796.01 153.6 752.2 77.71"/><polygon class="cls-3" points="883.22 1.82 795.58 1.82 751.77 77.71 795.58 153.6 883.22 153.6 927.03 77.71 883.22 1.82"/><polygon class="cls-3" points="1014.62 77.92 926.98 77.92 883.17 153.81 926.98 229.7 1014.62 229.7 1058.43 153.81 1014.62 77.92"/><polygon class="cls-3" points="1145.82 2.03 1058.19 2.03 1014.38 77.92 1058.19 153.81 1145.82 153.81 1189.64 77.92 1145.82 2.03"/><polygon class="cls-3" points="1277.03 77.92 1189.4 77.92 1145.59 153.81 1189.4 229.7 1277.03 229.7 1320.85 153.81 1277.03 77.92"/><polygon class="cls-3" points="1408.43 1.66 1320.8 1.66 1276.98 77.55 1320.8 153.44 1408.43 153.44 1452.25 77.55 1408.43 1.66"/><polygon class="cls-3" points="1539.55 77.55 1451.91 77.55 1408.1 153.44 1451.91 229.33 1539.55 229.33 1583.36 153.44 1539.55 77.55"/><polygon class="cls-3" points="1801.96 77.55 1714.33 77.55 1670.51 153.44 1714.33 229.33 1801.96 229.33 1845.78 153.44 1801.96 77.55"/><polygon class="cls-3" points="1933.07 1.66 1845.44 1.66 1801.63 77.55 1845.44 153.44 1933.07 153.44 1976.89 77.55 1933.07 1.66"/><polygon class="cls-3" points="2064.38 77.55 1976.75 77.55 1932.93 153.44 1976.75 229.33 2064.38 229.33 2108.2 153.44 2064.38 77.55"/><polygon class="cls-3" points="2195.39 1.66 2107.76 1.66 2063.95 77.55 2107.76 153.44 2195.39 153.44 2239.21 77.55 2195.39 1.66"/><polygon class="cls-3" points="2326.8 77.76 2239.16 77.76 2195.35 153.65 2239.16 229.54 2326.8 229.54 2370.61 153.65 2326.8 77.76"/><polygon class="cls-3" points="2458 1.87 2370.37 1.87 2326.56 77.76 2370.37 153.65 2458 153.65 2501.82 77.76 2458 1.87"/><polygon class="cls-3" points="2589.21 77.76 2501.58 77.76 2457.76 153.65 2501.58 229.54 2589.21 229.54 2633.03 153.65 2589.21 77.76"/><polygon class="cls-3" points="2720.71 1.5 2633.08 1.5 2589.26 77.39 2633.08 153.28 2720.71 153.28 2764.53 77.39 2720.71 1.5"/><polygon class="cls-3" points="2983.03 1.5 2895.4 1.5 2851.58 77.39 2895.4 153.28 2983.03 153.28 3026.85 77.39 2983.03 1.5"/><polygon class="cls-3" points="3114.43 77.6 3026.8 77.6 2982.98 153.5 3026.8 229.39 3114.43 229.39 3158.25 153.5 3114.43 77.6"/><polygon class="cls-3" points="3245.64 1.71 3158.01 1.71 3114.19 77.6 3158.01 153.5 3245.64 153.5 3289.45 77.6 3245.64 1.71"/><polygon class="cls-3" points="3376.85 77.6 3289.22 77.6 3245.4 153.5 3289.22 229.39 3376.85 229.39 3420.66 153.5 3376.85 77.6"/><line class="cls-3" x1="3376.8" y1="77.5" x2="3420.62" y2="153.39"/><polygon class="cls-3" points="3508.25 1.61 3420.62 1.61 3376.8 77.5 3420.62 153.39 3508.25 153.39 3515.37 141.06 3515.37 76.75 3515.37 13.94 3508.25 1.61"/><polygon class="cls-3" points="3515.37 14.52 3515.37 1.66 3508.25 1.61 3515.37 14.52"/><polygon class="cls-3" points="1.5 14.15 8.62 1.82 1.5 1.82 1.5 14.15"/><polygon class="cls-3" points="2852.01 77.39 2764.38 77.39 2720.57 153.28 2764.38 229.17 2852.01 229.17 2895.83 153.28 2852.01 77.39"/><polygon class="cls-3" points="227.37 229.61 139.73 229.61 95.92 305.5 139.73 381.39 227.37 381.39 271.18 305.5 227.37 229.61"/><polygon class="cls-3" points="489.78 229.61 402.15 229.61 358.33 305.5 402.15 381.39 489.78 381.39 533.6 305.5 489.78 229.61"/><polygon class="cls-3" points="752.2 229.61 664.57 229.61 620.75 305.5 664.57 381.39 752.2 381.39 796.01 305.5 752.2 229.61"/><polygon class="cls-3" points="1014.62 229.82 926.98 229.82 883.17 305.71 926.98 381.61 1014.62 381.61 1058.43 305.71 1014.62 229.82"/><polygon class="cls-3" points="1277.03 229.82 1189.4 229.82 1145.59 305.71 1189.4 381.61 1277.03 381.61 1320.85 305.71 1277.03 229.82"/><polygon class="cls-3" points="1539.55 229.45 1451.91 229.45 1408.1 305.34 1451.91 381.24 1539.55 381.24 1583.36 305.34 1539.55 229.45"/><polygon class="cls-3" points="1801.96 229.45 1714.33 229.45 1670.51 305.34 1714.33 381.24 1801.96 381.24 1845.78 305.34 1801.96 229.45"/><polygon class="cls-3" points="2064.38 229.45 1976.75 229.45 1932.93 305.34 1976.75 381.24 2064.38 381.24 2108.2 305.34 2064.38 229.45"/><polygon class="cls-3" points="2326.8 229.66 2239.16 229.66 2195.35 305.56 2239.16 381.45 2326.8 381.45 2370.61 305.56 2326.8 229.66"/><polygon class="cls-3" points="2589.21 229.66 2501.58 229.66 2457.76 305.56 2501.58 381.45 2589.21 381.45 2633.03 305.56 2589.21 229.66"/><polygon class="cls-3" points="3114.43 229.5 3026.8 229.5 2982.98 305.4 3026.8 381.29 3114.43 381.29 3158.25 305.4 3114.43 229.5"/><polygon class="cls-3" points="3376.85 229.5 3289.22 229.5 3245.4 305.4 3289.22 381.29 3376.85 381.29 3420.66 305.4 3376.85 229.5"/><polygon class="cls-3" points="2852.01 229.29 2764.38 229.29 2720.57 305.18 2764.38 381.08 2852.01 381.08 2895.83 305.18 2852.01 229.29"/><polygon class="cls-3" points="227.37 381.51 139.73 381.51 95.92 457.4 139.73 533.29 227.37 533.29 271.18 457.4 227.37 381.51"/><polygon class="cls-3" points="489.78 381.51 402.15 381.51 358.33 457.4 402.15 533.29 489.78 533.29 533.6 457.4 489.78 381.51"/><polygon class="cls-3" points="752.2 381.51 664.57 381.51 620.75 457.4 664.57 533.29 752.2 533.29 796.01 457.4 752.2 381.51"/><polygon class="cls-3" points="1014.62 381.72 926.98 381.72 883.17 457.62 926.98 533.51 1014.62 533.51 1058.43 457.62 1014.62 381.72"/><polygon class="cls-3" points="1277.03 381.72 1189.4 381.72 1145.59 457.62 1189.4 533.51 1277.03 533.51 1320.85 457.62 1277.03 381.72"/><polygon class="cls-3" points="1539.55 381.35 1451.91 381.35 1408.1 457.25 1451.91 533.14 1539.55 533.14 1583.36 457.25 1539.55 381.35"/><polygon class="cls-3" points="1801.96 381.35 1714.33 381.35 1670.51 457.25 1714.33 533.14 1801.96 533.14 1845.78 457.25 1801.96 381.35"/><polygon class="cls-3" points="2064.38 381.35 1976.75 381.35 1932.93 457.25 1976.75 533.14 2064.38 533.14 2108.2 457.25 2064.38 381.35"/><polygon class="cls-3" points="2326.8 381.56 2239.16 381.56 2195.35 457.46 2239.16 533.35 2326.8 533.35 2370.61 457.46 2326.8 381.56"/><polygon class="cls-3" points="2589.21 381.56 2501.58 381.56 2457.76 457.46 2501.58 533.35 2589.21 533.35 2633.03 457.46 2589.21 381.56"/><polygon class="cls-3" points="3114.43 381.41 3026.8 381.41 2982.98 457.3 3026.8 533.19 3114.43 533.19 3158.25 457.3 3114.43 381.41"/><polygon class="cls-3" points="3376.85 381.41 3289.22 381.41 3245.4 457.3 3289.22 533.19 3376.85 533.19 3420.66 457.3 3376.85 381.41"/><polygon class="cls-3" points="2852.01 381.19 2764.38 381.19 2720.57 457.09 2764.38 532.98 2852.01 532.98 2895.83 457.09 2852.01 381.19"/><polygon class="cls-3" points="227.37 533.41 139.73 533.41 95.92 609.3 139.73 685.2 227.37 685.2 271.18 609.3 227.37 533.41"/><polygon class="cls-3" points="489.78 533.41 402.15 533.41 358.33 609.3 402.15 685.2 489.78 685.2 533.6 609.3 489.78 533.41"/><polygon class="cls-3" points="752.2 533.41 664.57 533.41 620.75 609.3 664.57 685.2 752.2 685.2 796.01 609.3 752.2 533.41"/><polygon class="cls-3" points="1014.62 533.63 926.98 533.63 883.17 609.52 926.98 685.41 1014.62 685.41 1058.43 609.52 1014.62 533.63"/><polygon class="cls-3" points="1277.03 533.63 1189.4 533.63 1145.59 609.52 1189.4 685.41 1277.03 685.41 1320.85 609.52 1277.03 533.63"/><polygon class="cls-3" points="1539.55 533.25 1451.91 533.25 1408.1 609.15 1451.91 685.04 1539.55 685.04 1583.36 609.15 1539.55 533.25"/><polygon class="cls-3" points="1801.96 533.25 1714.33 533.25 1670.51 609.15 1714.33 685.04 1801.96 685.04 1845.78 609.15 1801.96 533.25"/><polygon class="cls-3" points="2064.38 533.25 1976.75 533.25 1932.93 609.15 1976.75 685.04 2064.38 685.04 2108.2 609.15 2064.38 533.25"/><polygon class="cls-3" points="2326.8 533.47 2239.16 533.47 2195.35 609.36 2239.16 685.25 2326.8 685.25 2370.61 609.36 2326.8 533.47"/><polygon class="cls-3" points="2589.21 533.47 2501.58 533.47 2457.76 609.36 2501.58 685.25 2589.21 685.25 2633.03 609.36 2589.21 533.47"/><polygon class="cls-3" points="3114.43 533.31 3026.8 533.31 2982.98 609.2 3026.8 685.09 3114.43 685.09 3158.25 609.2 3114.43 533.31"/><polygon class="cls-3" points="3376.85 533.31 3289.22 533.31 3245.4 609.2 3289.22 685.09 3376.85 685.09 3420.66 609.2 3376.85 533.31"/><polygon class="cls-3" points="2852.01 533.1 2764.38 533.1 2720.57 608.99 2764.38 684.88 2852.01 684.88 2895.83 608.99 2852.01 533.1"/><polygon class="cls-3" points="227.37 685.32 139.73 685.32 95.92 761.21 139.73 837.1 227.37 837.1 271.18 761.21 227.37 685.32"/><polygon class="cls-3" points="489.78 685.32 402.15 685.32 358.33 761.21 402.15 837.1 489.78 837.1 533.6 761.21 489.78 685.32"/><polygon class="cls-3" points="752.2 685.32 664.57 685.32 620.75 761.21 664.57 837.1 752.2 837.1 796.01 761.21 752.2 685.32"/><polygon class="cls-3" points="1014.62 685.53 926.98 685.53 883.17 761.42 926.98 837.31 1014.62 837.31 1058.43 761.42 1014.62 685.53"/><polygon class="cls-3" points="1277.03 685.53 1189.4 685.53 1145.59 761.42 1189.4 837.31 1277.03 837.31 1320.85 761.42 1277.03 685.53"/><polygon class="cls-3" points="1539.55 685.16 1451.91 685.16 1408.1 761.05 1451.91 836.94 1539.55 836.94 1583.36 761.05 1539.55 685.16"/><polygon class="cls-3" points="1801.96 685.16 1714.33 685.16 1670.51 761.05 1714.33 836.94 1801.96 836.94 1845.78 761.05 1801.96 685.16"/><polygon class="cls-3" points="2064.38 685.16 1976.75 685.16 1932.93 761.05 1976.75 836.94 2064.38 836.94 2108.2 761.05 2064.38 685.16"/><polygon class="cls-3" points="2326.8 685.37 2239.16 685.37 2195.35 761.26 2239.16 837.15 2326.8 837.15 2370.61 761.26 2326.8 685.37"/><polygon class="cls-3" points="2589.21 685.37 2501.58 685.37 2457.76 761.26 2501.58 837.15 2589.21 837.15 2633.03 761.26 2589.21 685.37"/><polygon class="cls-3" points="3114.43 685.21 3026.8 685.21 2982.98 761.1 3026.8 836.99 3114.43 836.99 3158.25 761.1 3114.43 685.21"/><polygon class="cls-3" points="3376.85 685.21 3289.22 685.21 3245.4 761.1 3289.22 836.99 3376.85 836.99 3420.66 761.1 3376.85 685.21"/><polygon class="cls-3" points="2852.01 685 2764.38 685 2720.57 760.89 2764.38 836.78 2852.01 836.78 2895.83 760.89 2852.01 685"/><polygon class="cls-3" points="227.37 837.22 139.73 837.22 95.92 913.11 139.73 989 227.37 989 271.18 913.11 227.37 837.22"/><polygon class="cls-3" points="489.78 837.22 402.15 837.22 358.33 913.11 402.15 989 489.78 989 533.6 913.11 489.78 837.22"/><polygon class="cls-3" points="752.2 837.22 664.57 837.22 620.75 913.11 664.57 989 752.2 989 796.01 913.11 752.2 837.22"/><polygon class="cls-3" points="1014.62 837.43 926.98 837.43 883.17 913.32 926.98 989.21 1014.62 989.21 1058.43 913.32 1014.62 837.43"/><polygon class="cls-3" points="1277.03 837.43 1189.4 837.43 1145.59 913.32 1189.4 989.21 1277.03 989.21 1320.85 913.32 1277.03 837.43"/><polygon class="cls-3" points="1539.55 837.06 1451.91 837.06 1408.1 912.95 1451.91 988.84 1539.55 988.84 1583.36 912.95 1539.55 837.06"/><polygon class="cls-3" points="1801.96 837.06 1714.33 837.06 1670.51 912.95 1714.33 988.84 1801.96 988.84 1845.78 912.95 1801.96 837.06"/><polygon class="cls-3" points="2064.38 837.06 1976.75 837.06 1932.93 912.95 1976.75 988.84 2064.38 988.84 2108.2 912.95 2064.38 837.06"/><polygon class="cls-3" points="2326.8 837.27 2239.16 837.27 2195.35 913.16 2239.16 989.05 2326.8 989.05 2370.61 913.16 2326.8 837.27"/><polygon class="cls-3" points="2589.21 837.27 2501.58 837.27 2457.76 913.16 2501.58 989.05 2589.21 989.05 2633.03 913.16 2589.21 837.27"/><polygon class="cls-3" points="3114.43 837.11 3026.8 837.11 2982.98 913 3026.8 988.89 3114.43 988.89 3158.25 913 3114.43 837.11"/><polygon class="cls-3" points="3376.85 837.11 3289.22 837.11 3245.4 913 3289.22 988.89 3376.85 988.89 3420.66 913 3376.85 837.11"/><polygon class="cls-3" points="2852.01 836.9 2764.38 836.9 2720.57 912.79 2764.38 988.68 2852.01 988.68 2895.83 912.79 2852.01 836.9"/><polygon class="cls-3" points="227.37 989.12 139.73 989.12 95.92 1065.01 139.73 1140.9 227.37 1140.9 271.18 1065.01 227.37 989.12"/><polygon class="cls-3" points="489.78 989.12 402.15 989.12 358.33 1065.01 402.15 1140.9 489.78 1140.9 533.6 1065.01 489.78 989.12"/><polygon class="cls-3" points="752.2 989.12 664.57 989.12 620.75 1065.01 664.57 1140.9 752.2 1140.9 796.01 1065.01 752.2 989.12"/><polygon class="cls-3" points="1014.62 989.33 926.98 989.33 883.17 1065.22 926.98 1141.11 1014.62 1141.11 1058.43 1065.22 1014.62 989.33"/><polygon class="cls-3" points="1277.03 989.33 1189.4 989.33 1145.59 1065.22 1189.4 1141.11 1277.03 1141.11 1320.85 1065.22 1277.03 989.33"/><polygon class="cls-3" points="1539.55 988.96 1451.91 988.96 1408.1 1064.85 1451.91 1140.74 1539.55 1140.74 1583.36 1064.85 1539.55 988.96"/><polygon class="cls-3" points="1801.96 988.96 1714.33 988.96 1670.51 1064.85 1714.33 1140.74 1801.96 1140.74 1845.78 1064.85 1801.96 988.96"/><polygon class="cls-3" points="2064.38 988.96 1976.75 988.96 1932.93 1064.85 1976.75 1140.74 2064.38 1140.74 2108.2 1064.85 2064.38 988.96"/><polygon class="cls-3" points="2326.8 989.17 2239.16 989.17 2195.35 1065.06 2239.16 1140.95 2326.8 1140.95 2370.61 1065.06 2326.8 989.17"/><polygon class="cls-3" points="2589.21 989.17 2501.58 989.17 2457.76 1065.06 2501.58 1140.95 2589.21 1140.95 2633.03 1065.06 2589.21 989.17"/><polygon class="cls-3" points="3114.43 989.01 3026.8 989.01 2982.98 1064.9 3026.8 1140.8 3114.43 1140.8 3158.25 1064.9 3114.43 989.01"/><polygon class="cls-3" points="3376.85 989.01 3289.22 989.01 3245.4 1064.9 3289.22 1140.8 3376.85 1140.8 3420.66 1064.9 3376.85 989.01"/><polygon class="cls-3" points="2852.01 988.8 2764.38 988.8 2720.57 1064.69 2764.38 1140.58 2852.01 1140.58 2895.83 1064.69 2852.01 988.8"/><polygon class="cls-3" points="227.37 1141.02 139.73 1141.02 95.92 1216.91 139.73 1292.8 227.37 1292.8 271.18 1216.91 227.37 1141.02"/><polygon class="cls-3" points="489.78 1141.02 402.15 1141.02 358.33 1216.91 402.15 1292.8 489.78 1292.8 533.6 1216.91 489.78 1141.02"/><polygon class="cls-3" points="752.2 1141.02 664.57 1141.02 620.75 1216.91 664.57 1292.8 752.2 1292.8 796.01 1216.91 752.2 1141.02"/><polygon class="cls-3" points="1014.62 1141.23 926.98 1141.23 883.17 1217.12 926.98 1293.02 1014.62 1293.02 1058.43 1217.12 1014.62 1141.23"/><polygon class="cls-3" points="1277.03 1141.23 1189.4 1141.23 1145.59 1217.12 1189.4 1293.02 1277.03 1293.02 1320.85 1217.12 1277.03 1141.23"/><polygon class="cls-3" points="1539.55 1140.86 1451.91 1140.86 1408.1 1216.75 1451.91 1292.64 1539.55 1292.64 1583.36 1216.75 1539.55 1140.86"/><polygon class="cls-3" points="1801.96 1140.86 1714.33 1140.86 1670.51 1216.75 1714.33 1292.64 1801.96 1292.64 1845.78 1216.75 1801.96 1140.86"/><polygon class="cls-3" points="2064.38 1140.86 1976.75 1140.86 1932.93 1216.75 1976.75 1292.64 2064.38 1292.64 2108.2 1216.75 2064.38 1140.86"/><polygon class="cls-3" points="2326.8 1141.07 2239.16 1141.07 2195.35 1216.96 2239.16 1292.86 2326.8 1292.86 2370.61 1216.96 2326.8 1141.07"/><polygon class="cls-3" points="2589.21 1141.07 2501.58 1141.07 2457.76 1216.96 2501.58 1292.86 2589.21 1292.86 2633.03 1216.96 2589.21 1141.07"/><polygon class="cls-3" points="3114.43 1140.91 3026.8 1140.91 2982.98 1216.81 3026.8 1292.7 3114.43 1292.7 3158.25 1216.81 3114.43 1140.91"/><polygon class="cls-3" points="3376.85 1140.91 3289.22 1140.91 3245.4 1216.81 3289.22 1292.7 3376.85 1292.7 3420.66 1216.81 3376.85 1140.91"/><polygon class="cls-3" points="2852.01 1140.7 2764.38 1140.7 2720.57 1216.59 2764.38 1292.48 2852.01 1292.48 2895.83 1216.59 2852.01 1140.7"/><polygon class="cls-3" points="227.37 1292.92 139.73 1292.92 95.92 1368.81 139.73 1444.7 227.37 1444.7 271.18 1368.81 227.37 1292.92"/><polygon class="cls-3" points="489.78 1292.92 402.15 1292.92 358.33 1368.81 402.15 1444.7 489.78 1444.7 533.6 1368.81 489.78 1292.92"/><polygon class="cls-3" points="752.2 1292.92 664.57 1292.92 620.75 1368.81 664.57 1444.7 752.2 1444.7 796.01 1368.81 752.2 1292.92"/><polygon class="cls-3" points="1014.62 1293.13 926.98 1293.13 883.17 1369.03 926.98 1444.92 1014.62 1444.92 1058.43 1369.03 1014.62 1293.13"/><polygon class="cls-3" points="1277.03 1293.13 1189.4 1293.13 1145.59 1369.03 1189.4 1444.92 1277.03 1444.92 1320.85 1369.03 1277.03 1293.13"/><polygon class="cls-3" points="1539.55 1292.76 1451.91 1292.76 1408.1 1368.65 1451.91 1444.55 1539.55 1444.55 1583.36 1368.65 1539.55 1292.76"/><polygon class="cls-3" points="1801.96 1292.76 1714.33 1292.76 1670.51 1368.65 1714.33 1444.55 1801.96 1444.55 1845.78 1368.65 1801.96 1292.76"/><polygon class="cls-3" points="2064.38 1292.76 1976.75 1292.76 1932.93 1368.65 1976.75 1444.55 2064.38 1444.55 2108.2 1368.65 2064.38 1292.76"/><polygon class="cls-3" points="2326.8 1292.97 2239.16 1292.97 2195.35 1368.87 2239.16 1444.76 2326.8 1444.76 2370.61 1368.87 2326.8 1292.97"/><polygon class="cls-3" points="2589.21 1292.97 2501.58 1292.97 2457.76 1368.87 2501.58 1444.76 2589.21 1444.76 2633.03 1368.87 2589.21 1292.97"/><polygon class="cls-3" points="3114.43 1292.82 3026.8 1292.82 2982.98 1368.71 3026.8 1444.6 3114.43 1444.6 3158.25 1368.71 3114.43 1292.82"/><polygon class="cls-3" points="3376.85 1292.82 3289.22 1292.82 3245.4 1368.71 3289.22 1444.6 3376.85 1444.6 3420.66 1368.71 3376.85 1292.82"/><polygon class="cls-3" points="2852.01 1292.6 2764.38 1292.6 2720.57 1368.49 2764.38 1444.39 2852.01 1444.39 2895.83 1368.49 2852.01 1292.6"/><polygon class="cls-3" points="227.37 1444.82 139.73 1444.82 95.92 1520.71 139.73 1596.61 227.37 1596.61 271.18 1520.71 227.37 1444.82"/><polygon class="cls-3" points="489.78 1444.82 402.15 1444.82 358.33 1520.71 402.15 1596.61 489.78 1596.61 533.6 1520.71 489.78 1444.82"/><polygon class="cls-3" points="752.2 1444.82 664.57 1444.82 620.75 1520.71 664.57 1596.61 752.2 1596.61 796.01 1520.71 752.2 1444.82"/><polygon class="cls-3" points="1014.62 1445.04 926.98 1445.04 883.17 1520.93 926.98 1596.82 1014.62 1596.82 1058.43 1520.93 1014.62 1445.04"/><polygon class="cls-3" points="1277.03 1445.04 1189.4 1445.04 1145.59 1520.93 1189.4 1596.82 1277.03 1596.82 1320.85 1520.93 1277.03 1445.04"/><polygon class="cls-3" points="1539.55 1444.66 1451.91 1444.66 1408.1 1520.56 1451.91 1596.45 1539.55 1596.45 1583.36 1520.56 1539.55 1444.66"/><polygon class="cls-3" points="1801.96 1444.66 1714.33 1444.66 1670.51 1520.56 1714.33 1596.45 1801.96 1596.45 1845.78 1520.56 1801.96 1444.66"/><polygon class="cls-3" points="2064.38 1444.66 1976.75 1444.66 1932.93 1520.56 1976.75 1596.45 2064.38 1596.45 2108.2 1520.56 2064.38 1444.66"/><polygon class="cls-3" points="2326.8 1444.88 2239.16 1444.88 2195.35 1520.77 2239.16 1596.66 2326.8 1596.66 2370.61 1520.77 2326.8 1444.88"/><polygon class="cls-3" points="2589.21 1444.88 2501.58 1444.88 2457.76 1520.77 2501.58 1596.66 2589.21 1596.66 2633.03 1520.77 2589.21 1444.88"/><polygon class="cls-3" points="3114.43 1444.72 3026.8 1444.72 2982.98 1520.61 3026.8 1596.5 3114.43 1596.5 3158.25 1520.61 3114.43 1444.72"/><polygon class="cls-3" points="3376.85 1444.72 3289.22 1444.72 3245.4 1520.61 3289.22 1596.5 3376.85 1596.5 3420.66 1520.61 3376.85 1444.72"/><polygon class="cls-3" points="2852.01 1444.51 2764.38 1444.51 2720.57 1520.4 2764.38 1596.29 2852.01 1596.29 2895.83 1520.4 2852.01 1444.51"/><polygon class="cls-3" points="227.37 1596.72 139.73 1596.72 95.92 1672.62 139.73 1748.51 227.37 1748.51 271.18 1672.62 227.37 1596.72"/><polygon class="cls-3" points="489.78 1596.72 402.15 1596.72 358.33 1672.62 402.15 1748.51 489.78 1748.51 533.6 1672.62 489.78 1596.72"/><polygon class="cls-3" points="752.2 1596.72 664.57 1596.72 620.75 1672.62 664.57 1748.51 752.2 1748.51 796.01 1672.62 752.2 1596.72"/><polygon class="cls-3" points="1014.62 1596.94 926.98 1596.94 883.17 1672.83 926.98 1748.72 1014.62 1748.72 1058.43 1672.83 1014.62 1596.94"/><polygon class="cls-3" points="1277.03 1596.94 1189.4 1596.94 1145.59 1672.83 1189.4 1748.72 1277.03 1748.72 1320.85 1672.83 1277.03 1596.94"/><polygon class="cls-3" points="1539.55 1596.57 1451.91 1596.57 1408.1 1672.46 1451.91 1748.35 1539.55 1748.35 1583.36 1672.46 1539.55 1596.57"/><polygon class="cls-3" points="1801.96 1596.57 1714.33 1596.57 1670.51 1672.46 1714.33 1748.35 1801.96 1748.35 1845.78 1672.46 1801.96 1596.57"/><polygon class="cls-3" points="2064.38 1596.57 1976.75 1596.57 1932.93 1672.46 1976.75 1748.35 2064.38 1748.35 2108.2 1672.46 2064.38 1596.57"/><polygon class="cls-3" points="2326.8 1596.78 2239.16 1596.78 2195.35 1672.67 2239.16 1748.56 2326.8 1748.56 2370.61 1672.67 2326.8 1596.78"/><polygon class="cls-3" points="2589.21 1596.78 2501.58 1596.78 2457.76 1672.67 2501.58 1748.56 2589.21 1748.56 2633.03 1672.67 2589.21 1596.78"/><polygon class="cls-3" points="3114.43 1596.62 3026.8 1596.62 2982.98 1672.51 3026.8 1748.4 3114.43 1748.4 3158.25 1672.51 3114.43 1596.62"/><polygon class="cls-3" points="3376.85 1596.62 3289.22 1596.62 3245.4 1672.51 3289.22 1748.4 3376.85 1748.4 3420.66 1672.51 3376.85 1596.62"/><polygon class="cls-3" points="2852.01 1596.41 2764.38 1596.41 2720.57 1672.3 2764.38 1748.19 2852.01 1748.19 2895.83 1672.3 2852.01 1596.41"/><polygon class="cls-3" points="227.37 1748.63 139.73 1748.63 95.92 1824.52 139.73 1900.41 227.37 1900.41 271.18 1824.52 227.37 1748.63"/><polygon class="cls-3" points="489.78 1748.63 402.15 1748.63 358.33 1824.52 402.15 1900.41 489.78 1900.41 533.6 1824.52 489.78 1748.63"/><polygon class="cls-3" points="752.2 1748.63 664.57 1748.63 620.75 1824.52 664.57 1900.41 752.2 1900.41 796.01 1824.52 752.2 1748.63"/><polygon class="cls-3" points="1014.62 1748.84 926.98 1748.84 883.17 1824.73 926.98 1900.62 1014.62 1900.62 1058.43 1824.73 1014.62 1748.84"/><polygon class="cls-3" points="1277.03 1748.84 1189.4 1748.84 1145.59 1824.73 1189.4 1900.62 1277.03 1900.62 1320.85 1824.73 1277.03 1748.84"/><polygon class="cls-3" points="1539.55 1748.47 1451.91 1748.47 1408.1 1824.36 1451.91 1900.25 1539.55 1900.25 1583.36 1824.36 1539.55 1748.47"/><polygon class="cls-3" points="1801.96 1748.47 1714.33 1748.47 1670.51 1824.36 1714.33 1900.25 1801.96 1900.25 1845.78 1824.36 1801.96 1748.47"/><polygon class="cls-3" points="2064.38 1748.47 1976.75 1748.47 1932.93 1824.36 1976.75 1900.25 2064.38 1900.25 2108.2 1824.36 2064.38 1748.47"/><polygon class="cls-3" points="2326.8 1748.68 2239.16 1748.68 2195.35 1824.57 2239.16 1900.46 2326.8 1900.46 2370.61 1824.57 2326.8 1748.68"/><polygon class="cls-3" points="2589.21 1748.68 2501.58 1748.68 2457.76 1824.57 2501.58 1900.46 2589.21 1900.46 2633.03 1824.57 2589.21 1748.68"/><polygon class="cls-3" points="3114.43 1748.52 3026.8 1748.52 2982.98 1824.41 3026.8 1900.3 3114.43 1900.3 3158.25 1824.41 3114.43 1748.52"/><polygon class="cls-3" points="3376.85 1748.52 3289.22 1748.52 3245.4 1824.41 3289.22 1900.3 3376.85 1900.3 3420.66 1824.41 3376.85 1748.52"/><polygon class="cls-3" points="2852.01 1748.31 2764.38 1748.31 2720.57 1824.2 2764.38 1900.09 2852.01 1900.09 2895.83 1824.2 2852.01 1748.31"/><polygon class="cls-3" points="227.37 1900.53 139.73 1900.53 94.84 1978.05 154.37 1978.05 242.01 1978.05 272.36 1978.05 227.37 1900.53"/><polygon class="cls-3" points="489.78 1900.53 402.15 1900.53 356.55 1978.05 407.64 1978.05 495.27 1978.05 535.9 1978.05 489.78 1900.53"/><polygon class="cls-3" points="752.2 1900.53 664.57 1900.53 618.26 1978.05 678.65 1978.05 739.05 1978.05 797.61 1978.05 752.2 1900.53"/><polygon class="cls-3" points="1014.62 1900.74 926.98 1900.74 881.8 1978.05 938.53 1978.05 1006.25 1978.05 1057.49 1978.05 1014.62 1900.74"/><polygon class="cls-3" points="1277.03 1900.74 1189.4 1900.74 1145.34 1978.05 1196.58 1978.05 1258.81 1978.05 1321.03 1978.05 1277.03 1900.74"/><polygon class="cls-3" points="1539.55 1900.37 1451.91 1900.37 1407.05 1978.05 1471.1 1978.05 1535.16 1978.05 1584.57 1978.05 1539.55 1900.37"/><polygon class="cls-3" points="1801.96 1900.37 1714.33 1900.37 1668.76 1978.05 1725.49 1978.05 1785.89 1978.05 1846.28 1978.05 1801.96 1900.37"/><polygon class="cls-3" points="2064.38 1900.37 1976.75 1900.37 1932.3 1978.05 1983.54 1978.05 2032.95 1978.05 2109.82 1978.05 2064.38 1900.37"/><polygon class="cls-3" points="2326.8 1900.58 2239.16 1900.58 2194.01 1978.05 2245.25 1978.05 2303.82 1978.05 2371.53 1978.05 2326.8 1900.58"/><polygon class="cls-3" points="2589.21 1900.58 2501.58 1900.58 2457.55 1978.05 2505.13 1978.05 2561.86 1978.05 2635.07 1978.05 2589.21 1900.58"/><polygon class="cls-3" points="3114.43 1900.42 3026.8 1900.42 2982.8 1978.05 3023.06 1978.05 3112.74 1978.05 3160.32 1978.05 3114.43 1900.42"/><polygon class="cls-3" points="3376.85 1900.42 3289.22 1900.42 3242.68 1978.05 3293.92 1978.05 3376.28 1978.05 3422.03 1978.05 3376.85 1900.42"/><polygon class="cls-3" points="2852.01 1900.21 2764.38 1900.21 2719.26 1978.05 2766.84 1978.05 2825.41 1978.05 2896.78 1978.05 2852.01 1900.21"/><polygon class="cls-3" points="1670.75 1.66 1583.12 1.66 1539.31 77.55 1583.12 153.44 1670.75 153.44 1714.57 77.55 1670.75 1.66"/><polygon class="cls-3" points="96.25 153.72 8.62 153.72 1.5 166.05 1.5 230.85 1.5 293.17 8.62 305.5 96.25 305.5 140.07 229.61 96.25 153.72"/><polygon class="cls-3" points="358.57 153.72 270.94 153.72 227.13 229.61 270.94 305.5 358.57 305.5 402.39 229.61 358.57 153.72"/><polygon class="cls-3" points="620.89 153.72 533.26 153.72 489.45 229.61 533.26 305.5 620.89 305.5 664.71 229.61 620.89 153.72"/><polygon class="cls-3" points="883.22 153.72 795.58 153.72 751.77 229.61 795.58 305.5 883.22 305.5 927.03 229.61 883.22 153.72"/><polygon class="cls-3" points="1145.82 153.93 1058.19 153.93 1014.38 229.82 1058.19 305.71 1145.82 305.71 1189.64 229.82 1145.82 153.93"/><polygon class="cls-3" points="1408.43 153.56 1320.8 153.56 1276.98 229.45 1320.8 305.34 1408.43 305.34 1452.25 229.45 1408.43 153.56"/><polygon class="cls-3" points="1933.07 153.56 1845.44 153.56 1801.63 229.45 1845.44 305.34 1933.07 305.34 1976.89 229.45 1933.07 153.56"/><polygon class="cls-3" points="2195.39 153.56 2107.76 153.56 2063.95 229.45 2107.76 305.34 2195.39 305.34 2239.21 229.45 2195.39 153.56"/><polygon class="cls-3" points="2458 153.77 2370.37 153.77 2326.56 229.66 2370.37 305.56 2458 305.56 2501.82 229.66 2458 153.77"/><polygon class="cls-3" points="2720.71 153.4 2633.08 153.4 2589.26 229.29 2633.08 305.18 2720.71 305.18 2764.53 229.29 2720.71 153.4"/><polygon class="cls-3" points="2983.03 153.4 2895.4 153.4 2851.58 229.29 2895.4 305.18 2983.03 305.18 3026.85 229.29 2983.03 153.4"/><polygon class="cls-3" points="3245.64 153.61 3158.01 153.61 3114.19 229.5 3158.01 305.4 3245.64 305.4 3289.45 229.5 3245.64 153.61"/><polygon class="cls-3" points="3508.25 153.51 3420.62 153.51 3376.8 229.4 3420.62 305.29 3508.25 305.29 3515.37 292.96 3515.37 228.65 3515.37 165.84 3508.25 153.51"/><polygon class="cls-3" points="3515.37 166.42 3515.37 140.59 3508.25 153.51 3515.37 166.42"/><polygon class="cls-3" points="1.5 166.05 8.62 153.72 1.5 140.59 1.5 166.05"/><polygon class="cls-3" points="1670.75 153.56 1583.12 153.56 1539.31 229.45 1583.12 305.34 1670.75 305.34 1714.57 229.45 1670.75 153.56"/><polygon class="cls-3" points="96.25 305.62 8.62 305.62 1.5 317.95 1.5 382.75 1.5 445.07 8.62 457.4 96.25 457.4 140.07 381.51 96.25 305.62"/><polygon class="cls-3" points="358.57 305.62 270.94 305.62 227.13 381.51 270.94 457.4 358.57 457.4 402.39 381.51 358.57 305.62"/><polygon class="cls-3" points="620.89 305.62 533.26 305.62 489.45 381.51 533.26 457.4 620.89 457.4 664.71 381.51 620.89 305.62"/><polygon class="cls-3" points="883.22 305.62 795.58 305.62 751.77 381.51 795.58 457.4 883.22 457.4 927.03 381.51 883.22 305.62"/><polygon class="cls-3" points="1145.82 305.83 1058.19 305.83 1014.38 381.72 1058.19 457.62 1145.82 457.62 1189.64 381.72 1145.82 305.83"/><polygon class="cls-3" points="1408.43 305.46 1320.8 305.46 1276.98 381.35 1320.8 457.25 1408.43 457.25 1452.25 381.35 1408.43 305.46"/><polygon class="cls-3" points="1933.07 305.46 1845.44 305.46 1801.63 381.35 1845.44 457.25 1933.07 457.25 1976.89 381.35 1933.07 305.46"/><polygon class="cls-3" points="2195.39 305.46 2107.76 305.46 2063.95 381.35 2107.76 457.25 2195.39 457.25 2239.21 381.35 2195.39 305.46"/><polygon class="cls-3" points="2458 305.67 2370.37 305.67 2326.56 381.56 2370.37 457.46 2458 457.46 2501.82 381.56 2458 305.67"/><polygon class="cls-3" points="2720.71 305.3 2633.08 305.3 2589.26 381.19 2633.08 457.09 2720.71 457.09 2764.53 381.19 2720.71 305.3"/><polygon class="cls-3" points="2983.03 305.3 2895.4 305.3 2851.58 381.19 2895.4 457.09 2983.03 457.09 3026.85 381.19 2983.03 305.3"/><polygon class="cls-3" points="3245.64 305.51 3158.01 305.51 3114.19 381.41 3158.01 457.3 3245.64 457.3 3289.45 381.41 3245.64 305.51"/><polygon class="cls-3" points="3508.25 305.41 3420.62 305.41 3376.8 381.3 3420.62 457.19 3508.25 457.19 3515.37 444.86 3515.37 380.55 3515.37 317.74 3508.25 305.41"/><polygon class="cls-3" points="3515.37 318.32 3515.37 292.49 3508.25 305.41 3515.37 318.32"/><polygon class="cls-3" points="1.5 317.95 8.62 305.62 1.5 292.49 1.5 317.95"/><polygon class="cls-3" points="1670.75 305.46 1583.12 305.46 1539.31 381.35 1583.12 457.25 1670.75 457.25 1714.57 381.35 1670.75 305.46"/><polygon class="cls-3" points="96.25 457.52 8.62 457.52 1.5 469.86 1.5 534.65 1.5 596.97 8.62 609.3 96.25 609.3 140.07 533.41 96.25 457.52"/><polygon class="cls-3" points="358.57 457.52 270.94 457.52 227.13 533.41 270.94 609.3 358.57 609.3 402.39 533.41 358.57 457.52"/><polygon class="cls-3" points="620.89 457.52 533.26 457.52 489.45 533.41 533.26 609.3 620.89 609.3 664.71 533.41 620.89 457.52"/><polygon class="cls-3" points="883.22 457.52 795.58 457.52 751.77 533.41 795.58 609.3 883.22 609.3 927.03 533.41 883.22 457.52"/><polygon class="cls-3" points="1145.82 457.73 1058.19 457.73 1014.38 533.63 1058.19 609.52 1145.82 609.52 1189.64 533.63 1145.82 457.73"/><polygon class="cls-3" points="1408.43 457.36 1320.8 457.36 1276.98 533.25 1320.8 609.15 1408.43 609.15 1452.25 533.25 1408.43 457.36"/><polygon class="cls-3" points="1933.07 457.36 1845.44 457.36 1801.63 533.25 1845.44 609.15 1933.07 609.15 1976.89 533.25 1933.07 457.36"/><polygon class="cls-3" points="2195.39 457.36 2107.76 457.36 2063.95 533.25 2107.76 609.15 2195.39 609.15 2239.21 533.25 2195.39 457.36"/><polygon class="cls-3" points="2458 457.57 2370.37 457.57 2326.56 533.47 2370.37 609.36 2458 609.36 2501.82 533.47 2458 457.57"/><polygon class="cls-3" points="2720.71 457.2 2633.08 457.2 2589.26 533.1 2633.08 608.99 2720.71 608.99 2764.53 533.1 2720.71 457.2"/><polygon class="cls-3" points="2983.03 457.2 2895.4 457.2 2851.58 533.1 2895.4 608.99 2983.03 608.99 3026.85 533.1 2983.03 457.2"/><polygon class="cls-3" points="3245.64 457.42 3158.01 457.42 3114.19 533.31 3158.01 609.2 3245.64 609.2 3289.45 533.31 3245.64 457.42"/><polygon class="cls-3" points="3508.25 457.31 3420.62 457.31 3376.8 533.2 3420.62 609.09 3508.25 609.09 3515.37 596.76 3515.37 532.46 3515.37 469.64 3508.25 457.31"/><polygon class="cls-3" points="3515.37 470.23 3515.37 444.39 3508.25 457.31 3515.37 470.23"/><polygon class="cls-3" points="1.5 469.86 8.62 457.52 1.5 444.39 1.5 469.86"/><polygon class="cls-3" points="1670.75 457.36 1583.12 457.36 1539.31 533.25 1583.12 609.15 1670.75 609.15 1714.57 533.25 1670.75 457.36"/><polygon class="cls-3" points="96.25 609.42 8.62 609.42 1.5 621.76 1.5 686.55 1.5 748.87 8.62 761.21 96.25 761.21 140.07 685.32 96.25 609.42"/><polygon class="cls-3" points="358.57 609.42 270.94 609.42 227.13 685.32 270.94 761.21 358.57 761.21 402.39 685.32 358.57 609.42"/><polygon class="cls-3" points="620.89 609.42 533.26 609.42 489.45 685.32 533.26 761.21 620.89 761.21 664.71 685.32 620.89 609.42"/><polygon class="cls-3" points="883.22 609.42 795.58 609.42 751.77 685.32 795.58 761.21 883.22 761.21 927.03 685.32 883.22 609.42"/><polygon class="cls-3" points="1145.82 609.64 1058.19 609.64 1014.38 685.53 1058.19 761.42 1145.82 761.42 1189.64 685.53 1145.82 609.64"/><polygon class="cls-3" points="1408.43 609.26 1320.8 609.26 1276.98 685.16 1320.8 761.05 1408.43 761.05 1452.25 685.16 1408.43 609.26"/><polygon class="cls-3" points="1933.07 609.26 1845.44 609.26 1801.63 685.16 1845.44 761.05 1933.07 761.05 1976.89 685.16 1933.07 609.26"/><polygon class="cls-3" points="2195.39 609.26 2107.76 609.26 2063.95 685.16 2107.76 761.05 2195.39 761.05 2239.21 685.16 2195.39 609.26"/><polygon class="cls-3" points="2458 609.48 2370.37 609.48 2326.56 685.37 2370.37 761.26 2458 761.26 2501.82 685.37 2458 609.48"/><polygon class="cls-3" points="2720.71 609.11 2633.08 609.11 2589.26 685 2633.08 760.89 2720.71 760.89 2764.53 685 2720.71 609.11"/><polygon class="cls-3" points="2983.03 609.11 2895.4 609.11 2851.58 685 2895.4 760.89 2983.03 760.89 3026.85 685 2983.03 609.11"/><polygon class="cls-3" points="3245.64 609.32 3158.01 609.32 3114.19 685.21 3158.01 761.1 3245.64 761.1 3289.45 685.21 3245.64 609.32"/><polygon class="cls-3" points="3508.25 609.21 3420.62 609.21 3376.8 685.1 3420.62 761 3508.25 761 3515.37 748.66 3515.37 684.36 3515.37 621.54 3508.25 609.21"/><polygon class="cls-3" points="3515.37 622.13 3515.37 596.29 3508.25 609.21 3515.37 622.13"/><polygon class="cls-3" points="1.5 621.76 8.62 609.42 1.5 596.29 1.5 621.76"/><polygon class="cls-3" points="1670.75 609.26 1583.12 609.26 1539.31 685.16 1583.12 761.05 1670.75 761.05 1714.57 685.16 1670.75 609.26"/><polygon class="cls-3" points="96.25 761.33 8.62 761.33 1.5 773.66 1.5 838.45 1.5 900.77 8.62 913.11 96.25 913.11 140.07 837.22 96.25 761.33"/><polygon class="cls-3" points="358.57 761.33 270.94 761.33 227.13 837.22 270.94 913.11 358.57 913.11 402.39 837.22 358.57 761.33"/><polygon class="cls-3" points="620.89 761.33 533.26 761.33 489.45 837.22 533.26 913.11 620.89 913.11 664.71 837.22 620.89 761.33"/><polygon class="cls-3" points="883.22 761.33 795.58 761.33 751.77 837.22 795.58 913.11 883.22 913.11 927.03 837.22 883.22 761.33"/><polygon class="cls-3" points="1145.82 761.54 1058.19 761.54 1014.38 837.43 1058.19 913.32 1145.82 913.32 1189.64 837.43 1145.82 761.54"/><polygon class="cls-3" points="1408.43 761.17 1320.8 761.17 1276.98 837.06 1320.8 912.95 1408.43 912.95 1452.25 837.06 1408.43 761.17"/><polygon class="cls-3" points="1933.07 761.17 1845.44 761.17 1801.63 837.06 1845.44 912.95 1933.07 912.95 1976.89 837.06 1933.07 761.17"/><polygon class="cls-3" points="2195.39 761.17 2107.76 761.17 2063.95 837.06 2107.76 912.95 2195.39 912.95 2239.21 837.06 2195.39 761.17"/><polygon class="cls-3" points="2458 761.38 2370.37 761.38 2326.56 837.27 2370.37 913.16 2458 913.16 2501.82 837.27 2458 761.38"/><polygon class="cls-3" points="2720.71 761.01 2633.08 761.01 2589.26 836.9 2633.08 912.79 2720.71 912.79 2764.53 836.9 2720.71 761.01"/><polygon class="cls-3" points="2983.03 761.01 2895.4 761.01 2851.58 836.9 2895.4 912.79 2983.03 912.79 3026.85 836.9 2983.03 761.01"/><polygon class="cls-3" points="3245.64 761.22 3158.01 761.22 3114.19 837.11 3158.01 913 3245.64 913 3289.45 837.11 3245.64 761.22"/><polygon class="cls-3" points="3508.25 761.11 3420.62 761.11 3376.8 837 3420.62 912.9 3508.25 912.9 3515.37 900.56 3515.37 836.26 3515.37 773.45 3508.25 761.11"/><polygon class="cls-3" points="3515.37 774.03 3515.37 748.2 3508.25 761.11 3515.37 774.03"/><polygon class="cls-3" points="1.5 773.66 8.62 761.33 1.5 748.2 1.5 773.66"/><polygon class="cls-3" points="1670.75 761.17 1583.12 761.17 1539.31 837.06 1583.12 912.95 1670.75 912.95 1714.57 837.06 1670.75 761.17"/><polygon class="cls-3" points="96.25 913.23 8.62 913.23 1.5 925.56 1.5 990.35 1.5 1052.68 8.62 1065.01 96.25 1065.01 140.07 989.12 96.25 913.23"/><polygon class="cls-3" points="358.57 913.23 270.94 913.23 227.13 989.12 270.94 1065.01 358.57 1065.01 402.39 989.12 358.57 913.23"/><polygon class="cls-3" points="620.89 913.23 533.26 913.23 489.45 989.12 533.26 1065.01 620.89 1065.01 664.71 989.12 620.89 913.23"/><polygon class="cls-3" points="883.22 913.23 795.58 913.23 751.77 989.12 795.58 1065.01 883.22 1065.01 927.03 989.12 883.22 913.23"/><polygon class="cls-3" points="1145.82 913.44 1058.19 913.44 1014.38 989.33 1058.19 1065.22 1145.82 1065.22 1189.64 989.33 1145.82 913.44"/><polygon class="cls-3" points="1408.43 913.07 1320.8 913.07 1276.98 988.96 1320.8 1064.85 1408.43 1064.85 1452.25 988.96 1408.43 913.07"/><polygon class="cls-3" points="1933.07 913.07 1845.44 913.07 1801.63 988.96 1845.44 1064.85 1933.07 1064.85 1976.89 988.96 1933.07 913.07"/><polygon class="cls-3" points="2195.39 913.07 2107.76 913.07 2063.95 988.96 2107.76 1064.85 2195.39 1064.85 2239.21 988.96 2195.39 913.07"/><polygon class="cls-3" points="2458 913.28 2370.37 913.28 2326.56 989.17 2370.37 1065.06 2458 1065.06 2501.82 989.17 2458 913.28"/><polygon class="cls-3" points="2720.71 912.91 2633.08 912.91 2589.26 988.8 2633.08 1064.69 2720.71 1064.69 2764.53 988.8 2720.71 912.91"/><polygon class="cls-3" points="2983.03 912.91 2895.4 912.91 2851.58 988.8 2895.4 1064.69 2983.03 1064.69 3026.85 988.8 2983.03 912.91"/><polygon class="cls-3" points="3245.64 913.12 3158.01 913.12 3114.19 989.01 3158.01 1064.9 3245.64 1064.9 3289.45 989.01 3245.64 913.12"/><polygon class="cls-3" points="3508.25 913.01 3420.62 913.01 3376.8 988.91 3420.62 1064.8 3508.25 1064.8 3515.37 1052.46 3515.37 988.16 3515.37 925.35 3508.25 913.01"/><polygon class="cls-3" points="3515.37 925.93 3515.37 900.1 3508.25 913.01 3515.37 925.93"/><polygon class="cls-3" points="1.5 925.56 8.62 913.23 1.5 900.1 1.5 925.56"/><polygon class="cls-3" points="1670.75 913.07 1583.12 913.07 1539.31 988.96 1583.12 1064.85 1670.75 1064.85 1714.57 988.96 1670.75 913.07"/><polygon class="cls-3" points="96.25 1065.13 8.62 1065.13 1.5 1077.46 1.5 1142.26 1.5 1204.58 8.62 1216.91 96.25 1216.91 140.07 1141.02 96.25 1065.13"/><polygon class="cls-3" points="358.57 1065.13 270.94 1065.13 227.13 1141.02 270.94 1216.91 358.57 1216.91 402.39 1141.02 358.57 1065.13"/><polygon class="cls-3" points="620.89 1065.13 533.26 1065.13 489.45 1141.02 533.26 1216.91 620.89 1216.91 664.71 1141.02 620.89 1065.13"/><polygon class="cls-3" points="883.22 1065.13 795.58 1065.13 751.77 1141.02 795.58 1216.91 883.22 1216.91 927.03 1141.02 883.22 1065.13"/><polygon class="cls-3" points="1145.82 1065.34 1058.19 1065.34 1014.38 1141.23 1058.19 1217.12 1145.82 1217.12 1189.64 1141.23 1145.82 1065.34"/><polygon class="cls-3" points="1408.43 1064.97 1320.8 1064.97 1276.98 1140.86 1320.8 1216.75 1408.43 1216.75 1452.25 1140.86 1408.43 1064.97"/><polygon class="cls-3" points="1933.07 1064.97 1845.44 1064.97 1801.63 1140.86 1845.44 1216.75 1933.07 1216.75 1976.89 1140.86 1933.07 1064.97"/><polygon class="cls-3" points="2195.39 1064.97 2107.76 1064.97 2063.95 1140.86 2107.76 1216.75 2195.39 1216.75 2239.21 1140.86 2195.39 1064.97"/><polygon class="cls-3" points="2458 1065.18 2370.37 1065.18 2326.56 1141.07 2370.37 1216.96 2458 1216.96 2501.82 1141.07 2458 1065.18"/><polygon class="cls-3" points="2720.71 1064.81 2633.08 1064.81 2589.26 1140.7 2633.08 1216.59 2720.71 1216.59 2764.53 1140.7 2720.71 1064.81"/><polygon class="cls-3" points="2983.03 1064.81 2895.4 1064.81 2851.58 1140.7 2895.4 1216.59 2983.03 1216.59 3026.85 1140.7 2983.03 1064.81"/><polygon class="cls-3" points="3245.64 1065.02 3158.01 1065.02 3114.19 1140.91 3158.01 1216.81 3245.64 1216.81 3289.45 1140.91 3245.64 1065.02"/><polygon class="cls-3" points="3508.25 1064.92 3420.62 1064.92 3376.8 1140.81 3420.62 1216.7 3508.25 1216.7 3515.37 1204.37 3515.37 1140.06 3515.37 1077.25 3508.25 1064.92"/><polygon class="cls-3" points="3515.37 1077.83 3515.37 1052 3508.25 1064.92 3515.37 1077.83"/><polygon class="cls-3" points="1.5 1077.46 8.62 1065.13 1.5 1052 1.5 1077.46"/><polygon class="cls-3" points="1670.75 1064.97 1583.12 1064.97 1539.31 1140.86 1583.12 1216.75 1670.75 1216.75 1714.57 1140.86 1670.75 1064.97"/><polygon class="cls-3" points="96.25 1217.03 8.62 1217.03 1.5 1229.36 1.5 1294.16 1.5 1356.48 8.62 1368.81 96.25 1368.81 140.07 1292.92 96.25 1217.03"/><polygon class="cls-3" points="358.57 1217.03 270.94 1217.03 227.13 1292.92 270.94 1368.81 358.57 1368.81 402.39 1292.92 358.57 1217.03"/><polygon class="cls-3" points="620.89 1217.03 533.26 1217.03 489.45 1292.92 533.26 1368.81 620.89 1368.81 664.71 1292.92 620.89 1217.03"/><polygon class="cls-3" points="883.22 1217.03 795.58 1217.03 751.77 1292.92 795.58 1368.81 883.22 1368.81 927.03 1292.92 883.22 1217.03"/><polygon class="cls-3" points="1145.82 1217.24 1058.19 1217.24 1014.38 1293.13 1058.19 1369.03 1145.82 1369.03 1189.64 1293.13 1145.82 1217.24"/><polygon class="cls-3" points="1408.43 1216.87 1320.8 1216.87 1276.98 1292.76 1320.8 1368.65 1408.43 1368.65 1452.25 1292.76 1408.43 1216.87"/><polygon class="cls-3" points="1933.07 1216.87 1845.44 1216.87 1801.63 1292.76 1845.44 1368.65 1933.07 1368.65 1976.89 1292.76 1933.07 1216.87"/><polygon class="cls-3" points="2195.39 1216.87 2107.76 1216.87 2063.95 1292.76 2107.76 1368.65 2195.39 1368.65 2239.21 1292.76 2195.39 1216.87"/><polygon class="cls-3" points="2458 1217.08 2370.37 1217.08 2326.56 1292.97 2370.37 1368.87 2458 1368.87 2501.82 1292.97 2458 1217.08"/><polygon class="cls-3" points="2720.71 1216.71 2633.08 1216.71 2589.26 1292.6 2633.08 1368.49 2720.71 1368.49 2764.53 1292.6 2720.71 1216.71"/><polygon class="cls-3" points="2983.03 1216.71 2895.4 1216.71 2851.58 1292.6 2895.4 1368.49 2983.03 1368.49 3026.85 1292.6 2983.03 1216.71"/><polygon class="cls-3" points="3245.64 1216.92 3158.01 1216.92 3114.19 1292.82 3158.01 1368.71 3245.64 1368.71 3289.45 1292.82 3245.64 1216.92"/><polygon class="cls-3" points="3508.25 1216.82 3420.62 1216.82 3376.8 1292.71 3420.62 1368.6 3508.25 1368.6 3515.37 1356.27 3515.37 1291.96 3515.37 1229.15 3508.25 1216.82"/><polygon class="cls-3" points="3515.37 1229.73 3515.37 1203.9 3508.25 1216.82 3515.37 1229.73"/><polygon class="cls-3" points="1.5 1229.36 8.62 1217.03 1.5 1203.9 1.5 1229.36"/><polygon class="cls-3" points="1670.75 1216.87 1583.12 1216.87 1539.31 1292.76 1583.12 1368.65 1670.75 1368.65 1714.57 1292.76 1670.75 1216.87"/><polygon class="cls-3" points="96.25 1368.93 8.62 1368.93 1.5 1381.27 1.5 1446.06 1.5 1508.38 8.62 1520.71 96.25 1520.71 140.07 1444.82 96.25 1368.93"/><polygon class="cls-3" points="358.57 1368.93 270.94 1368.93 227.13 1444.82 270.94 1520.71 358.57 1520.71 402.39 1444.82 358.57 1368.93"/><polygon class="cls-3" points="620.89 1368.93 533.26 1368.93 489.45 1444.82 533.26 1520.71 620.89 1520.71 664.71 1444.82 620.89 1368.93"/><polygon class="cls-3" points="883.22 1368.93 795.58 1368.93 751.77 1444.82 795.58 1520.71 883.22 1520.71 927.03 1444.82 883.22 1368.93"/><polygon class="cls-3" points="1145.82 1369.14 1058.19 1369.14 1014.38 1445.04 1058.19 1520.93 1145.82 1520.93 1189.64 1445.04 1145.82 1369.14"/><polygon class="cls-3" points="1408.43 1368.77 1320.8 1368.77 1276.98 1444.66 1320.8 1520.56 1408.43 1520.56 1452.25 1444.66 1408.43 1368.77"/><polygon class="cls-3" points="1933.07 1368.77 1845.44 1368.77 1801.63 1444.66 1845.44 1520.56 1933.07 1520.56 1976.89 1444.66 1933.07 1368.77"/><polygon class="cls-3" points="2195.39 1368.77 2107.76 1368.77 2063.95 1444.66 2107.76 1520.56 2195.39 1520.56 2239.21 1444.66 2195.39 1368.77"/><polygon class="cls-3" points="2458 1368.98 2370.37 1368.98 2326.56 1444.88 2370.37 1520.77 2458 1520.77 2501.82 1444.88 2458 1368.98"/><polygon class="cls-3" points="2720.71 1368.61 2633.08 1368.61 2589.26 1444.51 2633.08 1520.4 2720.71 1520.4 2764.53 1444.51 2720.71 1368.61"/><polygon class="cls-3" points="2983.03 1368.61 2895.4 1368.61 2851.58 1444.51 2895.4 1520.4 2983.03 1520.4 3026.85 1444.51 2983.03 1368.61"/><polygon class="cls-3" points="3245.64 1368.83 3158.01 1368.83 3114.19 1444.72 3158.01 1520.61 3245.64 1520.61 3289.45 1444.72 3245.64 1368.83"/><polygon class="cls-3" points="3508.25 1368.72 3420.62 1368.72 3376.8 1444.61 3420.62 1520.5 3508.25 1520.5 3515.37 1508.17 3515.37 1443.87 3515.37 1381.05 3508.25 1368.72"/><polygon class="cls-3" points="3515.37 1381.64 3515.37 1355.8 3508.25 1368.72 3515.37 1381.64"/><polygon class="cls-3" points="1.5 1381.27 8.62 1368.93 1.5 1355.8 1.5 1381.27"/><polygon class="cls-3" points="1670.75 1368.77 1583.12 1368.77 1539.31 1444.66 1583.12 1520.56 1670.75 1520.56 1714.57 1444.66 1670.75 1368.77"/><polygon class="cls-3" points="96.25 1520.83 8.62 1520.83 1.5 1533.17 1.5 1597.96 1.5 1660.28 8.62 1672.62 96.25 1672.62 140.07 1596.72 96.25 1520.83"/><polygon class="cls-3" points="358.57 1520.83 270.94 1520.83 227.13 1596.72 270.94 1672.62 358.57 1672.62 402.39 1596.72 358.57 1520.83"/><polygon class="cls-3" points="620.89 1520.83 533.26 1520.83 489.45 1596.72 533.26 1672.62 620.89 1672.62 664.71 1596.72 620.89 1520.83"/><polygon class="cls-3" points="883.22 1520.83 795.58 1520.83 751.77 1596.72 795.58 1672.62 883.22 1672.62 927.03 1596.72 883.22 1520.83"/><polygon class="cls-3" points="1145.82 1521.05 1058.19 1521.05 1014.38 1596.94 1058.19 1672.83 1145.82 1672.83 1189.64 1596.94 1145.82 1521.05"/><polygon class="cls-3" points="1408.43 1520.67 1320.8 1520.67 1276.98 1596.57 1320.8 1672.46 1408.43 1672.46 1452.25 1596.57 1408.43 1520.67"/><polygon class="cls-3" points="1933.07 1520.67 1845.44 1520.67 1801.63 1596.57 1845.44 1672.46 1933.07 1672.46 1976.89 1596.57 1933.07 1520.67"/><polygon class="cls-3" points="2195.39 1520.67 2107.76 1520.67 2063.95 1596.57 2107.76 1672.46 2195.39 1672.46 2239.21 1596.57 2195.39 1520.67"/><polygon class="cls-3" points="2458 1520.89 2370.37 1520.89 2326.56 1596.78 2370.37 1672.67 2458 1672.67 2501.82 1596.78 2458 1520.89"/><polygon class="cls-3" points="2720.71 1520.52 2633.08 1520.52 2589.26 1596.41 2633.08 1672.3 2720.71 1672.3 2764.53 1596.41 2720.71 1520.52"/><polygon class="cls-3" points="2983.03 1520.52 2895.4 1520.52 2851.58 1596.41 2895.4 1672.3 2983.03 1672.3 3026.85 1596.41 2983.03 1520.52"/><polygon class="cls-3" points="3245.64 1520.73 3158.01 1520.73 3114.19 1596.62 3158.01 1672.51 3245.64 1672.51 3289.45 1596.62 3245.64 1520.73"/><polygon class="cls-3" points="3508.25 1520.62 3420.62 1520.62 3376.8 1596.51 3420.62 1672.4 3508.25 1672.4 3515.37 1660.07 3515.37 1595.77 3515.37 1532.95 3508.25 1520.62"/><polygon class="cls-3" points="3515.37 1533.54 3515.37 1507.7 3508.25 1520.62 3515.37 1533.54"/><polygon class="cls-3" points="1.5 1533.17 8.62 1520.83 1.5 1507.7 1.5 1533.17"/><polygon class="cls-3" points="1670.75 1520.67 1583.12 1520.67 1539.31 1596.57 1583.12 1672.46 1670.75 1672.46 1714.57 1596.57 1670.75 1520.67"/><polygon class="cls-3" points="96.25 1672.73 8.62 1672.73 1.5 1685.07 1.5 1749.86 1.5 1812.18 8.62 1824.52 96.25 1824.52 140.07 1748.63 96.25 1672.73"/><polygon class="cls-3" points="358.57 1672.73 270.94 1672.73 227.13 1748.63 270.94 1824.52 358.57 1824.52 402.39 1748.63 358.57 1672.73"/><polygon class="cls-3" points="620.89 1672.73 533.26 1672.73 489.45 1748.63 533.26 1824.52 620.89 1824.52 664.71 1748.63 620.89 1672.73"/><polygon class="cls-3" points="883.22 1672.73 795.58 1672.73 751.77 1748.63 795.58 1824.52 883.22 1824.52 927.03 1748.63 883.22 1672.73"/><polygon class="cls-3" points="1145.82 1672.95 1058.19 1672.95 1014.38 1748.84 1058.19 1824.73 1145.82 1824.73 1189.64 1748.84 1145.82 1672.95"/><polygon class="cls-3" points="1408.43 1672.58 1320.8 1672.58 1276.98 1748.47 1320.8 1824.36 1408.43 1824.36 1452.25 1748.47 1408.43 1672.58"/><polygon class="cls-3" points="1933.07 1672.58 1845.44 1672.58 1801.63 1748.47 1845.44 1824.36 1933.07 1824.36 1976.89 1748.47 1933.07 1672.58"/><polygon class="cls-3" points="2195.39 1672.58 2107.76 1672.58 2063.95 1748.47 2107.76 1824.36 2195.39 1824.36 2239.21 1748.47 2195.39 1672.58"/><polygon class="cls-3" points="2458 1672.79 2370.37 1672.79 2326.56 1748.68 2370.37 1824.57 2458 1824.57 2501.82 1748.68 2458 1672.79"/><polygon class="cls-3" points="2720.71 1672.42 2633.08 1672.42 2589.26 1748.31 2633.08 1824.2 2720.71 1824.2 2764.53 1748.31 2720.71 1672.42"/><polygon class="cls-3" points="2983.03 1672.42 2895.4 1672.42 2851.58 1748.31 2895.4 1824.2 2983.03 1824.2 3026.85 1748.31 2983.03 1672.42"/><polygon class="cls-3" points="3245.64 1672.63 3158.01 1672.63 3114.19 1748.52 3158.01 1824.41 3245.64 1824.41 3289.45 1748.52 3245.64 1672.63"/><polygon class="cls-3" points="3508.25 1672.52 3420.62 1672.52 3376.8 1748.41 3420.62 1824.31 3508.25 1824.31 3515.37 1811.97 3515.37 1747.67 3515.37 1684.86 3508.25 1672.52"/><polygon class="cls-3" points="3515.37 1685.44 3515.37 1659.61 3508.25 1672.52 3515.37 1685.44"/><polygon class="cls-3" points="1.5 1685.07 8.62 1672.73 1.5 1659.61 1.5 1685.07"/><polygon class="cls-3" points="1670.75 1672.58 1583.12 1672.58 1539.31 1748.47 1583.12 1824.36 1670.75 1824.36 1714.57 1748.47 1670.75 1672.58"/><polygon class="cls-3" points="96.25 1824.64 8.62 1824.64 1.5 1836.97 1.5 1901.76 1.5 1964.09 10.65 1978.05 94.84 1978.05 140.07 1900.53 96.25 1824.64"/><polygon class="cls-3" points="358.57 1824.64 270.94 1824.64 227.13 1900.53 272.36 1978.05 356.55 1978.05 402.39 1900.53 358.57 1824.64"/><polygon class="cls-3" points="620.89 1824.64 533.26 1824.64 489.45 1900.53 535.9 1978.05 618.26 1978.05 664.71 1900.53 620.89 1824.64"/><polygon class="cls-3" points="883.22 1824.64 795.58 1824.64 751.77 1900.53 797.61 1978.05 881.8 1978.05 927.03 1900.53 883.22 1824.64"/><polygon class="cls-3" points="1145.82 1824.85 1058.19 1824.85 1014.38 1900.74 1057.49 1978.05 1145.34 1978.05 1189.64 1900.74 1145.82 1824.85"/><polygon class="cls-3" points="1408.43 1824.48 1320.8 1824.48 1276.98 1900.37 1321.03 1978.05 1407.05 1978.05 1452.25 1900.37 1408.43 1824.48"/><polygon class="cls-3" points="1933.07 1824.48 1845.44 1824.48 1801.63 1900.37 1846.28 1978.05 1932.3 1978.05 1976.89 1900.37 1933.07 1824.48"/><polygon class="cls-3" points="2195.39 1824.48 2107.76 1824.48 2063.95 1900.37 2109.82 1978.05 2194.01 1978.05 2239.21 1900.37 2195.39 1824.48"/><polygon class="cls-3" points="2458 1824.69 2370.37 1824.69 2326.56 1900.58 2371.53 1978.05 2457.55 1978.05 2501.82 1900.58 2458 1824.69"/><polygon class="cls-3" points="2720.71 1824.32 2633.08 1824.32 2589.26 1900.21 2635.07 1978.05 2719.26 1978.05 2764.53 1900.21 2720.71 1824.32"/><polygon class="cls-3" points="2983.03 1824.32 2895.4 1824.32 2851.58 1900.21 2896.78 1978.05 2982.8 1978.05 3026.85 1900.21 2983.03 1824.32"/><polygon class="cls-3" points="3245.64 1824.53 3158.01 1824.53 3114.19 1900.42 3160.32 1978.05 3242.68 1978.05 3289.45 1900.42 3245.64 1824.53"/><polygon class="cls-3" points="3508.25 1824.42 3420.62 1824.42 3376.8 1900.32 3422.03 1978.05 3506.22 1978.05 3515.37 1963.88 3515.37 1899.57 3515.37 1836.76 3508.25 1824.42"/><polygon class="cls-3" points="3515.37 1837.34 3515.37 1811.51 3508.25 1824.42 3515.37 1837.34"/><polygon class="cls-3" points="1.5 1836.97 8.62 1824.64 1.5 1811.51 1.5 1836.97"/><polygon class="cls-3" points="1670.75 1824.48 1583.12 1824.48 1539.31 1900.37 1584.57 1978.05 1668.76 1978.05 1714.57 1900.37 1670.75 1824.48"/><polygon class="cls-3" points="1.5 1978.05 10.65 1978.05 1.5 1963.41 1.5 1978.05"/><polygon class="cls-3" points="3515.37 1963.41 3515.72 1978.05 3506.22 1978.05 3515.37 1963.41"/></g><circle class="cls-4" cx="1807.72" cy="989.38" r="511"/><text class="cls-5" transform="translate(1323.72 1335.27)">FS</text></g></g></svg>