<svg xmlns="http://www.w3.org/2000/svg" xmlns:xlink="http://www.w3.org/1999/xlink" viewBox="0 0 1426.79 1076.58"><defs><style>.cls-1{font-size:700px;font-family:FugazOne-Regular, Fugaz One;}.cls-1,.cls-2,.cls-7{fill:none;}.cls-2,.cls-6,.cls-7{stroke:#000;stroke-miterlimit:10;}.cls-3{fill:#fff;}.cls-4{clip-path:url(#clip-path);}.cls-5{clip-path:url(#clip-path-2);}.cls-6{fill:#ffd360;stroke-width:3px;}.cls-7{stroke-width:2px;}</style><clipPath id="clip-path" transform="translate(299.52)"><text class="cls-1" transform="translate(28.97 793.87)">FS</text></clipPath><clipPath id="clip-path-2" transform="translate(299.52)"><circle class="cls-2" cx="462.97" cy="564.58" r="511"/></clipPath></defs><g id="Ebene_2" data-name="Ebene 2"><g id="Ebene_1-2" data-name="Ebene 1"><path class="cls-3" d="M736.67,163.14c5.83-3.07,10.45-5.14,14.71-7.79,18.65-11.62,26.69-33.25,20.46-54.57C766.36,82,744.55,65.56,725.12,65.55c-10.61,0-21.23-.25-31.83.11a23.23,23.23,0,0,1-14.1-4.23c-94.8-61.42-197-76-305.63-47.2-36.23,9.62-69.68,25.85-100.93,46.52-5.08,3.36-10,5.22-16.27,4.93a299.08,299.08,0,0,0-30.39,0,35.25,35.25,0,0,0-14.34,3.72c-15.52,8.34-24.1,21.7-25.39,39.27-1.68,23,5.41,41.83,27.2,53,.31.15.42.66.91,1.48h-5.07c-16.47,0-32.95.31-49.41-.1-13.54-.33-25.09,4.33-35.55,12.36a41.72,41.72,0,0,0-15.8,24.15c-5.5,23.71,5.28,45.48,27.71,56,2.33,1.09,4.69,2.1,7,3.14a160.8,160.8,0,0,1-23,.65c-10.91-.57-20.56,2.84-29.7,8.26-28.24,16.72-31.47,55.79-6.06,76.52,5.64,4.6,12.46,7.75,19.09,11.79-2.81,0-5.58.17-8.33,0-11.76-.86-22.2,3-31.81,9.22-11,7.12-18.35,16.89-20.49,30.08-3.8,23.4,7,43.38,28.76,53.39,2.17,1,4.36,2,7.58,3.4-29.18,2.19-48.47,16.28-53,38a48.43,48.43,0,0,0,3.47,31.09c6.48,13.75,18,21.63,31.92,27a19.38,19.38,0,0,1-4.08,1c-18.51,3.41-38.44,16.58-42.35,38.36-4.17,23.24,7,44.25,29.08,54.08,2.2,1,4.41,1.92,7.31,3.18-26.39,7.1-41.49,21.11-43.81,41C4.5,714.41,19.07,731.64,45.93,741.4c-11.46,3.24-21.18,7.47-29.13,15-8.15,7.78-12.9,17.21-13.58,28.45-1.71,27.9,13.26,44,38.27,52.75-.44.48-.53.65-.65.69-1.35.45-2.72.84-4.06,1.31-16.1,5.64-29.53,14.57-34.56,31.82-8.38,28.68,7.47,56.28,39.29,67.07a12.31,12.31,0,0,0,3.76.31c143,1.54,286,4.27,428.94,4.27,143.77,0,287.54-2.72,431.31-4.32a15.86,15.86,0,0,0,7.3-1.6c6.86-3.86,14-7.47,20.09-12.39,23.93-19.43,28.55-66.3-14-83.35-3.15-1.26-6.39-2.32-10.18-3.69,22.58-7.9,37.93-21.46,38.75-46.24,1-28.84-17.11-42.59-42.93-50.33,24.44-8.64,39.21-24.05,38.13-50.21-1.12-27.22-19.37-39.63-43.94-46.39,24.79-9.32,39.36-25.67,36.87-52.34-2.63-28.13-22.51-39.38-47.87-44.35,25.18-9.5,39.79-26.84,35.81-54.37-4.08-28.24-24.81-38.86-51.2-42.06,2.1-.87,3.84-1.55,5.54-2.32,11.31-5.09,20.93-12.36,26-23.93,16.58-38.14-11.47-66.42-42.16-69.2-4.74-.43-9.56-.06-14.34-.06,2.22-2,4.57-2.88,6.82-4,18.38-9,28.88-23.18,29.07-44.13s-10.63-34.29-28.51-43.33c-9.72-4.92-20-5.47-30.5-5.14-5.85.18-11.71,0-17.57,0,3.11-2.28,6.35-3.55,9.37-5.21,17.1-9.42,26.4-23.62,26.33-43.48-.1-24.36-21.13-46.43-45.62-47.4-11.38-.45-22.8-.15-34.2-.18Z" transform="translate(299.52)"/><path d="M736.67,163.14h25.85c11.4,0,22.82-.27,34.2.18,24.49,1,45.52,23,45.62,47.4.07,19.86-9.23,34.06-26.33,43.48-3,1.66-6.26,2.93-9.37,5.21,5.86,0,11.72.15,17.57,0,10.53-.33,20.78.22,30.5,5.14,17.88,9,28.7,22.53,28.51,43.33S872.53,343,854.15,352c-2.25,1.1-4.6,2-6.82,4,4.78,0,9.6-.37,14.34.06,30.69,2.78,58.74,31.06,42.16,69.2-5,11.57-14.65,18.84-26,23.93-1.7.77-3.44,1.45-5.54,2.32,26.39,3.2,47.12,13.82,51.2,42.06,4,27.53-10.63,44.87-35.81,54.37,25.36,5,45.24,16.22,47.87,44.35,2.49,26.67-12.08,43-36.87,52.34,24.57,6.76,42.82,19.17,43.94,46.39,1.08,26.16-13.69,41.57-38.13,50.21,25.82,7.74,43.89,21.49,42.93,50.33-.82,24.78-16.17,38.34-38.75,46.24,3.79,1.37,7,2.43,10.18,3.69,42.57,17,38,63.92,14,83.35-6.06,4.92-13.23,8.53-20.09,12.39a15.86,15.86,0,0,1-7.3,1.6c-143.77,1.6-287.54,4.32-431.31,4.32-143,0-286-2.73-428.94-4.27a12.31,12.31,0,0,1-3.76-.31C9.69,927.74-6.16,900.14,2.22,871.46c5-17.25,18.46-26.18,34.56-31.82,1.34-.47,2.71-.86,4.06-1.31.12,0,.21-.21.65-.69-25-8.75-40-24.85-38.27-52.75.68-11.24,5.43-20.67,13.58-28.45,8-7.57,17.67-11.8,29.13-15-26.86-9.76-41.43-27-38.08-55.71,2.32-19.92,17.42-33.93,43.81-41-2.9-1.26-5.11-2.2-7.31-3.18-22.08-9.83-33.25-30.84-29.08-54.08,3.91-21.78,23.84-34.95,42.35-38.36a19.38,19.38,0,0,0,4.08-1c-13.87-5.34-25.44-13.22-31.92-27A48.43,48.43,0,0,1,26.31,490c4.49-21.77,23.78-35.86,53-38-3.22-1.44-5.41-2.4-7.58-3.4-21.77-10-32.56-30-28.76-53.39,2.14-13.19,9.53-23,20.49-30.08,9.61-6.23,20-10.08,31.81-9.22,2.75.2,5.52,0,8.33,0-6.63-4-13.45-7.19-19.09-11.79-25.41-20.73-22.18-59.8,6.06-76.52,9.14-5.42,18.79-8.83,29.7-8.26a160.8,160.8,0,0,0,23-.65c-2.34-1-4.7-2.05-7-3.14-22.43-10.52-33.21-32.29-27.71-56a41.72,41.72,0,0,1,15.8-24.15c10.46-8,22-12.69,35.55-12.36,16.46.41,32.94.1,49.41.1h5.07c-.49-.82-.6-1.33-.91-1.48-21.79-11.12-28.88-29.9-27.2-52.95,1.29-17.57,9.87-30.93,25.39-39.27A35.25,35.25,0,0,1,226,65.72a299.08,299.08,0,0,1,30.39,0c6.23.29,11.19-1.57,16.27-4.93,31.25-20.67,64.7-36.9,100.93-46.52C482.23-14.6,584.39,0,679.19,61.43a23.23,23.23,0,0,0,14.1,4.23c10.6-.36,21.22-.11,31.83-.11,19.43,0,41.24,16.45,46.72,35.23,6.23,21.32-1.81,42.95-20.46,54.57C747.12,158,742.5,160.07,736.67,163.14ZM425.5,646.91v.53c-28.82.48-57.63.81-86.44,1.5-46.84,1.12-93.69,2.23-140.53,3.78-52,1.73-104.07,4-156.12,5.85a9,9,0,0,0-7.59,3.86c-11,14.78-12.63,31-7.36,48.2a6.66,6.66,0,0,0,4.29,3.72c7.57,1.63,15.19,3.52,22.87,4,26.52,1.59,53.06,2.79,79.61,3.85Q188,724.33,241.87,726q35.1,1.15,70.21,1.88c35.28.74,70.56,1.87,105.84,1.8,53.33-.11,106.65-1,160-1.78,28-.4,56-1.1,84-1.76q59.77-1.41,119.57-3c11.7-.29,23.41-.56,35.11-1.09,24.8-1.11,49.58-2.57,74.38-3.48a80.54,80.54,0,0,0,28.57-6.22,7.4,7.4,0,0,0,4-4.12c4.26-16.49,2.36-32.08-8.14-45.93a10.26,10.26,0,0,0-6.58-3.58c-11.19-.9-22.42-1.4-33.65-1.86-47.29-1.89-94.58-4-141.88-5.5-34.81-1.13-69.64-1.75-104.47-2.22C561,648.31,493.26,647.67,425.5,646.91Zm-8.79-95.42c0-.21,0-.41,0-.62q-42.74,1-85.47,1.94c-53.18,1.32-106.36,2.44-159.52,4.12-40.35,1.28-80.67,3.38-121,4.88-4.32.16-7.1,1.66-9.46,5-10.22,14.56-11.82,30.37-6.68,47A7.29,7.29,0,0,0,39,618c7.52,1.77,15.11,3.81,22.76,4.27,24,1.41,48,2.17,72,3.13,10.74.43,21.5.65,32.25,1.09,27.81,1.13,55.62,2.45,83.44,3.44,16.92.6,33.85.74,50.78,1,38.92.7,77.84,2,116.77,1.91,56.66-.06,113.31-1,170-1.7,24.21-.27,48.43-.57,72.63-1.08,21.2-.44,42.39-1.14,63.58-1.8q28.92-.9,57.85-2c35.4-1.28,70.8-2.43,106.19-4,7.83-.36,15.65-2.08,23.35-3.73,2.07-.45,4.73-2.61,5.35-4.54,5.64-17.58,3.51-34.09-8.2-48.76a9.66,9.66,0,0,0-6.32-3.25c-37.32-1.8-74.64-3.53-112-4.94Q732.31,555,675.1,553.49c-33.24-.88-66.48-1.72-99.73-1.92C522.49,551.26,469.6,551.49,416.71,551.49Zm75.56-95.94,0-1.58c-77.88,1.35-155.77,2.5-233.64,4.12-38.62.81-77.22,2.38-115.82,3.8q-41.28,1.5-82.53,3.67a11.12,11.12,0,0,0-7.39,3.94c-11.6,15.4-13.12,32.36-7,50.36,1.27,3.71,3.95,4.54,7.32,4.74,26.84,1.55,53.66,3.45,80.51,4.64,36.18,1.59,72.38,2.71,108.57,3.93,21.34.72,42.69,1.41,64,1.83,38.92.77,77.85,1.92,116.76,1.8,48.11-.14,96.21,1.23,144.33-1.42,34.58-1.9,69.28-1.42,103.92-2.17,20.4-.44,40.79-1.18,61.18-1.84q27-.87,54-1.86c27-1,54.06-1.87,81.08-3.06,10.25-.46,20.47-1.69,30.71-2.48,3.13-.24,4.84-1.85,5.76-4.74,5.69-17.88,4-34.72-7.48-49.94a10.72,10.72,0,0,0-7-3.78c-19.9-1.31-39.81-2.43-59.73-3.24q-42.95-1.74-85.91-3c-49.22-1.37-98.43-2.84-147.66-3.65C561.63,455.1,527,455.55,492.27,455.55Zm-16.63-96.88v-.8c-49.24.73-98.47,1.38-147.71,2.23-37.36.64-74.72,1.24-112.07,2.43-45.72,1.45-91.42,3.54-137.14,5.23a10,10,0,0,0-8.16,3.83c-12,14.78-14.06,31.41-9.07,49.24,2.2,7.84,3,8.27,11.26,8.76,21.46,1.28,42.92,2.78,64.4,3.67,36.5,1.5,73,2.67,109.54,3.85,22.45.73,44.91,1.4,67.37,1.81,41.77.76,83.55,1.9,125.32,1.82C504,440.62,568.53,439.6,633.1,439c.8,0,1.59-.05,2.38-.08q51.21-1.81,102.42-3.59c7.75-.26,15.53.19,23.28-.15,24.8-1.07,49.59-2.39,74.38-3.56,15.33-.73,30.66-1.27,46-2.2a7.92,7.92,0,0,0,5.61-3.28c8.86-16,4.75-43.29-8.28-55.82A9.16,9.16,0,0,0,873.5,368c-13.11-.76-26.24-1.33-39.37-1.84-32.58-1.27-65.16-2.74-97.76-3.64-53.49-1.47-107-2.84-160.5-3.71C542.47,358.22,509.05,358.67,475.64,358.67ZM731.55,822.22c27.31-1.61,45.61-3,63.93-3.71,30.51-1.25,61-2.12,91.54-3.13,13.07-.43,25.92-1.92,37.59-8.43,1.71-1,3.61-2.88,4-4.67,3.76-16,.75-30.79-9.47-43.81a8.76,8.76,0,0,0-5.49-3c-6.29-.6-12.64-.61-19-.87C843.48,752.45,792.25,750,741,748.26c-50-1.67-100-3.31-150-3.62q-119.93-.74-239.87.44c-51.28.49-102.56,2.43-153.83,3.94-39.4,1.17-78.79,2.64-118.18,4.07-13.13.47-26.24,1.39-39.37,1.8a12.77,12.77,0,0,0-11.54,6.73c-8.45,14-9.82,28.83-5.31,44.3a6.22,6.22,0,0,0,3.64,3.78c7.51,1.84,15.06,4,22.72,4.63,17.64,1.42,35.35,2.13,53,2.87,26.71,1.12,53.43,2,80.15,3,17.86.65,35.72,1.32,53.58,1.82,26.57.75,53.13,1.54,79.71,2,19,.31,38-.4,57,.23,12.11.39,19.5-4.68,24.8-15.19,9.73-19.27,25.51-31.56,46.3-37.18,16.47-4.45,33.26-3.47,50-2,27.13,2.35,46.67,16.4,58.33,40.49,4.83,10,11.38,14,21.81,13.75,31-.7,62-1.43,93-1.8C691.46,822,716,822.22,731.55,822.22ZM790.73,337v-.66c10.91,0,21.83.25,32.73-.07,11.06-.32,22.12-1.06,33.14-2a7.43,7.43,0,0,0,5-3.35c9.13-16.7,6.12-42.13-6.75-56.09a13,13,0,0,0-8-4c-37.15-1.75-74.31-3.47-111.49-4.6-48.26-1.47-96.53-3.15-144.81-3.43q-119.21-.69-238.43.42c-54.29.54-108.56,2.56-162.84,4.14-28.32.83-56.62,2.21-84.94,3.16a11.41,11.41,0,0,0-9.2,4.89c-12.34,15.89-14,33.32-7.81,52,1.42,4.33,4.11,5.9,8.38,6.14,27.62,1.52,55.22,3.35,82.85,4.65,21.17,1,42.37,1.37,63.56,2,20.87.63,41.73,1.37,62.6,1.82,35.91.77,71.82,2,107.73,1.86,51.74-.16,103.47,1,155.24-1.4,43.76-2.06,87.63-1.55,131.46-2.18,4.43-.06,8.86,0,13.29-.19Q751.63,338.64,790.73,337ZM475.36,166.56V166c-9.82,0-19.63-.13-29.45,0-66.8,1.05-133.61,2-200.41,3.33-33.39.68-66.76,2.16-100.13,3.55a14,14,0,0,0-8.29,3.56c-15.76,14.85-17.91,41.73-7.68,60.24a7,7,0,0,0,4.91,2.87c10.08.79,20.19,1.34,30.3,1.74q39.58,1.56,79.19,2.91c22,.73,43.95,1.43,65.93,1.88,36.54.75,73.09,1.86,109.64,1.77,48.9-.13,97.8,1.18,146.71-1.46,33-1.77,66.11-1.31,99.17-2.06,37.48-.85,75-1.92,112.43-2.91,12-.32,24.05-.55,36.05-1.19,2.13-.12,5.12-1.55,6.07-3.28,8.79-15.88,10.5-44.05-7.57-60.6a13.84,13.84,0,0,0-7.84-3.51c-24-1.3-48.06-2.58-72.1-3.24-45.11-1.24-90.22-2.4-135.34-2.94C556.43,166.18,515.89,166.56,475.36,166.56Zm202.69-17.2,0-.9c22.28-.72,44.58-1.34,66.85-2.33,2.16-.1,5-2.08,6.18-4,6.55-10.28,8.48-21.81,7-33.72-1.69-13.62-7.58-25.11-19.38-32.84a13.41,13.41,0,0,0-6.55-2.15Q703,72.32,673.8,71.62c-30.23-.71-60.45-1.53-90.68-1.83-38.63-.38-77.27-.78-115.89-.32-81,1-162.06,2.58-243.09,3.62a25.7,25.7,0,0,0-18.56,7.78c-16.83,16.22-17.12,44.09-5.32,62.24a6.19,6.19,0,0,0,4.25,2.32c15.46,1,30.92,2.1,46.4,2.67,17.23.63,34.48.77,51.72,1.09,37.17.68,74.34,2,111.51,1.85,52.21-.25,104.41,1.19,156.65-1.35C606.46,148,642.29,149.36,678.05,149.36Zm58.2,773.36v0c31.35,0,62.7.11,94,0,21.84-.11,43.68-.35,65.5-1a110.91,110.91,0,0,0,20.62-2.94c3.19-.7,7-2.38,8.85-4.85,12.06-15.83,10.15-46.09-3.61-60.64a10.17,10.17,0,0,0-6.06-2.89c-10.72-.82-21.46-1.32-32.19-1.81q-43.36-2-86.72-3.85c-17.53-.73-35.07-1.45-52.61-1.88q-50.77-1.24-101.55-2.12c-23.1-.42-46.2-.67-69.3-.88-6.51-.06-8.89,2.66-8.34,8.59,1.56,16.69,3.19,33.37,4.52,50.08,1.44,18.1,7.73,24.15,25.78,24.15ZM266.7,919.06v.18c8.23,0,16.46-.08,24.69,0,22.12.25,44.25,1,66.36.72,12.81-.15,20.58-8.52,21.69-21.3q2-23.4,4-46.8c.87-9.91-1-12.07-11.08-12-17.09.16-34.18.4-51.26.85q-69.72,1.86-139.44,4c-17.22.51-34.44,1.24-51.67,1.82-30,1-60.07,2.12-90.12,2.8-5.69.13-9.6,2-12.86,6.39-10.54,14.17-11.17,29.82-6.82,46.12a6.09,6.09,0,0,0,3.9,3.54c10,2.2,20,5,30.19,5.8,21.75,1.62,43.59,2.1,65.39,3,22.91,1,45.81,2.07,68.73,2.82C214.52,917.86,240.61,918.39,266.7,919.06ZM281.41,60.77c.24.52.49,1,.74,1.55q193.31,5,386.87,0c-.42-.66-.53-1-.75-1.14-.91-.64-1.84-1.23-2.78-1.82-40.29-24.93-84.4-38.47-131.2-43.88a514.82,514.82,0,0,0-97.11-2.21c-42.54,3.12-83.51,12.16-122.24,30.27C303.56,48.83,292.57,55,281.41,60.77Z" transform="translate(299.52)"/><path class="cls-3" d="M425.5,646.91c67.76.76,135.52,1.4,203.28,2.31,34.83.47,69.66,1.09,104.47,2.22,47.3,1.54,94.59,3.61,141.88,5.5,11.23.46,22.46,1,33.65,1.86a10.26,10.26,0,0,1,6.58,3.58c10.5,13.85,12.4,29.44,8.14,45.93a7.4,7.4,0,0,1-4,4.12A80.54,80.54,0,0,1,891,718.65c-24.8.91-49.58,2.37-74.38,3.48-11.7.53-23.41.8-35.11,1.09q-59.79,1.51-119.57,3c-28,.66-56,1.36-84,1.76-53.33.75-106.65,1.67-160,1.78-35.28.07-70.56-1.06-105.84-1.8q-35.1-.74-70.21-1.88-53.82-1.77-107.65-3.86c-26.55-1.06-53.09-2.26-79.61-3.85-7.68-.46-15.3-2.35-22.87-4a6.66,6.66,0,0,1-4.29-3.72c-5.27-17.19-3.63-33.42,7.36-48.2a9,9,0,0,1,7.59-3.86c52.05-1.89,104.08-4.12,156.12-5.85,46.84-1.55,93.69-2.66,140.53-3.78,28.81-.69,57.62-1,86.44-1.5Z" transform="translate(299.52)"/><path class="cls-3" d="M416.71,551.49c52.89,0,105.78-.23,158.66.08,33.25.2,66.49,1,99.73,1.92q57.2,1.51,114.39,3.65c37.33,1.41,74.65,3.14,112,4.94a9.66,9.66,0,0,1,6.32,3.25c11.71,14.67,13.84,31.18,8.2,48.76-.62,1.93-3.28,4.09-5.35,4.54-7.7,1.65-15.52,3.37-23.35,3.73-35.39,1.59-70.79,2.74-106.19,4q-28.92,1-57.85,2c-21.19.66-42.38,1.36-63.58,1.8-24.2.51-48.42.81-72.63,1.08-56.66.65-113.31,1.64-170,1.7-38.93.05-77.85-1.21-116.77-1.91-16.93-.31-33.86-.45-50.78-1-27.82-1-55.63-2.31-83.44-3.44-10.75-.44-21.51-.66-32.25-1.09-24-1-48-1.72-72-3.13-7.65-.46-15.24-2.5-22.76-4.27a7.29,7.29,0,0,1-4.46-4.18c-5.14-16.66-3.54-32.47,6.68-47,2.36-3.35,5.14-4.85,9.46-5,40.34-1.5,80.66-3.6,121-4.88,53.16-1.68,106.34-2.8,159.52-4.12q42.74-1,85.47-1.94C416.7,551.08,416.7,551.28,416.71,551.49Z" transform="translate(299.52)"/><path class="cls-3" d="M492.27,455.55c34.68,0,69.36-.45,104,.11,49.23.81,98.44,2.28,147.66,3.65q43,1.19,85.91,3c19.92.81,39.83,1.93,59.73,3.24a10.72,10.72,0,0,1,7,3.78c11.46,15.22,13.17,32.06,7.48,49.94-.92,2.89-2.63,4.5-5.76,4.74-10.24.79-20.46,2-30.71,2.48-27,1.19-54,2.08-81.08,3.06q-27,1-54,1.86c-20.39.66-40.78,1.4-61.18,1.84-34.64.75-69.34.27-103.92,2.17-48.12,2.65-96.22,1.28-144.33,1.42-38.91.12-77.84-1-116.76-1.8-21.34-.42-42.69-1.11-64-1.83-36.19-1.22-72.39-2.34-108.57-3.93-26.85-1.19-53.67-3.09-80.51-4.64-3.37-.2-6.05-1-7.32-4.74-6.13-18-4.61-35,7-50.36a11.12,11.12,0,0,1,7.39-3.94q41.25-2.16,82.53-3.67c38.6-1.42,77.2-3,115.82-3.8,77.87-1.62,155.76-2.77,233.64-4.12Z" transform="translate(299.52)"/><path class="cls-3" d="M475.64,358.67c33.41,0,66.83-.45,100.23.1,53.51.87,107,2.24,160.5,3.71,32.6.9,65.18,2.37,97.76,3.64,13.13.51,26.26,1.08,39.37,1.84a9.16,9.16,0,0,1,5.37,2.33c13,12.53,17.14,39.86,8.28,55.82a7.92,7.92,0,0,1-5.61,3.28c-15.32.93-30.65,1.47-46,2.2-24.79,1.17-49.58,2.49-74.38,3.56-7.75.34-15.53-.11-23.28.15q-51.21,1.69-102.42,3.59c-.79,0-1.58.07-2.38.08-64.57.63-129.15,1.65-193.73,1.77-41.77.08-83.55-1.06-125.32-1.82-22.46-.41-44.92-1.08-67.37-1.81-36.52-1.18-73-2.35-109.54-3.85-21.48-.89-42.94-2.39-64.4-3.67-8.22-.49-9.06-.92-11.26-8.76-5-17.83-2.91-34.46,9.07-49.24a10,10,0,0,1,8.16-3.83c45.72-1.69,91.42-3.78,137.14-5.23,37.35-1.19,74.71-1.79,112.07-2.43,49.24-.85,98.47-1.5,147.71-2.23Z" transform="translate(299.52)"/><path class="cls-3" d="M731.55,822.22c-15.57,0-40.09-.23-64.61.06-31,.37-62,1.1-93,1.8-10.43.24-17-3.76-21.81-13.75-11.66-24.09-31.2-38.14-58.33-40.49-16.74-1.46-33.53-2.44-50,2-20.79,5.62-36.57,17.91-46.3,37.18-5.3,10.51-12.69,15.58-24.8,15.19-19-.63-38,.08-57-.23-26.58-.43-53.14-1.22-79.71-2-17.86-.5-35.72-1.17-53.58-1.82-26.72-1-53.44-1.88-80.15-3-17.69-.74-35.4-1.45-53-2.87-7.66-.61-15.21-2.79-22.72-4.63a6.22,6.22,0,0,1-3.64-3.78c-4.51-15.47-3.14-30.29,5.31-44.3a12.77,12.77,0,0,1,11.54-6.73c13.13-.41,26.24-1.33,39.37-1.8,39.39-1.43,78.78-2.9,118.18-4.07,51.27-1.51,102.55-3.45,153.83-3.94Q471,743.94,591,744.64c50,.31,100,2,150,3.62,51.25,1.72,102.48,4.19,153.72,6.33,6.32.26,12.67.27,19,.87a8.76,8.76,0,0,1,5.49,3c10.22,13,13.23,27.77,9.47,43.81-.42,1.79-2.32,3.71-4,4.67-11.67,6.51-24.52,8-37.59,8.43-30.52,1-61,1.88-91.54,3.13C777.16,819.26,758.86,820.61,731.55,822.22Z" transform="translate(299.52)"/><path class="cls-3" d="M790.73,337q-39.11,1.58-78.22,3.14c-4.43.17-8.86.13-13.29.19-43.83.63-87.7.12-131.46,2.18-51.77,2.42-103.5,1.24-155.24,1.4-35.91.11-71.82-1.09-107.73-1.86-20.87-.45-41.73-1.19-62.6-1.82-21.19-.63-42.39-1-63.56-2-27.63-1.3-55.23-3.13-82.85-4.65-4.27-.24-7-1.81-8.38-6.14-6.17-18.72-4.53-36.15,7.81-52a11.41,11.41,0,0,1,9.2-4.89c28.32-1,56.62-2.33,84.94-3.16,54.28-1.58,108.55-3.6,162.84-4.14q119.21-1.19,238.43-.42c48.28.28,96.55,2,144.81,3.43,37.18,1.13,74.34,2.85,111.49,4.6a13,13,0,0,1,8,4c12.87,14,15.88,39.39,6.75,56.09a7.43,7.43,0,0,1-5,3.35c-11,.92-22.08,1.66-33.14,2-10.9.32-21.82.07-32.73.07Z" transform="translate(299.52)"/><path class="cls-3" d="M475.36,166.56c40.53,0,81.07-.38,121.59.11,45.12.54,90.23,1.7,135.34,2.94,24,.66,48.08,1.94,72.1,3.24a13.84,13.84,0,0,1,7.84,3.51c18.07,16.55,16.36,44.72,7.57,60.6-.95,1.73-3.94,3.16-6.07,3.28-12,.64-24,.87-36.05,1.19-37.47,1-74.95,2.06-112.43,2.91-33.06.75-66.18.29-99.17,2.06-48.91,2.64-97.81,1.33-146.71,1.46-36.55.09-73.1-1-109.64-1.77-22-.45-44-1.15-65.93-1.88q-39.6-1.32-79.19-2.91c-10.11-.4-20.22-1-30.3-1.74a7,7,0,0,1-4.91-2.87c-10.23-18.51-8.08-45.39,7.68-60.24a14,14,0,0,1,8.29-3.56c33.37-1.39,66.74-2.87,100.13-3.55,66.8-1.37,133.61-2.28,200.41-3.33,9.82-.15,19.63,0,29.45,0Z" transform="translate(299.52)"/><path class="cls-3" d="M678.05,149.36c-35.76,0-71.59-1.4-107.26.33-52.24,2.54-104.44,1.1-156.65,1.35-37.17.17-74.34-1.17-111.51-1.85-17.24-.32-34.49-.46-51.72-1.09-15.48-.57-30.94-1.64-46.4-2.67a6.19,6.19,0,0,1-4.25-2.32c-11.8-18.15-11.51-46,5.32-62.24a25.7,25.7,0,0,1,18.56-7.78c81-1,162.06-2.65,243.09-3.62,38.62-.46,77.26-.06,115.89.32,30.23.3,60.45,1.12,90.68,1.83q29.19.67,58.37,1.79a13.41,13.41,0,0,1,6.55,2.15c11.8,7.73,17.69,19.22,19.38,32.84,1.48,11.91-.45,23.44-7,33.72-1.23,1.93-4,3.91-6.18,4-22.27,1-44.57,1.61-66.85,2.33Z" transform="translate(299.52)"/><path class="cls-3" d="M736.25,922.72H595.18c-18,0-24.34-6.05-25.78-24.15-1.33-16.71-3-33.39-4.52-50.08-.55-5.93,1.83-8.65,8.34-8.59,23.1.21,46.2.46,69.3.88q50.78.93,101.55,2.12c17.54.43,35.08,1.15,52.61,1.88q43.37,1.83,86.72,3.85c10.73.49,21.47,1,32.19,1.81a10.17,10.17,0,0,1,6.06,2.89c13.76,14.55,15.67,44.81,3.61,60.64-1.88,2.47-5.66,4.15-8.85,4.85a110.91,110.91,0,0,1-20.62,2.94c-21.82.63-43.66.87-65.5,1-31.34.14-62.69,0-94,0Z" transform="translate(299.52)"/><path class="cls-3" d="M266.7,919.06c-26.09-.67-52.18-1.2-78.26-2-22.92-.75-45.82-1.85-68.73-2.82-21.8-.92-43.64-1.4-65.39-3-10.16-.75-20.18-3.6-30.19-5.8a6.09,6.09,0,0,1-3.9-3.54c-4.35-16.3-3.72-32,6.82-46.12,3.26-4.37,7.17-6.26,12.86-6.39,30.05-.68,60.08-1.8,90.12-2.8,17.23-.58,34.45-1.31,51.67-1.82q69.72-2.06,139.44-4c17.08-.45,34.17-.69,51.26-.85,10.12-.1,12,2.06,11.08,12q-2.06,23.4-4,46.8c-1.11,12.78-8.88,21.15-21.69,21.3-22.11.24-44.24-.47-66.36-.72-8.23-.09-16.46,0-24.69,0Z" transform="translate(299.52)"/><path class="cls-3" d="M281.41,60.77c11.16-5.77,22.15-11.94,33.53-17.26,38.73-18.11,79.7-27.15,122.24-30.27a514.82,514.82,0,0,1,97.11,2.21c46.8,5.41,90.91,19,131.2,43.88.94.59,1.87,1.18,2.78,1.82.22.15.33.48.75,1.14q-193.71,5-386.87,0C281.9,61.8,281.65,61.29,281.41,60.77Z" transform="translate(299.52)"/><g class="cls-4"><g class="cls-5"><polygon class="cls-6" points="39.89 164.71 4.38 164.71 1.5 169.71 1.5 195.96 1.5 221.21 4.38 226.2 39.89 226.2 57.64 195.46 39.89 164.71"/><polygon class="cls-6" points="93.01 195.46 57.5 195.46 39.75 226.2 57.5 256.95 93.01 256.95 110.76 226.2 93.01 195.46"/><polygon class="cls-6" points="146.16 164.71 110.66 164.71 92.91 195.46 110.66 226.2 146.16 226.2 163.92 195.46 146.16 164.71"/><polygon class="cls-6" points="86.72 164.65 57.64 164.65 39.75 164.65 57.5 195.39 93.01 195.39 110.76 164.65 86.72 164.65"/><polygon class="cls-6" points="193.04 164.75 163.96 164.75 146.07 164.75 163.82 195.5 199.32 195.5 217.07 164.75 193.04 164.75"/><polygon class="cls-6" points="299.36 164.65 270.27 164.65 252.38 164.65 270.14 195.39 305.64 195.39 323.39 164.65 299.36 164.65"/><polygon class="cls-6" points="405.69 164.65 376.61 164.65 358.72 164.65 376.47 195.39 411.98 195.39 429.73 164.65 405.69 164.65"/><polygon class="cls-6" points="512.02 164.65 482.93 164.65 465.05 164.65 482.8 195.39 518.3 195.39 536.05 164.65 512.02 164.65"/><polygon class="cls-6" points="618.34 164.65 589.26 164.65 571.37 164.65 589.12 195.39 624.63 195.39 642.38 164.65 618.34 164.65"/><polygon class="cls-6" points="724.75 164.65 695.67 164.65 677.78 164.65 695.53 195.39 731.04 195.39 748.79 164.65 724.75 164.65"/><polygon class="cls-6" points="830.97 164.65 801.89 164.65 784 164.65 801.75 195.39 837.26 195.39 855.01 164.65 830.97 164.65"/><polygon class="cls-6" points="937.29 164.65 908.21 164.65 890.32 164.65 908.07 195.39 943.57 195.39 961.33 164.65 937.29 164.65"/><polygon class="cls-6" points="1043.61 164.65 1014.52 164.65 996.63 164.65 1014.39 195.39 1049.89 195.39 1067.64 164.65 1043.61 164.65"/><polygon class="cls-6" points="1150.08 164.65 1120.99 164.65 1103.11 164.65 1120.86 195.39 1156.36 195.39 1174.11 164.65 1150.08 164.65"/><polygon class="cls-6" points="1256.39 164.65 1227.31 164.65 1209.42 164.65 1227.17 195.39 1262.68 195.39 1280.43 164.65 1256.39 164.65"/><polygon class="cls-6" points="1362.71 164.65 1333.63 164.65 1315.74 164.65 1333.49 195.39 1368.99 195.39 1386.74 164.65 1362.71 164.65"/><polygon class="cls-6" points="199.32 195.46 163.82 195.46 146.07 226.2 163.82 256.95 199.32 256.95 217.07 226.2 199.32 195.46"/><polygon class="cls-6" points="252.44 164.71 216.94 164.71 199.19 195.46 216.94 226.2 252.44 226.2 270.19 195.46 252.44 164.71"/><polygon class="cls-6" points="305.64 195.46 270.14 195.46 252.38 226.2 270.14 256.95 305.64 256.95 323.39 226.2 305.64 195.46"/><polygon class="cls-6" points="358.72 164.71 323.22 164.71 305.46 195.46 323.22 226.2 358.72 226.2 376.47 195.46 358.72 164.71"/><polygon class="cls-6" points="411.95 195.54 376.45 195.54 358.7 226.29 376.45 257.04 411.95 257.04 429.71 226.29 411.95 195.54"/><polygon class="cls-6" points="465.11 164.8 429.61 164.8 411.86 195.54 429.61 226.29 465.11 226.29 482.87 195.54 465.11 164.8"/><polygon class="cls-6" points="518.27 195.54 482.77 195.54 465.02 226.29 482.77 257.04 518.27 257.04 536.02 226.29 518.27 195.54"/><polygon class="cls-6" points="571.51 164.65 536 164.65 518.25 195.39 536 226.14 571.51 226.14 589.26 195.39 571.51 164.65"/><polygon class="cls-6" points="624.63 195.39 589.12 195.39 571.37 226.14 589.12 256.89 624.63 256.89 642.38 226.14 624.63 195.39"/><polygon class="cls-6" points="730.94 195.39 695.44 195.39 677.69 226.14 695.44 256.89 730.94 256.89 748.69 226.14 730.94 195.39"/><polygon class="cls-6" points="784.06 164.65 748.56 164.65 730.81 195.39 748.56 226.14 784.06 226.14 801.81 195.39 784.06 164.65"/><polygon class="cls-6" points="837.26 195.39 801.75 195.39 784 226.14 801.75 256.89 837.26 256.89 855.01 226.14 837.26 195.39"/><polygon class="cls-6" points="890.34 164.65 854.84 164.65 837.08 195.39 854.84 226.14 890.34 226.14 908.09 195.39 890.34 164.65"/><polygon class="cls-6" points="943.57 195.48 908.07 195.48 890.32 226.22 908.07 256.97 943.57 256.97 961.33 226.22 943.57 195.48"/><polygon class="cls-6" points="996.73 164.73 961.23 164.73 943.48 195.48 961.23 226.22 996.73 226.22 1014.48 195.48 996.73 164.73"/><polygon class="cls-6" points="1049.89 195.48 1014.39 195.48 996.63 226.22 1014.39 256.97 1049.89 256.97 1067.64 226.22 1049.89 195.48"/><polygon class="cls-6" points="1103.16 164.58 1067.66 164.58 1049.91 195.33 1067.66 226.07 1103.16 226.07 1120.92 195.33 1103.16 164.58"/><polygon class="cls-6" points="1209.44 164.58 1173.94 164.58 1156.19 195.33 1173.94 226.07 1209.44 226.07 1227.19 195.33 1209.44 164.58"/><polygon class="cls-6" points="1262.68 195.41 1227.17 195.41 1209.42 226.16 1227.17 256.91 1262.68 256.91 1280.43 226.16 1262.68 195.41"/><polygon class="cls-6" points="1315.84 164.67 1280.33 164.67 1262.58 195.41 1280.33 226.16 1315.84 226.16 1333.59 195.41 1315.84 164.67"/><polygon class="cls-6" points="1368.99 195.41 1333.49 195.41 1315.74 226.16 1333.49 256.91 1368.99 256.91 1386.74 226.16 1368.99 195.41"/><line class="cls-6" x1="1368.97" y1="195.37" x2="1386.73" y2="226.12"/><polygon class="cls-6" points="1422.23 164.62 1386.73 164.62 1368.97 195.37 1386.73 226.12 1422.23 226.12 1425.11 221.12 1425.11 195.07 1425.11 169.62 1422.23 164.62"/><polygon class="cls-6" points="1425.11 169.86 1425.11 164.65 1422.23 164.62 1425.11 169.86"/><polygon class="cls-6" points="1.5 169.71 4.38 164.71 1.5 164.71 1.5 169.71"/><polygon class="cls-6" points="1156.36 195.33 1120.86 195.33 1103.11 226.07 1120.86 256.82 1156.36 256.82 1174.11 226.07 1156.36 195.33"/><polygon class="cls-6" points="93.01 257 57.5 257 39.75 287.75 57.5 318.49 93.01 318.49 110.76 287.75 93.01 257"/><polygon class="cls-6" points="199.32 257 163.82 257 146.07 287.75 163.82 318.49 199.32 318.49 217.07 287.75 199.32 257"/><polygon class="cls-6" points="305.64 257 270.14 257 252.38 287.75 270.14 318.49 305.64 318.49 323.39 287.75 305.64 257"/><polygon class="cls-6" points="411.95 257.08 376.45 257.08 358.7 287.83 376.45 318.58 411.95 318.58 429.71 287.83 411.95 257.08"/><polygon class="cls-6" points="518.27 257.08 482.77 257.08 465.02 287.83 482.77 318.58 518.27 318.58 536.02 287.83 518.27 257.08"/><polygon class="cls-6" points="624.63 256.93 589.12 256.93 571.37 287.68 589.12 318.43 624.63 318.43 642.38 287.68 624.63 256.93"/><polygon class="cls-6" points="730.94 256.93 695.44 256.93 677.69 287.68 695.44 318.43 730.94 318.43 748.69 287.68 730.94 256.93"/><polygon class="cls-6" points="837.26 256.93 801.75 256.93 784 287.68 801.75 318.43 837.26 318.43 855.01 287.68 837.26 256.93"/><polygon class="cls-6" points="943.57 257.02 908.07 257.02 890.32 287.77 908.07 318.51 943.57 318.51 961.33 287.77 943.57 257.02"/><polygon class="cls-6" points="1049.89 257.02 1014.39 257.02 996.63 287.77 1014.39 318.51 1049.89 318.51 1067.64 287.77 1049.89 257.02"/><polygon class="cls-6" points="1262.68 256.95 1227.17 256.95 1209.42 287.7 1227.17 318.45 1262.68 318.45 1280.43 287.7 1262.68 256.95"/><polygon class="cls-6" points="1368.99 256.95 1333.49 256.95 1315.74 287.7 1333.49 318.45 1368.99 318.45 1386.74 287.7 1368.99 256.95"/><polygon class="cls-6" points="1156.36 256.87 1120.86 256.87 1103.11 287.62 1120.86 318.36 1156.36 318.36 1174.11 287.62 1156.36 256.87"/><polygon class="cls-6" points="93.01 318.54 57.5 318.54 39.75 349.29 57.5 380.03 93.01 380.03 110.76 349.29 93.01 318.54"/><polygon class="cls-6" points="199.32 318.54 163.82 318.54 146.07 349.29 163.82 380.03 199.32 380.03 217.07 349.29 199.32 318.54"/><polygon class="cls-6" points="305.64 318.54 270.14 318.54 252.38 349.29 270.14 380.03 305.64 380.03 323.39 349.29 305.64 318.54"/><polygon class="cls-6" points="411.95 318.63 376.45 318.63 358.7 349.37 376.45 380.12 411.95 380.12 429.71 349.37 411.95 318.63"/><polygon class="cls-6" points="518.27 318.63 482.77 318.63 465.02 349.37 482.77 380.12 518.27 380.12 536.02 349.37 518.27 318.63"/><polygon class="cls-6" points="624.63 318.48 589.12 318.48 571.37 349.22 589.12 379.97 624.63 379.97 642.38 349.22 624.63 318.48"/><polygon class="cls-6" points="730.94 318.48 695.44 318.48 677.69 349.22 695.44 379.97 730.94 379.97 748.69 349.22 730.94 318.48"/><polygon class="cls-6" points="837.26 318.48 801.75 318.48 784 349.22 801.75 379.97 837.26 379.97 855.01 349.22 837.26 318.48"/><polygon class="cls-6" points="943.57 318.56 908.07 318.56 890.32 349.31 908.07 380.06 943.57 380.06 961.33 349.31 943.57 318.56"/><polygon class="cls-6" points="1049.89 318.56 1014.39 318.56 996.63 349.31 1014.39 380.06 1049.89 380.06 1067.64 349.31 1049.89 318.56"/><polygon class="cls-6" points="1262.68 318.5 1227.17 318.5 1209.42 349.24 1227.17 379.99 1262.68 379.99 1280.43 349.24 1262.68 318.5"/><polygon class="cls-6" points="1368.99 318.5 1333.49 318.5 1315.74 349.24 1333.49 379.99 1368.99 379.99 1386.74 349.24 1368.99 318.5"/><polygon class="cls-6" points="1156.36 318.41 1120.86 318.41 1103.11 349.16 1120.86 379.9 1156.36 379.9 1174.11 349.16 1156.36 318.41"/><polygon class="cls-6" points="93.01 380.08 57.5 380.08 39.75 410.83 57.5 441.57 93.01 441.57 110.76 410.83 93.01 380.08"/><polygon class="cls-6" points="199.32 380.08 163.82 380.08 146.07 410.83 163.82 441.57 199.32 441.57 217.07 410.83 199.32 380.08"/><polygon class="cls-6" points="305.64 380.08 270.14 380.08 252.38 410.83 270.14 441.57 305.64 441.57 323.39 410.83 305.64 380.08"/><polygon class="cls-6" points="411.95 380.17 376.45 380.17 358.7 410.91 376.45 441.66 411.95 441.66 429.71 410.91 411.95 380.17"/><polygon class="cls-6" points="518.27 380.17 482.77 380.17 465.02 410.91 482.77 441.66 518.27 441.66 536.02 410.91 518.27 380.17"/><polygon class="cls-6" points="624.63 380.02 589.12 380.02 571.37 410.76 589.12 441.51 624.63 441.51 642.38 410.76 624.63 380.02"/><polygon class="cls-6" points="730.94 380.02 695.44 380.02 677.69 410.76 695.44 441.51 730.94 441.51 748.69 410.76 730.94 380.02"/><polygon class="cls-6" points="837.26 380.02 801.75 380.02 784 410.76 801.75 441.51 837.26 441.51 855.01 410.76 837.26 380.02"/><polygon class="cls-6" points="943.57 380.1 908.07 380.1 890.32 410.85 908.07 441.6 943.57 441.6 961.33 410.85 943.57 380.1"/><polygon class="cls-6" points="1049.89 380.1 1014.39 380.1 996.63 410.85 1014.39 441.6 1049.89 441.6 1067.64 410.85 1049.89 380.1"/><polygon class="cls-6" points="1262.68 380.04 1227.17 380.04 1209.42 410.79 1227.17 441.53 1262.68 441.53 1280.43 410.79 1262.68 380.04"/><polygon class="cls-6" points="1368.99 380.04 1333.49 380.04 1315.74 410.79 1333.49 441.53 1368.99 441.53 1386.74 410.79 1368.99 380.04"/><polygon class="cls-6" points="1156.36 379.95 1120.86 379.95 1103.11 410.7 1120.86 441.45 1156.36 441.45 1174.11 410.7 1156.36 379.95"/><polygon class="cls-6" points="93.01 441.62 57.5 441.62 39.75 472.37 57.5 503.12 93.01 503.12 110.76 472.37 93.01 441.62"/><polygon class="cls-6" points="199.32 441.62 163.82 441.62 146.07 472.37 163.82 503.12 199.32 503.12 217.07 472.37 199.32 441.62"/><polygon class="cls-6" points="305.64 441.62 270.14 441.62 252.38 472.37 270.14 503.12 305.64 503.12 323.39 472.37 305.64 441.62"/><polygon class="cls-6" points="411.95 441.71 376.45 441.71 358.7 472.46 376.45 503.2 411.95 503.2 429.71 472.46 411.95 441.71"/><polygon class="cls-6" points="518.27 441.71 482.77 441.71 465.02 472.46 482.77 503.2 518.27 503.2 536.02 472.46 518.27 441.71"/><polygon class="cls-6" points="624.63 441.56 589.12 441.56 571.37 472.31 589.12 503.05 624.63 503.05 642.38 472.31 624.63 441.56"/><polygon class="cls-6" points="730.94 441.56 695.44 441.56 677.69 472.31 695.44 503.05 730.94 503.05 748.69 472.31 730.94 441.56"/><polygon class="cls-6" points="837.26 441.56 801.75 441.56 784 472.31 801.75 503.05 837.26 503.05 855.01 472.31 837.26 441.56"/><polygon class="cls-6" points="943.57 441.64 908.07 441.64 890.32 472.39 908.07 503.14 943.57 503.14 961.33 472.39 943.57 441.64"/><polygon class="cls-6" points="1049.89 441.64 1014.39 441.64 996.63 472.39 1014.39 503.14 1049.89 503.14 1067.64 472.39 1049.89 441.64"/><polygon class="cls-6" points="1262.68 441.58 1227.17 441.58 1209.42 472.33 1227.17 503.07 1262.68 503.07 1280.43 472.33 1262.68 441.58"/><polygon class="cls-6" points="1368.99 441.58 1333.49 441.58 1315.74 472.33 1333.49 503.07 1368.99 503.07 1386.74 472.33 1368.99 441.58"/><polygon class="cls-6" points="1156.36 441.5 1120.86 441.5 1103.11 472.24 1120.86 502.99 1156.36 502.99 1174.11 472.24 1156.36 441.5"/><polygon class="cls-6" points="93.01 503.17 57.5 503.17 39.75 533.91 57.5 564.66 93.01 564.66 110.76 533.91 93.01 503.17"/><polygon class="cls-6" points="199.32 503.17 163.82 503.17 146.07 533.91 163.82 564.66 199.32 564.66 217.07 533.91 199.32 503.17"/><polygon class="cls-6" points="305.64 503.17 270.14 503.17 252.38 533.91 270.14 564.66 305.64 564.66 323.39 533.91 305.64 503.17"/><polygon class="cls-6" points="411.95 503.25 376.45 503.25 358.7 534 376.45 564.74 411.95 564.74 429.71 534 411.95 503.25"/><polygon class="cls-6" points="518.27 503.25 482.77 503.25 465.02 534 482.77 564.74 518.27 564.74 536.02 534 518.27 503.25"/><polygon class="cls-6" points="624.63 503.1 589.12 503.1 571.37 533.85 589.12 564.59 624.63 564.59 642.38 533.85 624.63 503.1"/><polygon class="cls-6" points="730.94 503.1 695.44 503.1 677.69 533.85 695.44 564.59 730.94 564.59 748.69 533.85 730.94 503.1"/><polygon class="cls-6" points="837.26 503.1 801.75 503.1 784 533.85 801.75 564.59 837.26 564.59 855.01 533.85 837.26 503.1"/><polygon class="cls-6" points="943.57 503.19 908.07 503.19 890.32 533.93 908.07 564.68 943.57 564.68 961.33 533.93 943.57 503.19"/><polygon class="cls-6" points="1049.89 503.19 1014.39 503.19 996.63 533.93 1014.39 564.68 1049.89 564.68 1067.64 533.93 1049.89 503.19"/><polygon class="cls-6" points="1262.68 503.12 1227.17 503.12 1209.42 533.87 1227.17 564.62 1262.68 564.62 1280.43 533.87 1262.68 503.12"/><polygon class="cls-6" points="1368.99 503.12 1333.49 503.12 1315.74 533.87 1333.49 564.62 1368.99 564.62 1386.74 533.87 1368.99 503.12"/><polygon class="cls-6" points="1156.36 503.04 1120.86 503.04 1103.11 533.78 1120.86 564.53 1156.36 564.53 1174.11 533.78 1156.36 503.04"/><polygon class="cls-6" points="93.01 564.71 57.5 564.71 39.75 595.45 57.5 626.2 93.01 626.2 110.76 595.45 93.01 564.71"/><polygon class="cls-6" points="199.32 564.71 163.82 564.71 146.07 595.45 163.82 626.2 199.32 626.2 217.07 595.45 199.32 564.71"/><polygon class="cls-6" points="305.64 564.71 270.14 564.71 252.38 595.45 270.14 626.2 305.64 626.2 323.39 595.45 305.64 564.71"/><polygon class="cls-6" points="411.95 564.79 376.45 564.79 358.7 595.54 376.45 626.29 411.95 626.29 429.71 595.54 411.95 564.79"/><polygon class="cls-6" points="518.27 564.79 482.77 564.79 465.02 595.54 482.77 626.29 518.27 626.29 536.02 595.54 518.27 564.79"/><polygon class="cls-6" points="624.63 564.64 589.12 564.64 571.37 595.39 589.12 626.14 624.63 626.14 642.38 595.39 624.63 564.64"/><polygon class="cls-6" points="730.94 564.64 695.44 564.64 677.69 595.39 695.44 626.14 730.94 626.14 748.69 595.39 730.94 564.64"/><polygon class="cls-6" points="837.26 564.64 801.75 564.64 784 595.39 801.75 626.14 837.26 626.14 855.01 595.39 837.26 564.64"/><polygon class="cls-6" points="943.57 564.73 908.07 564.73 890.32 595.48 908.07 626.22 943.57 626.22 961.33 595.48 943.57 564.73"/><polygon class="cls-6" points="1049.89 564.73 1014.39 564.73 996.63 595.48 1014.39 626.22 1049.89 626.22 1067.64 595.48 1049.89 564.73"/><polygon class="cls-6" points="1262.68 564.66 1227.17 564.66 1209.42 595.41 1227.17 626.16 1262.68 626.16 1280.43 595.41 1262.68 564.66"/><polygon class="cls-6" points="1368.99 564.66 1333.49 564.66 1315.74 595.41 1333.49 626.16 1368.99 626.16 1386.74 595.41 1368.99 564.66"/><polygon class="cls-6" points="1156.36 564.58 1120.86 564.58 1103.11 595.33 1120.86 626.07 1156.36 626.07 1174.11 595.33 1156.36 564.58"/><polygon class="cls-6" points="93.01 626.25 57.5 626.25 39.75 657 57.5 687.74 93.01 687.74 110.76 657 93.01 626.25"/><polygon class="cls-6" points="199.32 626.25 163.82 626.25 146.07 657 163.82 687.74 199.32 687.74 217.07 657 199.32 626.25"/><polygon class="cls-6" points="305.64 626.25 270.14 626.25 252.38 657 270.14 687.74 305.64 687.74 323.39 657 305.64 626.25"/><polygon class="cls-6" points="411.95 626.33 376.45 626.33 358.7 657.08 376.45 687.83 411.95 687.83 429.71 657.08 411.95 626.33"/><polygon class="cls-6" points="518.27 626.33 482.77 626.33 465.02 657.08 482.77 687.83 518.27 687.83 536.02 657.08 518.27 626.33"/><polygon class="cls-6" points="624.63 626.18 589.12 626.18 571.37 656.93 589.12 687.68 624.63 687.68 642.38 656.93 624.63 626.18"/><polygon class="cls-6" points="730.94 626.18 695.44 626.18 677.69 656.93 695.44 687.68 730.94 687.68 748.69 656.93 730.94 626.18"/><polygon class="cls-6" points="837.26 626.18 801.75 626.18 784 656.93 801.75 687.68 837.26 687.68 855.01 656.93 837.26 626.18"/><polygon class="cls-6" points="943.57 626.27 908.07 626.27 890.32 657.02 908.07 687.76 943.57 687.76 961.33 657.02 943.57 626.27"/><polygon class="cls-6" points="1049.89 626.27 1014.39 626.27 996.63 657.02 1014.39 687.76 1049.89 687.76 1067.64 657.02 1049.89 626.27"/><polygon class="cls-6" points="1262.68 626.21 1227.17 626.21 1209.42 656.95 1227.17 687.7 1262.68 687.7 1280.43 656.95 1262.68 626.21"/><polygon class="cls-6" points="1368.99 626.21 1333.49 626.21 1315.74 656.95 1333.49 687.7 1368.99 687.7 1386.74 656.95 1368.99 626.21"/><polygon class="cls-6" points="1156.36 626.12 1120.86 626.12 1103.11 656.87 1120.86 687.61 1156.36 687.61 1174.11 656.87 1156.36 626.12"/><polygon class="cls-6" points="93.01 687.79 57.5 687.79 39.75 718.54 57.5 749.28 93.01 749.28 110.76 718.54 93.01 687.79"/><polygon class="cls-6" points="199.32 687.79 163.82 687.79 146.07 718.54 163.82 749.28 199.32 749.28 217.07 718.54 199.32 687.79"/><polygon class="cls-6" points="305.64 687.79 270.14 687.79 252.38 718.54 270.14 749.28 305.64 749.28 323.39 718.54 305.64 687.79"/><polygon class="cls-6" points="411.95 687.88 376.45 687.88 358.7 718.62 376.45 749.37 411.95 749.37 429.71 718.62 411.95 687.88"/><polygon class="cls-6" points="518.27 687.88 482.77 687.88 465.02 718.62 482.77 749.37 518.27 749.37 536.02 718.62 518.27 687.88"/><polygon class="cls-6" points="624.63 687.73 589.12 687.73 571.37 718.47 589.12 749.22 624.63 749.22 642.38 718.47 624.63 687.73"/><polygon class="cls-6" points="730.94 687.73 695.44 687.73 677.69 718.47 695.44 749.22 730.94 749.22 748.69 718.47 730.94 687.73"/><polygon class="cls-6" points="837.26 687.73 801.75 687.73 784 718.47 801.75 749.22 837.26 749.22 855.01 718.47 837.26 687.73"/><polygon class="cls-6" points="943.57 687.81 908.07 687.81 890.32 718.56 908.07 749.3 943.57 749.3 961.33 718.56 943.57 687.81"/><polygon class="cls-6" points="1049.89 687.81 1014.39 687.81 996.63 718.56 1014.39 749.3 1049.89 749.3 1067.64 718.56 1049.89 687.81"/><polygon class="cls-6" points="1262.68 687.75 1227.17 687.75 1209.42 718.49 1227.17 749.24 1262.68 749.24 1280.43 718.49 1262.68 687.75"/><polygon class="cls-6" points="1368.99 687.75 1333.49 687.75 1315.74 718.49 1333.49 749.24 1368.99 749.24 1386.74 718.49 1368.99 687.75"/><polygon class="cls-6" points="1156.36 687.66 1120.86 687.66 1103.11 718.41 1120.86 749.15 1156.36 749.15 1174.11 718.41 1156.36 687.66"/><polygon class="cls-6" points="93.01 749.33 57.5 749.33 39.75 780.08 57.5 810.83 93.01 810.83 110.76 780.08 93.01 749.33"/><polygon class="cls-6" points="199.32 749.33 163.82 749.33 146.07 780.08 163.82 810.83 199.32 810.83 217.07 780.08 199.32 749.33"/><polygon class="cls-6" points="305.64 749.33 270.14 749.33 252.38 780.08 270.14 810.83 305.64 810.83 323.39 780.08 305.64 749.33"/><polygon class="cls-6" points="411.95 749.42 376.45 749.42 358.7 780.16 376.45 810.91 411.95 810.91 429.71 780.16 411.95 749.42"/><polygon class="cls-6" points="518.27 749.42 482.77 749.42 465.02 780.16 482.77 810.91 518.27 810.91 536.02 780.16 518.27 749.42"/><polygon class="cls-6" points="624.63 749.27 589.12 749.27 571.37 780.01 589.12 810.76 624.63 810.76 642.38 780.01 624.63 749.27"/><polygon class="cls-6" points="730.94 749.27 695.44 749.27 677.69 780.01 695.44 810.76 730.94 810.76 748.69 780.01 730.94 749.27"/><polygon class="cls-6" points="837.26 749.27 801.75 749.27 784 780.01 801.75 810.76 837.26 810.76 855.01 780.01 837.26 749.27"/><polygon class="cls-6" points="943.57 749.35 908.07 749.35 890.32 780.1 908.07 810.85 943.57 810.85 961.33 780.1 943.57 749.35"/><polygon class="cls-6" points="1049.89 749.35 1014.39 749.35 996.63 780.1 1014.39 810.85 1049.89 810.85 1067.64 780.1 1049.89 749.35"/><polygon class="cls-6" points="1262.68 749.29 1227.17 749.29 1209.42 780.04 1227.17 810.78 1262.68 810.78 1280.43 780.04 1262.68 749.29"/><polygon class="cls-6" points="1368.99 749.29 1333.49 749.29 1315.74 780.04 1333.49 810.78 1368.99 810.78 1386.74 780.04 1368.99 749.29"/><polygon class="cls-6" points="1156.36 749.2 1120.86 749.2 1103.11 779.95 1120.86 810.7 1156.36 810.7 1174.11 779.95 1156.36 749.2"/><polygon class="cls-6" points="93.01 810.87 57.5 810.87 39.75 841.62 57.5 872.37 93.01 872.37 110.76 841.62 93.01 810.87"/><polygon class="cls-6" points="199.32 810.87 163.82 810.87 146.07 841.62 163.82 872.37 199.32 872.37 217.07 841.62 199.32 810.87"/><polygon class="cls-6" points="305.64 810.87 270.14 810.87 252.38 841.62 270.14 872.37 305.64 872.37 323.39 841.62 305.64 810.87"/><polygon class="cls-6" points="411.95 810.96 376.45 810.96 358.7 841.71 376.45 872.45 411.95 872.45 429.71 841.71 411.95 810.96"/><polygon class="cls-6" points="518.27 810.96 482.77 810.96 465.02 841.71 482.77 872.45 518.27 872.45 536.02 841.71 518.27 810.96"/><polygon class="cls-6" points="624.63 810.81 589.12 810.81 571.37 841.56 589.12 872.3 624.63 872.3 642.38 841.56 624.63 810.81"/><polygon class="cls-6" points="730.94 810.81 695.44 810.81 677.69 841.56 695.44 872.3 730.94 872.3 748.69 841.56 730.94 810.81"/><polygon class="cls-6" points="837.26 810.81 801.75 810.81 784 841.56 801.75 872.3 837.26 872.3 855.01 841.56 837.26 810.81"/><polygon class="cls-6" points="943.57 810.89 908.07 810.89 890.32 841.64 908.07 872.39 943.57 872.39 961.33 841.64 943.57 810.89"/><polygon class="cls-6" points="1049.89 810.89 1014.39 810.89 996.63 841.64 1014.39 872.39 1049.89 872.39 1067.64 841.64 1049.89 810.89"/><polygon class="cls-6" points="1262.68 810.83 1227.17 810.83 1209.42 841.58 1227.17 872.32 1262.68 872.32 1280.43 841.58 1262.68 810.83"/><polygon class="cls-6" points="1368.99 810.83 1333.49 810.83 1315.74 841.58 1333.49 872.32 1368.99 872.32 1386.74 841.58 1368.99 810.83"/><polygon class="cls-6" points="1156.36 810.75 1120.86 810.75 1103.11 841.49 1120.86 872.24 1156.36 872.24 1174.11 841.49 1156.36 810.75"/><polygon class="cls-6" points="93.01 872.41 57.5 872.41 39.75 903.16 57.5 933.91 93.01 933.91 110.76 903.16 93.01 872.41"/><polygon class="cls-6" points="199.32 872.41 163.82 872.41 146.07 903.16 163.82 933.91 199.32 933.91 217.07 903.16 199.32 872.41"/><polygon class="cls-6" points="305.64 872.41 270.14 872.41 252.38 903.16 270.14 933.91 305.64 933.91 323.39 903.16 305.64 872.41"/><polygon class="cls-6" points="411.95 872.5 376.45 872.5 358.7 903.25 376.45 933.99 411.95 933.99 429.71 903.25 411.95 872.5"/><polygon class="cls-6" points="518.27 872.5 482.77 872.5 465.02 903.25 482.77 933.99 518.27 933.99 536.02 903.25 518.27 872.5"/><polygon class="cls-6" points="624.63 872.35 589.12 872.35 571.37 903.1 589.12 933.84 624.63 933.84 642.38 903.1 624.63 872.35"/><polygon class="cls-6" points="730.94 872.35 695.44 872.35 677.69 903.1 695.44 933.84 730.94 933.84 748.69 903.1 730.94 872.35"/><polygon class="cls-6" points="837.26 872.35 801.75 872.35 784 903.1 801.75 933.84 837.26 933.84 855.01 903.1 837.26 872.35"/><polygon class="cls-6" points="943.57 872.44 908.07 872.44 890.32 903.18 908.07 933.93 943.57 933.93 961.33 903.18 943.57 872.44"/><polygon class="cls-6" points="1049.89 872.44 1014.39 872.44 996.63 903.18 1014.39 933.93 1049.89 933.93 1067.64 903.18 1049.89 872.44"/><polygon class="cls-6" points="1262.68 872.37 1227.17 872.37 1209.42 903.12 1227.17 933.87 1262.68 933.87 1280.43 903.12 1262.68 872.37"/><polygon class="cls-6" points="1368.99 872.37 1333.49 872.37 1315.74 903.12 1333.49 933.87 1368.99 933.87 1386.74 903.12 1368.99 872.37"/><polygon class="cls-6" points="1156.36 872.29 1120.86 872.29 1103.11 903.03 1120.86 933.78 1156.36 933.78 1174.11 903.03 1156.36 872.29"/><polygon class="cls-6" points="93.01 933.96 57.5 933.96 39.31 965.36 63.44 965.36 98.94 965.36 111.24 965.36 93.01 933.96"/><polygon class="cls-6" points="199.32 933.96 163.82 933.96 145.34 965.36 166.04 965.36 201.55 965.36 218.01 965.36 199.32 933.96"/><polygon class="cls-6" points="305.64 933.96 270.14 933.96 251.37 965.36 275.84 965.36 300.31 965.36 324.04 965.36 305.64 933.96"/><polygon class="cls-6" points="411.95 934.04 376.45 934.04 358.14 965.36 381.13 965.36 408.56 965.36 429.33 965.36 411.95 934.04"/><polygon class="cls-6" points="518.27 934.04 482.77 934.04 464.92 965.36 485.68 965.36 510.89 965.36 536.1 965.36 518.27 934.04"/><polygon class="cls-6" points="624.63 933.89 589.12 933.89 570.95 965.36 596.9 965.36 622.85 965.36 642.87 965.36 624.63 933.89"/><polygon class="cls-6" points="730.94 933.89 695.44 933.89 676.98 965.36 699.96 965.36 724.43 965.36 748.9 965.36 730.94 933.89"/><polygon class="cls-6" points="837.26 933.89 801.75 933.89 783.75 965.36 804.51 965.36 824.53 965.36 855.67 965.36 837.26 933.89"/><polygon class="cls-6" points="943.57 933.98 908.07 933.98 889.78 965.36 910.54 965.36 934.26 965.36 961.7 965.36 943.57 933.98"/><polygon class="cls-6" points="1049.89 933.98 1014.39 933.98 996.55 965.36 1015.83 965.36 1038.81 965.36 1068.47 965.36 1049.89 933.98"/><polygon class="cls-6" points="1262.68 933.91 1227.17 933.91 1209.35 965.36 1225.66 965.36 1261.99 965.36 1281.27 965.36 1262.68 933.91"/><polygon class="cls-6" points="1368.99 933.91 1333.49 933.91 1314.64 965.36 1335.4 965.36 1368.76 965.36 1387.3 965.36 1368.99 933.91"/><polygon class="cls-6" points="1156.36 933.83 1120.86 933.83 1102.58 965.36 1121.86 965.36 1145.58 965.36 1174.5 965.36 1156.36 933.83"/><polygon class="cls-6" points="677.78 164.65 642.28 164.65 624.53 195.39 642.28 226.14 677.78 226.14 695.54 195.39 677.78 164.65"/><polygon class="cls-6" points="39.89 226.25 4.38 226.25 1.5 231.25 1.5 257.5 1.5 282.75 4.38 287.75 39.89 287.75 57.64 257 39.89 226.25"/><polygon class="cls-6" points="146.16 226.25 110.66 226.25 92.91 257 110.66 287.75 146.16 287.75 163.92 257 146.16 226.25"/><polygon class="cls-6" points="252.44 226.25 216.94 226.25 199.19 257 216.94 287.75 252.44 287.75 270.19 257 252.44 226.25"/><polygon class="cls-6" points="358.72 226.25 323.22 226.25 305.46 257 323.22 287.75 358.72 287.75 376.47 257 358.72 226.25"/><polygon class="cls-6" points="465.11 226.34 429.61 226.34 411.86 257.08 429.61 287.83 465.11 287.83 482.87 257.08 465.11 226.34"/><polygon class="cls-6" points="571.51 226.19 536 226.19 518.25 256.93 536 287.68 571.51 287.68 589.26 256.93 571.51 226.19"/><polygon class="cls-6" points="784.06 226.19 748.56 226.19 730.81 256.93 748.56 287.68 784.06 287.68 801.81 256.93 784.06 226.19"/><polygon class="cls-6" points="890.34 226.19 854.84 226.19 837.08 256.93 854.84 287.68 890.34 287.68 908.09 256.93 890.34 226.19"/><polygon class="cls-6" points="996.73 226.27 961.23 226.27 943.48 257.02 961.23 287.77 996.73 287.77 1014.48 257.02 996.73 226.27"/><polygon class="cls-6" points="1103.16 226.12 1067.66 226.12 1049.91 256.87 1067.66 287.62 1103.16 287.62 1120.92 256.87 1103.16 226.12"/><polygon class="cls-6" points="1209.44 226.12 1173.94 226.12 1156.19 256.87 1173.94 287.62 1209.44 287.62 1227.19 256.87 1209.44 226.12"/><polygon class="cls-6" points="1315.84 226.21 1280.33 226.21 1262.58 256.95 1280.33 287.7 1315.84 287.7 1333.59 256.95 1315.84 226.21"/><polygon class="cls-6" points="1422.23 226.17 1386.73 226.17 1368.97 256.91 1386.73 287.66 1422.23 287.66 1425.11 282.66 1425.11 256.61 1425.11 231.16 1422.23 226.17"/><polygon class="cls-6" points="1425.11 231.4 1425.11 220.93 1422.23 226.17 1425.11 231.4"/><polygon class="cls-6" points="1.5 231.25 4.38 226.25 1.5 220.93 1.5 231.25"/><polygon class="cls-6" points="677.78 226.19 642.28 226.19 624.53 256.93 642.28 287.68 677.78 287.68 695.54 256.93 677.78 226.19"/><polygon class="cls-6" points="39.89 287.79 4.38 287.79 1.5 292.79 1.5 319.04 1.5 344.29 4.38 349.29 39.89 349.29 57.64 318.54 39.89 287.79"/><polygon class="cls-6" points="146.16 287.79 110.66 287.79 92.91 318.54 110.66 349.29 146.16 349.29 163.92 318.54 146.16 287.79"/><polygon class="cls-6" points="252.44 287.79 216.94 287.79 199.19 318.54 216.94 349.29 252.44 349.29 270.19 318.54 252.44 287.79"/><polygon class="cls-6" points="358.72 287.79 323.22 287.79 305.46 318.54 323.22 349.29 358.72 349.29 376.47 318.54 358.72 287.79"/><polygon class="cls-6" points="465.11 287.88 429.61 287.88 411.86 318.63 429.61 349.37 465.11 349.37 482.87 318.63 465.11 287.88"/><polygon class="cls-6" points="571.51 287.73 536 287.73 518.25 318.48 536 349.22 571.51 349.22 589.26 318.48 571.51 287.73"/><polygon class="cls-6" points="784.06 287.73 748.56 287.73 730.81 318.48 748.56 349.22 784.06 349.22 801.81 318.48 784.06 287.73"/><polygon class="cls-6" points="890.34 287.73 854.84 287.73 837.08 318.48 854.84 349.22 890.34 349.22 908.09 318.48 890.34 287.73"/><polygon class="cls-6" points="996.73 287.81 961.23 287.81 943.48 318.56 961.23 349.31 996.73 349.31 1014.48 318.56 996.73 287.81"/><polygon class="cls-6" points="1103.16 287.67 1067.66 287.67 1049.91 318.41 1067.66 349.16 1103.16 349.16 1120.92 318.41 1103.16 287.67"/><polygon class="cls-6" points="1209.44 287.67 1173.94 287.67 1156.19 318.41 1173.94 349.16 1209.44 349.16 1227.19 318.41 1209.44 287.67"/><polygon class="cls-6" points="1315.84 287.75 1280.33 287.75 1262.58 318.5 1280.33 349.24 1315.84 349.24 1333.59 318.5 1315.84 287.75"/><polygon class="cls-6" points="1422.23 287.71 1386.73 287.71 1368.97 318.45 1386.73 349.2 1422.23 349.2 1425.11 344.2 1425.11 318.15 1425.11 292.7 1422.23 287.71"/><polygon class="cls-6" points="1425.11 292.94 1425.11 282.47 1422.23 287.71 1425.11 292.94"/><polygon class="cls-6" points="1.5 292.79 4.38 287.79 1.5 282.47 1.5 292.79"/><polygon class="cls-6" points="677.78 287.73 642.28 287.73 624.53 318.48 642.28 349.22 677.78 349.22 695.54 318.48 677.78 287.73"/><polygon class="cls-6" points="39.89 349.33 4.38 349.33 1.5 354.33 1.5 380.58 1.5 405.83 4.38 410.83 39.89 410.83 57.64 380.08 39.89 349.33"/><polygon class="cls-6" points="146.16 349.33 110.66 349.33 92.91 380.08 110.66 410.83 146.16 410.83 163.92 380.08 146.16 349.33"/><polygon class="cls-6" points="252.44 349.33 216.94 349.33 199.19 380.08 216.94 410.83 252.44 410.83 270.19 380.08 252.44 349.33"/><polygon class="cls-6" points="358.72 349.33 323.22 349.33 305.46 380.08 323.22 410.83 358.72 410.83 376.47 380.08 358.72 349.33"/><polygon class="cls-6" points="465.11 349.42 429.61 349.42 411.86 380.17 429.61 410.91 465.11 410.91 482.87 380.17 465.11 349.42"/><polygon class="cls-6" points="571.51 349.27 536 349.27 518.25 380.02 536 410.76 571.51 410.76 589.26 380.02 571.51 349.27"/><polygon class="cls-6" points="784.06 349.27 748.56 349.27 730.81 380.02 748.56 410.76 784.06 410.76 801.81 380.02 784.06 349.27"/><polygon class="cls-6" points="890.34 349.27 854.84 349.27 837.08 380.02 854.84 410.76 890.34 410.76 908.09 380.02 890.34 349.27"/><polygon class="cls-6" points="996.73 349.36 961.23 349.36 943.48 380.1 961.23 410.85 996.73 410.85 1014.48 380.1 996.73 349.36"/><polygon class="cls-6" points="1103.16 349.21 1067.66 349.21 1049.91 379.95 1067.66 410.7 1103.16 410.7 1120.92 379.95 1103.16 349.21"/><polygon class="cls-6" points="1209.44 349.21 1173.94 349.21 1156.19 379.95 1173.94 410.7 1209.44 410.7 1227.19 379.95 1209.44 349.21"/><polygon class="cls-6" points="1315.84 349.29 1280.33 349.29 1262.58 380.04 1280.33 410.79 1315.84 410.79 1333.59 380.04 1315.84 349.29"/><polygon class="cls-6" points="1422.23 349.25 1386.73 349.25 1368.97 380 1386.73 410.74 1422.23 410.74 1425.11 405.75 1425.11 379.69 1425.11 354.25 1422.23 349.25"/><polygon class="cls-6" points="1425.11 354.48 1425.11 344.02 1422.23 349.25 1425.11 354.48"/><polygon class="cls-6" points="1.5 354.33 4.38 349.33 1.5 344.02 1.5 354.33"/><polygon class="cls-6" points="677.78 349.27 642.28 349.27 624.53 380.02 642.28 410.76 677.78 410.76 695.54 380.02 677.78 349.27"/><polygon class="cls-6" points="39.89 410.88 4.38 410.88 1.5 415.87 1.5 442.12 1.5 467.37 4.38 472.37 39.89 472.37 57.64 441.62 39.89 410.88"/><polygon class="cls-6" points="146.16 410.88 110.66 410.88 92.91 441.62 110.66 472.37 146.16 472.37 163.92 441.62 146.16 410.88"/><polygon class="cls-6" points="252.44 410.88 216.94 410.88 199.19 441.62 216.94 472.37 252.44 472.37 270.19 441.62 252.44 410.88"/><polygon class="cls-6" points="358.72 410.88 323.22 410.88 305.46 441.62 323.22 472.37 358.72 472.37 376.47 441.62 358.72 410.88"/><polygon class="cls-6" points="465.11 410.96 429.61 410.96 411.86 441.71 429.61 472.46 465.11 472.46 482.87 441.71 465.11 410.96"/><polygon class="cls-6" points="571.51 410.81 536 410.81 518.25 441.56 536 472.31 571.51 472.31 589.26 441.56 571.51 410.81"/><polygon class="cls-6" points="784.06 410.81 748.56 410.81 730.81 441.56 748.56 472.31 784.06 472.31 801.81 441.56 784.06 410.81"/><polygon class="cls-6" points="890.34 410.81 854.84 410.81 837.08 441.56 854.84 472.31 890.34 472.31 908.09 441.56 890.34 410.81"/><polygon class="cls-6" points="996.73 410.9 961.23 410.9 943.48 441.64 961.23 472.39 996.73 472.39 1014.48 441.64 996.73 410.9"/><polygon class="cls-6" points="1103.16 410.75 1067.66 410.75 1049.91 441.5 1067.66 472.24 1103.16 472.24 1120.92 441.5 1103.16 410.75"/><polygon class="cls-6" points="1209.44 410.75 1173.94 410.75 1156.19 441.5 1173.94 472.24 1209.44 472.24 1227.19 441.5 1209.44 410.75"/><polygon class="cls-6" points="1315.84 410.83 1280.33 410.83 1262.58 441.58 1280.33 472.33 1315.84 472.33 1333.59 441.58 1315.84 410.83"/><polygon class="cls-6" points="1422.23 410.79 1386.73 410.79 1368.97 441.54 1386.73 472.28 1422.23 472.28 1425.11 467.29 1425.11 441.24 1425.11 415.79 1422.23 410.79"/><polygon class="cls-6" points="1425.11 416.02 1425.11 405.56 1422.23 410.79 1425.11 416.02"/><polygon class="cls-6" points="1.5 415.87 4.38 410.88 1.5 405.56 1.5 415.87"/><polygon class="cls-6" points="677.78 410.81 642.28 410.81 624.53 441.56 642.28 472.31 677.78 472.31 695.54 441.56 677.78 410.81"/><polygon class="cls-6" points="39.89 472.42 4.38 472.42 1.5 477.42 1.5 503.67 1.5 528.91 4.38 533.91 39.89 533.91 57.64 503.17 39.89 472.42"/><polygon class="cls-6" points="146.16 472.42 110.66 472.42 92.91 503.17 110.66 533.91 146.16 533.91 163.92 503.17 146.16 472.42"/><polygon class="cls-6" points="252.44 472.42 216.94 472.42 199.19 503.17 216.94 533.91 252.44 533.91 270.19 503.17 252.44 472.42"/><polygon class="cls-6" points="358.72 472.42 323.22 472.42 305.46 503.17 323.22 533.91 358.72 533.91 376.47 503.17 358.72 472.42"/><polygon class="cls-6" points="465.11 472.5 429.61 472.5 411.86 503.25 429.61 534 465.11 534 482.87 503.25 465.11 472.5"/><polygon class="cls-6" points="571.51 472.35 536 472.35 518.25 503.1 536 533.85 571.51 533.85 589.26 503.1 571.51 472.35"/><polygon class="cls-6" points="784.06 472.35 748.56 472.35 730.81 503.1 748.56 533.85 784.06 533.85 801.81 503.1 784.06 472.35"/><polygon class="cls-6" points="890.34 472.35 854.84 472.35 837.08 503.1 854.84 533.85 890.34 533.85 908.09 503.1 890.34 472.35"/><polygon class="cls-6" points="996.73 472.44 961.23 472.44 943.48 503.19 961.23 533.93 996.73 533.93 1014.48 503.19 996.73 472.44"/><polygon class="cls-6" points="1103.16 472.29 1067.66 472.29 1049.91 503.04 1067.66 533.78 1103.16 533.78 1120.92 503.04 1103.16 472.29"/><polygon class="cls-6" points="1209.44 472.29 1173.94 472.29 1156.19 503.04 1173.94 533.78 1209.44 533.78 1227.19 503.04 1209.44 472.29"/><polygon class="cls-6" points="1315.84 472.38 1280.33 472.38 1262.58 503.12 1280.33 533.87 1315.84 533.87 1333.59 503.12 1315.84 472.38"/><polygon class="cls-6" points="1422.23 472.33 1386.73 472.33 1368.97 503.08 1386.73 533.83 1422.23 533.83 1425.11 528.83 1425.11 502.78 1425.11 477.33 1422.23 472.33"/><polygon class="cls-6" points="1425.11 477.56 1425.11 467.1 1422.23 472.33 1425.11 477.56"/><polygon class="cls-6" points="1.5 477.42 4.38 472.42 1.5 467.1 1.5 477.42"/><polygon class="cls-6" points="677.78 472.35 642.28 472.35 624.53 503.1 642.28 533.85 677.78 533.85 695.54 503.1 677.78 472.35"/><polygon class="cls-6" points="39.89 533.96 4.38 533.96 1.5 538.96 1.5 565.21 1.5 590.46 4.38 595.45 39.89 595.45 57.64 564.71 39.89 533.96"/><polygon class="cls-6" points="146.16 533.96 110.66 533.96 92.91 564.71 110.66 595.45 146.16 595.45 163.92 564.71 146.16 533.96"/><polygon class="cls-6" points="252.44 533.96 216.94 533.96 199.19 564.71 216.94 595.45 252.44 595.45 270.19 564.71 252.44 533.96"/><polygon class="cls-6" points="358.72 533.96 323.22 533.96 305.46 564.71 323.22 595.45 358.72 595.45 376.47 564.71 358.72 533.96"/><polygon class="cls-6" points="465.11 534.05 429.61 534.05 411.86 564.79 429.61 595.54 465.11 595.54 482.87 564.79 465.11 534.05"/><polygon class="cls-6" points="571.51 533.9 536 533.9 518.25 564.64 536 595.39 571.51 595.39 589.26 564.64 571.51 533.9"/><polygon class="cls-6" points="784.06 533.9 748.56 533.9 730.81 564.64 748.56 595.39 784.06 595.39 801.81 564.64 784.06 533.9"/><polygon class="cls-6" points="890.34 533.9 854.84 533.9 837.08 564.64 854.84 595.39 890.34 595.39 908.09 564.64 890.34 533.9"/><polygon class="cls-6" points="996.73 533.98 961.23 533.98 943.48 564.73 961.23 595.48 996.73 595.48 1014.48 564.73 996.73 533.98"/><polygon class="cls-6" points="1103.16 533.83 1067.66 533.83 1049.91 564.58 1067.66 595.33 1103.16 595.33 1120.92 564.58 1103.16 533.83"/><polygon class="cls-6" points="1209.44 533.83 1173.94 533.83 1156.19 564.58 1173.94 595.33 1209.44 595.33 1227.19 564.58 1209.44 533.83"/><polygon class="cls-6" points="1315.84 533.92 1280.33 533.92 1262.58 564.66 1280.33 595.41 1315.84 595.41 1333.59 564.66 1315.84 533.92"/><polygon class="cls-6" points="1422.23 533.87 1386.73 533.87 1368.97 564.62 1386.73 595.37 1422.23 595.37 1425.11 590.37 1425.11 564.32 1425.11 538.87 1422.23 533.87"/><polygon class="cls-6" points="1425.11 539.11 1425.11 528.64 1422.23 533.87 1425.11 539.11"/><polygon class="cls-6" points="1.5 538.96 4.38 533.96 1.5 528.64 1.5 538.96"/><polygon class="cls-6" points="677.78 533.9 642.28 533.9 624.53 564.64 642.28 595.39 677.78 595.39 695.54 564.64 677.78 533.9"/><polygon class="cls-6" points="39.89 595.5 4.38 595.5 1.5 600.5 1.5 626.75 1.5 652 4.38 657 39.89 657 57.64 626.25 39.89 595.5"/><polygon class="cls-6" points="146.16 595.5 110.66 595.5 92.91 626.25 110.66 657 146.16 657 163.92 626.25 146.16 595.5"/><polygon class="cls-6" points="252.44 595.5 216.94 595.5 199.19 626.25 216.94 657 252.44 657 270.19 626.25 252.44 595.5"/><polygon class="cls-6" points="358.72 595.5 323.22 595.5 305.46 626.25 323.22 657 358.72 657 376.47 626.25 358.72 595.5"/><polygon class="cls-6" points="465.11 595.59 429.61 595.59 411.86 626.33 429.61 657.08 465.11 657.08 482.87 626.33 465.11 595.59"/><polygon class="cls-6" points="571.51 595.44 536 595.44 518.25 626.18 536 656.93 571.51 656.93 589.26 626.18 571.51 595.44"/><polygon class="cls-6" points="784.06 595.44 748.56 595.44 730.81 626.18 748.56 656.93 784.06 656.93 801.81 626.18 784.06 595.44"/><polygon class="cls-6" points="890.34 595.44 854.84 595.44 837.08 626.18 854.84 656.93 890.34 656.93 908.09 626.18 890.34 595.44"/><polygon class="cls-6" points="996.73 595.52 961.23 595.52 943.48 626.27 961.23 657.02 996.73 657.02 1014.48 626.27 996.73 595.52"/><polygon class="cls-6" points="1103.16 595.37 1067.66 595.37 1049.91 626.12 1067.66 656.87 1103.16 656.87 1120.92 626.12 1103.16 595.37"/><polygon class="cls-6" points="1209.44 595.37 1173.94 595.37 1156.19 626.12 1173.94 656.87 1209.44 656.87 1227.19 626.12 1209.44 595.37"/><polygon class="cls-6" points="1315.84 595.46 1280.33 595.46 1262.58 626.21 1280.33 656.95 1315.84 656.95 1333.59 626.21 1315.84 595.46"/><polygon class="cls-6" points="1422.23 595.42 1386.73 595.42 1368.97 626.16 1386.73 656.91 1422.23 656.91 1425.11 651.91 1425.11 625.86 1425.11 600.41 1422.23 595.42"/><polygon class="cls-6" points="1425.11 600.65 1425.11 590.18 1422.23 595.42 1425.11 600.65"/><polygon class="cls-6" points="1.5 600.5 4.38 595.5 1.5 590.18 1.5 600.5"/><polygon class="cls-6" points="677.78 595.44 642.28 595.44 624.53 626.18 642.28 656.93 677.78 656.93 695.54 626.18 677.78 595.44"/><polygon class="cls-6" points="39.89 657.04 4.38 657.04 1.5 662.04 1.5 688.29 1.5 713.54 4.38 718.54 39.89 718.54 57.64 687.79 39.89 657.04"/><polygon class="cls-6" points="146.16 657.04 110.66 657.04 92.91 687.79 110.66 718.54 146.16 718.54 163.92 687.79 146.16 657.04"/><polygon class="cls-6" points="252.44 657.04 216.94 657.04 199.19 687.79 216.94 718.54 252.44 718.54 270.19 687.79 252.44 657.04"/><polygon class="cls-6" points="358.72 657.04 323.22 657.04 305.46 687.79 323.22 718.54 358.72 718.54 376.47 687.79 358.72 657.04"/><polygon class="cls-6" points="465.11 657.13 429.61 657.13 411.86 687.88 429.61 718.62 465.11 718.62 482.87 687.88 465.11 657.13"/><polygon class="cls-6" points="571.51 656.98 536 656.98 518.25 687.73 536 718.47 571.51 718.47 589.26 687.73 571.51 656.98"/><polygon class="cls-6" points="784.06 656.98 748.56 656.98 730.81 687.73 748.56 718.47 784.06 718.47 801.81 687.73 784.06 656.98"/><polygon class="cls-6" points="890.34 656.98 854.84 656.98 837.08 687.73 854.84 718.47 890.34 718.47 908.09 687.73 890.34 656.98"/><polygon class="cls-6" points="996.73 657.07 961.23 657.07 943.48 687.81 961.23 718.56 996.73 718.56 1014.48 687.81 996.73 657.07"/><polygon class="cls-6" points="1103.16 656.91 1067.66 656.91 1049.91 687.66 1067.66 718.41 1103.16 718.41 1120.92 687.66 1103.16 656.91"/><polygon class="cls-6" points="1209.44 656.91 1173.94 656.91 1156.19 687.66 1173.94 718.41 1209.44 718.41 1227.19 687.66 1209.44 656.91"/><polygon class="cls-6" points="1315.84 657 1280.33 657 1262.58 687.75 1280.33 718.49 1315.84 718.49 1333.59 687.75 1315.84 657"/><polygon class="cls-6" points="1422.23 656.96 1386.73 656.96 1368.97 687.7 1386.73 718.45 1422.23 718.45 1425.11 713.45 1425.11 687.4 1425.11 661.95 1422.23 656.96"/><polygon class="cls-6" points="1425.11 662.19 1425.11 651.72 1422.23 656.96 1425.11 662.19"/><polygon class="cls-6" points="1.5 662.04 4.38 657.04 1.5 651.72 1.5 662.04"/><polygon class="cls-6" points="677.78 656.98 642.28 656.98 624.53 687.73 642.28 718.47 677.78 718.47 695.54 687.73 677.78 656.98"/><polygon class="cls-6" points="39.89 718.59 4.38 718.59 1.5 723.58 1.5 749.83 1.5 775.08 4.38 780.08 39.89 780.08 57.64 749.33 39.89 718.59"/><polygon class="cls-6" points="146.16 718.59 110.66 718.59 92.91 749.33 110.66 780.08 146.16 780.08 163.92 749.33 146.16 718.59"/><polygon class="cls-6" points="252.44 718.59 216.94 718.59 199.19 749.33 216.94 780.08 252.44 780.08 270.19 749.33 252.44 718.59"/><polygon class="cls-6" points="358.72 718.59 323.22 718.59 305.46 749.33 323.22 780.08 358.72 780.08 376.47 749.33 358.72 718.59"/><polygon class="cls-6" points="465.11 718.67 429.61 718.67 411.86 749.42 429.61 780.16 465.11 780.16 482.87 749.42 465.11 718.67"/><polygon class="cls-6" points="571.51 718.52 536 718.52 518.25 749.27 536 780.01 571.51 780.01 589.26 749.27 571.51 718.52"/><polygon class="cls-6" points="784.06 718.52 748.56 718.52 730.81 749.27 748.56 780.01 784.06 780.01 801.81 749.27 784.06 718.52"/><polygon class="cls-6" points="890.34 718.52 854.84 718.52 837.08 749.27 854.84 780.01 890.34 780.01 908.09 749.27 890.34 718.52"/><polygon class="cls-6" points="996.73 718.61 961.23 718.61 943.48 749.35 961.23 780.1 996.73 780.1 1014.48 749.35 996.73 718.61"/><polygon class="cls-6" points="1103.16 718.46 1067.66 718.46 1049.91 749.2 1067.66 779.95 1103.16 779.95 1120.92 749.2 1103.16 718.46"/><polygon class="cls-6" points="1209.44 718.46 1173.94 718.46 1156.19 749.2 1173.94 779.95 1209.44 779.95 1227.19 749.2 1209.44 718.46"/><polygon class="cls-6" points="1315.84 718.54 1280.33 718.54 1262.58 749.29 1280.33 780.04 1315.84 780.04 1333.59 749.29 1315.84 718.54"/><polygon class="cls-6" points="1422.23 718.5 1386.73 718.5 1368.97 749.25 1386.73 779.99 1422.23 779.99 1425.11 775 1425.11 748.94 1425.11 723.5 1422.23 718.5"/><polygon class="cls-6" points="1425.11 723.73 1425.11 713.27 1422.23 718.5 1425.11 723.73"/><polygon class="cls-6" points="1.5 723.58 4.38 718.59 1.5 713.27 1.5 723.58"/><polygon class="cls-6" points="677.78 718.52 642.28 718.52 624.53 749.27 642.28 780.01 677.78 780.01 695.54 749.27 677.78 718.52"/><polygon class="cls-6" points="39.89 780.13 4.38 780.13 1.5 785.12 1.5 811.37 1.5 836.62 4.38 841.62 39.89 841.62 57.64 810.87 39.89 780.13"/><polygon class="cls-6" points="146.16 780.13 110.66 780.13 92.91 810.87 110.66 841.62 146.16 841.62 163.92 810.87 146.16 780.13"/><polygon class="cls-6" points="252.44 780.13 216.94 780.13 199.19 810.87 216.94 841.62 252.44 841.62 270.19 810.87 252.44 780.13"/><polygon class="cls-6" points="358.72 780.13 323.22 780.13 305.46 810.87 323.22 841.62 358.72 841.62 376.47 810.87 358.72 780.13"/><polygon class="cls-6" points="465.11 780.21 429.61 780.21 411.86 810.96 429.61 841.71 465.11 841.71 482.87 810.96 465.11 780.21"/><polygon class="cls-6" points="571.51 780.06 536 780.06 518.25 810.81 536 841.56 571.51 841.56 589.26 810.81 571.51 780.06"/><polygon class="cls-6" points="784.06 780.06 748.56 780.06 730.81 810.81 748.56 841.56 784.06 841.56 801.81 810.81 784.06 780.06"/><polygon class="cls-6" points="890.34 780.06 854.84 780.06 837.08 810.81 854.84 841.56 890.34 841.56 908.09 810.81 890.34 780.06"/><polygon class="cls-6" points="996.73 780.15 961.23 780.15 943.48 810.89 961.23 841.64 996.73 841.64 1014.48 810.89 996.73 780.15"/><polygon class="cls-6" points="1103.16 780 1067.66 780 1049.91 810.75 1067.66 841.49 1103.16 841.49 1120.92 810.75 1103.16 780"/><polygon class="cls-6" points="1209.44 780 1173.94 780 1156.19 810.75 1173.94 841.49 1209.44 841.49 1227.19 810.75 1209.44 780"/><polygon class="cls-6" points="1315.84 780.08 1280.33 780.08 1262.58 810.83 1280.33 841.58 1315.84 841.58 1333.59 810.83 1315.84 780.08"/><polygon class="cls-6" points="1422.23 780.04 1386.73 780.04 1368.97 810.79 1386.73 841.53 1422.23 841.53 1425.11 836.54 1425.11 810.49 1425.11 785.04 1422.23 780.04"/><polygon class="cls-6" points="1425.11 785.27 1425.11 774.81 1422.23 780.04 1425.11 785.27"/><polygon class="cls-6" points="1.5 785.12 4.38 780.13 1.5 774.81 1.5 785.12"/><polygon class="cls-6" points="677.78 780.06 642.28 780.06 624.53 810.81 642.28 841.56 677.78 841.56 695.54 810.81 677.78 780.06"/><polygon class="cls-6" points="39.89 841.67 4.38 841.67 1.5 846.66 1.5 872.91 1.5 898.16 4.38 903.16 39.89 903.16 57.64 872.41 39.89 841.67"/><polygon class="cls-6" points="146.16 841.67 110.66 841.67 92.91 872.41 110.66 903.16 146.16 903.16 163.92 872.41 146.16 841.67"/><polygon class="cls-6" points="252.44 841.67 216.94 841.67 199.19 872.41 216.94 903.16 252.44 903.16 270.19 872.41 252.44 841.67"/><polygon class="cls-6" points="358.72 841.67 323.22 841.67 305.46 872.41 323.22 903.16 358.72 903.16 376.47 872.41 358.72 841.67"/><polygon class="cls-6" points="465.11 841.75 429.61 841.75 411.86 872.5 429.61 903.25 465.11 903.25 482.87 872.5 465.11 841.75"/><polygon class="cls-6" points="571.51 841.6 536 841.6 518.25 872.35 536 903.1 571.51 903.1 589.26 872.35 571.51 841.6"/><polygon class="cls-6" points="784.06 841.6 748.56 841.6 730.81 872.35 748.56 903.1 784.06 903.1 801.81 872.35 784.06 841.6"/><polygon class="cls-6" points="890.34 841.6 854.84 841.6 837.08 872.35 854.84 903.1 890.34 903.1 908.09 872.35 890.34 841.6"/><polygon class="cls-6" points="996.73 841.69 961.23 841.69 943.48 872.44 961.23 903.18 996.73 903.18 1014.48 872.44 996.73 841.69"/><polygon class="cls-6" points="1103.16 841.54 1067.66 841.54 1049.91 872.29 1067.66 903.03 1103.16 903.03 1120.92 872.29 1103.16 841.54"/><polygon class="cls-6" points="1209.44 841.54 1173.94 841.54 1156.19 872.29 1173.94 903.03 1209.44 903.03 1227.19 872.29 1209.44 841.54"/><polygon class="cls-6" points="1315.84 841.63 1280.33 841.63 1262.58 872.37 1280.33 903.12 1315.84 903.12 1333.59 872.37 1315.84 841.63"/><polygon class="cls-6" points="1422.23 841.58 1386.73 841.58 1368.97 872.33 1386.73 903.08 1422.23 903.08 1425.11 898.08 1425.11 872.03 1425.11 846.58 1422.23 841.58"/><polygon class="cls-6" points="1425.11 846.82 1425.11 836.35 1422.23 841.58 1425.11 846.82"/><polygon class="cls-6" points="1.5 846.66 4.38 841.67 1.5 836.35 1.5 846.66"/><polygon class="cls-6" points="677.78 841.6 642.28 841.6 624.53 872.35 642.28 903.1 677.78 903.1 695.54 872.35 677.78 841.6"/><polygon class="cls-6" points="39.89 903.21 4.38 903.21 1.5 908.21 1.5 934.46 1.5 959.71 5.21 965.36 39.31 965.36 57.64 933.96 39.89 903.21"/><polygon class="cls-6" points="146.16 903.21 110.66 903.21 92.91 933.96 111.24 965.36 145.34 965.36 163.92 933.96 146.16 903.21"/><polygon class="cls-6" points="252.44 903.21 216.94 903.21 199.19 933.96 218.01 965.36 251.37 965.36 270.19 933.96 252.44 903.21"/><polygon class="cls-6" points="358.72 903.21 323.22 903.21 305.46 933.96 324.04 965.36 358.14 965.36 376.47 933.96 358.72 903.21"/><polygon class="cls-6" points="465.11 903.3 429.61 903.3 411.86 934.04 429.33 965.36 464.92 965.36 482.87 934.04 465.11 903.3"/><polygon class="cls-6" points="571.51 903.15 536 903.15 518.25 933.89 536.1 965.36 570.95 965.36 589.26 933.89 571.51 903.15"/><polygon class="cls-6" points="784.06 903.15 748.56 903.15 730.81 933.89 748.9 965.36 783.75 965.36 801.81 933.89 784.06 903.15"/><polygon class="cls-6" points="890.34 903.15 854.84 903.15 837.08 933.89 855.67 965.36 889.78 965.36 908.09 933.89 890.34 903.15"/><polygon class="cls-6" points="996.73 903.23 961.23 903.23 943.48 933.98 961.7 965.36 996.55 965.36 1014.48 933.98 996.73 903.23"/><polygon class="cls-6" points="1103.16 903.08 1067.66 903.08 1049.91 933.83 1068.47 965.36 1102.58 965.36 1120.92 933.83 1103.16 903.08"/><polygon class="cls-6" points="1209.44 903.08 1173.94 903.08 1156.19 933.83 1174.5 965.36 1209.35 965.36 1227.19 933.83 1209.44 903.08"/><polygon class="cls-6" points="1315.84 903.17 1280.33 903.17 1262.58 933.91 1281.27 965.36 1314.64 965.36 1333.59 933.91 1315.84 903.17"/><polygon class="cls-6" points="1422.23 903.12 1386.73 903.12 1368.97 933.87 1387.3 965.36 1421.41 965.36 1425.11 959.62 1425.11 933.57 1425.11 908.12 1422.23 903.12"/><polygon class="cls-6" points="1425.11 908.36 1425.11 897.89 1422.23 903.12 1425.11 908.36"/><polygon class="cls-6" points="1.5 908.21 4.38 903.21 1.5 897.89 1.5 908.21"/><polygon class="cls-6" points="677.78 903.15 642.28 903.15 624.53 933.89 642.87 965.36 676.98 965.36 695.54 933.89 677.78 903.15"/><polygon class="cls-6" points="1.5 965.36 5.21 965.36 1.5 959.43 1.5 965.36"/><polygon class="cls-6" points="1425.11 959.43 1425.26 965.36 1421.41 965.36 1425.11 959.43"/></g><circle class="cls-2" cx="762.49" cy="564.58" r="511"/><circle class="cls-7" cx="762.49" cy="564.58" r="511"/></g></g></g></svg>