<svg xmlns="http://www.w3.org/2000/svg" viewBox="0 0 548.79 387.1"><defs><style>.cls-1{font-size:60px;letter-spacing:-0.02em;}.cls-1,.cls-2,.cls-6{font-family:TwCenMT-Regular, Tw Cen MT;}.cls-2{font-size:104.36px;letter-spacing:-0.02em;}.cls-3{letter-spacing:-0.04em;}.cls-4{letter-spacing:0.01em;}.cls-5{letter-spacing:-0.02em;}.cls-6{font-size:40px;}.cls-7{letter-spacing:-0.01em;}</style></defs><g id="Ebene_2" data-name="Ebene 2"><g id="Ebene_1-2" data-name="Ebene 1"><path d="M73.76,181.39a188.28,188.28,0,0,1,16.93-70.1A191.67,191.67,0,0,1,194.24,13.37,191.62,191.62,0,0,1,421.68,81.6a191.31,191.31,0,0,1,17.93,31.64,188.29,188.29,0,0,1,16.14,70.28l-.88-9c-.41-3-.88-6-1.31-8.93s-1.12-5.91-1.68-8.86-1.39-5.85-2.09-8.77a188.8,188.8,0,0,0-12.41-33.7,192,192,0,0,0-102-95.74A191.4,191.4,0,0,0,196,17.77,192.11,192.11,0,0,0,92.89,112.34a188.76,188.76,0,0,0-12.78,33.57c-.73,2.91-1.51,5.81-2.19,8.74s-1.22,5.88-1.77,8.84l-1.4,8.92Z"/><path d="M448.78,246.13a187.61,187.61,0,0,1-25.6,56.61,193.77,193.77,0,0,1-42.81,45.36,189.49,189.49,0,0,1-55.25,29.24,192.23,192.23,0,0,1-123.51-.86,190,190,0,0,1-54.82-30.05,193.1,193.1,0,0,1-42.15-46,188.18,188.18,0,0,1-24.77-57l2.32,7.42,2.61,7.32,2.88,7.22,3.16,7.08a191.86,191.86,0,0,0,330.73,29.13A190.18,190.18,0,0,0,437.4,275l3.27-7,3-7.17,2.72-7.28Z"/><text class="cls-1" transform="translate(130.54 160.84) scale(0.92 1)">Hofladen für </text><text class="cls-2" transform="translate(2.42 235.66) scale(0.92 1)">Im<tspan class="cls-3" x="88.31" y="0">k</tspan><tspan x="129.85" y="0">ereibedar</tspan><tspan class="cls-4" x="532.74" y="0">f</tspan><tspan class="cls-5" x="568.51" y="0"> </tspan></text><text class="cls-6" transform="translate(143.31 274.39)"><tspan class="cls-7">Fr</tspan><tspan x="30.06" y="0">anz Simmang</tspan></text><path d="M330.16,69.13l-.34-.85a4.75,4.75,0,0,1,2.48-.75A8.69,8.69,0,0,1,339.46,70c0,.15,0,.23,0,.27s-.29.35-.5.6A8.13,8.13,0,0,0,330.16,69.13Z"/><path d="M328.3,57.36l.73-.51a3.65,3.65,0,0,1,1.07,2,8.65,8.65,0,0,1-1.35,7.91l-.82-.57A8,8,0,0,0,328.3,57.36Z"/><path d="M200.28,56.58l.85.52A8.07,8.07,0,0,0,201.5,66l-.73.58A5.78,5.78,0,0,1,199.35,64,8.71,8.71,0,0,1,200.28,56.58Z"/><path d="M199.31,68.9a8.11,8.11,0,0,0-8.72,1.74l-.66-.61c1.91-2.58,6.8-3.61,9.68-2Z"/><path d="M265.07,46.19q3.36,2,6.73,4c1.44.85,2.86,1.73,4.34,2.52a1.63,1.63,0,0,1,1,1.67c-.06,3.74-.05,7.49-.11,11.23a1.63,1.63,0,0,0,.93,1.67c3.26,1.85,6.47,3.77,9.72,5.63a1.73,1.73,0,0,1,1,1.73c-.06,4-.06,7.95,0,11.93a1.49,1.49,0,0,1-.84,1.51q-5.31,3-10.56,6a1.54,1.54,0,0,1-1.75,0c-3.37-2-6.76-4-10.14-5.91l-.61-.33c-.31.17-.66.34-1,.54-3.25,1.85-6.52,3.68-9.75,5.57a1.65,1.65,0,0,1-1.92,0q-5.13-3-10.32-6a1.59,1.59,0,0,1-.92-1.59q.09-6.08.08-12.13a1.37,1.37,0,0,1,.79-1.35c3.27-1.84,6.51-3.7,9.77-5.56l1.14-.69V65.35c0-3.67,0-7.35,0-11a1.74,1.74,0,0,1,1-1.75c3.77-2.09,7.51-4.25,11.26-6.38ZM264.73,73l.34-.13c3.43-2,6.85-3.91,10.28-5.84a1,1,0,0,0,.59-1q0-5.66.1-11.31a1.28,1.28,0,0,0-.74-1.27q-4.87-2.79-9.7-5.66a1.25,1.25,0,0,0-1.45,0c-3.21,1.85-6.43,3.7-9.67,5.5a1.41,1.41,0,0,0-.79,1.44c0,3.14,0,6.28,0,9.42V66.6Zm-11.56-5.45a2.11,2.11,0,0,0-.41.15c-3.4,1.93-6.8,3.88-10.2,5.8a1.13,1.13,0,0,0-.59,1.15q0,5.61-.07,11.22a1.26,1.26,0,0,0,.72,1.28q4.83,2.77,9.62,5.6a1.35,1.35,0,0,0,1.56,0q4.81-2.79,9.68-5.51a1.27,1.27,0,0,0,.74-1.26c0-3.71,0-7.41,0-11.12a1.32,1.32,0,0,0-.77-1.34q-4.58-2.62-9.11-5.29Zm23.22,25.73c3.59-2,7.1-4,10.62-6a1,1,0,0,0,.54-1c0-3.81,0-7.61,0-11.42a1.18,1.18,0,0,0-.69-1.19Q282,70.88,277.19,68a1.19,1.19,0,0,0-1.37,0q-4.86,2.82-9.76,5.56a1.34,1.34,0,0,0-.76,1.35c0,3.71,0,7.42,0,11.13a1.33,1.33,0,0,0,.81,1.32c3.19,1.82,6.37,3.68,9.55,5.53Z"/><path d="M206.44,80.6v1.26a18.77,18.77,0,0,1-1.82,8.44A7,7,0,0,1,203.47,92a2.79,2.79,0,0,1-4,.22,4.89,4.89,0,0,1-1.6-2.6,17.63,17.63,0,0,1,2.63-15.36,3.06,3.06,0,0,0,.64-2.18A4.64,4.64,0,0,1,205.4,67a2.15,2.15,0,0,0,1.44-.77,17.69,17.69,0,0,1,15.08-6,4.93,4.93,0,0,1,2.7,1,2.82,2.82,0,0,1,.54,4.22,7.54,7.54,0,0,1-1.47,1.35,19.7,19.7,0,0,1-8.62,3.44c1,.49,1.76.86,2.5,1.31a20.14,20.14,0,0,1,2.31,1.59,18.12,18.12,0,0,1,2,1.85,20,20,0,0,1,1.66,2.13,17.64,17.64,0,0,1,1.33,2.36,17,17,0,0,1,1.53,5.26c.13.88.16,1.78.23,2.75a18,18,0,0,1-11.21-.27A19.6,19.6,0,0,1,206.44,80.6Zm-4.73-6.06s-.08,0-.13.09a7.79,7.79,0,0,0-.48.65,17.17,17.17,0,0,0-2.84,8.54,15.25,15.25,0,0,0,.71,5.73,3.78,3.78,0,0,0,1.22,1.91,1.76,1.76,0,0,0,2.52-.15,4.53,4.53,0,0,0,.84-1.24,25.52,25.52,0,0,0,1.08-2.79,17.83,17.83,0,0,0,.09-10,2,2,0,0,0-.55-1C203.41,75.67,202.57,75.14,201.71,74.54ZM207.59,67c.81.7,1.55,1.36,2.31,2a1.41,1.41,0,0,0,.74.26,18.16,18.16,0,0,0,12.76-3.55,4.84,4.84,0,0,0,1-1,1.77,1.77,0,0,0-.33-2.58,3.66,3.66,0,0,0-2.12-.81,16.69,16.69,0,0,0-13.62,4.88C208,66.43,207.79,66.75,207.59,67ZM208.7,81.5l2.1,2a17.87,17.87,0,0,0,8-10L216.33,72A20.69,20.69,0,0,1,208.7,81.5Zm5.32,4c.65-.48,1.26-.9,1.82-1.36a18.38,18.38,0,0,0,5.37-7.23c.11-.29.24-.72.11-.93a6.13,6.13,0,0,0-1.65-1.64,19.46,19.46,0,0,1-7.94,9.82Zm1.36.35,0,.25c.93.25,1.86.53,2.8.72a1.31,1.31,0,0,0,.91-.28,13,13,0,0,0,4.58-5.94,1.18,1.18,0,0,0,.13-.76,7,7,0,0,0-1.59-2.57A20.29,20.29,0,0,1,215.38,85.86Zm-2.29-15.15A42.46,42.46,0,0,1,210.35,75a45.44,45.44,0,0,1-3.66,3.7l1.34,2a19.28,19.28,0,0,0,7.33-9.11Zm-7,6.68c2.21-1.09,5.28-5,5.49-6.92-3-.7-4.5.1-5.57,1.58A4.63,4.63,0,0,0,206.14,77.39Zm2.44-8.22a3.7,3.7,0,0,0-6.38,2.94,3,3,0,0,0,2,2.74A5.65,5.65,0,0,1,208.58,69.17Zm16.87,17.39a13.91,13.91,0,0,0-.91-5c-.46.78-.79,1.43-1.2,2a19.11,19.11,0,0,1-1.4,1.82c-.46.54-1,1-1.53,1.58A11,11,0,0,0,225.45,86.56Z"/><path d="M314.13,70.47a22.92,22.92,0,0,1-5.83-2c-1-.53-1.94-1.17-2.9-1.78a3.73,3.73,0,0,1-.61-.52c-2-1.86-1.48-4.36,1-5.36a5.88,5.88,0,0,1,1.75-.41,17.68,17.68,0,0,1,15,6,2.39,2.39,0,0,0,1.62.84,4.71,4.71,0,0,1,4.11,5.34,2,2,0,0,0,.43,1.64,17.69,17.69,0,0,1,2.88,15.5,6.51,6.51,0,0,1-.92,2,3,3,0,0,1-5.23-.05,14.37,14.37,0,0,1-2.13-5.9c-.23-1.64-.28-3.3-.41-5.06a18.19,18.19,0,0,1-8.84,6.71,18.38,18.38,0,0,1-11.18.31,18,18,0,0,1,3-10.38A18.84,18.84,0,0,1,314.13,70.47Zm13.53,4.1a11.66,11.66,0,0,1-.91.93,4.5,4.5,0,0,1-1.06.74,1.57,1.57,0,0,0-.95,1.18,18.11,18.11,0,0,0,1.15,12.88,5,5,0,0,0,.57.94,1.87,1.87,0,0,0,3.15.07,5.67,5.67,0,0,0,.91-1.76,15.87,15.87,0,0,0,.34-7.92A16.32,16.32,0,0,0,327.66,74.57Zm-5.83-7.37a2.61,2.61,0,0,0-.2-.27,16.6,16.6,0,0,0-14.26-5.42,4.36,4.36,0,0,0-1.85.7,1.79,1.79,0,0,0-.39,2.78,5.48,5.48,0,0,0,1,1,18.16,18.16,0,0,0,12.67,3.45,1.54,1.54,0,0,0,.8-.34C320.34,68.49,321,67.88,321.83,67.2Zm-1.08,14.5a20.66,20.66,0,0,1-7.66-9.51l-2.46,1.57a18,18,0,0,0,8,9.93Zm-11-7.15c-.26.21-.4.3-.52.42-.29.28-.55.59-.85.85a1,1,0,0,0-.2,1.25,18.27,18.27,0,0,0,4.32,6.31c.89.83,1.88,1.57,2.86,2.37l2.35-1.37A19.51,19.51,0,0,1,309.76,74.55Zm4.32,11.76v-.25a20,20,0,0,1-6.89-8.63A9.34,9.34,0,0,0,305.64,80a.94.94,0,0,0,0,.66,13.06,13.06,0,0,0,4.71,6.18,1.31,1.31,0,0,0,.93.23C312.24,86.84,313.16,86.55,314.08,86.31Zm8.78-7.59a16.79,16.79,0,0,1-6.31-7.83,7.64,7.64,0,0,0-2.38.94c1.19,3.53,4.86,8,7.35,8.91Zm.36-1a4.51,4.51,0,0,0-5.54-6.85A15.36,15.36,0,0,0,323.22,77.67Zm2-2.48a3.61,3.61,0,0,0,2-3.74,3.76,3.76,0,0,0-2.84-3.14A3.21,3.21,0,0,0,321,69.42,5.61,5.61,0,0,1,325.27,75.19Zm-16.3,12a19,19,0,0,1-4.05-5.31,13.25,13.25,0,0,0-.94,4.93A12.05,12.05,0,0,0,309,87.21Z"/></g></g></svg>