<svg xmlns="http://www.w3.org/2000/svg" viewBox="0 0 548.79 235.88"><defs><style>.cls-1{font-size:60px;letter-spacing:-0.02em;}.cls-1,.cls-2,.cls-6,.cls-7,.cls-9{fill:#fff;}.cls-1,.cls-2,.cls-7{font-family:TwCenMT-Regular, Tw Cen MT;}.cls-2{font-size:104.36px;letter-spacing:-0.02em;}.cls-3{letter-spacing:-0.04em;}.cls-4{letter-spacing:0.01em;}.cls-5{letter-spacing:-0.02em;}.cls-7{font-size:40px;}.cls-8{letter-spacing:-0.01em;}.cls-9{stroke:#fff;stroke-linecap:round;}</style></defs><g id="Ebene_2" data-name="Ebene 2"><g id="Ebene_1-2" data-name="Ebene 1"><text class="cls-1" transform="translate(130.54 111.21) scale(0.92 1)">Hofladen für </text><text class="cls-2" transform="translate(2.42 186.04) scale(0.92 1)">Im<tspan class="cls-3" x="88.31" y="0">k</tspan><tspan x="129.85" y="0">ereibedar</tspan><tspan class="cls-4" x="532.74" y="0">f</tspan><tspan class="cls-5" x="568.51" y="0"> </tspan></text><path class="cls-6" d="M264.79,0l8.59,5.09c1.85,1.08,3.67,2.2,5.55,3.22a2.1,2.1,0,0,1,1.24,2.13c-.08,4.78-.07,9.57-.15,14.35a2.07,2.07,0,0,0,1.19,2.13c4.16,2.36,8.27,4.82,12.42,7.2a2.21,2.21,0,0,1,1.32,2.2c-.08,5.09-.08,10.17-.06,15.25a1.88,1.88,0,0,1-1.07,1.93q-6.78,3.78-13.49,7.67a1.94,1.94,0,0,1-2.24,0c-4.3-2.54-8.64-5-13-7.55-.22-.13-.45-.24-.78-.42-.4.21-.85.44-1.28.69-4.17,2.36-8.34,4.71-12.47,7.12a2.12,2.12,0,0,1-2.45,0q-6.57-3.9-13.19-7.67a2,2,0,0,1-1.17-2c.07-5.17.09-10.33.09-15.5a1.74,1.74,0,0,1,1-1.72q6.25-3.53,12.48-7.11c.48-.27.94-.57,1.46-.87V24.48c0-4.69.06-9.39,0-14.09a2.21,2.21,0,0,1,1.28-2.24C255,5.47,259.74,2.72,264.53,0Zm-.44,34.3a3,3,0,0,0,.44-.18c4.38-2.48,8.75-5,13.14-7.46a1.34,1.34,0,0,0,.75-1.33q0-7.23.13-14.46a1.64,1.64,0,0,0-.95-1.62Q271.64,5.68,265.47,2a1.61,1.61,0,0,0-1.86,0c-4.1,2.37-8.22,4.73-12.36,7a1.8,1.8,0,0,0-1,1.84c0,4,0,8,0,12v3.14Zm-14.78-7a3.4,3.4,0,0,0-.52.19q-6.51,3.72-13,7.42a1.44,1.44,0,0,0-.76,1.46c0,4.79,0,9.57-.09,14.35a1.65,1.65,0,0,0,.92,1.64q6.18,3.53,12.3,7.14a1.73,1.73,0,0,0,2,0q6.15-3.57,12.36-7a1.6,1.6,0,0,0,.94-1.61c0-4.74,0-9.48.05-14.22a1.69,1.69,0,0,0-1-1.71c-3.89-2.23-7.76-4.5-11.64-6.76C250.6,27.9,250.08,27.61,249.57,27.33Zm29.69,32.88c4.58-2.61,9.07-5.17,13.57-7.71a1.25,1.25,0,0,0,.68-1.24q0-7.3.05-14.6a1.51,1.51,0,0,0-.89-1.52q-6.21-3.59-12.39-7.24a1.52,1.52,0,0,0-1.75,0q-6.21,3.6-12.48,7.11a1.7,1.7,0,0,0-1,1.72c0,4.74,0,9.48,0,14.22a1.7,1.7,0,0,0,1,1.69c4.08,2.33,8.14,4.71,12.2,7.07C278.58,59.85,278.88,60,279.26,60.21Z"/><path class="cls-6" d="M46.46,61.6l1.09.67A10.3,10.3,0,0,0,48,73.57l-.93.74a7.47,7.47,0,0,1-1.81-3.26A11.07,11.07,0,0,1,46.46,61.6Z"/><path class="cls-6" d="M45.21,77.34c-4.19-1.42-7.88-.78-11.13,2.22l-.84-.77c2.43-3.3,8.68-4.62,12.36-2.51Z"/><path class="cls-6" d="M54.34,92.29c0,.54,0,1.07,0,1.61A23.94,23.94,0,0,1,52,104.69a9,9,0,0,1-1.47,2.23,3.56,3.56,0,0,1-5.07.28,6.26,6.26,0,0,1-2.05-3.33,22.49,22.49,0,0,1,3.35-19.62,4,4,0,0,0,.82-2.79A5.93,5.93,0,0,1,53,74.9a2.78,2.78,0,0,0,1.84-1,22.63,22.63,0,0,1,19.27-7.69,6.3,6.3,0,0,1,3.45,1.24,3.61,3.61,0,0,1,.69,5.4,9.59,9.59,0,0,1-1.88,1.72,24.91,24.91,0,0,1-11,4.39c1.22.64,2.24,1.1,3.19,1.68a26.25,26.25,0,0,1,3,2A22.49,22.49,0,0,1,74,85.06a23.44,23.44,0,0,1,2.12,2.73,21.62,21.62,0,0,1,1.7,3,22.6,22.6,0,0,1,1.27,3.35,24.13,24.13,0,0,1,.7,3.38c.16,1.13.19,2.27.29,3.52a23,23,0,0,1-14.33-.35A24.9,24.9,0,0,1,54.34,92.29Zm-6.06-7.75a.46.46,0,0,0-.16.13,9.68,9.68,0,0,0-.61.82,22,22,0,0,0-3.63,10.92,19.14,19.14,0,0,0,.91,7.32,4.83,4.83,0,0,0,1.55,2.45,2.26,2.26,0,0,0,3.23-.2,5.76,5.76,0,0,0,1.06-1.58A31,31,0,0,0,52,100.83a22.76,22.76,0,0,0,.11-12.75,2.58,2.58,0,0,0-.7-1.3C50.46,86,49.38,85.31,48.28,84.54Zm7.52-9.67c1,.89,2,1.74,3,2.53a1.71,1.71,0,0,0,.94.32A23.2,23.2,0,0,0,76,73.19a6.07,6.07,0,0,0,1.27-1.26,2.25,2.25,0,0,0-.42-3.29,4.74,4.74,0,0,0-2.71-1,21.35,21.35,0,0,0-17.4,6.24C56.38,74.19,56.06,74.59,55.8,74.87Zm1.43,18.57L59.9,96A22.87,22.87,0,0,0,70.12,83.22L67,81.29A26.4,26.4,0,0,1,57.23,93.44ZM64,98.57c.83-.62,1.6-1.15,2.32-1.74a23.37,23.37,0,0,0,6.86-9.24c.15-.37.31-.93.14-1.18a7.65,7.65,0,0,0-2.1-2.11A24.88,24.88,0,0,1,61.09,96.86Zm1.73.44,0,.32c1.19.32,2.36.69,3.57.93a1.72,1.72,0,0,0,1.16-.36,16.7,16.7,0,0,0,5.86-7.59,1.53,1.53,0,0,0,.16-1,8.74,8.74,0,0,0-2-3.28A25.83,25.83,0,0,1,65.75,99ZM62.83,79.66a58.3,58.3,0,0,1-3.5,5.47,61.08,61.08,0,0,1-4.68,4.72l1.72,2.5a24.55,24.55,0,0,0,9.36-11.64ZM54,88.19c2.82-1.39,6.75-6.34,7-8.84-3.79-.9-5.74.13-7.12,2A5.93,5.93,0,0,0,54,88.19Zm3.12-10.5a4.73,4.73,0,0,0-8.15,3.76A3.86,3.86,0,0,0,51.4,85C51.52,81.22,53.39,78.8,57.07,77.69ZM78.63,99.91a17.89,17.89,0,0,0-1.17-6.38c-.58,1-1,1.83-1.53,2.6a25.26,25.26,0,0,1-1.79,2.33c-.59.68-1.26,1.3-2,2A14,14,0,0,0,78.63,99.91Z"/><path class="cls-6" d="M472.12,77.91l-.43-1.08a6.24,6.24,0,0,1,3.18-1A11.11,11.11,0,0,1,484,79.05c0,.19,0,.29,0,.35-.18.23-.37.45-.64.77A10.4,10.4,0,0,0,472.12,77.91Z"/><path class="cls-6" d="M469.75,62.88l.93-.66a4.68,4.68,0,0,1,1.37,2.56,11.1,11.1,0,0,1-1.72,10.11l-1.05-.72A10.25,10.25,0,0,0,469.75,62.88Z"/><path class="cls-6" d="M451.64,79.63a29.24,29.24,0,0,1-7.45-2.53c-1.27-.68-2.48-1.5-3.7-2.28a4.94,4.94,0,0,1-.79-.66c-2.48-2.38-1.89-5.57,1.31-6.85a7.88,7.88,0,0,1,2.23-.53,22.6,22.6,0,0,1,19.17,7.63,3.06,3.06,0,0,0,2.06,1.06,6,6,0,0,1,5.26,6.83,2.59,2.59,0,0,0,.54,2.1A22.59,22.59,0,0,1,474,104.2a8,8,0,0,1-1.17,2.54c-1.82,2.6-4.94,2.58-6.68-.07a18.24,18.24,0,0,1-2.72-7.53c-.3-2.1-.36-4.23-.53-6.48a23.24,23.24,0,0,1-25.58,9,22.9,22.9,0,0,1,3.85-13.26A24.14,24.14,0,0,1,451.64,79.63Zm17.29,5.23a13.59,13.59,0,0,1-1.16,1.2,5.43,5.43,0,0,1-1.36.94,2,2,0,0,0-1.21,1.51A23.15,23.15,0,0,0,466.67,105a6.41,6.41,0,0,0,.73,1.2,2.39,2.39,0,0,0,4,.09,7.15,7.15,0,0,0,1.17-2.24A20.46,20.46,0,0,0,473,93.89,21.19,21.19,0,0,0,468.93,84.86Zm-7.45-9.4a2.66,2.66,0,0,0-.25-.36A21.21,21.21,0,0,0,443,68.18a5.58,5.58,0,0,0-2.36.89,2.29,2.29,0,0,0-.5,3.56,6.84,6.84,0,0,0,1.3,1.22,23.2,23.2,0,0,0,16.19,4.41,2,2,0,0,0,1-.43C459.58,77.1,460.47,76.31,461.48,75.46ZM460.11,94a26.38,26.38,0,0,1-9.8-12.16l-3.14,2a23.08,23.08,0,0,0,10.25,12.7Zm-14.05-9.13a7.42,7.42,0,0,0-.67.53c-.36.35-.69.75-1.08,1.09a1.21,1.21,0,0,0-.26,1.59,23.33,23.33,0,0,0,5.52,8.06c1.14,1.07,2.41,2,3.65,3l3-1.75A24.93,24.93,0,0,1,446.06,84.85Zm5.52,15,0-.32a25.77,25.77,0,0,1-8.8-11,12,12,0,0,0-2,3.22,1.31,1.31,0,0,0,0,.85,16.68,16.68,0,0,0,6,7.9,1.65,1.65,0,0,0,1.17.29C449.23,100.55,450.4,100.18,451.58,99.87Zm11.22-9.7a21.56,21.56,0,0,1-8.07-10,9.41,9.41,0,0,0-3,1.2c1.52,4.5,6.2,10.2,9.39,11.38Zm.46-1.34a5.76,5.76,0,0,0-7.08-8.75A19.63,19.63,0,0,0,463.26,88.83Zm2.62-3.17a4.61,4.61,0,0,0,2.52-4.78,4.79,4.79,0,0,0-3.64-4,4.07,4.07,0,0,0-4.39,1.42C464,79.37,465.8,81.79,465.88,85.66ZM445.05,101a24.08,24.08,0,0,1-5.18-6.78,16.77,16.77,0,0,0-1.19,6.29A15.28,15.28,0,0,0,445.05,101Z"/><text class="cls-7" transform="translate(143.31 224.76)"><tspan class="cls-8">Fr</tspan><tspan x="30.06" y="0">anz Simmang</tspan></text><line class="cls-9" x1="12" y1="216.22" x2="139.18" y2="216.22"/><line class="cls-9" x1="12" y1="34.3" x2="230.15" y2="34.3"/><line class="cls-9" x1="12" y1="216.22" x2="12" y2="189.48"/><line class="cls-9" x1="12" y1="118.3" x2="12" y2="34.3"/><line class="cls-9" x1="505.13" y1="190.61" x2="505.18" y2="216.22"/><line class="cls-9" x1="505.13" y1="34.3" x2="505.13" y2="114.07"/><line class="cls-9" x1="505.18" y1="216.22" x2="388.1" y2="216.22"/><line class="cls-9" x1="505.13" y1="34.3" x2="298.15" y2="34.3"/></g></g></svg>