<svg xmlns="http://www.w3.org/2000/svg" xmlns:xlink="http://www.w3.org/1999/xlink" viewBox="0 0 1426.79 1024"><defs><style>.cls-1{font-size:700px;font-family:FugazOne-Regular, Fugaz One;}.cls-1,.cls-2,.cls-6{fill:none;}.cls-2,.cls-5,.cls-6{stroke:#000;stroke-miterlimit:10;}.cls-3{clip-path:url(#clip-path);}.cls-4{clip-path:url(#clip-path-2);}.cls-5{fill:#ffd360;stroke-width:3px;}.cls-6{stroke-width:2px;}</style><clipPath id="clip-path" transform="translate(328.49 139.29)"><text class="cls-1" transform="translate(0 602)">FS</text></clipPath><clipPath id="clip-path-2" transform="translate(328.49 139.29)"><circle class="cls-2" cx="434" cy="372.71" r="511"/></clipPath></defs><g id="Ebene_2" data-name="Ebene 2"><g id="Ebene_1-2" data-name="Ebene 1"><g class="cls-3"><g class="cls-4"><polygon class="cls-5" points="39.89 112.13 4.38 112.13 1.5 117.13 1.5 143.38 1.5 168.63 4.38 173.62 39.89 173.62 57.64 142.88 39.89 112.13"/><polygon class="cls-5" points="93.01 142.88 57.5 142.88 39.75 173.62 57.5 204.37 93.01 204.37 110.76 173.62 93.01 142.88"/><polygon class="cls-5" points="146.16 112.13 110.66 112.13 92.91 142.88 110.66 173.62 146.16 173.62 163.92 142.88 146.16 112.13"/><polygon class="cls-5" points="86.72 112.06 57.64 112.06 39.75 112.06 57.5 142.81 93.01 142.81 110.76 112.06 86.72 112.06"/><polygon class="cls-5" points="193.04 112.17 163.96 112.17 146.07 112.17 163.82 142.92 199.32 142.92 217.07 112.17 193.04 112.17"/><polygon class="cls-5" points="299.36 112.06 270.27 112.06 252.38 112.06 270.14 142.81 305.64 142.81 323.39 112.06 299.36 112.06"/><polygon class="cls-5" points="405.69 112.06 376.61 112.06 358.72 112.06 376.47 142.81 411.98 142.81 429.73 112.06 405.69 112.06"/><polygon class="cls-5" points="512.02 112.06 482.93 112.06 465.05 112.06 482.8 142.81 518.3 142.81 536.05 112.06 512.02 112.06"/><polygon class="cls-5" points="618.34 112.06 589.26 112.06 571.37 112.06 589.12 142.81 624.63 142.81 642.38 112.06 618.34 112.06"/><polygon class="cls-5" points="724.75 112.06 695.67 112.06 677.78 112.06 695.53 142.81 731.04 142.81 748.79 112.06 724.75 112.06"/><polygon class="cls-5" points="830.97 112.06 801.89 112.06 784 112.06 801.75 142.81 837.26 142.81 855.01 112.06 830.97 112.06"/><polygon class="cls-5" points="937.29 112.06 908.21 112.06 890.32 112.06 908.07 142.81 943.57 142.81 961.33 112.06 937.29 112.06"/><polygon class="cls-5" points="1043.61 112.06 1014.52 112.06 996.63 112.06 1014.39 142.81 1049.89 142.81 1067.64 112.06 1043.61 112.06"/><polygon class="cls-5" points="1150.08 112.06 1120.99 112.06 1103.11 112.06 1120.86 142.81 1156.36 142.81 1174.11 112.06 1150.08 112.06"/><polygon class="cls-5" points="1256.39 112.06 1227.31 112.06 1209.42 112.06 1227.17 142.81 1262.68 142.81 1280.43 112.06 1256.39 112.06"/><polygon class="cls-5" points="1362.71 112.06 1333.63 112.06 1315.74 112.06 1333.49 142.81 1368.99 142.81 1386.74 112.06 1362.71 112.06"/><polygon class="cls-5" points="199.32 142.88 163.82 142.88 146.07 173.62 163.82 204.37 199.32 204.37 217.07 173.62 199.32 142.88"/><polygon class="cls-5" points="252.44 112.13 216.94 112.13 199.19 142.88 216.94 173.62 252.44 173.62 270.19 142.88 252.44 112.13"/><polygon class="cls-5" points="305.64 142.88 270.14 142.88 252.38 173.62 270.14 204.37 305.64 204.37 323.39 173.62 305.64 142.88"/><polygon class="cls-5" points="358.72 112.13 323.22 112.13 305.46 142.88 323.22 173.62 358.72 173.62 376.47 142.88 358.72 112.13"/><polygon class="cls-5" points="411.95 142.96 376.45 142.96 358.7 173.71 376.45 204.46 411.95 204.46 429.71 173.71 411.95 142.96"/><polygon class="cls-5" points="465.11 112.22 429.61 112.22 411.86 142.96 429.61 173.71 465.11 173.71 482.87 142.96 465.11 112.22"/><polygon class="cls-5" points="518.27 142.96 482.77 142.96 465.02 173.71 482.77 204.46 518.27 204.46 536.02 173.71 518.27 142.96"/><polygon class="cls-5" points="571.51 112.06 536 112.06 518.25 142.81 536 173.56 571.51 173.56 589.26 142.81 571.51 112.06"/><polygon class="cls-5" points="624.63 142.81 589.12 142.81 571.37 173.56 589.12 204.31 624.63 204.31 642.38 173.56 624.63 142.81"/><polygon class="cls-5" points="730.94 142.81 695.44 142.81 677.69 173.56 695.44 204.31 730.94 204.31 748.69 173.56 730.94 142.81"/><polygon class="cls-5" points="784.06 112.06 748.56 112.06 730.81 142.81 748.56 173.56 784.06 173.56 801.81 142.81 784.06 112.06"/><polygon class="cls-5" points="837.26 142.81 801.75 142.81 784 173.56 801.75 204.31 837.26 204.31 855.01 173.56 837.26 142.81"/><polygon class="cls-5" points="890.34 112.06 854.84 112.06 837.08 142.81 854.84 173.56 890.34 173.56 908.09 142.81 890.34 112.06"/><polygon class="cls-5" points="943.57 142.9 908.07 142.9 890.32 173.64 908.07 204.39 943.57 204.39 961.33 173.64 943.57 142.9"/><polygon class="cls-5" points="996.73 112.15 961.23 112.15 943.48 142.9 961.23 173.64 996.73 173.64 1014.48 142.9 996.73 112.15"/><polygon class="cls-5" points="1049.89 142.9 1014.39 142.9 996.63 173.64 1014.39 204.39 1049.89 204.39 1067.64 173.64 1049.89 142.9"/><polygon class="cls-5" points="1103.16 112 1067.66 112 1049.91 142.75 1067.66 173.49 1103.16 173.49 1120.92 142.75 1103.16 112"/><polygon class="cls-5" points="1209.44 112 1173.94 112 1156.19 142.75 1173.94 173.49 1209.44 173.49 1227.19 142.75 1209.44 112"/><polygon class="cls-5" points="1262.68 142.83 1227.17 142.83 1209.42 173.58 1227.17 204.33 1262.68 204.33 1280.43 173.58 1262.68 142.83"/><polygon class="cls-5" points="1315.84 112.09 1280.33 112.09 1262.58 142.83 1280.33 173.58 1315.84 173.58 1333.59 142.83 1315.84 112.09"/><polygon class="cls-5" points="1368.99 142.83 1333.49 142.83 1315.74 173.58 1333.49 204.33 1368.99 204.33 1386.74 173.58 1368.99 142.83"/><line class="cls-5" x1="1368.97" y1="142.79" x2="1386.73" y2="173.54"/><polygon class="cls-5" points="1422.23 112.04 1386.73 112.04 1368.97 142.79 1386.73 173.54 1422.23 173.54 1425.11 168.54 1425.11 142.49 1425.11 117.04 1422.23 112.04"/><polygon class="cls-5" points="1425.11 117.28 1425.11 112.06 1422.23 112.04 1425.11 117.28"/><polygon class="cls-5" points="1.5 117.13 4.38 112.13 1.5 112.13 1.5 117.13"/><polygon class="cls-5" points="1156.36 142.75 1120.86 142.75 1103.11 173.49 1120.86 204.24 1156.36 204.24 1174.11 173.49 1156.36 142.75"/><polygon class="cls-5" points="93.01 204.42 57.5 204.42 39.75 235.16 57.5 265.91 93.01 265.91 110.76 235.16 93.01 204.42"/><polygon class="cls-5" points="199.32 204.42 163.82 204.42 146.07 235.16 163.82 265.91 199.32 265.91 217.07 235.16 199.32 204.42"/><polygon class="cls-5" points="305.64 204.42 270.14 204.42 252.38 235.16 270.14 265.91 305.64 265.91 323.39 235.16 305.64 204.42"/><polygon class="cls-5" points="411.95 204.5 376.45 204.5 358.7 235.25 376.45 266 411.95 266 429.71 235.25 411.95 204.5"/><polygon class="cls-5" points="518.27 204.5 482.77 204.5 465.02 235.25 482.77 266 518.27 266 536.02 235.25 518.27 204.5"/><polygon class="cls-5" points="624.63 204.35 589.12 204.35 571.37 235.1 589.12 265.85 624.63 265.85 642.38 235.1 624.63 204.35"/><polygon class="cls-5" points="730.94 204.35 695.44 204.35 677.69 235.1 695.44 265.85 730.94 265.85 748.69 235.1 730.94 204.35"/><polygon class="cls-5" points="837.26 204.35 801.75 204.35 784 235.1 801.75 265.85 837.26 265.85 855.01 235.1 837.26 204.35"/><polygon class="cls-5" points="943.57 204.44 908.07 204.44 890.32 235.19 908.07 265.93 943.57 265.93 961.33 235.19 943.57 204.44"/><polygon class="cls-5" points="1049.89 204.44 1014.39 204.44 996.63 235.19 1014.39 265.93 1049.89 265.93 1067.64 235.19 1049.89 204.44"/><polygon class="cls-5" points="1262.68 204.37 1227.17 204.37 1209.42 235.12 1227.17 265.87 1262.68 265.87 1280.43 235.12 1262.68 204.37"/><polygon class="cls-5" points="1368.99 204.37 1333.49 204.37 1315.74 235.12 1333.49 265.87 1368.99 265.87 1386.74 235.12 1368.99 204.37"/><polygon class="cls-5" points="1156.36 204.29 1120.86 204.29 1103.11 235.03 1120.86 265.78 1156.36 265.78 1174.11 235.03 1156.36 204.29"/><polygon class="cls-5" points="93.01 265.96 57.5 265.96 39.75 296.71 57.5 327.45 93.01 327.45 110.76 296.71 93.01 265.96"/><polygon class="cls-5" points="199.32 265.96 163.82 265.96 146.07 296.71 163.82 327.45 199.32 327.45 217.07 296.71 199.32 265.96"/><polygon class="cls-5" points="305.64 265.96 270.14 265.96 252.38 296.71 270.14 327.45 305.64 327.45 323.39 296.71 305.64 265.96"/><polygon class="cls-5" points="411.95 266.05 376.45 266.05 358.7 296.79 376.45 327.54 411.95 327.54 429.71 296.79 411.95 266.05"/><polygon class="cls-5" points="518.27 266.05 482.77 266.05 465.02 296.79 482.77 327.54 518.27 327.54 536.02 296.79 518.27 266.05"/><polygon class="cls-5" points="624.63 265.89 589.12 265.89 571.37 296.64 589.12 327.39 624.63 327.39 642.38 296.64 624.63 265.89"/><polygon class="cls-5" points="730.94 265.89 695.44 265.89 677.69 296.64 695.44 327.39 730.94 327.39 748.69 296.64 730.94 265.89"/><polygon class="cls-5" points="837.26 265.89 801.75 265.89 784 296.64 801.75 327.39 837.26 327.39 855.01 296.64 837.26 265.89"/><polygon class="cls-5" points="943.57 265.98 908.07 265.98 890.32 296.73 908.07 327.47 943.57 327.47 961.33 296.73 943.57 265.98"/><polygon class="cls-5" points="1049.89 265.98 1014.39 265.98 996.63 296.73 1014.39 327.47 1049.89 327.47 1067.64 296.73 1049.89 265.98"/><polygon class="cls-5" points="1262.68 265.92 1227.17 265.92 1209.42 296.66 1227.17 327.41 1262.68 327.41 1280.43 296.66 1262.68 265.92"/><polygon class="cls-5" points="1368.99 265.92 1333.49 265.92 1315.74 296.66 1333.49 327.41 1368.99 327.41 1386.74 296.66 1368.99 265.92"/><polygon class="cls-5" points="1156.36 265.83 1120.86 265.83 1103.11 296.58 1120.86 327.32 1156.36 327.32 1174.11 296.58 1156.36 265.83"/><polygon class="cls-5" points="93.01 327.5 57.5 327.5 39.75 358.25 57.5 388.99 93.01 388.99 110.76 358.25 93.01 327.5"/><polygon class="cls-5" points="199.32 327.5 163.82 327.5 146.07 358.25 163.82 388.99 199.32 388.99 217.07 358.25 199.32 327.5"/><polygon class="cls-5" points="305.64 327.5 270.14 327.5 252.38 358.25 270.14 388.99 305.64 388.99 323.39 358.25 305.64 327.5"/><polygon class="cls-5" points="411.95 327.59 376.45 327.59 358.7 358.33 376.45 389.08 411.95 389.08 429.71 358.33 411.95 327.59"/><polygon class="cls-5" points="518.27 327.59 482.77 327.59 465.02 358.33 482.77 389.08 518.27 389.08 536.02 358.33 518.27 327.59"/><polygon class="cls-5" points="624.63 327.44 589.12 327.44 571.37 358.18 589.12 388.93 624.63 388.93 642.38 358.18 624.63 327.44"/><polygon class="cls-5" points="730.94 327.44 695.44 327.44 677.69 358.18 695.44 388.93 730.94 388.93 748.69 358.18 730.94 327.44"/><polygon class="cls-5" points="837.26 327.44 801.75 327.44 784 358.18 801.75 388.93 837.26 388.93 855.01 358.18 837.26 327.44"/><polygon class="cls-5" points="943.57 327.52 908.07 327.52 890.32 358.27 908.07 389.01 943.57 389.01 961.33 358.27 943.57 327.52"/><polygon class="cls-5" points="1049.89 327.52 1014.39 327.52 996.63 358.27 1014.39 389.01 1049.89 389.01 1067.64 358.27 1049.89 327.52"/><polygon class="cls-5" points="1262.68 327.46 1227.17 327.46 1209.42 358.2 1227.17 388.95 1262.68 388.95 1280.43 358.2 1262.68 327.46"/><polygon class="cls-5" points="1368.99 327.46 1333.49 327.46 1315.74 358.2 1333.49 388.95 1368.99 388.95 1386.74 358.2 1368.99 327.46"/><polygon class="cls-5" points="1156.36 327.37 1120.86 327.37 1103.11 358.12 1120.86 388.87 1156.36 388.87 1174.11 358.12 1156.36 327.37"/><polygon class="cls-5" points="93.01 389.04 57.5 389.04 39.75 419.79 57.5 450.54 93.01 450.54 110.76 419.79 93.01 389.04"/><polygon class="cls-5" points="199.32 389.04 163.82 389.04 146.07 419.79 163.82 450.54 199.32 450.54 217.07 419.79 199.32 389.04"/><polygon class="cls-5" points="305.64 389.04 270.14 389.04 252.38 419.79 270.14 450.54 305.64 450.54 323.39 419.79 305.64 389.04"/><polygon class="cls-5" points="411.95 389.13 376.45 389.13 358.7 419.88 376.45 450.62 411.95 450.62 429.71 419.88 411.95 389.13"/><polygon class="cls-5" points="518.27 389.13 482.77 389.13 465.02 419.88 482.77 450.62 518.27 450.62 536.02 419.88 518.27 389.13"/><polygon class="cls-5" points="624.63 388.98 589.12 388.98 571.37 419.73 589.12 450.47 624.63 450.47 642.38 419.73 624.63 388.98"/><polygon class="cls-5" points="730.94 388.98 695.44 388.98 677.69 419.73 695.44 450.47 730.94 450.47 748.69 419.73 730.94 388.98"/><polygon class="cls-5" points="837.26 388.98 801.75 388.98 784 419.73 801.75 450.47 837.26 450.47 855.01 419.73 837.26 388.98"/><polygon class="cls-5" points="943.57 389.06 908.07 389.06 890.32 419.81 908.07 450.56 943.57 450.56 961.33 419.81 943.57 389.06"/><polygon class="cls-5" points="1049.89 389.06 1014.39 389.06 996.63 419.81 1014.39 450.56 1049.89 450.56 1067.64 419.81 1049.89 389.06"/><polygon class="cls-5" points="1262.68 389 1227.17 389 1209.42 419.75 1227.17 450.49 1262.68 450.49 1280.43 419.75 1262.68 389"/><polygon class="cls-5" points="1368.99 389 1333.49 389 1315.74 419.75 1333.49 450.49 1368.99 450.49 1386.74 419.75 1368.99 389"/><polygon class="cls-5" points="1156.36 388.91 1120.86 388.91 1103.11 419.66 1120.86 450.41 1156.36 450.41 1174.11 419.66 1156.36 388.91"/><polygon class="cls-5" points="93.01 450.58 57.5 450.58 39.75 481.33 57.5 512.08 93.01 512.08 110.76 481.33 93.01 450.58"/><polygon class="cls-5" points="199.32 450.58 163.82 450.58 146.07 481.33 163.82 512.08 199.32 512.08 217.07 481.33 199.32 450.58"/><polygon class="cls-5" points="305.64 450.58 270.14 450.58 252.38 481.33 270.14 512.08 305.64 512.08 323.39 481.33 305.64 450.58"/><polygon class="cls-5" points="411.95 450.67 376.45 450.67 358.7 481.42 376.45 512.16 411.95 512.16 429.71 481.42 411.95 450.67"/><polygon class="cls-5" points="518.27 450.67 482.77 450.67 465.02 481.42 482.77 512.16 518.27 512.16 536.02 481.42 518.27 450.67"/><polygon class="cls-5" points="624.63 450.52 589.12 450.52 571.37 481.27 589.12 512.01 624.63 512.01 642.38 481.27 624.63 450.52"/><polygon class="cls-5" points="730.94 450.52 695.44 450.52 677.69 481.27 695.44 512.01 730.94 512.01 748.69 481.27 730.94 450.52"/><polygon class="cls-5" points="837.26 450.52 801.75 450.52 784 481.27 801.75 512.01 837.26 512.01 855.01 481.27 837.26 450.52"/><polygon class="cls-5" points="943.57 450.61 908.07 450.61 890.32 481.35 908.07 512.1 943.57 512.1 961.33 481.35 943.57 450.61"/><polygon class="cls-5" points="1049.89 450.61 1014.39 450.61 996.63 481.35 1014.39 512.1 1049.89 512.1 1067.64 481.35 1049.89 450.61"/><polygon class="cls-5" points="1262.68 450.54 1227.17 450.54 1209.42 481.29 1227.17 512.03 1262.68 512.03 1280.43 481.29 1262.68 450.54"/><polygon class="cls-5" points="1368.99 450.54 1333.49 450.54 1315.74 481.29 1333.49 512.03 1368.99 512.03 1386.74 481.29 1368.99 450.54"/><polygon class="cls-5" points="1156.36 450.45 1120.86 450.45 1103.11 481.2 1120.86 511.95 1156.36 511.95 1174.11 481.2 1156.36 450.45"/><polygon class="cls-5" points="93.01 512.13 57.5 512.13 39.75 542.87 57.5 573.62 93.01 573.62 110.76 542.87 93.01 512.13"/><polygon class="cls-5" points="199.32 512.13 163.82 512.13 146.07 542.87 163.82 573.62 199.32 573.62 217.07 542.87 199.32 512.13"/><polygon class="cls-5" points="305.64 512.13 270.14 512.13 252.38 542.87 270.14 573.62 305.64 573.62 323.39 542.87 305.64 512.13"/><polygon class="cls-5" points="411.95 512.21 376.45 512.21 358.7 542.96 376.45 573.71 411.95 573.71 429.71 542.96 411.95 512.21"/><polygon class="cls-5" points="518.27 512.21 482.77 512.21 465.02 542.96 482.77 573.71 518.27 573.71 536.02 542.96 518.27 512.21"/><polygon class="cls-5" points="624.63 512.06 589.12 512.06 571.37 542.81 589.12 573.55 624.63 573.55 642.38 542.81 624.63 512.06"/><polygon class="cls-5" points="730.94 512.06 695.44 512.06 677.69 542.81 695.44 573.55 730.94 573.55 748.69 542.81 730.94 512.06"/><polygon class="cls-5" points="837.26 512.06 801.75 512.06 784 542.81 801.75 573.55 837.26 573.55 855.01 542.81 837.26 512.06"/><polygon class="cls-5" points="943.57 512.15 908.07 512.15 890.32 542.89 908.07 573.64 943.57 573.64 961.33 542.89 943.57 512.15"/><polygon class="cls-5" points="1049.89 512.15 1014.39 512.15 996.63 542.89 1014.39 573.64 1049.89 573.64 1067.64 542.89 1049.89 512.15"/><polygon class="cls-5" points="1262.68 512.08 1227.17 512.08 1209.42 542.83 1227.17 573.58 1262.68 573.58 1280.43 542.83 1262.68 512.08"/><polygon class="cls-5" points="1368.99 512.08 1333.49 512.08 1315.74 542.83 1333.49 573.58 1368.99 573.58 1386.74 542.83 1368.99 512.08"/><polygon class="cls-5" points="1156.36 512 1120.86 512 1103.11 542.74 1120.86 573.49 1156.36 573.49 1174.11 542.74 1156.36 512"/><polygon class="cls-5" points="93.01 573.67 57.5 573.67 39.75 604.41 57.5 635.16 93.01 635.16 110.76 604.41 93.01 573.67"/><polygon class="cls-5" points="199.32 573.67 163.82 573.67 146.07 604.41 163.82 635.16 199.32 635.16 217.07 604.41 199.32 573.67"/><polygon class="cls-5" points="305.64 573.67 270.14 573.67 252.38 604.41 270.14 635.16 305.64 635.16 323.39 604.41 305.64 573.67"/><polygon class="cls-5" points="411.95 573.75 376.45 573.75 358.7 604.5 376.45 635.25 411.95 635.25 429.71 604.5 411.95 573.75"/><polygon class="cls-5" points="518.27 573.75 482.77 573.75 465.02 604.5 482.77 635.25 518.27 635.25 536.02 604.5 518.27 573.75"/><polygon class="cls-5" points="624.63 573.6 589.12 573.6 571.37 604.35 589.12 635.1 624.63 635.1 642.38 604.35 624.63 573.6"/><polygon class="cls-5" points="730.94 573.6 695.44 573.6 677.69 604.35 695.44 635.1 730.94 635.1 748.69 604.35 730.94 573.6"/><polygon class="cls-5" points="837.26 573.6 801.75 573.6 784 604.35 801.75 635.1 837.26 635.1 855.01 604.35 837.26 573.6"/><polygon class="cls-5" points="943.57 573.69 908.07 573.69 890.32 604.43 908.07 635.18 943.57 635.18 961.33 604.43 943.57 573.69"/><polygon class="cls-5" points="1049.89 573.69 1014.39 573.69 996.63 604.43 1014.39 635.18 1049.89 635.18 1067.64 604.43 1049.89 573.69"/><polygon class="cls-5" points="1262.68 573.62 1227.17 573.62 1209.42 604.37 1227.17 635.12 1262.68 635.12 1280.43 604.37 1262.68 573.62"/><polygon class="cls-5" points="1368.99 573.62 1333.49 573.62 1315.74 604.37 1333.49 635.12 1368.99 635.12 1386.74 604.37 1368.99 573.62"/><polygon class="cls-5" points="1156.36 573.54 1120.86 573.54 1103.11 604.28 1120.86 635.03 1156.36 635.03 1174.11 604.28 1156.36 573.54"/><polygon class="cls-5" points="93.01 635.21 57.5 635.21 39.75 665.96 57.5 696.7 93.01 696.7 110.76 665.96 93.01 635.21"/><polygon class="cls-5" points="199.32 635.21 163.82 635.21 146.07 665.96 163.82 696.7 199.32 696.7 217.07 665.96 199.32 635.21"/><polygon class="cls-5" points="305.64 635.21 270.14 635.21 252.38 665.96 270.14 696.7 305.64 696.7 323.39 665.96 305.64 635.21"/><polygon class="cls-5" points="411.95 635.29 376.45 635.29 358.7 666.04 376.45 696.79 411.95 696.79 429.71 666.04 411.95 635.29"/><polygon class="cls-5" points="518.27 635.29 482.77 635.29 465.02 666.04 482.77 696.79 518.27 696.79 536.02 666.04 518.27 635.29"/><polygon class="cls-5" points="624.63 635.14 589.12 635.14 571.37 665.89 589.12 696.64 624.63 696.64 642.38 665.89 624.63 635.14"/><polygon class="cls-5" points="730.94 635.14 695.44 635.14 677.69 665.89 695.44 696.64 730.94 696.64 748.69 665.89 730.94 635.14"/><polygon class="cls-5" points="837.26 635.14 801.75 635.14 784 665.89 801.75 696.64 837.26 696.64 855.01 665.89 837.26 635.14"/><polygon class="cls-5" points="943.57 635.23 908.07 635.23 890.32 665.98 908.07 696.72 943.57 696.72 961.33 665.98 943.57 635.23"/><polygon class="cls-5" points="1049.89 635.23 1014.39 635.23 996.63 665.98 1014.39 696.72 1049.89 696.72 1067.64 665.98 1049.89 635.23"/><polygon class="cls-5" points="1262.68 635.17 1227.17 635.17 1209.42 665.91 1227.17 696.66 1262.68 696.66 1280.43 665.91 1262.68 635.17"/><polygon class="cls-5" points="1368.99 635.17 1333.49 635.17 1315.74 665.91 1333.49 696.66 1368.99 696.66 1386.74 665.91 1368.99 635.17"/><polygon class="cls-5" points="1156.36 635.08 1120.86 635.08 1103.11 665.83 1120.86 696.57 1156.36 696.57 1174.11 665.83 1156.36 635.08"/><polygon class="cls-5" points="93.01 696.75 57.5 696.75 39.75 727.5 57.5 758.24 93.01 758.24 110.76 727.5 93.01 696.75"/><polygon class="cls-5" points="199.32 696.75 163.82 696.75 146.07 727.5 163.82 758.24 199.32 758.24 217.07 727.5 199.32 696.75"/><polygon class="cls-5" points="305.64 696.75 270.14 696.75 252.38 727.5 270.14 758.24 305.64 758.24 323.39 727.5 305.64 696.75"/><polygon class="cls-5" points="411.95 696.84 376.45 696.84 358.7 727.58 376.45 758.33 411.95 758.33 429.71 727.58 411.95 696.84"/><polygon class="cls-5" points="518.27 696.84 482.77 696.84 465.02 727.58 482.77 758.33 518.27 758.33 536.02 727.58 518.27 696.84"/><polygon class="cls-5" points="624.63 696.69 589.12 696.69 571.37 727.43 589.12 758.18 624.63 758.18 642.38 727.43 624.63 696.69"/><polygon class="cls-5" points="730.94 696.69 695.44 696.69 677.69 727.43 695.44 758.18 730.94 758.18 748.69 727.43 730.94 696.69"/><polygon class="cls-5" points="837.26 696.69 801.75 696.69 784 727.43 801.75 758.18 837.26 758.18 855.01 727.43 837.26 696.69"/><polygon class="cls-5" points="943.57 696.77 908.07 696.77 890.32 727.52 908.07 758.26 943.57 758.26 961.33 727.52 943.57 696.77"/><polygon class="cls-5" points="1049.89 696.77 1014.39 696.77 996.63 727.52 1014.39 758.26 1049.89 758.26 1067.64 727.52 1049.89 696.77"/><polygon class="cls-5" points="1262.68 696.71 1227.17 696.71 1209.42 727.45 1227.17 758.2 1262.68 758.2 1280.43 727.45 1262.68 696.71"/><polygon class="cls-5" points="1368.99 696.71 1333.49 696.71 1315.74 727.45 1333.49 758.2 1368.99 758.2 1386.74 727.45 1368.99 696.71"/><polygon class="cls-5" points="1156.36 696.62 1120.86 696.62 1103.11 727.37 1120.86 758.12 1156.36 758.12 1174.11 727.37 1156.36 696.62"/><polygon class="cls-5" points="93.01 758.29 57.5 758.29 39.75 789.04 57.5 819.79 93.01 819.79 110.76 789.04 93.01 758.29"/><polygon class="cls-5" points="199.32 758.29 163.82 758.29 146.07 789.04 163.82 819.79 199.32 819.79 217.07 789.04 199.32 758.29"/><polygon class="cls-5" points="305.64 758.29 270.14 758.29 252.38 789.04 270.14 819.79 305.64 819.79 323.39 789.04 305.64 758.29"/><polygon class="cls-5" points="411.95 758.38 376.45 758.38 358.7 789.13 376.45 819.87 411.95 819.87 429.71 789.13 411.95 758.38"/><polygon class="cls-5" points="518.27 758.38 482.77 758.38 465.02 789.13 482.77 819.87 518.27 819.87 536.02 789.13 518.27 758.38"/><polygon class="cls-5" points="624.63 758.23 589.12 758.23 571.37 788.97 589.12 819.72 624.63 819.72 642.38 788.97 624.63 758.23"/><polygon class="cls-5" points="730.94 758.23 695.44 758.23 677.69 788.97 695.44 819.72 730.94 819.72 748.69 788.97 730.94 758.23"/><polygon class="cls-5" points="837.26 758.23 801.75 758.23 784 788.97 801.75 819.72 837.26 819.72 855.01 788.97 837.26 758.23"/><polygon class="cls-5" points="943.57 758.31 908.07 758.31 890.32 789.06 908.07 819.81 943.57 819.81 961.33 789.06 943.57 758.31"/><polygon class="cls-5" points="1049.89 758.31 1014.39 758.31 996.63 789.06 1014.39 819.81 1049.89 819.81 1067.64 789.06 1049.89 758.31"/><polygon class="cls-5" points="1262.68 758.25 1227.17 758.25 1209.42 789 1227.17 819.74 1262.68 819.74 1280.43 789 1262.68 758.25"/><polygon class="cls-5" points="1368.99 758.25 1333.49 758.25 1315.74 789 1333.49 819.74 1368.99 819.74 1386.74 789 1368.99 758.25"/><polygon class="cls-5" points="1156.36 758.16 1120.86 758.16 1103.11 788.91 1120.86 819.66 1156.36 819.66 1174.11 788.91 1156.36 758.16"/><polygon class="cls-5" points="93.01 819.83 57.5 819.83 39.75 850.58 57.5 881.33 93.01 881.33 110.76 850.58 93.01 819.83"/><polygon class="cls-5" points="199.32 819.83 163.82 819.83 146.07 850.58 163.82 881.33 199.32 881.33 217.07 850.58 199.32 819.83"/><polygon class="cls-5" points="305.64 819.83 270.14 819.83 252.38 850.58 270.14 881.33 305.64 881.33 323.39 850.58 305.64 819.83"/><polygon class="cls-5" points="411.95 819.92 376.45 819.92 358.7 850.67 376.45 881.41 411.95 881.41 429.71 850.67 411.95 819.92"/><polygon class="cls-5" points="518.27 819.92 482.77 819.92 465.02 850.67 482.77 881.41 518.27 881.41 536.02 850.67 518.27 819.92"/><polygon class="cls-5" points="624.63 819.77 589.12 819.77 571.37 850.52 589.12 881.26 624.63 881.26 642.38 850.52 624.63 819.77"/><polygon class="cls-5" points="730.94 819.77 695.44 819.77 677.69 850.52 695.44 881.26 730.94 881.26 748.69 850.52 730.94 819.77"/><polygon class="cls-5" points="837.26 819.77 801.75 819.77 784 850.52 801.75 881.26 837.26 881.26 855.01 850.52 837.26 819.77"/><polygon class="cls-5" points="943.57 819.86 908.07 819.86 890.32 850.6 908.07 881.35 943.57 881.35 961.33 850.6 943.57 819.86"/><polygon class="cls-5" points="1049.89 819.86 1014.39 819.86 996.63 850.6 1014.39 881.35 1049.89 881.35 1067.64 850.6 1049.89 819.86"/><polygon class="cls-5" points="1262.68 819.79 1227.17 819.79 1209.42 850.54 1227.17 881.28 1262.68 881.28 1280.43 850.54 1262.68 819.79"/><polygon class="cls-5" points="1368.99 819.79 1333.49 819.79 1315.74 850.54 1333.49 881.28 1368.99 881.28 1386.74 850.54 1368.99 819.79"/><polygon class="cls-5" points="1156.36 819.71 1120.86 819.71 1103.11 850.45 1120.86 881.2 1156.36 881.2 1174.11 850.45 1156.36 819.71"/><polygon class="cls-5" points="93.01 881.38 57.5 881.38 39.31 912.78 63.44 912.78 98.94 912.78 111.24 912.78 93.01 881.38"/><polygon class="cls-5" points="199.32 881.38 163.82 881.38 145.34 912.78 166.04 912.78 201.55 912.78 218.01 912.78 199.32 881.38"/><polygon class="cls-5" points="305.64 881.38 270.14 881.38 251.37 912.78 275.84 912.78 300.31 912.78 324.04 912.78 305.64 881.38"/><polygon class="cls-5" points="411.95 881.46 376.45 881.46 358.14 912.78 381.13 912.78 408.56 912.78 429.33 912.78 411.95 881.46"/><polygon class="cls-5" points="518.27 881.46 482.77 881.46 464.92 912.78 485.68 912.78 510.89 912.78 536.1 912.78 518.27 881.46"/><polygon class="cls-5" points="624.63 881.31 589.12 881.31 570.95 912.78 596.9 912.78 622.85 912.78 642.87 912.78 624.63 881.31"/><polygon class="cls-5" points="730.94 881.31 695.44 881.31 676.98 912.78 699.96 912.78 724.43 912.78 748.9 912.78 730.94 881.31"/><polygon class="cls-5" points="837.26 881.31 801.75 881.31 783.75 912.78 804.51 912.78 824.53 912.78 855.67 912.78 837.26 881.31"/><polygon class="cls-5" points="943.57 881.4 908.07 881.4 889.78 912.78 910.54 912.78 934.26 912.78 961.7 912.78 943.57 881.4"/><polygon class="cls-5" points="1049.89 881.4 1014.39 881.4 996.55 912.78 1015.83 912.78 1038.81 912.78 1068.47 912.78 1049.89 881.4"/><polygon class="cls-5" points="1262.68 881.33 1227.17 881.33 1209.35 912.78 1225.66 912.78 1261.99 912.78 1281.27 912.78 1262.68 881.33"/><polygon class="cls-5" points="1368.99 881.33 1333.49 881.33 1314.64 912.78 1335.4 912.78 1368.76 912.78 1387.3 912.78 1368.99 881.33"/><polygon class="cls-5" points="1156.36 881.25 1120.86 881.25 1102.58 912.78 1121.86 912.78 1145.58 912.78 1174.5 912.78 1156.36 881.25"/><polygon class="cls-5" points="677.78 112.06 642.28 112.06 624.53 142.81 642.28 173.56 677.78 173.56 695.54 142.81 677.78 112.06"/><polygon class="cls-5" points="39.89 173.67 4.38 173.67 1.5 178.67 1.5 204.92 1.5 230.17 4.38 235.16 39.89 235.16 57.64 204.42 39.89 173.67"/><polygon class="cls-5" points="146.16 173.67 110.66 173.67 92.91 204.42 110.66 235.16 146.16 235.16 163.92 204.42 146.16 173.67"/><polygon class="cls-5" points="252.44 173.67 216.94 173.67 199.19 204.42 216.94 235.16 252.44 235.16 270.19 204.42 252.44 173.67"/><polygon class="cls-5" points="358.72 173.67 323.22 173.67 305.46 204.42 323.22 235.16 358.72 235.16 376.47 204.42 358.72 173.67"/><polygon class="cls-5" points="465.11 173.76 429.61 173.76 411.86 204.5 429.61 235.25 465.11 235.25 482.87 204.5 465.11 173.76"/><polygon class="cls-5" points="571.51 173.61 536 173.61 518.25 204.35 536 235.1 571.51 235.1 589.26 204.35 571.51 173.61"/><polygon class="cls-5" points="784.06 173.61 748.56 173.61 730.81 204.35 748.56 235.1 784.06 235.1 801.81 204.35 784.06 173.61"/><polygon class="cls-5" points="890.34 173.61 854.84 173.61 837.08 204.35 854.84 235.1 890.34 235.1 908.09 204.35 890.34 173.61"/><polygon class="cls-5" points="996.73 173.69 961.23 173.69 943.48 204.44 961.23 235.19 996.73 235.19 1014.48 204.44 996.73 173.69"/><polygon class="cls-5" points="1103.16 173.54 1067.66 173.54 1049.91 204.29 1067.66 235.03 1103.16 235.03 1120.92 204.29 1103.16 173.54"/><polygon class="cls-5" points="1209.44 173.54 1173.94 173.54 1156.19 204.29 1173.94 235.03 1209.44 235.03 1227.19 204.29 1209.44 173.54"/><polygon class="cls-5" points="1315.84 173.63 1280.33 173.63 1262.58 204.37 1280.33 235.12 1315.84 235.12 1333.59 204.37 1315.84 173.63"/><polygon class="cls-5" points="1422.23 173.59 1386.73 173.59 1368.97 204.33 1386.73 235.08 1422.23 235.08 1425.11 230.08 1425.11 204.03 1425.11 178.58 1422.23 173.59"/><polygon class="cls-5" points="1425.11 178.82 1425.11 168.35 1422.23 173.59 1425.11 178.82"/><polygon class="cls-5" points="1.5 178.67 4.38 173.67 1.5 168.35 1.5 178.67"/><polygon class="cls-5" points="677.78 173.61 642.28 173.61 624.53 204.35 642.28 235.1 677.78 235.1 695.54 204.35 677.78 173.61"/><polygon class="cls-5" points="39.89 235.21 4.38 235.21 1.5 240.21 1.5 266.46 1.5 291.71 4.38 296.71 39.89 296.71 57.64 265.96 39.89 235.21"/><polygon class="cls-5" points="146.16 235.21 110.66 235.21 92.91 265.96 110.66 296.71 146.16 296.71 163.92 265.96 146.16 235.21"/><polygon class="cls-5" points="252.44 235.21 216.94 235.21 199.19 265.96 216.94 296.71 252.44 296.71 270.19 265.96 252.44 235.21"/><polygon class="cls-5" points="358.72 235.21 323.22 235.21 305.46 265.96 323.22 296.71 358.72 296.71 376.47 265.96 358.72 235.21"/><polygon class="cls-5" points="465.11 235.3 429.61 235.3 411.86 266.05 429.61 296.79 465.11 296.79 482.87 266.05 465.11 235.3"/><polygon class="cls-5" points="571.51 235.15 536 235.15 518.25 265.89 536 296.64 571.51 296.64 589.26 265.89 571.51 235.15"/><polygon class="cls-5" points="784.06 235.15 748.56 235.15 730.81 265.89 748.56 296.64 784.06 296.64 801.81 265.89 784.06 235.15"/><polygon class="cls-5" points="890.34 235.15 854.84 235.15 837.08 265.89 854.84 296.64 890.34 296.64 908.09 265.89 890.34 235.15"/><polygon class="cls-5" points="996.73 235.23 961.23 235.23 943.48 265.98 961.23 296.73 996.73 296.73 1014.48 265.98 996.73 235.23"/><polygon class="cls-5" points="1103.16 235.08 1067.66 235.08 1049.91 265.83 1067.66 296.58 1103.16 296.58 1120.92 265.83 1103.16 235.08"/><polygon class="cls-5" points="1209.44 235.08 1173.94 235.08 1156.19 265.83 1173.94 296.58 1209.44 296.58 1227.19 265.83 1209.44 235.08"/><polygon class="cls-5" points="1315.84 235.17 1280.33 235.17 1262.58 265.92 1280.33 296.66 1315.84 296.66 1333.59 265.92 1315.84 235.17"/><polygon class="cls-5" points="1422.23 235.13 1386.73 235.13 1368.97 265.87 1386.73 296.62 1422.23 296.62 1425.11 291.62 1425.11 265.57 1425.11 240.12 1422.23 235.13"/><polygon class="cls-5" points="1425.11 240.36 1425.11 229.89 1422.23 235.13 1425.11 240.36"/><polygon class="cls-5" points="1.5 240.21 4.38 235.21 1.5 229.89 1.5 240.21"/><polygon class="cls-5" points="677.78 235.15 642.28 235.15 624.53 265.89 642.28 296.64 677.78 296.64 695.54 265.89 677.78 235.15"/><polygon class="cls-5" points="39.89 296.75 4.38 296.75 1.5 301.75 1.5 328 1.5 353.25 4.38 358.25 39.89 358.25 57.64 327.5 39.89 296.75"/><polygon class="cls-5" points="146.16 296.75 110.66 296.75 92.91 327.5 110.66 358.25 146.16 358.25 163.92 327.5 146.16 296.75"/><polygon class="cls-5" points="252.44 296.75 216.94 296.75 199.19 327.5 216.94 358.25 252.44 358.25 270.19 327.5 252.44 296.75"/><polygon class="cls-5" points="358.72 296.75 323.22 296.75 305.46 327.5 323.22 358.25 358.72 358.25 376.47 327.5 358.72 296.75"/><polygon class="cls-5" points="465.11 296.84 429.61 296.84 411.86 327.59 429.61 358.33 465.11 358.33 482.87 327.59 465.11 296.84"/><polygon class="cls-5" points="571.51 296.69 536 296.69 518.25 327.44 536 358.18 571.51 358.18 589.26 327.44 571.51 296.69"/><polygon class="cls-5" points="784.06 296.69 748.56 296.69 730.81 327.44 748.56 358.18 784.06 358.18 801.81 327.44 784.06 296.69"/><polygon class="cls-5" points="890.34 296.69 854.84 296.69 837.08 327.44 854.84 358.18 890.34 358.18 908.09 327.44 890.34 296.69"/><polygon class="cls-5" points="996.73 296.77 961.23 296.77 943.48 327.52 961.23 358.27 996.73 358.27 1014.48 327.52 996.73 296.77"/><polygon class="cls-5" points="1103.16 296.63 1067.66 296.63 1049.91 327.37 1067.66 358.12 1103.16 358.12 1120.92 327.37 1103.16 296.63"/><polygon class="cls-5" points="1209.44 296.63 1173.94 296.63 1156.19 327.37 1173.94 358.12 1209.44 358.12 1227.19 327.37 1209.44 296.63"/><polygon class="cls-5" points="1315.84 296.71 1280.33 296.71 1262.58 327.46 1280.33 358.2 1315.84 358.2 1333.59 327.46 1315.84 296.71"/><polygon class="cls-5" points="1422.23 296.67 1386.73 296.67 1368.97 327.42 1386.73 358.16 1422.23 358.16 1425.11 353.17 1425.11 327.11 1425.11 301.67 1422.23 296.67"/><polygon class="cls-5" points="1425.11 301.9 1425.11 291.44 1422.23 296.67 1425.11 301.9"/><polygon class="cls-5" points="1.5 301.75 4.38 296.75 1.5 291.44 1.5 301.75"/><polygon class="cls-5" points="677.78 296.69 642.28 296.69 624.53 327.44 642.28 358.18 677.78 358.18 695.54 327.44 677.78 296.69"/><polygon class="cls-5" points="39.89 358.3 4.38 358.3 1.5 363.29 1.5 389.54 1.5 414.79 4.38 419.79 39.89 419.79 57.64 389.04 39.89 358.3"/><polygon class="cls-5" points="146.16 358.3 110.66 358.3 92.91 389.04 110.66 419.79 146.16 419.79 163.92 389.04 146.16 358.3"/><polygon class="cls-5" points="252.44 358.3 216.94 358.3 199.19 389.04 216.94 419.79 252.44 419.79 270.19 389.04 252.44 358.3"/><polygon class="cls-5" points="358.72 358.3 323.22 358.3 305.46 389.04 323.22 419.79 358.72 419.79 376.47 389.04 358.72 358.3"/><polygon class="cls-5" points="465.11 358.38 429.61 358.38 411.86 389.13 429.61 419.88 465.11 419.88 482.87 389.13 465.11 358.38"/><polygon class="cls-5" points="571.51 358.23 536 358.23 518.25 388.98 536 419.73 571.51 419.73 589.26 388.98 571.51 358.23"/><polygon class="cls-5" points="784.06 358.23 748.56 358.23 730.81 388.98 748.56 419.73 784.06 419.73 801.81 388.98 784.06 358.23"/><polygon class="cls-5" points="890.34 358.23 854.84 358.23 837.08 388.98 854.84 419.73 890.34 419.73 908.09 388.98 890.34 358.23"/><polygon class="cls-5" points="996.73 358.32 961.23 358.32 943.48 389.06 961.23 419.81 996.73 419.81 1014.48 389.06 996.73 358.32"/><polygon class="cls-5" points="1103.16 358.17 1067.66 358.17 1049.91 388.91 1067.66 419.66 1103.16 419.66 1120.92 388.91 1103.16 358.17"/><polygon class="cls-5" points="1209.44 358.17 1173.94 358.17 1156.19 388.91 1173.94 419.66 1209.44 419.66 1227.19 388.91 1209.44 358.17"/><polygon class="cls-5" points="1315.84 358.25 1280.33 358.25 1262.58 389 1280.33 419.75 1315.84 419.75 1333.59 389 1315.84 358.25"/><polygon class="cls-5" points="1422.23 358.21 1386.73 358.21 1368.97 388.96 1386.73 419.7 1422.23 419.7 1425.11 414.71 1425.11 388.65 1425.11 363.21 1422.23 358.21"/><polygon class="cls-5" points="1425.11 363.44 1425.11 352.98 1422.23 358.21 1425.11 363.44"/><polygon class="cls-5" points="1.5 363.29 4.38 358.3 1.5 352.98 1.5 363.29"/><polygon class="cls-5" points="677.78 358.23 642.28 358.23 624.53 388.98 642.28 419.73 677.78 419.73 695.54 388.98 677.78 358.23"/><polygon class="cls-5" points="39.89 419.84 4.38 419.84 1.5 424.83 1.5 451.08 1.5 476.33 4.38 481.33 39.89 481.33 57.64 450.58 39.89 419.84"/><polygon class="cls-5" points="146.16 419.84 110.66 419.84 92.91 450.58 110.66 481.33 146.16 481.33 163.92 450.58 146.16 419.84"/><polygon class="cls-5" points="252.44 419.84 216.94 419.84 199.19 450.58 216.94 481.33 252.44 481.33 270.19 450.58 252.44 419.84"/><polygon class="cls-5" points="358.72 419.84 323.22 419.84 305.46 450.58 323.22 481.33 358.72 481.33 376.47 450.58 358.72 419.84"/><polygon class="cls-5" points="465.11 419.92 429.61 419.92 411.86 450.67 429.61 481.42 465.11 481.42 482.87 450.67 465.11 419.92"/><polygon class="cls-5" points="571.51 419.77 536 419.77 518.25 450.52 536 481.27 571.51 481.27 589.26 450.52 571.51 419.77"/><polygon class="cls-5" points="784.06 419.77 748.56 419.77 730.81 450.52 748.56 481.27 784.06 481.27 801.81 450.52 784.06 419.77"/><polygon class="cls-5" points="890.34 419.77 854.84 419.77 837.08 450.52 854.84 481.27 890.34 481.27 908.09 450.52 890.34 419.77"/><polygon class="cls-5" points="996.73 419.86 961.23 419.86 943.48 450.61 961.23 481.35 996.73 481.35 1014.48 450.61 996.73 419.86"/><polygon class="cls-5" points="1103.16 419.71 1067.66 419.71 1049.91 450.45 1067.66 481.2 1103.16 481.2 1120.92 450.45 1103.16 419.71"/><polygon class="cls-5" points="1209.44 419.71 1173.94 419.71 1156.19 450.45 1173.94 481.2 1209.44 481.2 1227.19 450.45 1209.44 419.71"/><polygon class="cls-5" points="1315.84 419.79 1280.33 419.79 1262.58 450.54 1280.33 481.29 1315.84 481.29 1333.59 450.54 1315.84 419.79"/><polygon class="cls-5" points="1422.23 419.75 1386.73 419.75 1368.97 450.5 1386.73 481.25 1422.23 481.25 1425.11 476.25 1425.11 450.2 1425.11 424.75 1422.23 419.75"/><polygon class="cls-5" points="1425.11 424.98 1425.11 414.52 1422.23 419.75 1425.11 424.98"/><polygon class="cls-5" points="1.5 424.83 4.38 419.84 1.5 414.52 1.5 424.83"/><polygon class="cls-5" points="677.78 419.77 642.28 419.77 624.53 450.52 642.28 481.27 677.78 481.27 695.54 450.52 677.78 419.77"/><polygon class="cls-5" points="39.89 481.38 4.38 481.38 1.5 486.38 1.5 512.63 1.5 537.88 4.38 542.87 39.89 542.87 57.64 512.13 39.89 481.38"/><polygon class="cls-5" points="146.16 481.38 110.66 481.38 92.91 512.13 110.66 542.87 146.16 542.87 163.92 512.13 146.16 481.38"/><polygon class="cls-5" points="252.44 481.38 216.94 481.38 199.19 512.13 216.94 542.87 252.44 542.87 270.19 512.13 252.44 481.38"/><polygon class="cls-5" points="358.72 481.38 323.22 481.38 305.46 512.13 323.22 542.87 358.72 542.87 376.47 512.13 358.72 481.38"/><polygon class="cls-5" points="465.11 481.46 429.61 481.46 411.86 512.21 429.61 542.96 465.11 542.96 482.87 512.21 465.11 481.46"/><polygon class="cls-5" points="571.51 481.31 536 481.31 518.25 512.06 536 542.81 571.51 542.81 589.26 512.06 571.51 481.31"/><polygon class="cls-5" points="784.06 481.31 748.56 481.31 730.81 512.06 748.56 542.81 784.06 542.81 801.81 512.06 784.06 481.31"/><polygon class="cls-5" points="890.34 481.31 854.84 481.31 837.08 512.06 854.84 542.81 890.34 542.81 908.09 512.06 890.34 481.31"/><polygon class="cls-5" points="996.73 481.4 961.23 481.4 943.48 512.15 961.23 542.89 996.73 542.89 1014.48 512.15 996.73 481.4"/><polygon class="cls-5" points="1103.16 481.25 1067.66 481.25 1049.91 512 1067.66 542.74 1103.16 542.74 1120.92 512 1103.16 481.25"/><polygon class="cls-5" points="1209.44 481.25 1173.94 481.25 1156.19 512 1173.94 542.74 1209.44 542.74 1227.19 512 1209.44 481.25"/><polygon class="cls-5" points="1315.84 481.34 1280.33 481.34 1262.58 512.08 1280.33 542.83 1315.84 542.83 1333.59 512.08 1315.84 481.34"/><polygon class="cls-5" points="1422.23 481.29 1386.73 481.29 1368.97 512.04 1386.73 542.79 1422.23 542.79 1425.11 537.79 1425.11 511.74 1425.11 486.29 1422.23 481.29"/><polygon class="cls-5" points="1425.11 486.53 1425.11 476.06 1422.23 481.29 1425.11 486.53"/><polygon class="cls-5" points="1.5 486.38 4.38 481.38 1.5 476.06 1.5 486.38"/><polygon class="cls-5" points="677.78 481.31 642.28 481.31 624.53 512.06 642.28 542.81 677.78 542.81 695.54 512.06 677.78 481.31"/><polygon class="cls-5" points="39.89 542.92 4.38 542.92 1.5 547.92 1.5 574.17 1.5 599.42 4.38 604.41 39.89 604.41 57.64 573.67 39.89 542.92"/><polygon class="cls-5" points="146.16 542.92 110.66 542.92 92.91 573.67 110.66 604.41 146.16 604.41 163.92 573.67 146.16 542.92"/><polygon class="cls-5" points="252.44 542.92 216.94 542.92 199.19 573.67 216.94 604.41 252.44 604.41 270.19 573.67 252.44 542.92"/><polygon class="cls-5" points="358.72 542.92 323.22 542.92 305.46 573.67 323.22 604.41 358.72 604.41 376.47 573.67 358.72 542.92"/><polygon class="cls-5" points="465.11 543.01 429.61 543.01 411.86 573.75 429.61 604.5 465.11 604.5 482.87 573.75 465.11 543.01"/><polygon class="cls-5" points="571.51 542.86 536 542.86 518.25 573.6 536 604.35 571.51 604.35 589.26 573.6 571.51 542.86"/><polygon class="cls-5" points="784.06 542.86 748.56 542.86 730.81 573.6 748.56 604.35 784.06 604.35 801.81 573.6 784.06 542.86"/><polygon class="cls-5" points="890.34 542.86 854.84 542.86 837.08 573.6 854.84 604.35 890.34 604.35 908.09 573.6 890.34 542.86"/><polygon class="cls-5" points="996.73 542.94 961.23 542.94 943.48 573.69 961.23 604.43 996.73 604.43 1014.48 573.69 996.73 542.94"/><polygon class="cls-5" points="1103.16 542.79 1067.66 542.79 1049.91 573.54 1067.66 604.28 1103.16 604.28 1120.92 573.54 1103.16 542.79"/><polygon class="cls-5" points="1209.44 542.79 1173.94 542.79 1156.19 573.54 1173.94 604.28 1209.44 604.28 1227.19 573.54 1209.44 542.79"/><polygon class="cls-5" points="1315.84 542.88 1280.33 542.88 1262.58 573.62 1280.33 604.37 1315.84 604.37 1333.59 573.62 1315.84 542.88"/><polygon class="cls-5" points="1422.23 542.84 1386.73 542.84 1368.97 573.58 1386.73 604.33 1422.23 604.33 1425.11 599.33 1425.11 573.28 1425.11 547.83 1422.23 542.84"/><polygon class="cls-5" points="1425.11 548.07 1425.11 537.6 1422.23 542.84 1425.11 548.07"/><polygon class="cls-5" points="1.5 547.92 4.38 542.92 1.5 537.6 1.5 547.92"/><polygon class="cls-5" points="677.78 542.86 642.28 542.86 624.53 573.6 642.28 604.35 677.78 604.35 695.54 573.6 677.78 542.86"/><polygon class="cls-5" points="39.89 604.46 4.38 604.46 1.5 609.46 1.5 635.71 1.5 660.96 4.38 665.96 39.89 665.96 57.64 635.21 39.89 604.46"/><polygon class="cls-5" points="146.16 604.46 110.66 604.46 92.91 635.21 110.66 665.96 146.16 665.96 163.92 635.21 146.16 604.46"/><polygon class="cls-5" points="252.44 604.46 216.94 604.46 199.19 635.21 216.94 665.96 252.44 665.96 270.19 635.21 252.44 604.46"/><polygon class="cls-5" points="358.72 604.46 323.22 604.46 305.46 635.21 323.22 665.96 358.72 665.96 376.47 635.21 358.72 604.46"/><polygon class="cls-5" points="465.11 604.55 429.61 604.55 411.86 635.29 429.61 666.04 465.11 666.04 482.87 635.29 465.11 604.55"/><polygon class="cls-5" points="571.51 604.4 536 604.4 518.25 635.14 536 665.89 571.51 665.89 589.26 635.14 571.51 604.4"/><polygon class="cls-5" points="784.06 604.4 748.56 604.4 730.81 635.14 748.56 665.89 784.06 665.89 801.81 635.14 784.06 604.4"/><polygon class="cls-5" points="890.34 604.4 854.84 604.4 837.08 635.14 854.84 665.89 890.34 665.89 908.09 635.14 890.34 604.4"/><polygon class="cls-5" points="996.73 604.48 961.23 604.48 943.48 635.23 961.23 665.98 996.73 665.98 1014.48 635.23 996.73 604.48"/><polygon class="cls-5" points="1103.16 604.33 1067.66 604.33 1049.91 635.08 1067.66 665.83 1103.16 665.83 1120.92 635.08 1103.16 604.33"/><polygon class="cls-5" points="1209.44 604.33 1173.94 604.33 1156.19 635.08 1173.94 665.83 1209.44 665.83 1227.19 635.08 1209.44 604.33"/><polygon class="cls-5" points="1315.84 604.42 1280.33 604.42 1262.58 635.17 1280.33 665.91 1315.84 665.91 1333.59 635.17 1315.84 604.42"/><polygon class="cls-5" points="1422.23 604.38 1386.73 604.38 1368.97 635.12 1386.73 665.87 1422.23 665.87 1425.11 660.87 1425.11 634.82 1425.11 609.37 1422.23 604.38"/><polygon class="cls-5" points="1425.11 609.61 1425.11 599.14 1422.23 604.38 1425.11 609.61"/><polygon class="cls-5" points="1.5 609.46 4.38 604.46 1.5 599.14 1.5 609.46"/><polygon class="cls-5" points="677.78 604.4 642.28 604.4 624.53 635.14 642.28 665.89 677.78 665.89 695.54 635.14 677.78 604.4"/><polygon class="cls-5" points="39.89 666 4.38 666 1.5 671 1.5 697.25 1.5 722.5 4.38 727.5 39.89 727.5 57.64 696.75 39.89 666"/><polygon class="cls-5" points="146.16 666 110.66 666 92.91 696.75 110.66 727.5 146.16 727.5 163.92 696.75 146.16 666"/><polygon class="cls-5" points="252.44 666 216.94 666 199.19 696.75 216.94 727.5 252.44 727.5 270.19 696.75 252.44 666"/><polygon class="cls-5" points="358.72 666 323.22 666 305.46 696.75 323.22 727.5 358.72 727.5 376.47 696.75 358.72 666"/><polygon class="cls-5" points="465.11 666.09 429.61 666.09 411.86 696.84 429.61 727.58 465.11 727.58 482.87 696.84 465.11 666.09"/><polygon class="cls-5" points="571.51 665.94 536 665.94 518.25 696.69 536 727.43 571.51 727.43 589.26 696.69 571.51 665.94"/><polygon class="cls-5" points="784.06 665.94 748.56 665.94 730.81 696.69 748.56 727.43 784.06 727.43 801.81 696.69 784.06 665.94"/><polygon class="cls-5" points="890.34 665.94 854.84 665.94 837.08 696.69 854.84 727.43 890.34 727.43 908.09 696.69 890.34 665.94"/><polygon class="cls-5" points="996.73 666.02 961.23 666.02 943.48 696.77 961.23 727.52 996.73 727.52 1014.48 696.77 996.73 666.02"/><polygon class="cls-5" points="1103.16 665.88 1067.66 665.88 1049.91 696.62 1067.66 727.37 1103.16 727.37 1120.92 696.62 1103.16 665.88"/><polygon class="cls-5" points="1209.44 665.88 1173.94 665.88 1156.19 696.62 1173.94 727.37 1209.44 727.37 1227.19 696.62 1209.44 665.88"/><polygon class="cls-5" points="1315.84 665.96 1280.33 665.96 1262.58 696.71 1280.33 727.45 1315.84 727.45 1333.59 696.71 1315.84 665.96"/><polygon class="cls-5" points="1422.23 665.92 1386.73 665.92 1368.97 696.66 1386.73 727.41 1422.23 727.41 1425.11 722.41 1425.11 696.36 1425.11 670.91 1422.23 665.92"/><polygon class="cls-5" points="1425.11 671.15 1425.11 660.68 1422.23 665.92 1425.11 671.15"/><polygon class="cls-5" points="1.5 671 4.38 666 1.5 660.68 1.5 671"/><polygon class="cls-5" points="677.78 665.94 642.28 665.94 624.53 696.69 642.28 727.43 677.78 727.43 695.54 696.69 677.78 665.94"/><polygon class="cls-5" points="39.89 727.54 4.38 727.54 1.5 732.54 1.5 758.79 1.5 784.04 4.38 789.04 39.89 789.04 57.64 758.29 39.89 727.54"/><polygon class="cls-5" points="146.16 727.54 110.66 727.54 92.91 758.29 110.66 789.04 146.16 789.04 163.92 758.29 146.16 727.54"/><polygon class="cls-5" points="252.44 727.54 216.94 727.54 199.19 758.29 216.94 789.04 252.44 789.04 270.19 758.29 252.44 727.54"/><polygon class="cls-5" points="358.72 727.54 323.22 727.54 305.46 758.29 323.22 789.04 358.72 789.04 376.47 758.29 358.72 727.54"/><polygon class="cls-5" points="465.11 727.63 429.61 727.63 411.86 758.38 429.61 789.13 465.11 789.13 482.87 758.38 465.11 727.63"/><polygon class="cls-5" points="571.51 727.48 536 727.48 518.25 758.23 536 788.97 571.51 788.97 589.26 758.23 571.51 727.48"/><polygon class="cls-5" points="784.06 727.48 748.56 727.48 730.81 758.23 748.56 788.97 784.06 788.97 801.81 758.23 784.06 727.48"/><polygon class="cls-5" points="890.34 727.48 854.84 727.48 837.08 758.23 854.84 788.97 890.34 788.97 908.09 758.23 890.34 727.48"/><polygon class="cls-5" points="996.73 727.57 961.23 727.57 943.48 758.31 961.23 789.06 996.73 789.06 1014.48 758.31 996.73 727.57"/><polygon class="cls-5" points="1103.16 727.42 1067.66 727.42 1049.91 758.16 1067.66 788.91 1103.16 788.91 1120.92 758.16 1103.16 727.42"/><polygon class="cls-5" points="1209.44 727.42 1173.94 727.42 1156.19 758.16 1173.94 788.91 1209.44 788.91 1227.19 758.16 1209.44 727.42"/><polygon class="cls-5" points="1315.84 727.5 1280.33 727.5 1262.58 758.25 1280.33 789 1315.84 789 1333.59 758.25 1315.84 727.5"/><polygon class="cls-5" points="1422.23 727.46 1386.73 727.46 1368.97 758.21 1386.73 788.95 1422.23 788.95 1425.11 783.96 1425.11 757.9 1425.11 732.46 1422.23 727.46"/><polygon class="cls-5" points="1425.11 732.69 1425.11 722.23 1422.23 727.46 1425.11 732.69"/><polygon class="cls-5" points="1.5 732.54 4.38 727.54 1.5 722.23 1.5 732.54"/><polygon class="cls-5" points="677.78 727.48 642.28 727.48 624.53 758.23 642.28 788.97 677.78 788.97 695.54 758.23 677.78 727.48"/><polygon class="cls-5" points="39.89 789.09 4.38 789.09 1.5 794.08 1.5 820.33 1.5 845.58 4.38 850.58 39.89 850.58 57.64 819.83 39.89 789.09"/><polygon class="cls-5" points="146.16 789.09 110.66 789.09 92.91 819.83 110.66 850.58 146.16 850.58 163.92 819.83 146.16 789.09"/><polygon class="cls-5" points="252.44 789.09 216.94 789.09 199.19 819.83 216.94 850.58 252.44 850.58 270.19 819.83 252.44 789.09"/><polygon class="cls-5" points="358.72 789.09 323.22 789.09 305.46 819.83 323.22 850.58 358.72 850.58 376.47 819.83 358.72 789.09"/><polygon class="cls-5" points="465.11 789.17 429.61 789.17 411.86 819.92 429.61 850.67 465.11 850.67 482.87 819.92 465.11 789.17"/><polygon class="cls-5" points="571.51 789.02 536 789.02 518.25 819.77 536 850.52 571.51 850.52 589.26 819.77 571.51 789.02"/><polygon class="cls-5" points="784.06 789.02 748.56 789.02 730.81 819.77 748.56 850.52 784.06 850.52 801.81 819.77 784.06 789.02"/><polygon class="cls-5" points="890.34 789.02 854.84 789.02 837.08 819.77 854.84 850.52 890.34 850.52 908.09 819.77 890.34 789.02"/><polygon class="cls-5" points="996.73 789.11 961.23 789.11 943.48 819.86 961.23 850.6 996.73 850.6 1014.48 819.86 996.73 789.11"/><polygon class="cls-5" points="1103.16 788.96 1067.66 788.96 1049.91 819.71 1067.66 850.45 1103.16 850.45 1120.92 819.71 1103.16 788.96"/><polygon class="cls-5" points="1209.44 788.96 1173.94 788.96 1156.19 819.71 1173.94 850.45 1209.44 850.45 1227.19 819.71 1209.44 788.96"/><polygon class="cls-5" points="1315.84 789.04 1280.33 789.04 1262.58 819.79 1280.33 850.54 1315.84 850.54 1333.59 819.79 1315.84 789.04"/><polygon class="cls-5" points="1422.23 789 1386.73 789 1368.97 819.75 1386.73 850.5 1422.23 850.5 1425.11 845.5 1425.11 819.45 1425.11 794 1422.23 789"/><polygon class="cls-5" points="1425.11 794.23 1425.11 783.77 1422.23 789 1425.11 794.23"/><polygon class="cls-5" points="1.5 794.08 4.38 789.09 1.5 783.77 1.5 794.08"/><polygon class="cls-5" points="677.78 789.02 642.28 789.02 624.53 819.77 642.28 850.52 677.78 850.52 695.54 819.77 677.78 789.02"/><polygon class="cls-5" points="39.89 850.63 4.38 850.63 1.5 855.63 1.5 881.88 1.5 907.13 5.21 912.78 39.31 912.78 57.64 881.38 39.89 850.63"/><polygon class="cls-5" points="146.16 850.63 110.66 850.63 92.91 881.38 111.24 912.78 145.34 912.78 163.92 881.38 146.16 850.63"/><polygon class="cls-5" points="252.44 850.63 216.94 850.63 199.19 881.38 218.01 912.78 251.37 912.78 270.19 881.38 252.44 850.63"/><polygon class="cls-5" points="358.72 850.63 323.22 850.63 305.46 881.38 324.04 912.78 358.14 912.78 376.47 881.38 358.72 850.63"/><polygon class="cls-5" points="465.11 850.71 429.61 850.71 411.86 881.46 429.33 912.78 464.92 912.78 482.87 881.46 465.11 850.71"/><polygon class="cls-5" points="571.51 850.56 536 850.56 518.25 881.31 536.1 912.78 570.95 912.78 589.26 881.31 571.51 850.56"/><polygon class="cls-5" points="784.06 850.56 748.56 850.56 730.81 881.31 748.9 912.78 783.75 912.78 801.81 881.31 784.06 850.56"/><polygon class="cls-5" points="890.34 850.56 854.84 850.56 837.08 881.31 855.67 912.78 889.78 912.78 908.09 881.31 890.34 850.56"/><polygon class="cls-5" points="996.73 850.65 961.23 850.65 943.48 881.4 961.7 912.78 996.55 912.78 1014.48 881.4 996.73 850.65"/><polygon class="cls-5" points="1103.16 850.5 1067.66 850.5 1049.91 881.25 1068.47 912.78 1102.58 912.78 1120.92 881.25 1103.16 850.5"/><polygon class="cls-5" points="1209.44 850.5 1173.94 850.5 1156.19 881.25 1174.5 912.78 1209.35 912.78 1227.19 881.25 1209.44 850.5"/><polygon class="cls-5" points="1315.84 850.59 1280.33 850.59 1262.58 881.33 1281.27 912.78 1314.64 912.78 1333.59 881.33 1315.84 850.59"/><polygon class="cls-5" points="1422.23 850.54 1386.73 850.54 1368.97 881.29 1387.3 912.78 1421.41 912.78 1425.11 907.04 1425.11 880.99 1425.11 855.54 1422.23 850.54"/><polygon class="cls-5" points="1425.11 855.77 1425.11 845.31 1422.23 850.54 1425.11 855.77"/><polygon class="cls-5" points="1.5 855.63 4.38 850.63 1.5 845.31 1.5 855.63"/><polygon class="cls-5" points="677.78 850.56 642.28 850.56 624.53 881.31 642.87 912.78 676.98 912.78 695.54 881.31 677.78 850.56"/><polygon class="cls-5" points="1.5 912.78 5.21 912.78 1.5 906.85 1.5 912.78"/><polygon class="cls-5" points="1425.11 906.85 1425.26 912.78 1421.41 912.78 1425.11 906.85"/></g><circle class="cls-2" cx="762.49" cy="512" r="511"/><circle class="cls-6" cx="762.49" cy="512" r="511"/></g></g></g></svg>