<svg xmlns="http://www.w3.org/2000/svg" xmlns:xlink="http://www.w3.org/1999/xlink" viewBox="0 0 1956.64 1101.36"><defs><style>.cls-1,.cls-5{fill:none;}.cls-2{clip-path:url(#clip-path);}.cls-3{opacity:0.5;}.cls-4{fill:#ffd360;stroke:#575756;}.cls-4,.cls-5{stroke-miterlimit:10;stroke-width:2px;}.cls-5{stroke:#000;}.cls-6{fill:#fff;opacity:0.4;}.cls-7{font-size:408px;font-family:FreestyleScript-Regular, Freestyle Script;}</style><clipPath id="clip-path" transform="translate(515.42 38.29)"><circle class="cls-1" cx="512" cy="512" r="511"/></clipPath></defs><g id="Ebene_2" data-name="Ebene 2"><g id="Ebene_1-2" data-name="Ebene 1"><g class="cls-2"><g class="cls-3"><polygon class="cls-4" points="53.7 1.18 4.96 1.18 1 8.04 1 44.08 1 78.74 4.96 85.6 53.7 85.6 78.07 43.39 53.7 1.18"/><polygon class="cls-4" points="126.63 43.39 77.89 43.39 53.52 85.6 77.89 127.81 126.63 127.81 151 85.6 126.63 43.39"/><polygon class="cls-4" points="199.6 1.18 150.86 1.18 126.49 43.39 150.86 85.6 199.6 85.6 223.98 43.39 199.6 1.18"/><polygon class="cls-4" points="118 1.09 78.07 1.09 53.52 1.09 77.89 43.3 126.63 43.3 151 1.09 118 1.09"/><polygon class="cls-4" points="263.96 1.24 224.03 1.24 199.47 1.24 223.84 43.45 272.58 43.45 296.95 1.24 263.96 1.24"/><polygon class="cls-4" points="409.91 1.09 369.99 1.09 345.43 1.09 369.8 43.3 418.54 43.3 442.91 1.09 409.91 1.09"/><polygon class="cls-4" points="555.9 1.09 515.97 1.09 491.41 1.09 515.78 43.3 564.52 43.3 588.89 1.09 555.9 1.09"/><polygon class="cls-4" points="701.87 1.09 661.94 1.09 637.38 1.09 661.75 43.3 710.49 43.3 734.87 1.09 701.87 1.09"/><polygon class="cls-4" points="847.84 1.09 807.91 1.09 783.35 1.09 807.72 43.3 856.47 43.3 880.84 1.09 847.84 1.09"/><polygon class="cls-4" points="993.92 1.09 954 1.09 929.44 1.09 953.81 43.3 1002.55 43.3 1026.92 1.09 993.92 1.09"/><polygon class="cls-4" points="1139.75 1.09 1099.82 1.09 1075.27 1.09 1099.64 43.3 1148.38 43.3 1172.75 1.09 1139.75 1.09"/><polygon class="cls-4" points="1285.71 1.09 1245.78 1.09 1221.22 1.09 1245.59 43.3 1294.34 43.3 1318.71 1.09 1285.71 1.09"/><polygon class="cls-4" points="1431.66 1.09 1391.74 1.09 1367.18 1.09 1391.55 43.3 1440.29 43.3 1464.66 1.09 1431.66 1.09"/><polygon class="cls-4" points="1577.84 1.09 1537.91 1.09 1513.35 1.09 1537.72 43.3 1586.46 43.3 1610.83 1.09 1577.84 1.09"/><polygon class="cls-4" points="1723.79 1.09 1683.87 1.09 1659.31 1.09 1683.68 43.3 1732.42 43.3 1756.79 1.09 1723.79 1.09"/><polygon class="cls-4" points="1869.75 1.09 1829.82 1.09 1805.27 1.09 1829.64 43.3 1878.38 43.3 1902.75 1.09 1869.75 1.09"/><polygon class="cls-4" points="272.58 43.39 223.84 43.39 199.47 85.6 223.84 127.81 272.58 127.81 296.95 85.6 272.58 43.39"/><polygon class="cls-4" points="345.51 1.18 296.77 1.18 272.4 43.39 296.77 85.6 345.51 85.6 369.88 43.39 345.51 1.18"/><polygon class="cls-4" points="418.54 43.39 369.8 43.39 345.43 85.6 369.8 127.81 418.54 127.81 442.91 85.6 418.54 43.39"/><polygon class="cls-4" points="491.41 1.18 442.67 1.18 418.3 43.39 442.67 85.6 491.41 85.6 515.78 43.39 491.41 1.18"/><polygon class="cls-4" points="564.5 43.51 515.76 43.51 491.39 85.72 515.76 127.93 564.5 127.93 588.87 85.72 564.5 43.51"/><polygon class="cls-4" points="637.48 1.29 588.74 1.29 564.36 43.51 588.74 85.72 637.48 85.72 661.85 43.51 637.48 1.29"/><polygon class="cls-4" points="710.45 43.51 661.71 43.51 637.34 85.72 661.71 127.93 710.45 127.93 734.83 85.72 710.45 43.51"/><polygon class="cls-4" points="783.54 1.09 734.8 1.09 710.43 43.3 734.8 85.51 783.54 85.51 807.91 43.3 783.54 1.09"/><polygon class="cls-4" points="856.47 43.3 807.72 43.3 783.35 85.51 807.72 127.72 856.47 127.72 880.84 85.51 856.47 43.3"/><polygon class="cls-4" points="1002.42 43.3 953.68 43.3 929.31 85.51 953.68 127.72 1002.42 127.72 1026.79 85.51 1002.42 43.3"/><polygon class="cls-4" points="1075.35 1.09 1026.61 1.09 1002.24 43.3 1026.61 85.51 1075.35 85.51 1099.72 43.3 1075.35 1.09"/><polygon class="cls-4" points="1148.38 43.3 1099.64 43.3 1075.27 85.51 1099.64 127.72 1148.38 127.72 1172.75 85.51 1148.38 43.3"/><polygon class="cls-4" points="1221.25 1.09 1172.51 1.09 1148.14 43.3 1172.51 85.51 1221.25 85.51 1245.62 43.3 1221.25 1.09"/><polygon class="cls-4" points="1294.34 43.42 1245.59 43.42 1221.22 85.63 1245.59 127.84 1294.34 127.84 1318.71 85.63 1294.34 43.42"/><polygon class="cls-4" points="1367.31 1.21 1318.57 1.21 1294.2 43.42 1318.57 85.63 1367.31 85.63 1391.68 43.42 1367.31 1.21"/><polygon class="cls-4" points="1440.29 43.42 1391.55 43.42 1367.18 85.63 1391.55 127.84 1440.29 127.84 1464.66 85.63 1440.29 43.42"/><polygon class="cls-4" points="1513.43 1 1464.69 1 1440.32 43.21 1464.69 85.42 1513.43 85.42 1537.8 43.21 1513.43 1"/><polygon class="cls-4" points="1659.33 1 1610.59 1 1586.22 43.21 1610.59 85.42 1659.33 85.42 1683.7 43.21 1659.33 1"/><polygon class="cls-4" points="1732.42 43.33 1683.68 43.33 1659.31 85.54 1683.68 127.75 1732.42 127.75 1756.79 85.54 1732.42 43.33"/><polygon class="cls-4" points="1805.4 1.12 1756.66 1.12 1732.29 43.33 1756.66 85.54 1805.4 85.54 1829.77 43.33 1805.4 1.12"/><polygon class="cls-4" points="1878.38 43.33 1829.64 43.33 1805.27 85.54 1829.64 127.75 1878.38 127.75 1902.75 85.54 1878.38 43.33"/><line class="cls-4" x1="1878.35" y1="43.27" x2="1902.72" y2="85.48"/><polygon class="cls-4" points="1951.46 1.06 1902.72 1.06 1878.35 43.27 1902.72 85.48 1951.46 85.48 1955.42 78.62 1955.42 42.85 1955.42 7.92 1951.46 1.06"/><polygon class="cls-4" points="1955.42 8.24 1955.42 1.09 1951.46 1.06 1955.42 8.24"/><polygon class="cls-4" points="1 8.04 4.96 1.18 1 1.18 1 8.04"/><polygon class="cls-4" points="1586.46 43.21 1537.72 43.21 1513.35 85.42 1537.72 127.63 1586.46 127.63 1610.83 85.42 1586.46 43.21"/><polygon class="cls-4" points="126.63 127.88 77.89 127.88 53.52 170.09 77.89 212.3 126.63 212.3 151 170.09 126.63 127.88"/><polygon class="cls-4" points="272.58 127.88 223.84 127.88 199.47 170.09 223.84 212.3 272.58 212.3 296.95 170.09 272.58 127.88"/><polygon class="cls-4" points="418.54 127.88 369.8 127.88 345.43 170.09 369.8 212.3 418.54 212.3 442.91 170.09 418.54 127.88"/><polygon class="cls-4" points="564.5 127.99 515.76 127.99 491.39 170.21 515.76 212.42 564.5 212.42 588.87 170.21 564.5 127.99"/><polygon class="cls-4" points="710.45 127.99 661.71 127.99 637.34 170.21 661.71 212.42 710.45 212.42 734.83 170.21 710.45 127.99"/><polygon class="cls-4" points="856.47 127.79 807.72 127.79 783.35 170 807.72 212.21 856.47 212.21 880.84 170 856.47 127.79"/><polygon class="cls-4" points="1002.42 127.79 953.68 127.79 929.31 170 953.68 212.21 1002.42 212.21 1026.79 170 1002.42 127.79"/><polygon class="cls-4" points="1148.38 127.79 1099.64 127.79 1075.27 170 1099.64 212.21 1148.38 212.21 1172.75 170 1148.38 127.79"/><polygon class="cls-4" points="1294.34 127.91 1245.59 127.91 1221.22 170.12 1245.59 212.33 1294.34 212.33 1318.71 170.12 1294.34 127.91"/><polygon class="cls-4" points="1440.29 127.91 1391.55 127.91 1367.18 170.12 1391.55 212.33 1440.29 212.33 1464.66 170.12 1440.29 127.91"/><polygon class="cls-4" points="1732.42 127.82 1683.68 127.82 1659.31 170.03 1683.68 212.24 1732.42 212.24 1756.79 170.03 1732.42 127.82"/><polygon class="cls-4" points="1878.38 127.82 1829.64 127.82 1805.27 170.03 1829.64 212.24 1878.38 212.24 1902.75 170.03 1878.38 127.82"/><polygon class="cls-4" points="1586.46 127.7 1537.72 127.7 1513.35 169.91 1537.72 212.12 1586.46 212.12 1610.83 169.91 1586.46 127.7"/><polygon class="cls-4" points="126.63 212.36 77.89 212.36 53.52 254.57 77.89 296.79 126.63 296.79 151 254.57 126.63 212.36"/><polygon class="cls-4" points="272.58 212.36 223.84 212.36 199.47 254.57 223.84 296.79 272.58 296.79 296.95 254.57 272.58 212.36"/><polygon class="cls-4" points="418.54 212.36 369.8 212.36 345.43 254.57 369.8 296.79 418.54 296.79 442.91 254.57 418.54 212.36"/><polygon class="cls-4" points="564.5 212.48 515.76 212.48 491.39 254.69 515.76 296.9 564.5 296.9 588.87 254.69 564.5 212.48"/><polygon class="cls-4" points="710.45 212.48 661.71 212.48 637.34 254.69 661.71 296.9 710.45 296.9 734.83 254.69 710.45 212.48"/><polygon class="cls-4" points="856.47 212.28 807.72 212.28 783.35 254.49 807.72 296.7 856.47 296.7 880.84 254.49 856.47 212.28"/><polygon class="cls-4" points="1002.42 212.28 953.68 212.28 929.31 254.49 953.68 296.7 1002.42 296.7 1026.79 254.49 1002.42 212.28"/><polygon class="cls-4" points="1148.38 212.28 1099.64 212.28 1075.27 254.49 1099.64 296.7 1148.38 296.7 1172.75 254.49 1148.38 212.28"/><polygon class="cls-4" points="1294.34 212.39 1245.59 212.39 1221.22 254.6 1245.59 296.81 1294.34 296.81 1318.71 254.6 1294.34 212.39"/><polygon class="cls-4" points="1440.29 212.39 1391.55 212.39 1367.18 254.6 1391.55 296.81 1440.29 296.81 1464.66 254.6 1440.29 212.39"/><polygon class="cls-4" points="1732.42 212.31 1683.68 212.31 1659.31 254.52 1683.68 296.73 1732.42 296.73 1756.79 254.52 1732.42 212.31"/><polygon class="cls-4" points="1878.38 212.31 1829.64 212.31 1805.27 254.52 1829.64 296.73 1878.38 296.73 1902.75 254.52 1878.38 212.31"/><polygon class="cls-4" points="1586.46 212.19 1537.72 212.19 1513.35 254.4 1537.72 296.61 1586.46 296.61 1610.83 254.4 1586.46 212.19"/><polygon class="cls-4" points="126.63 296.85 77.89 296.85 53.52 339.06 77.89 381.27 126.63 381.27 151 339.06 126.63 296.85"/><polygon class="cls-4" points="272.58 296.85 223.84 296.85 199.47 339.06 223.84 381.27 272.58 381.27 296.95 339.06 272.58 296.85"/><polygon class="cls-4" points="418.54 296.85 369.8 296.85 345.43 339.06 369.8 381.27 418.54 381.27 442.91 339.06 418.54 296.85"/><polygon class="cls-4" points="564.5 296.97 515.76 296.97 491.39 339.18 515.76 381.39 564.5 381.39 588.87 339.18 564.5 296.97"/><polygon class="cls-4" points="710.45 296.97 661.71 296.97 637.34 339.18 661.71 381.39 710.45 381.39 734.83 339.18 710.45 296.97"/><polygon class="cls-4" points="856.47 296.76 807.72 296.76 783.35 338.97 807.72 381.19 856.47 381.19 880.84 338.97 856.47 296.76"/><polygon class="cls-4" points="1002.42 296.76 953.68 296.76 929.31 338.97 953.68 381.19 1002.42 381.19 1026.79 338.97 1002.42 296.76"/><polygon class="cls-4" points="1148.38 296.76 1099.64 296.76 1075.27 338.97 1099.64 381.19 1148.38 381.19 1172.75 338.97 1148.38 296.76"/><polygon class="cls-4" points="1294.34 296.88 1245.59 296.88 1221.22 339.09 1245.59 381.3 1294.34 381.3 1318.71 339.09 1294.34 296.88"/><polygon class="cls-4" points="1440.29 296.88 1391.55 296.88 1367.18 339.09 1391.55 381.3 1440.29 381.3 1464.66 339.09 1440.29 296.88"/><polygon class="cls-4" points="1732.42 296.79 1683.68 296.79 1659.31 339 1683.68 381.21 1732.42 381.21 1756.79 339 1732.42 296.79"/><polygon class="cls-4" points="1878.38 296.79 1829.64 296.79 1805.27 339 1829.64 381.21 1878.38 381.21 1902.75 339 1878.38 296.79"/><polygon class="cls-4" points="1586.46 296.68 1537.72 296.68 1513.35 338.89 1537.72 381.1 1586.46 381.1 1610.83 338.89 1586.46 296.68"/><polygon class="cls-4" points="126.63 381.34 77.89 381.34 53.52 423.55 77.89 465.76 126.63 465.76 151 423.55 126.63 381.34"/><polygon class="cls-4" points="272.58 381.34 223.84 381.34 199.47 423.55 223.84 465.76 272.58 465.76 296.95 423.55 272.58 381.34"/><polygon class="cls-4" points="418.54 381.34 369.8 381.34 345.43 423.55 369.8 465.76 418.54 465.76 442.91 423.55 418.54 381.34"/><polygon class="cls-4" points="564.5 381.46 515.76 381.46 491.39 423.67 515.76 465.88 564.5 465.88 588.87 423.67 564.5 381.46"/><polygon class="cls-4" points="710.45 381.46 661.71 381.46 637.34 423.67 661.71 465.88 710.45 465.88 734.83 423.67 710.45 381.46"/><polygon class="cls-4" points="856.47 381.25 807.72 381.25 783.35 423.46 807.72 465.67 856.47 465.67 880.84 423.46 856.47 381.25"/><polygon class="cls-4" points="1002.42 381.25 953.68 381.25 929.31 423.46 953.68 465.67 1002.42 465.67 1026.79 423.46 1002.42 381.25"/><polygon class="cls-4" points="1148.38 381.25 1099.64 381.25 1075.27 423.46 1099.64 465.67 1148.38 465.67 1172.75 423.46 1148.38 381.25"/><polygon class="cls-4" points="1294.34 381.37 1245.59 381.37 1221.22 423.58 1245.59 465.79 1294.34 465.79 1318.71 423.58 1294.34 381.37"/><polygon class="cls-4" points="1440.29 381.37 1391.55 381.37 1367.18 423.58 1391.55 465.79 1440.29 465.79 1464.66 423.58 1440.29 381.37"/><polygon class="cls-4" points="1732.42 381.28 1683.68 381.28 1659.31 423.49 1683.68 465.7 1732.42 465.7 1756.79 423.49 1732.42 381.28"/><polygon class="cls-4" points="1878.38 381.28 1829.64 381.28 1805.27 423.49 1829.64 465.7 1878.38 465.7 1902.75 423.49 1878.38 381.28"/><polygon class="cls-4" points="1586.46 381.16 1537.72 381.16 1513.35 423.37 1537.72 465.58 1586.46 465.58 1610.83 423.37 1586.46 381.16"/><polygon class="cls-4" points="126.63 465.83 77.89 465.83 53.52 508.04 77.89 550.25 126.63 550.25 151 508.04 126.63 465.83"/><polygon class="cls-4" points="272.58 465.83 223.84 465.83 199.47 508.04 223.84 550.25 272.58 550.25 296.95 508.04 272.58 465.83"/><polygon class="cls-4" points="418.54 465.83 369.8 465.83 345.43 508.04 369.8 550.25 418.54 550.25 442.91 508.04 418.54 465.83"/><polygon class="cls-4" points="564.5 465.95 515.76 465.95 491.39 508.16 515.76 550.37 564.5 550.37 588.87 508.16 564.5 465.95"/><polygon class="cls-4" points="710.45 465.95 661.71 465.95 637.34 508.16 661.71 550.37 710.45 550.37 734.83 508.16 710.45 465.95"/><polygon class="cls-4" points="856.47 465.74 807.72 465.74 783.35 507.95 807.72 550.16 856.47 550.16 880.84 507.95 856.47 465.74"/><polygon class="cls-4" points="1002.42 465.74 953.68 465.74 929.31 507.95 953.68 550.16 1002.42 550.16 1026.79 507.95 1002.42 465.74"/><polygon class="cls-4" points="1148.38 465.74 1099.64 465.74 1075.27 507.95 1099.64 550.16 1148.38 550.16 1172.75 507.95 1148.38 465.74"/><polygon class="cls-4" points="1294.34 465.86 1245.59 465.86 1221.22 508.07 1245.59 550.28 1294.34 550.28 1318.71 508.07 1294.34 465.86"/><polygon class="cls-4" points="1440.29 465.86 1391.55 465.86 1367.18 508.07 1391.55 550.28 1440.29 550.28 1464.66 508.07 1440.29 465.86"/><polygon class="cls-4" points="1732.42 465.77 1683.68 465.77 1659.31 507.98 1683.68 550.19 1732.42 550.19 1756.79 507.98 1732.42 465.77"/><polygon class="cls-4" points="1878.38 465.77 1829.64 465.77 1805.27 507.98 1829.64 550.19 1878.38 550.19 1902.75 507.98 1878.38 465.77"/><polygon class="cls-4" points="1586.46 465.65 1537.72 465.65 1513.35 507.86 1537.72 550.07 1586.46 550.07 1610.83 507.86 1586.46 465.65"/><polygon class="cls-4" points="126.63 550.32 77.89 550.32 53.52 592.53 77.89 634.74 126.63 634.74 151 592.53 126.63 550.32"/><polygon class="cls-4" points="272.58 550.32 223.84 550.32 199.47 592.53 223.84 634.74 272.58 634.74 296.95 592.53 272.58 550.32"/><polygon class="cls-4" points="418.54 550.32 369.8 550.32 345.43 592.53 369.8 634.74 418.54 634.74 442.91 592.53 418.54 550.32"/><polygon class="cls-4" points="564.5 550.43 515.76 550.43 491.39 592.64 515.76 634.86 564.5 634.86 588.87 592.64 564.5 550.43"/><polygon class="cls-4" points="710.45 550.43 661.71 550.43 637.34 592.64 661.71 634.86 710.45 634.86 734.83 592.64 710.45 550.43"/><polygon class="cls-4" points="856.47 550.23 807.72 550.23 783.35 592.44 807.72 634.65 856.47 634.65 880.84 592.44 856.47 550.23"/><polygon class="cls-4" points="1002.42 550.23 953.68 550.23 929.31 592.44 953.68 634.65 1002.42 634.65 1026.79 592.44 1002.42 550.23"/><polygon class="cls-4" points="1148.38 550.23 1099.64 550.23 1075.27 592.44 1099.64 634.65 1148.38 634.65 1172.75 592.44 1148.38 550.23"/><polygon class="cls-4" points="1294.34 550.35 1245.59 550.35 1221.22 592.56 1245.59 634.77 1294.34 634.77 1318.71 592.56 1294.34 550.35"/><polygon class="cls-4" points="1440.29 550.35 1391.55 550.35 1367.18 592.56 1391.55 634.77 1440.29 634.77 1464.66 592.56 1440.29 550.35"/><polygon class="cls-4" points="1732.42 550.26 1683.68 550.26 1659.31 592.47 1683.68 634.68 1732.42 634.68 1756.79 592.47 1732.42 550.26"/><polygon class="cls-4" points="1878.38 550.26 1829.64 550.26 1805.27 592.47 1829.64 634.68 1878.38 634.68 1902.75 592.47 1878.38 550.26"/><polygon class="cls-4" points="1586.46 550.14 1537.72 550.14 1513.35 592.35 1537.72 634.56 1586.46 634.56 1610.83 592.35 1586.46 550.14"/><polygon class="cls-4" points="126.63 634.8 77.89 634.8 53.52 677.01 77.89 719.23 126.63 719.23 151 677.01 126.63 634.8"/><polygon class="cls-4" points="272.58 634.8 223.84 634.8 199.47 677.01 223.84 719.23 272.58 719.23 296.95 677.01 272.58 634.8"/><polygon class="cls-4" points="418.54 634.8 369.8 634.8 345.43 677.01 369.8 719.23 418.54 719.23 442.91 677.01 418.54 634.8"/><polygon class="cls-4" points="564.5 634.92 515.76 634.92 491.39 677.13 515.76 719.34 564.5 719.34 588.87 677.13 564.5 634.92"/><polygon class="cls-4" points="710.45 634.92 661.71 634.92 637.34 677.13 661.71 719.34 710.45 719.34 734.83 677.13 710.45 634.92"/><polygon class="cls-4" points="856.47 634.72 807.72 634.72 783.35 676.93 807.72 719.14 856.47 719.14 880.84 676.93 856.47 634.72"/><polygon class="cls-4" points="1002.42 634.72 953.68 634.72 929.31 676.93 953.68 719.14 1002.42 719.14 1026.79 676.93 1002.42 634.72"/><polygon class="cls-4" points="1148.38 634.72 1099.64 634.72 1075.27 676.93 1099.64 719.14 1148.38 719.14 1172.75 676.93 1148.38 634.72"/><polygon class="cls-4" points="1294.34 634.83 1245.59 634.83 1221.22 677.04 1245.59 719.25 1294.34 719.25 1318.71 677.04 1294.34 634.83"/><polygon class="cls-4" points="1440.29 634.83 1391.55 634.83 1367.18 677.04 1391.55 719.25 1440.29 719.25 1464.66 677.04 1440.29 634.83"/><polygon class="cls-4" points="1732.42 634.75 1683.68 634.75 1659.31 676.96 1683.68 719.17 1732.42 719.17 1756.79 676.96 1732.42 634.75"/><polygon class="cls-4" points="1878.38 634.75 1829.64 634.75 1805.27 676.96 1829.64 719.17 1878.38 719.17 1902.75 676.96 1878.38 634.75"/><polygon class="cls-4" points="1586.46 634.63 1537.72 634.63 1513.35 676.84 1537.72 719.05 1586.46 719.05 1610.83 676.84 1586.46 634.63"/><polygon class="cls-4" points="126.63 719.29 77.89 719.29 53.52 761.5 77.89 803.71 126.63 803.71 151 761.5 126.63 719.29"/><polygon class="cls-4" points="272.58 719.29 223.84 719.29 199.47 761.5 223.84 803.71 272.58 803.71 296.95 761.5 272.58 719.29"/><polygon class="cls-4" points="418.54 719.29 369.8 719.29 345.43 761.5 369.8 803.71 418.54 803.71 442.91 761.5 418.54 719.29"/><polygon class="cls-4" points="564.5 719.41 515.76 719.41 491.39 761.62 515.76 803.83 564.5 803.83 588.87 761.62 564.5 719.41"/><polygon class="cls-4" points="710.45 719.41 661.71 719.41 637.34 761.62 661.71 803.83 710.45 803.83 734.83 761.62 710.45 719.41"/><polygon class="cls-4" points="856.47 719.2 807.72 719.2 783.35 761.41 807.72 803.63 856.47 803.63 880.84 761.41 856.47 719.2"/><polygon class="cls-4" points="1002.42 719.2 953.68 719.2 929.31 761.41 953.68 803.63 1002.42 803.63 1026.79 761.41 1002.42 719.2"/><polygon class="cls-4" points="1148.38 719.2 1099.64 719.2 1075.27 761.41 1099.64 803.63 1148.38 803.63 1172.75 761.41 1148.38 719.2"/><polygon class="cls-4" points="1294.34 719.32 1245.59 719.32 1221.22 761.53 1245.59 803.74 1294.34 803.74 1318.71 761.53 1294.34 719.32"/><polygon class="cls-4" points="1440.29 719.32 1391.55 719.32 1367.18 761.53 1391.55 803.74 1440.29 803.74 1464.66 761.53 1440.29 719.32"/><polygon class="cls-4" points="1732.42 719.23 1683.68 719.23 1659.31 761.44 1683.68 803.65 1732.42 803.65 1756.79 761.44 1732.42 719.23"/><polygon class="cls-4" points="1878.38 719.23 1829.64 719.23 1805.27 761.44 1829.64 803.65 1878.38 803.65 1902.75 761.44 1878.38 719.23"/><polygon class="cls-4" points="1586.46 719.12 1537.72 719.12 1513.35 761.33 1537.72 803.54 1586.46 803.54 1610.83 761.33 1586.46 719.12"/><polygon class="cls-4" points="126.63 803.78 77.89 803.78 53.52 845.99 77.89 888.2 126.63 888.2 151 845.99 126.63 803.78"/><polygon class="cls-4" points="272.58 803.78 223.84 803.78 199.47 845.99 223.84 888.2 272.58 888.2 296.95 845.99 272.58 803.78"/><polygon class="cls-4" points="418.54 803.78 369.8 803.78 345.43 845.99 369.8 888.2 418.54 888.2 442.91 845.99 418.54 803.78"/><polygon class="cls-4" points="564.5 803.9 515.76 803.9 491.39 846.11 515.76 888.32 564.5 888.32 588.87 846.11 564.5 803.9"/><polygon class="cls-4" points="710.45 803.9 661.71 803.9 637.34 846.11 661.71 888.32 710.45 888.32 734.83 846.11 710.45 803.9"/><polygon class="cls-4" points="856.47 803.69 807.72 803.69 783.35 845.9 807.72 888.11 856.47 888.11 880.84 845.9 856.47 803.69"/><polygon class="cls-4" points="1002.42 803.69 953.68 803.69 929.31 845.9 953.68 888.11 1002.42 888.11 1026.79 845.9 1002.42 803.69"/><polygon class="cls-4" points="1148.38 803.69 1099.64 803.69 1075.27 845.9 1099.64 888.11 1148.38 888.11 1172.75 845.9 1148.38 803.69"/><polygon class="cls-4" points="1294.34 803.81 1245.59 803.81 1221.22 846.02 1245.59 888.23 1294.34 888.23 1318.71 846.02 1294.34 803.81"/><polygon class="cls-4" points="1440.29 803.81 1391.55 803.81 1367.18 846.02 1391.55 888.23 1440.29 888.23 1464.66 846.02 1440.29 803.81"/><polygon class="cls-4" points="1732.42 803.72 1683.68 803.72 1659.31 845.93 1683.68 888.14 1732.42 888.14 1756.79 845.93 1732.42 803.72"/><polygon class="cls-4" points="1878.38 803.72 1829.64 803.72 1805.27 845.93 1829.64 888.14 1878.38 888.14 1902.75 845.93 1878.38 803.72"/><polygon class="cls-4" points="1586.46 803.6 1537.72 803.6 1513.35 845.81 1537.72 888.02 1586.46 888.02 1610.83 845.81 1586.46 803.6"/><polygon class="cls-4" points="126.63 888.27 77.89 888.27 53.52 930.48 77.89 972.69 126.63 972.69 151 930.48 126.63 888.27"/><polygon class="cls-4" points="272.58 888.27 223.84 888.27 199.47 930.48 223.84 972.69 272.58 972.69 296.95 930.48 272.58 888.27"/><polygon class="cls-4" points="418.54 888.27 369.8 888.27 345.43 930.48 369.8 972.69 418.54 972.69 442.91 930.48 418.54 888.27"/><polygon class="cls-4" points="564.5 888.39 515.76 888.39 491.39 930.6 515.76 972.81 564.5 972.81 588.87 930.6 564.5 888.39"/><polygon class="cls-4" points="710.45 888.39 661.71 888.39 637.34 930.6 661.71 972.81 710.45 972.81 734.83 930.6 710.45 888.39"/><polygon class="cls-4" points="856.47 888.18 807.72 888.18 783.35 930.39 807.72 972.6 856.47 972.6 880.84 930.39 856.47 888.18"/><polygon class="cls-4" points="1002.42 888.18 953.68 888.18 929.31 930.39 953.68 972.6 1002.42 972.6 1026.79 930.39 1002.42 888.18"/><polygon class="cls-4" points="1148.38 888.18 1099.64 888.18 1075.27 930.39 1099.64 972.6 1148.38 972.6 1172.75 930.39 1148.38 888.18"/><polygon class="cls-4" points="1294.34 888.3 1245.59 888.3 1221.22 930.51 1245.59 972.72 1294.34 972.72 1318.71 930.51 1294.34 888.3"/><polygon class="cls-4" points="1440.29 888.3 1391.55 888.3 1367.18 930.51 1391.55 972.72 1440.29 972.72 1464.66 930.51 1440.29 888.3"/><polygon class="cls-4" points="1732.42 888.21 1683.68 888.21 1659.31 930.42 1683.68 972.63 1732.42 972.63 1756.79 930.42 1732.42 888.21"/><polygon class="cls-4" points="1878.38 888.21 1829.64 888.21 1805.27 930.42 1829.64 972.63 1878.38 972.63 1902.75 930.42 1878.38 888.21"/><polygon class="cls-4" points="1586.46 888.09 1537.72 888.09 1513.35 930.3 1537.72 972.51 1586.46 972.51 1610.83 930.3 1586.46 888.09"/><polygon class="cls-4" points="126.63 972.76 77.89 972.76 53.52 1014.97 77.89 1057.18 126.63 1057.18 151 1014.97 126.63 972.76"/><polygon class="cls-4" points="272.58 972.76 223.84 972.76 199.47 1014.97 223.84 1057.18 272.58 1057.18 296.95 1014.97 272.58 972.76"/><polygon class="cls-4" points="418.54 972.76 369.8 972.76 345.43 1014.97 369.8 1057.18 418.54 1057.18 442.91 1014.97 418.54 972.76"/><polygon class="cls-4" points="564.5 972.87 515.76 972.87 491.39 1015.09 515.76 1057.3 564.5 1057.3 588.87 1015.09 564.5 972.87"/><polygon class="cls-4" points="710.45 972.87 661.71 972.87 637.34 1015.09 661.71 1057.3 710.45 1057.3 734.83 1015.09 710.45 972.87"/><polygon class="cls-4" points="856.47 972.67 807.72 972.67 783.35 1014.88 807.72 1057.09 856.47 1057.09 880.84 1014.88 856.47 972.67"/><polygon class="cls-4" points="1002.42 972.67 953.68 972.67 929.31 1014.88 953.68 1057.09 1002.42 1057.09 1026.79 1014.88 1002.42 972.67"/><polygon class="cls-4" points="1148.38 972.67 1099.64 972.67 1075.27 1014.88 1099.64 1057.09 1148.38 1057.09 1172.75 1014.88 1148.38 972.67"/><polygon class="cls-4" points="1294.34 972.79 1245.59 972.79 1221.22 1015 1245.59 1057.21 1294.34 1057.21 1318.71 1015 1294.34 972.79"/><polygon class="cls-4" points="1440.29 972.79 1391.55 972.79 1367.18 1015 1391.55 1057.21 1440.29 1057.21 1464.66 1015 1440.29 972.79"/><polygon class="cls-4" points="1732.42 972.7 1683.68 972.7 1659.31 1014.91 1683.68 1057.12 1732.42 1057.12 1756.79 1014.91 1732.42 972.7"/><polygon class="cls-4" points="1878.38 972.7 1829.64 972.7 1805.27 1014.91 1829.64 1057.12 1878.38 1057.12 1902.75 1014.91 1878.38 972.7"/><polygon class="cls-4" points="1586.46 972.58 1537.72 972.58 1513.35 1014.79 1537.72 1057 1586.46 1057 1610.83 1014.79 1586.46 972.58"/><polygon class="cls-4" points="126.63 1057.24 77.89 1057.24 52.91 1100.36 86.03 1100.36 134.77 1100.36 151.65 1100.36 126.63 1057.24"/><polygon class="cls-4" points="272.58 1057.24 223.84 1057.24 198.48 1100.36 226.9 1100.36 275.64 1100.36 298.24 1100.36 272.58 1057.24"/><polygon class="cls-4" points="418.54 1057.24 369.8 1057.24 344.04 1100.36 377.63 1100.36 411.23 1100.36 443.8 1100.36 418.54 1057.24"/><polygon class="cls-4" points="564.5 1057.36 515.76 1057.36 490.62 1100.36 522.18 1100.36 559.84 1100.36 588.35 1100.36 564.5 1057.36"/><polygon class="cls-4" points="710.45 1057.36 661.71 1057.36 637.21 1100.36 665.71 1100.36 700.32 1100.36 734.93 1100.36 710.45 1057.36"/><polygon class="cls-4" points="856.47 1057.16 807.72 1057.16 782.77 1100.36 818.4 1100.36 854.02 1100.36 881.51 1100.36 856.47 1057.16"/><polygon class="cls-4" points="1002.42 1057.16 953.68 1057.16 928.33 1100.36 959.89 1100.36 993.48 1100.36 1027.07 1100.36 1002.42 1057.16"/><polygon class="cls-4" points="1148.38 1057.16 1099.64 1057.16 1074.91 1100.36 1103.42 1100.36 1130.9 1100.36 1173.65 1100.36 1148.38 1057.16"/><polygon class="cls-4" points="1294.34 1057.27 1245.59 1057.27 1220.48 1100.36 1248.98 1100.36 1281.55 1100.36 1319.22 1100.36 1294.34 1057.27"/><polygon class="cls-4" points="1440.29 1057.27 1391.55 1057.27 1367.06 1100.36 1393.53 1100.36 1425.08 1100.36 1465.8 1100.36 1440.29 1057.27"/><polygon class="cls-4" points="1732.42 1057.18 1683.68 1057.18 1659.2 1100.36 1681.6 1100.36 1731.48 1100.36 1757.94 1100.36 1732.42 1057.18"/><polygon class="cls-4" points="1878.38 1057.18 1829.64 1057.18 1803.75 1100.36 1832.25 1100.36 1878.06 1100.36 1903.51 1100.36 1878.38 1057.18"/><polygon class="cls-4" points="1586.46 1057.07 1537.72 1057.07 1512.62 1100.36 1539.09 1100.36 1571.66 1100.36 1611.36 1100.36 1586.46 1057.07"/><polygon class="cls-4" points="929.44 1.09 880.7 1.09 856.33 43.3 880.7 85.51 929.44 85.51 953.81 43.3 929.44 1.09"/><polygon class="cls-4" points="53.7 85.67 4.96 85.67 1 92.53 1 128.56 1 163.23 4.96 170.09 53.7 170.09 78.07 127.88 53.7 85.67"/><polygon class="cls-4" points="199.6 85.67 150.86 85.67 126.49 127.88 150.86 170.09 199.6 170.09 223.98 127.88 199.6 85.67"/><polygon class="cls-4" points="345.51 85.67 296.77 85.67 272.4 127.88 296.77 170.09 345.51 170.09 369.88 127.88 345.51 85.67"/><polygon class="cls-4" points="491.41 85.67 442.67 85.67 418.3 127.88 442.67 170.09 491.41 170.09 515.78 127.88 491.41 85.67"/><polygon class="cls-4" points="637.48 85.78 588.74 85.78 564.36 127.99 588.74 170.21 637.48 170.21 661.85 127.99 637.48 85.78"/><polygon class="cls-4" points="783.54 85.58 734.8 85.58 710.43 127.79 734.8 170 783.54 170 807.91 127.79 783.54 85.58"/><polygon class="cls-4" points="1075.35 85.58 1026.61 85.58 1002.24 127.79 1026.61 170 1075.35 170 1099.72 127.79 1075.35 85.58"/><polygon class="cls-4" points="1221.25 85.58 1172.51 85.58 1148.14 127.79 1172.51 170 1221.25 170 1245.62 127.79 1221.25 85.58"/><polygon class="cls-4" points="1367.31 85.69 1318.57 85.69 1294.2 127.91 1318.57 170.12 1367.31 170.12 1391.68 127.91 1367.31 85.69"/><polygon class="cls-4" points="1513.43 85.49 1464.69 85.49 1440.32 127.7 1464.69 169.91 1513.43 169.91 1537.8 127.7 1513.43 85.49"/><polygon class="cls-4" points="1659.33 85.49 1610.59 85.49 1586.22 127.7 1610.59 169.91 1659.33 169.91 1683.7 127.7 1659.33 85.49"/><polygon class="cls-4" points="1805.4 85.61 1756.66 85.61 1732.29 127.82 1756.66 170.03 1805.4 170.03 1829.77 127.82 1805.4 85.61"/><polygon class="cls-4" points="1951.46 85.55 1902.72 85.55 1878.35 127.76 1902.72 169.97 1951.46 169.97 1955.42 163.11 1955.42 127.34 1955.42 92.41 1951.46 85.55"/><polygon class="cls-4" points="1955.42 92.73 1955.42 78.36 1951.46 85.55 1955.42 92.73"/><polygon class="cls-4" points="1 92.53 4.96 85.67 1 78.36 1 92.53"/><polygon class="cls-4" points="929.44 85.58 880.7 85.58 856.33 127.79 880.7 170 929.44 170 953.81 127.79 929.44 85.58"/><polygon class="cls-4" points="53.7 170.15 4.96 170.15 1 177.01 1 213.05 1 247.72 4.96 254.57 53.7 254.57 78.07 212.36 53.7 170.15"/><polygon class="cls-4" points="199.6 170.15 150.86 170.15 126.49 212.36 150.86 254.57 199.6 254.57 223.98 212.36 199.6 170.15"/><polygon class="cls-4" points="345.51 170.15 296.77 170.15 272.4 212.36 296.77 254.57 345.51 254.57 369.88 212.36 345.51 170.15"/><polygon class="cls-4" points="491.41 170.15 442.67 170.15 418.3 212.36 442.67 254.57 491.41 254.57 515.78 212.36 491.41 170.15"/><polygon class="cls-4" points="637.48 170.27 588.74 170.27 564.36 212.48 588.74 254.69 637.48 254.69 661.85 212.48 637.48 170.27"/><polygon class="cls-4" points="783.54 170.06 734.8 170.06 710.43 212.28 734.8 254.49 783.54 254.49 807.91 212.28 783.54 170.06"/><polygon class="cls-4" points="1075.35 170.06 1026.61 170.06 1002.24 212.28 1026.61 254.49 1075.35 254.49 1099.72 212.28 1075.35 170.06"/><polygon class="cls-4" points="1221.25 170.06 1172.51 170.06 1148.14 212.28 1172.51 254.49 1221.25 254.49 1245.62 212.28 1221.25 170.06"/><polygon class="cls-4" points="1367.31 170.18 1318.57 170.18 1294.2 212.39 1318.57 254.6 1367.31 254.6 1391.68 212.39 1367.31 170.18"/><polygon class="cls-4" points="1513.43 169.98 1464.69 169.98 1440.32 212.19 1464.69 254.4 1513.43 254.4 1537.8 212.19 1513.43 169.98"/><polygon class="cls-4" points="1659.33 169.98 1610.59 169.98 1586.22 212.19 1610.59 254.4 1659.33 254.4 1683.7 212.19 1659.33 169.98"/><polygon class="cls-4" points="1805.4 170.09 1756.66 170.09 1732.29 212.31 1756.66 254.52 1805.4 254.52 1829.77 212.31 1805.4 170.09"/><polygon class="cls-4" points="1951.46 170.03 1902.72 170.03 1878.35 212.25 1902.72 254.46 1951.46 254.46 1955.42 247.6 1955.42 211.83 1955.42 176.9 1951.46 170.03"/><polygon class="cls-4" points="1955.42 177.22 1955.42 162.85 1951.46 170.03 1955.42 177.22"/><polygon class="cls-4" points="1 177.01 4.96 170.15 1 162.85 1 177.01"/><polygon class="cls-4" points="929.44 170.06 880.7 170.06 856.33 212.28 880.7 254.49 929.44 254.49 953.81 212.28 929.44 170.06"/><polygon class="cls-4" points="53.7 254.64 4.96 254.64 1 261.5 1 297.54 1 332.2 4.96 339.06 53.7 339.06 78.07 296.85 53.7 254.64"/><polygon class="cls-4" points="199.6 254.64 150.86 254.64 126.49 296.85 150.86 339.06 199.6 339.06 223.98 296.85 199.6 254.64"/><polygon class="cls-4" points="345.51 254.64 296.77 254.64 272.4 296.85 296.77 339.06 345.51 339.06 369.88 296.85 345.51 254.64"/><polygon class="cls-4" points="491.41 254.64 442.67 254.64 418.3 296.85 442.67 339.06 491.41 339.06 515.78 296.85 491.41 254.64"/><polygon class="cls-4" points="637.48 254.76 588.74 254.76 564.36 296.97 588.74 339.18 637.48 339.18 661.85 296.97 637.48 254.76"/><polygon class="cls-4" points="783.54 254.55 734.8 254.55 710.43 296.76 734.8 338.97 783.54 338.97 807.91 296.76 783.54 254.55"/><polygon class="cls-4" points="1075.35 254.55 1026.61 254.55 1002.24 296.76 1026.61 338.97 1075.35 338.97 1099.72 296.76 1075.35 254.55"/><polygon class="cls-4" points="1221.25 254.55 1172.51 254.55 1148.14 296.76 1172.51 338.97 1221.25 338.97 1245.62 296.76 1221.25 254.55"/><polygon class="cls-4" points="1367.31 254.67 1318.57 254.67 1294.2 296.88 1318.57 339.09 1367.31 339.09 1391.68 296.88 1367.31 254.67"/><polygon class="cls-4" points="1513.43 254.46 1464.69 254.46 1440.32 296.68 1464.69 338.89 1513.43 338.89 1537.8 296.68 1513.43 254.46"/><polygon class="cls-4" points="1659.33 254.46 1610.59 254.46 1586.22 296.68 1610.59 338.89 1659.33 338.89 1683.7 296.68 1659.33 254.46"/><polygon class="cls-4" points="1805.4 254.58 1756.66 254.58 1732.29 296.79 1756.66 339 1805.4 339 1829.77 296.79 1805.4 254.58"/><polygon class="cls-4" points="1951.46 254.52 1902.72 254.52 1878.35 296.73 1902.72 338.94 1951.46 338.94 1955.42 332.08 1955.42 296.32 1955.42 261.38 1951.46 254.52"/><polygon class="cls-4" points="1955.42 261.71 1955.42 247.34 1951.46 254.52 1955.42 261.71"/><polygon class="cls-4" points="1 261.5 4.96 254.64 1 247.34 1 261.5"/><polygon class="cls-4" points="929.44 254.55 880.7 254.55 856.33 296.76 880.7 338.97 929.44 338.97 953.81 296.76 929.44 254.55"/><polygon class="cls-4" points="53.7 339.13 4.96 339.13 1 345.99 1 382.03 1 416.69 4.96 423.55 53.7 423.55 78.07 381.34 53.7 339.13"/><polygon class="cls-4" points="199.6 339.13 150.86 339.13 126.49 381.34 150.86 423.55 199.6 423.55 223.98 381.34 199.6 339.13"/><polygon class="cls-4" points="345.51 339.13 296.77 339.13 272.4 381.34 296.77 423.55 345.51 423.55 369.88 381.34 345.51 339.13"/><polygon class="cls-4" points="491.41 339.13 442.67 339.13 418.3 381.34 442.67 423.55 491.41 423.55 515.78 381.34 491.41 339.13"/><polygon class="cls-4" points="637.48 339.25 588.74 339.25 564.36 381.46 588.74 423.67 637.48 423.67 661.85 381.46 637.48 339.25"/><polygon class="cls-4" points="783.54 339.04 734.8 339.04 710.43 381.25 734.8 423.46 783.54 423.46 807.91 381.25 783.54 339.04"/><polygon class="cls-4" points="1075.35 339.04 1026.61 339.04 1002.24 381.25 1026.61 423.46 1075.35 423.46 1099.72 381.25 1075.35 339.04"/><polygon class="cls-4" points="1221.25 339.04 1172.51 339.04 1148.14 381.25 1172.51 423.46 1221.25 423.46 1245.62 381.25 1221.25 339.04"/><polygon class="cls-4" points="1367.31 339.16 1318.57 339.16 1294.2 381.37 1318.57 423.58 1367.31 423.58 1391.68 381.37 1367.31 339.16"/><polygon class="cls-4" points="1513.43 338.95 1464.69 338.95 1440.32 381.16 1464.69 423.37 1513.43 423.37 1537.8 381.16 1513.43 338.95"/><polygon class="cls-4" points="1659.33 338.95 1610.59 338.95 1586.22 381.16 1610.59 423.37 1659.33 423.37 1683.7 381.16 1659.33 338.95"/><polygon class="cls-4" points="1805.4 339.07 1756.66 339.07 1732.29 381.28 1756.66 423.49 1805.4 423.49 1829.77 381.28 1805.4 339.07"/><polygon class="cls-4" points="1951.46 339.01 1902.72 339.01 1878.35 381.22 1902.72 423.43 1951.46 423.43 1955.42 416.57 1955.42 380.81 1955.42 345.87 1951.46 339.01"/><polygon class="cls-4" points="1955.42 346.19 1955.42 331.83 1951.46 339.01 1955.42 346.19"/><polygon class="cls-4" points="1 345.99 4.96 339.13 1 331.83 1 345.99"/><polygon class="cls-4" points="929.44 339.04 880.7 339.04 856.33 381.25 880.7 423.46 929.44 423.46 953.81 381.25 929.44 339.04"/><polygon class="cls-4" points="53.7 423.62 4.96 423.62 1 430.48 1 466.51 1 501.18 4.96 508.04 53.7 508.04 78.07 465.83 53.7 423.62"/><polygon class="cls-4" points="199.6 423.62 150.86 423.62 126.49 465.83 150.86 508.04 199.6 508.04 223.98 465.83 199.6 423.62"/><polygon class="cls-4" points="345.51 423.62 296.77 423.62 272.4 465.83 296.77 508.04 345.51 508.04 369.88 465.83 345.51 423.62"/><polygon class="cls-4" points="491.41 423.62 442.67 423.62 418.3 465.83 442.67 508.04 491.41 508.04 515.78 465.83 491.41 423.62"/><polygon class="cls-4" points="637.48 423.74 588.74 423.74 564.36 465.95 588.74 508.16 637.48 508.16 661.85 465.95 637.48 423.74"/><polygon class="cls-4" points="783.54 423.53 734.8 423.53 710.43 465.74 734.8 507.95 783.54 507.95 807.91 465.74 783.54 423.53"/><polygon class="cls-4" points="1075.35 423.53 1026.61 423.53 1002.24 465.74 1026.61 507.95 1075.35 507.95 1099.72 465.74 1075.35 423.53"/><polygon class="cls-4" points="1221.25 423.53 1172.51 423.53 1148.14 465.74 1172.51 507.95 1221.25 507.95 1245.62 465.74 1221.25 423.53"/><polygon class="cls-4" points="1367.31 423.65 1318.57 423.65 1294.2 465.86 1318.57 508.07 1367.31 508.07 1391.68 465.86 1367.31 423.65"/><polygon class="cls-4" points="1513.43 423.44 1464.69 423.44 1440.32 465.65 1464.69 507.86 1513.43 507.86 1537.8 465.65 1513.43 423.44"/><polygon class="cls-4" points="1659.33 423.44 1610.59 423.44 1586.22 465.65 1610.59 507.86 1659.33 507.86 1683.7 465.65 1659.33 423.44"/><polygon class="cls-4" points="1805.4 423.56 1756.66 423.56 1732.29 465.77 1756.66 507.98 1805.4 507.98 1829.77 465.77 1805.4 423.56"/><polygon class="cls-4" points="1951.46 423.5 1902.72 423.5 1878.35 465.71 1902.72 507.92 1951.46 507.92 1955.42 501.06 1955.42 465.3 1955.42 430.36 1951.46 423.5"/><polygon class="cls-4" points="1955.42 430.68 1955.42 416.31 1951.46 423.5 1955.42 430.68"/><polygon class="cls-4" points="1 430.48 4.96 423.62 1 416.31 1 430.48"/><polygon class="cls-4" points="929.44 423.53 880.7 423.53 856.33 465.74 880.7 507.95 929.44 507.95 953.81 465.74 929.44 423.53"/><polygon class="cls-4" points="53.7 508.11 4.96 508.11 1 514.97 1 551 1 585.67 4.96 592.53 53.7 592.53 78.07 550.32 53.7 508.11"/><polygon class="cls-4" points="199.6 508.11 150.86 508.11 126.49 550.32 150.86 592.53 199.6 592.53 223.98 550.32 199.6 508.11"/><polygon class="cls-4" points="345.51 508.11 296.77 508.11 272.4 550.32 296.77 592.53 345.51 592.53 369.88 550.32 345.51 508.11"/><polygon class="cls-4" points="491.41 508.11 442.67 508.11 418.3 550.32 442.67 592.53 491.41 592.53 515.78 550.32 491.41 508.11"/><polygon class="cls-4" points="637.48 508.22 588.74 508.22 564.36 550.43 588.74 592.64 637.48 592.64 661.85 550.43 637.48 508.22"/><polygon class="cls-4" points="783.54 508.02 734.8 508.02 710.43 550.23 734.8 592.44 783.54 592.44 807.91 550.23 783.54 508.02"/><polygon class="cls-4" points="1075.35 508.02 1026.61 508.02 1002.24 550.23 1026.61 592.44 1075.35 592.44 1099.72 550.23 1075.35 508.02"/><polygon class="cls-4" points="1221.25 508.02 1172.51 508.02 1148.14 550.23 1172.51 592.44 1221.25 592.44 1245.62 550.23 1221.25 508.02"/><polygon class="cls-4" points="1367.31 508.13 1318.57 508.13 1294.2 550.35 1318.57 592.56 1367.31 592.56 1391.68 550.35 1367.31 508.13"/><polygon class="cls-4" points="1513.43 507.93 1464.69 507.93 1440.32 550.14 1464.69 592.35 1513.43 592.35 1537.8 550.14 1513.43 507.93"/><polygon class="cls-4" points="1659.33 507.93 1610.59 507.93 1586.22 550.14 1610.59 592.35 1659.33 592.35 1683.7 550.14 1659.33 507.93"/><polygon class="cls-4" points="1805.4 508.05 1756.66 508.05 1732.29 550.26 1756.66 592.47 1805.4 592.47 1829.77 550.26 1805.4 508.05"/><polygon class="cls-4" points="1951.46 507.99 1902.72 507.99 1878.35 550.2 1902.72 592.41 1951.46 592.41 1955.42 585.55 1955.42 549.78 1955.42 514.85 1951.46 507.99"/><polygon class="cls-4" points="1955.42 515.17 1955.42 500.8 1951.46 507.99 1955.42 515.17"/><polygon class="cls-4" points="1 514.97 4.96 508.11 1 500.8 1 514.97"/><polygon class="cls-4" points="929.44 508.02 880.7 508.02 856.33 550.23 880.7 592.44 929.44 592.44 953.81 550.23 929.44 508.02"/><polygon class="cls-4" points="53.7 592.59 4.96 592.59 1 599.45 1 635.49 1 670.15 4.96 677.01 53.7 677.01 78.07 634.8 53.7 592.59"/><polygon class="cls-4" points="199.6 592.59 150.86 592.59 126.49 634.8 150.86 677.01 199.6 677.01 223.98 634.8 199.6 592.59"/><polygon class="cls-4" points="345.51 592.59 296.77 592.59 272.4 634.8 296.77 677.01 345.51 677.01 369.88 634.8 345.51 592.59"/><polygon class="cls-4" points="491.41 592.59 442.67 592.59 418.3 634.8 442.67 677.01 491.41 677.01 515.78 634.8 491.41 592.59"/><polygon class="cls-4" points="637.48 592.71 588.74 592.71 564.36 634.92 588.74 677.13 637.48 677.13 661.85 634.92 637.48 592.71"/><polygon class="cls-4" points="783.54 592.5 734.8 592.5 710.43 634.72 734.8 676.93 783.54 676.93 807.91 634.72 783.54 592.5"/><polygon class="cls-4" points="1075.35 592.5 1026.61 592.5 1002.24 634.72 1026.61 676.93 1075.35 676.93 1099.72 634.72 1075.35 592.5"/><polygon class="cls-4" points="1221.25 592.5 1172.51 592.5 1148.14 634.72 1172.51 676.93 1221.25 676.93 1245.62 634.72 1221.25 592.5"/><polygon class="cls-4" points="1367.31 592.62 1318.57 592.62 1294.2 634.83 1318.57 677.04 1367.31 677.04 1391.68 634.83 1367.31 592.62"/><polygon class="cls-4" points="1513.43 592.42 1464.69 592.42 1440.32 634.63 1464.69 676.84 1513.43 676.84 1537.8 634.63 1513.43 592.42"/><polygon class="cls-4" points="1659.33 592.42 1610.59 592.42 1586.22 634.63 1610.59 676.84 1659.33 676.84 1683.7 634.63 1659.33 592.42"/><polygon class="cls-4" points="1805.4 592.53 1756.66 592.53 1732.29 634.75 1756.66 676.96 1805.4 676.96 1829.77 634.75 1805.4 592.53"/><polygon class="cls-4" points="1951.46 592.48 1902.72 592.48 1878.35 634.69 1902.72 676.9 1951.46 676.9 1955.42 670.04 1955.42 634.27 1955.42 599.34 1951.46 592.48"/><polygon class="cls-4" points="1955.42 599.66 1955.42 585.29 1951.46 592.48 1955.42 599.66"/><polygon class="cls-4" points="1 599.45 4.96 592.59 1 585.29 1 599.45"/><polygon class="cls-4" points="929.44 592.5 880.7 592.5 856.33 634.72 880.7 676.93 929.44 676.93 953.81 634.72 929.44 592.5"/><polygon class="cls-4" points="53.7 677.08 4.96 677.08 1 683.94 1 719.98 1 754.64 4.96 761.5 53.7 761.5 78.07 719.29 53.7 677.08"/><polygon class="cls-4" points="199.6 677.08 150.86 677.08 126.49 719.29 150.86 761.5 199.6 761.5 223.98 719.29 199.6 677.08"/><polygon class="cls-4" points="345.51 677.08 296.77 677.08 272.4 719.29 296.77 761.5 345.51 761.5 369.88 719.29 345.51 677.08"/><polygon class="cls-4" points="491.41 677.08 442.67 677.08 418.3 719.29 442.67 761.5 491.41 761.5 515.78 719.29 491.41 677.08"/><polygon class="cls-4" points="637.48 677.2 588.74 677.2 564.36 719.41 588.74 761.62 637.48 761.62 661.85 719.41 637.48 677.2"/><polygon class="cls-4" points="783.54 676.99 734.8 676.99 710.43 719.2 734.8 761.41 783.54 761.41 807.91 719.2 783.54 676.99"/><polygon class="cls-4" points="1075.35 676.99 1026.61 676.99 1002.24 719.2 1026.61 761.41 1075.35 761.41 1099.72 719.2 1075.35 676.99"/><polygon class="cls-4" points="1221.25 676.99 1172.51 676.99 1148.14 719.2 1172.51 761.41 1221.25 761.41 1245.62 719.2 1221.25 676.99"/><polygon class="cls-4" points="1367.31 677.11 1318.57 677.11 1294.2 719.32 1318.57 761.53 1367.31 761.53 1391.68 719.32 1367.31 677.11"/><polygon class="cls-4" points="1513.43 676.9 1464.69 676.9 1440.32 719.12 1464.69 761.33 1513.43 761.33 1537.8 719.12 1513.43 676.9"/><polygon class="cls-4" points="1659.33 676.9 1610.59 676.9 1586.22 719.12 1610.59 761.33 1659.33 761.33 1683.7 719.12 1659.33 676.9"/><polygon class="cls-4" points="1805.4 677.02 1756.66 677.02 1732.29 719.23 1756.66 761.44 1805.4 761.44 1829.77 719.23 1805.4 677.02"/><polygon class="cls-4" points="1951.46 676.96 1902.72 676.96 1878.35 719.17 1902.72 761.38 1951.46 761.38 1955.42 754.52 1955.42 718.76 1955.42 683.82 1951.46 676.96"/><polygon class="cls-4" points="1955.42 684.15 1955.42 669.78 1951.46 676.96 1955.42 684.15"/><polygon class="cls-4" points="1 683.94 4.96 677.08 1 669.78 1 683.94"/><polygon class="cls-4" points="929.44 676.99 880.7 676.99 856.33 719.2 880.7 761.41 929.44 761.41 953.81 719.2 929.44 676.99"/><polygon class="cls-4" points="53.7 761.57 4.96 761.57 1 768.43 1 804.47 1 839.13 4.96 845.99 53.7 845.99 78.07 803.78 53.7 761.57"/><polygon class="cls-4" points="199.6 761.57 150.86 761.57 126.49 803.78 150.86 845.99 199.6 845.99 223.98 803.78 199.6 761.57"/><polygon class="cls-4" points="345.51 761.57 296.77 761.57 272.4 803.78 296.77 845.99 345.51 845.99 369.88 803.78 345.51 761.57"/><polygon class="cls-4" points="491.41 761.57 442.67 761.57 418.3 803.78 442.67 845.99 491.41 845.99 515.78 803.78 491.41 761.57"/><polygon class="cls-4" points="637.48 761.69 588.74 761.69 564.36 803.9 588.74 846.11 637.48 846.11 661.85 803.9 637.48 761.69"/><polygon class="cls-4" points="783.54 761.48 734.8 761.48 710.43 803.69 734.8 845.9 783.54 845.9 807.91 803.69 783.54 761.48"/><polygon class="cls-4" points="1075.35 761.48 1026.61 761.48 1002.24 803.69 1026.61 845.9 1075.35 845.9 1099.72 803.69 1075.35 761.48"/><polygon class="cls-4" points="1221.25 761.48 1172.51 761.48 1148.14 803.69 1172.51 845.9 1221.25 845.9 1245.62 803.69 1221.25 761.48"/><polygon class="cls-4" points="1367.31 761.6 1318.57 761.6 1294.2 803.81 1318.57 846.02 1367.31 846.02 1391.68 803.81 1367.31 761.6"/><polygon class="cls-4" points="1513.43 761.39 1464.69 761.39 1440.32 803.6 1464.69 845.81 1513.43 845.81 1537.8 803.6 1513.43 761.39"/><polygon class="cls-4" points="1659.33 761.39 1610.59 761.39 1586.22 803.6 1610.59 845.81 1659.33 845.81 1683.7 803.6 1659.33 761.39"/><polygon class="cls-4" points="1805.4 761.51 1756.66 761.51 1732.29 803.72 1756.66 845.93 1805.4 845.93 1829.77 803.72 1805.4 761.51"/><polygon class="cls-4" points="1951.46 761.45 1902.72 761.45 1878.35 803.66 1902.72 845.87 1951.46 845.87 1955.42 839.01 1955.42 803.25 1955.42 768.31 1951.46 761.45"/><polygon class="cls-4" points="1955.42 768.63 1955.42 754.27 1951.46 761.45 1955.42 768.63"/><polygon class="cls-4" points="1 768.43 4.96 761.57 1 754.27 1 768.43"/><polygon class="cls-4" points="929.44 761.48 880.7 761.48 856.33 803.69 880.7 845.9 929.44 845.9 953.81 803.69 929.44 761.48"/><polygon class="cls-4" points="53.7 846.06 4.96 846.06 1 852.92 1 888.96 1 923.62 4.96 930.48 53.7 930.48 78.07 888.27 53.7 846.06"/><polygon class="cls-4" points="199.6 846.06 150.86 846.06 126.49 888.27 150.86 930.48 199.6 930.48 223.98 888.27 199.6 846.06"/><polygon class="cls-4" points="345.51 846.06 296.77 846.06 272.4 888.27 296.77 930.48 345.51 930.48 369.88 888.27 345.51 846.06"/><polygon class="cls-4" points="491.41 846.06 442.67 846.06 418.3 888.27 442.67 930.48 491.41 930.48 515.78 888.27 491.41 846.06"/><polygon class="cls-4" points="637.48 846.17 588.74 846.17 564.36 888.39 588.74 930.6 637.48 930.6 661.85 888.39 637.48 846.17"/><polygon class="cls-4" points="783.54 845.97 734.8 845.97 710.43 888.18 734.8 930.39 783.54 930.39 807.91 888.18 783.54 845.97"/><polygon class="cls-4" points="1075.35 845.97 1026.61 845.97 1002.24 888.18 1026.61 930.39 1075.35 930.39 1099.72 888.18 1075.35 845.97"/><polygon class="cls-4" points="1221.25 845.97 1172.51 845.97 1148.14 888.18 1172.51 930.39 1221.25 930.39 1245.62 888.18 1221.25 845.97"/><polygon class="cls-4" points="1367.31 846.09 1318.57 846.09 1294.2 888.3 1318.57 930.51 1367.31 930.51 1391.68 888.3 1367.31 846.09"/><polygon class="cls-4" points="1513.43 845.88 1464.69 845.88 1440.32 888.09 1464.69 930.3 1513.43 930.3 1537.8 888.09 1513.43 845.88"/><polygon class="cls-4" points="1659.33 845.88 1610.59 845.88 1586.22 888.09 1610.59 930.3 1659.33 930.3 1683.7 888.09 1659.33 845.88"/><polygon class="cls-4" points="1805.4 846 1756.66 846 1732.29 888.21 1756.66 930.42 1805.4 930.42 1829.77 888.21 1805.4 846"/><polygon class="cls-4" points="1951.46 845.94 1902.72 845.94 1878.35 888.15 1902.72 930.36 1951.46 930.36 1955.42 923.5 1955.42 887.74 1955.42 852.8 1951.46 845.94"/><polygon class="cls-4" points="1955.42 853.12 1955.42 838.75 1951.46 845.94 1955.42 853.12"/><polygon class="cls-4" points="1 852.92 4.96 846.06 1 838.75 1 852.92"/><polygon class="cls-4" points="929.44 845.97 880.7 845.97 856.33 888.18 880.7 930.39 929.44 930.39 953.81 888.18 929.44 845.97"/><polygon class="cls-4" points="53.7 930.54 4.96 930.54 1 937.4 1 973.44 1 1008.11 4.96 1014.97 53.7 1014.97 78.07 972.76 53.7 930.54"/><polygon class="cls-4" points="199.6 930.54 150.86 930.54 126.49 972.76 150.86 1014.97 199.6 1014.97 223.98 972.76 199.6 930.54"/><polygon class="cls-4" points="345.51 930.54 296.77 930.54 272.4 972.76 296.77 1014.97 345.51 1014.97 369.88 972.76 345.51 930.54"/><polygon class="cls-4" points="491.41 930.54 442.67 930.54 418.3 972.76 442.67 1014.97 491.41 1014.97 515.78 972.76 491.41 930.54"/><polygon class="cls-4" points="637.48 930.66 588.74 930.66 564.36 972.87 588.74 1015.09 637.48 1015.09 661.85 972.87 637.48 930.66"/><polygon class="cls-4" points="783.54 930.46 734.8 930.46 710.43 972.67 734.8 1014.88 783.54 1014.88 807.91 972.67 783.54 930.46"/><polygon class="cls-4" points="1075.35 930.46 1026.61 930.46 1002.24 972.67 1026.61 1014.88 1075.35 1014.88 1099.72 972.67 1075.35 930.46"/><polygon class="cls-4" points="1221.25 930.46 1172.51 930.46 1148.14 972.67 1172.51 1014.88 1221.25 1014.88 1245.62 972.67 1221.25 930.46"/><polygon class="cls-4" points="1367.31 930.58 1318.57 930.58 1294.2 972.79 1318.57 1015 1367.31 1015 1391.68 972.79 1367.31 930.58"/><polygon class="cls-4" points="1513.43 930.37 1464.69 930.37 1440.32 972.58 1464.69 1014.79 1513.43 1014.79 1537.8 972.58 1513.43 930.37"/><polygon class="cls-4" points="1659.33 930.37 1610.59 930.37 1586.22 972.58 1610.59 1014.79 1659.33 1014.79 1683.7 972.58 1659.33 930.37"/><polygon class="cls-4" points="1805.4 930.49 1756.66 930.49 1732.29 972.7 1756.66 1014.91 1805.4 1014.91 1829.77 972.7 1805.4 930.49"/><polygon class="cls-4" points="1951.46 930.43 1902.72 930.43 1878.35 972.64 1902.72 1014.85 1951.46 1014.85 1955.42 1007.99 1955.42 972.22 1955.42 937.29 1951.46 930.43"/><polygon class="cls-4" points="1955.42 937.61 1955.42 923.24 1951.46 930.43 1955.42 937.61"/><polygon class="cls-4" points="1 937.4 4.96 930.54 1 923.24 1 937.4"/><polygon class="cls-4" points="929.44 930.46 880.7 930.46 856.33 972.67 880.7 1014.88 929.44 1014.88 953.81 972.67 929.44 930.46"/><polygon class="cls-4" points="53.7 1015.03 4.96 1015.03 1 1021.89 1 1057.93 1 1092.6 6.09 1100.36 52.91 1100.36 78.07 1057.24 53.7 1015.03"/><polygon class="cls-4" points="199.6 1015.03 150.86 1015.03 126.49 1057.24 151.65 1100.36 198.48 1100.36 223.98 1057.24 199.6 1015.03"/><polygon class="cls-4" points="345.51 1015.03 296.77 1015.03 272.4 1057.24 298.24 1100.36 344.04 1100.36 369.88 1057.24 345.51 1015.03"/><polygon class="cls-4" points="491.41 1015.03 442.67 1015.03 418.3 1057.24 443.8 1100.36 490.62 1100.36 515.78 1057.24 491.41 1015.03"/><polygon class="cls-4" points="637.48 1015.15 588.74 1015.15 564.36 1057.36 588.35 1100.36 637.21 1100.36 661.85 1057.36 637.48 1015.15"/><polygon class="cls-4" points="783.54 1014.95 734.8 1014.95 710.43 1057.16 734.93 1100.36 782.77 1100.36 807.91 1057.16 783.54 1014.95"/><polygon class="cls-4" points="1075.35 1014.95 1026.61 1014.95 1002.24 1057.16 1027.07 1100.36 1074.91 1100.36 1099.72 1057.16 1075.35 1014.95"/><polygon class="cls-4" points="1221.25 1014.95 1172.51 1014.95 1148.14 1057.16 1173.65 1100.36 1220.48 1100.36 1245.62 1057.16 1221.25 1014.95"/><polygon class="cls-4" points="1367.31 1015.06 1318.57 1015.06 1294.2 1057.27 1319.22 1100.36 1367.06 1100.36 1391.68 1057.27 1367.31 1015.06"/><polygon class="cls-4" points="1513.43 1014.86 1464.69 1014.86 1440.32 1057.07 1465.8 1100.36 1512.62 1100.36 1537.8 1057.07 1513.43 1014.86"/><polygon class="cls-4" points="1659.33 1014.86 1610.59 1014.86 1586.22 1057.07 1611.36 1100.36 1659.2 1100.36 1683.7 1057.07 1659.33 1014.86"/><polygon class="cls-4" points="1805.4 1014.97 1756.66 1014.97 1732.29 1057.18 1757.94 1100.36 1803.75 1100.36 1829.77 1057.18 1805.4 1014.97"/><polygon class="cls-4" points="1951.46 1014.91 1902.72 1014.91 1878.35 1057.13 1903.51 1100.36 1950.33 1100.36 1955.42 1092.48 1955.42 1056.71 1955.42 1021.77 1951.46 1014.91"/><polygon class="cls-4" points="1955.42 1022.1 1955.42 1007.73 1951.46 1014.91 1955.42 1022.1"/><polygon class="cls-4" points="1 1021.89 4.96 1015.03 1 1007.73 1 1021.89"/><polygon class="cls-4" points="929.44 1014.95 880.7 1014.95 856.33 1057.16 881.51 1100.36 928.33 1100.36 953.81 1057.16 929.44 1014.95"/><polygon class="cls-4" points="1 1100.36 6.09 1100.36 1 1092.22 1 1100.36"/><polygon class="cls-4" points="1955.42 1092.22 1955.62 1100.36 1950.33 1100.36 1955.42 1092.22"/></g></g><circle class="cls-5" cx="1027.42" cy="550.29" r="511"/><circle class="cls-6" cx="1027.42" cy="550.29" r="507"/><path d="M931.05,398.8l-2.17-5.46c5-3.54,10.59-4.34,16-4.85,17.87-1.68,33.35,3.76,46.1,16.05-.07,1,.06,1.49-.15,1.77-.89,1.16-1.88,2.25-3.24,3.86C971,395.19,952.43,391.21,931.05,398.8Z" transform="translate(515.42 38.29)"/><path d="M919.11,323l4.66-3.3c4.3,3.44,5.56,8.3,6.94,12.89,5.44,18.19,2.62,35-8.72,51l-5.28-3.66C928.66,361.48,929.94,342.77,919.11,323Z" transform="translate(515.42 38.29)"/><path d="M94,318l5.48,3.36c-10.41,19.36-9.93,38.32,2.37,57l-4.67,3.72c-5-4.83-7.28-10.58-9.14-16.46C82.82,349.15,84.76,333.52,94,318Z" transform="translate(515.42 38.29)"/><path d="M87.7,397.36c-21.15-7.15-39.75-3.94-56.15,11.18l-4.25-3.89C39.58,388,71.09,381.34,89.64,392,89.11,393.48,88.55,395,87.7,397.36Z" transform="translate(515.42 38.29)"/><path d="M511.59,251q21.66,12.84,43.34,25.66c9.28,5.48,18.47,11.12,28,16.23,4.6,2.48,6.32,5.58,6.24,10.77-.4,24.11-.33,48.24-.75,72.36-.08,5.12,1.39,8.14,6,10.75,21,11.91,41.7,24.33,62.67,36.3,4.6,2.63,6.7,5.56,6.62,11.12-.38,25.63-.38,51.26-.27,76.89,0,4.58-1.22,7.4-5.43,9.75q-34.19,19-68,38.68c-4.13,2.39-7.3,2.21-11.29-.15C557,546.54,535.1,533.94,513.3,521.28c-1.12-.65-2.27-1.22-3.94-2.11-2,1.07-4.27,2.21-6.47,3.46-21,11.93-42,23.76-62.89,35.91-4.49,2.62-7.91,2.54-12.35-.1q-33.09-19.65-66.53-38.67c-4.33-2.46-5.95-5.38-5.89-10.29q.51-39.09.47-78.18c0-4.23,1.5-6.63,5.14-8.68,21-11.83,42-23.87,62.92-35.85,2.41-1.39,4.78-2.85,7.38-4.41,0-2.74,0-5.31,0-7.88.08-23.69.28-47.38.14-71.08,0-5.34,1.61-8.6,6.45-11.29C462,278.6,486.12,264.74,510.29,251Zm-2.23,173a22,22,0,0,0,2.2-.89c22.09-12.55,44.15-25.17,66.29-37.63,2.85-1.61,3.76-3.61,3.78-6.72.12-24.31.29-48.63.65-72.94.06-4-1.41-6.21-4.8-8.16q-31.37-18-62.48-36.49c-3.46-2.06-6-1.83-9.38.11q-31,18-62.31,35.49c-4,2.24-5.15,4.95-5.12,9.28.12,20.23,0,40.45-.1,60.68,0,5.15,0,10.3,0,15.84Zm-74.52-35.17a18.86,18.86,0,0,0-2.64,1c-21.91,12.48-43.77,25-65.73,37.41-3.14,1.77-3.81,4.11-3.82,7.39q-.07,36.18-.45,72.34c0,3.89,1.2,6.28,4.66,8.26q31.14,17.81,62,36c3.63,2.15,6.41,2.13,10.05,0q31-18,62.35-35.5c3.45-1.93,4.78-4.19,4.77-8.13q-.13-35.85.24-71.69c.05-4.28-1.4-6.59-5-8.65-19.63-11.23-39.14-22.7-58.69-34.07C440,391.72,437.37,390.26,434.84,388.82ZM584.55,554.67c23.11-13.17,45.75-26.09,68.44-38.92,2.61-1.47,3.46-3.35,3.46-6.24q0-36.81.22-73.63c0-3.71-1.28-5.84-4.46-7.68q-31.37-18.07-62.52-36.51c-3.15-1.86-5.55-2-8.82-.11Q549.55,409.73,518,427.4c-3.75,2.09-4.94,4.54-4.91,8.71q.21,35.83-.14,71.69c0,4.37,1.68,6.49,5.24,8.52,20.58,11.76,41,23.74,61.52,35.64C581.15,552.82,582.66,553.62,584.55,554.67Z" transform="translate(515.42 38.29)"/><path d="M133.71,472.74c0,2.71,0,5.42,0,8.12A120.92,120.92,0,0,1,122,535.28a45.06,45.06,0,0,1-7.42,11.23c-7.17,7.68-17.33,8-25.61,1.42-5.43-4.35-8.47-10.24-10.32-16.79-10-35.65-3.82-68.61,16.91-99,3-4.46,4.64-8.34,4.15-14-1.51-17.38,10-30.89,27.34-33.11a14.07,14.07,0,0,0,9.27-4.93c26.08-28.55,58.47-41.65,97.16-38.77a31.63,31.63,0,0,1,17.4,6.26c9.23,7.11,10.81,18.18,3.5,27.24a49.32,49.32,0,0,1-9.5,8.67c-16.14,11.75-34.31,18.72-55.52,22.14,6.18,3.21,11.31,5.55,16.11,8.45a136,136,0,0,1,14.89,10.25,112,112,0,0,1,12.67,12A117.5,117.5,0,0,1,243.69,450a114.74,114.74,0,0,1,8.58,15.15,118.51,118.51,0,0,1,6.39,16.88,121.47,121.47,0,0,1,3.51,17c.8,5.69,1,11.48,1.46,17.74-24.77,7.15-48.59,6.5-72.26-1.72C167.9,507,149.28,492.25,133.71,472.74Zm-30.54-39.07a1.83,1.83,0,0,0-.82.63c-1.08,1.34-2.11,2.72-3.06,4.15A110.92,110.92,0,0,0,81,493.52a98,98,0,0,0,4.59,36.92c1.56,4.78,3.79,9.16,7.86,12.33,5.39,4.19,11.59,4,16.26-1a28.76,28.76,0,0,0,5.37-8,152.73,152.73,0,0,0,7-18,114.59,114.59,0,0,0,.58-64.29c-.65-2.36-1.73-5.1-3.52-6.56C114.14,441,108.73,437.55,103.17,433.67Zm38-48.77c5.21,4.5,9.95,8.75,14.9,12.74a9.13,9.13,0,0,0,4.76,1.64c30.18,2.39,57.79-4.6,82.2-22.87a30.92,30.92,0,0,0,6.39-6.33c4.26-5.81,3.38-12-2.12-16.62-3.92-3.33-8.64-4.8-13.67-5.24-34.09-3-63.25,7.82-87.75,31.48C144,381.46,142.41,383.46,141.12,384.9Zm7.16,93.63,13.5,12.82c25.28-15.6,42.4-36.43,51.54-64.33l-15.87-9.77C187.14,442.82,171,462.79,148.28,478.53Zm34.26,25.9c4.2-3.14,8.09-5.8,11.72-8.79A118.21,118.21,0,0,0,228.86,449c.76-1.83,1.55-4.65.7-5.95A38.77,38.77,0,0,0,219,432.46c-10,26.87-26.82,47.53-51.2,63.34Zm8.74,2.23.18,1.6c6,1.6,11.94,3.45,18,4.65,1.78.36,4.25-.63,5.84-1.78a84,84,0,0,0,29.56-38.29c.6-1.55,1.36-3.59.83-4.92-2.33-5.85-5.07-11.55-10.23-16.54A130.93,130.93,0,0,1,191.28,506.66ZM176.56,409c-6.05,9.62-11,19.29-17.66,27.58-6.8,8.46-15.3,15.56-23.62,23.81L144,473.06c22.09-15,37.38-34,47.21-58.72Zm-44.78,43c14.23-7,34-32,35.34-44.59-19.13-4.55-29,.65-35.89,10.16C124,427.54,124.38,441.3,131.78,452.07Zm15.73-52.95c-8.09-7.8-18.48-9.56-27.51-5.3-9.3,4.38-14.33,13.35-13.61,24.24.55,8.29,5.62,15.54,12.52,17.67C119.53,416.92,128.93,404.71,147.51,399.12ZM256.23,511.19a89.89,89.89,0,0,0-5.9-32.18c-2.94,5-5.09,9.23-7.71,13.1a127.83,127.83,0,0,1-9,11.73c-3,3.46-6.36,6.59-9.89,10.19C233.75,515.71,247.77,514.48,256.23,511.19Z" transform="translate(515.42 38.29)"/><path d="M827.75,407.48c-13.26-3-25.9-6.51-37.56-12.75-6.43-3.45-12.51-7.58-18.69-11.5a25.93,25.93,0,0,1-3.94-3.33c-12.55-12-9.55-28.11,6.58-34.54a38.56,38.56,0,0,1,11.26-2.68c38.41-2.78,70.67,10.13,96.64,38.45a15.45,15.45,0,0,0,10.4,5.36c16.89,2,29.18,17.87,26.53,34.44-.68,4.26.34,7.23,2.75,10.61,21.7,30.37,28.15,63.71,18.56,99.87a41.29,41.29,0,0,1-5.92,12.79c-9.16,13.13-24.91,13-33.69-.37-7.56-11.49-11.78-24.48-13.71-38-1.52-10.58-1.81-21.32-2.7-32.65-14.59,20.12-33.28,35-56.92,43.26s-47.56,8.7-72.07,2c-.3-24.64,6.13-46.75,19.43-66.87C787.89,431.62,805.84,417.33,827.75,407.48ZM915,433.87c-2.27,2.38-3.9,4.4-5.84,6a28.16,28.16,0,0,1-6.88,4.74c-3.6,1.51-5.13,4.08-6.09,7.62q-11.61,42.89,7.39,83a32.49,32.49,0,0,0,3.7,6c5.79,7.42,14.31,7.81,20.27.48a35.15,35.15,0,0,0,5.87-11.33c5.33-16.78,5.53-33.93,2.22-51.07A105.91,105.91,0,0,0,915,433.87Zm-37.58-47.45a13.8,13.8,0,0,0-1.26-1.79c-25-26.45-55.64-38.27-91.93-34.88a27.6,27.6,0,0,0-11.9,4.49c-6.62,4.31-7.48,11.76-2.54,17.91a34.92,34.92,0,0,0,6.57,6.16c24.34,17.86,51.74,24.77,81.66,22.27a10.2,10.2,0,0,0,5.14-2.17C867.81,394.71,872.28,390.75,877.38,386.42Zm-6.93,93.41c-23.08-15.76-39-35.89-49.41-61.3l-15.82,10.13c9.66,28,26.62,48.92,51.69,64Zm-70.83-46.05c-1.72,1.35-2.62,1.94-3.37,2.67-1.85,1.81-3.52,3.79-5.45,5.5-2.71,2.39-2.67,4.86-1.33,8,6.55,15.44,15.58,29.2,27.84,40.67,5.77,5.39,12.15,10.14,18.42,15.31l15.14-8.84C826.39,481.33,809.69,460.6,799.62,433.78Zm27.82,75.75-.07-1.6c-20-14.19-34.54-32.71-44.41-55.59-4.57,5.16-7.4,10.65-9.91,16.28a6.19,6.19,0,0,0,.18,4.25,84,84,0,0,0,30.4,39.86,8.43,8.43,0,0,0,5.93,1.48C815.58,513,821.49,511.14,827.44,509.53ZM884,460.65a109,109,0,0,1-40.68-50.46c-5.81,1.91-11.09,2.74-15.3,6.06,7.68,22.71,31.31,51.42,47.37,57.4Zm2.37-6.76c8.26-11.68,7.87-27.08-.53-36.92-8.19-9.59-23.66-13-35.18-7.22A98.77,98.77,0,0,0,886.38,453.89Zm13.2-16c9.55-5.32,14.23-14.69,12.67-24.13-1.68-10.24-8.88-18.18-18.32-20.23-9.28-2-18.18.81-22.14,7.19C889.84,406.15,899.14,418.34,899.58,437.9ZM794.52,515.33a120.77,120.77,0,0,1-26.11-34.2,85.29,85.29,0,0,0-6,31.75C773.06,516.28,783.63,516.51,794.52,515.33Z" transform="translate(515.42 38.29)"/><text class="cls-7" transform="translate(831.03 932.48)">FS</text></g></g></svg>