<svg xmlns="http://www.w3.org/2000/svg" viewBox="0 0 458.24 131.78"><defs><style>.cls-1{font-size:40px;}.cls-1,.cls-2,.cls-3{fill:#fff;}.cls-1,.cls-3{font-family:Kalam-Regular, Kalam;}.cls-3{font-size:25px;}</style></defs><g id="Ebene_2" data-name="Ebene 2"><g id="Ebene_1-2" data-name="Ebene 1"><text class="cls-1" transform="translate(2.88 90.65)">Hofladen für Imkereibedarf</text><path class="cls-2" d="M294.32,22.93l-.33-.84a4.86,4.86,0,0,1,2.48-.76,8.7,8.7,0,0,1,7.15,2.49c0,.15,0,.23,0,.28s-.29.35-.5.6A8.13,8.13,0,0,0,294.32,22.93Z"/><path class="cls-2" d="M292.47,11.17l.72-.51a3.6,3.6,0,0,1,1.08,2,8.68,8.68,0,0,1-1.35,7.91L292.1,20A8,8,0,0,0,292.47,11.17Z"/><path class="cls-2" d="M164.45,10.39l.85.52a8.09,8.09,0,0,0,.36,8.85l-.72.57a5.75,5.75,0,0,1-1.42-2.55A8.67,8.67,0,0,1,164.45,10.39Z"/><path class="cls-2" d="M163.47,22.71a8.11,8.11,0,0,0-8.71,1.73l-.66-.6c1.91-2.58,6.79-3.62,9.67-2Z"/><path class="cls-2" d="M229.24,0,236,4c1.44.85,2.87,1.73,4.34,2.52a1.63,1.63,0,0,1,1,1.67c-.06,3.74-.05,7.49-.11,11.23a1.62,1.62,0,0,0,.93,1.67c3.25,1.84,6.47,3.77,9.72,5.63a1.74,1.74,0,0,1,1,1.72c-.06,4-.06,8-.05,11.93a1.48,1.48,0,0,1-.84,1.52c-3.53,2-7,4-10.55,6a1.52,1.52,0,0,1-1.75,0c-3.37-2-6.76-3.94-10.14-5.9l-.62-.33c-.31.16-.66.34-1,.54-3.26,1.85-6.52,3.68-9.76,5.57a1.65,1.65,0,0,1-1.91,0q-5.15-3-10.33-6a1.59,1.59,0,0,1-.91-1.6q.08-6.06.07-12.13a1.37,1.37,0,0,1,.8-1.34c3.26-1.84,6.51-3.71,9.76-5.57.38-.21.74-.44,1.15-.68V19.16c0-3.68,0-7.35,0-11a1.74,1.74,0,0,1,1-1.75C221.55,4.28,225.29,2.13,229,0Zm-.35,26.84a2.78,2.78,0,0,0,.35-.14l10.28-5.84a1.07,1.07,0,0,0,.59-1c0-3.77,0-7.54.1-11.32a1.27,1.27,0,0,0-.75-1.26q-4.86-2.8-9.69-5.66a1.26,1.26,0,0,0-1.46,0c-3.21,1.86-6.42,3.7-9.66,5.51a1.41,1.41,0,0,0-.8,1.44c0,3.14,0,6.28,0,9.42,0,.79,0,1.59,0,2.45Zm-11.56-5.46a2.7,2.7,0,0,0-.41.16c-3.4,1.93-6.79,3.88-10.2,5.8a1.14,1.14,0,0,0-.59,1.15q0,5.61-.07,11.22a1.3,1.3,0,0,0,.72,1.28q4.83,2.76,9.63,5.59a1.34,1.34,0,0,0,1.56,0q4.82-2.79,9.67-5.51a1.26,1.26,0,0,0,.74-1.26c0-3.71,0-7.42,0-11.12a1.34,1.34,0,0,0-.78-1.35c-3-1.74-6.07-3.52-9.1-5.28Zm23.23,25.74c3.59-2,7.1-4,10.62-6a1,1,0,0,0,.54-1q0-5.72,0-11.42a1.21,1.21,0,0,0-.69-1.2q-4.87-2.8-9.7-5.66a1.19,1.19,0,0,0-1.37,0q-4.86,2.82-9.76,5.56a1.31,1.31,0,0,0-.76,1.35c0,3.71,0,7.42,0,11.12a1.34,1.34,0,0,0,.81,1.33c3.19,1.82,6.36,3.68,9.54,5.53Z"/><path class="cls-2" d="M170.61,34.4v1.26a18.81,18.81,0,0,1-1.82,8.45,7,7,0,0,1-1.16,1.74,2.78,2.78,0,0,1-4,.22,4.93,4.93,0,0,1-1.6-2.6,17.62,17.62,0,0,1,2.62-15.36,3.11,3.11,0,0,0,.65-2.18,4.64,4.64,0,0,1,4.24-5.14A2.18,2.18,0,0,0,171,20a17.71,17.71,0,0,1,15.07-6,5,5,0,0,1,2.7,1,2.83,2.83,0,0,1,.54,4.23,7.56,7.56,0,0,1-1.47,1.35A19.48,19.48,0,0,1,179.24,24c1,.5,1.75.86,2.5,1.31a23.05,23.05,0,0,1,2.31,1.59,17.24,17.24,0,0,1,2,1.86,17.91,17.91,0,0,1,1.66,2.13A18.23,18.23,0,0,1,189,33.23a19.29,19.29,0,0,1,1,2.62,18.3,18.3,0,0,1,.54,2.65c.13.88.15,1.78.23,2.75A18,18,0,0,1,179.56,41,19.62,19.62,0,0,1,170.61,34.4Zm-4.74-6.06a.74.74,0,0,0-.13.1c-.16.21-.32.42-.47.64a17.24,17.24,0,0,0-2.84,8.55,15.07,15.07,0,0,0,.71,5.73,3.78,3.78,0,0,0,1.22,1.91,1.77,1.77,0,0,0,2.52-.15,4.49,4.49,0,0,0,.83-1.24,21.58,21.58,0,0,0,1.08-2.8,17.71,17.71,0,0,0,.09-10,2,2,0,0,0-.54-1C167.57,29.47,166.73,28.94,165.87,28.34Zm5.89-7.56c.81.69,1.54,1.35,2.31,2a1.38,1.38,0,0,0,.74.26,18.19,18.19,0,0,0,12.75-3.55,5.16,5.16,0,0,0,1-1,1.77,1.77,0,0,0-.33-2.58,3.67,3.67,0,0,0-2.12-.82A16.72,16.72,0,0,0,172.49,20C172.21,20.24,172,20.55,171.76,20.78Zm1.11,14.52,2.1,2a17.91,17.91,0,0,0,8-10l-2.46-1.52A20.64,20.64,0,0,1,172.87,35.3Zm5.32,4c.65-.49,1.25-.9,1.82-1.36a18.29,18.29,0,0,0,5.36-7.24c.12-.28.24-.72.11-.92a6.11,6.11,0,0,0-1.64-1.65,19.5,19.5,0,0,1-8,9.83Zm1.35.35,0,.25c.93.24,1.85.53,2.8.72a1.34,1.34,0,0,0,.9-.28,13,13,0,0,0,4.59-5.94,1.26,1.26,0,0,0,.13-.76,6.88,6.88,0,0,0-1.59-2.57A20.39,20.39,0,0,1,179.54,39.67Zm-2.28-15.15a46.9,46.9,0,0,1-2.74,4.28,49,49,0,0,1-3.67,3.69l1.35,2a19.15,19.15,0,0,0,7.32-9.11Zm-6.95,6.68c2.21-1.09,5.28-5,5.48-6.92-3-.71-4.49.1-5.56,1.58A4.62,4.62,0,0,0,170.31,31.2ZM172.75,23a3.7,3.7,0,0,0-6.38,2.94,3,3,0,0,0,1.94,2.74A5.66,5.66,0,0,1,172.75,23Zm16.87,17.39a13.89,13.89,0,0,0-.92-5c-.45.78-.79,1.43-1.19,2a20.46,20.46,0,0,1-1.4,1.82c-.47.54-1,1-1.54,1.58A11,11,0,0,0,189.62,40.37Z"/><path class="cls-2" d="M278.29,24.28a23,23,0,0,1-5.82-2c-1-.53-1.94-1.18-2.9-1.78A5.17,5.17,0,0,1,269,20c-1.94-1.86-1.48-4.36,1-5.36a5.81,5.81,0,0,1,1.74-.41,17.67,17.67,0,0,1,15,6,2.38,2.38,0,0,0,1.61.83,4.72,4.72,0,0,1,4.12,5.35,2,2,0,0,0,.42,1.64,17.69,17.69,0,0,1,2.88,15.5,6.36,6.36,0,0,1-.91,2,3,3,0,0,1-5.23-.06,14.28,14.28,0,0,1-2.13-5.89c-.23-1.64-.28-3.31-.42-5.06a18.12,18.12,0,0,1-8.83,6.71,18.31,18.31,0,0,1-11.18.3,17.91,17.91,0,0,1,3-10.37A18.88,18.88,0,0,1,278.29,24.28Zm13.54,4.09c-.36.37-.61.69-.91.94a4.55,4.55,0,0,1-1.07.74,1.56,1.56,0,0,0-.94,1.18,18.11,18.11,0,0,0,1.14,12.88,5,5,0,0,0,.58.93,1.87,1.87,0,0,0,3.14.08,5.37,5.37,0,0,0,.91-1.76,15.87,15.87,0,0,0,.35-7.92A16.65,16.65,0,0,0,291.83,28.37ZM286,21a1.54,1.54,0,0,0-.19-.28,16.62,16.62,0,0,0-14.26-5.41,4.31,4.31,0,0,0-1.85.7,1.79,1.79,0,0,0-.4,2.78,5.4,5.4,0,0,0,1,.95A18.17,18.17,0,0,0,283,23.21a1.51,1.51,0,0,0,.8-.34C284.51,22.3,285.2,21.68,286,21ZM284.92,35.5A20.58,20.58,0,0,1,277.25,26l-2.45,1.57a18,18,0,0,0,8,9.94Zm-11-7.14c-.27.21-.41.3-.52.41-.29.28-.55.59-.85.86a.94.94,0,0,0-.2,1.24,18.06,18.06,0,0,0,4.31,6.31c.9.84,1.89,1.58,2.86,2.38l2.35-1.37A19.44,19.44,0,0,1,273.93,28.36Zm4.32,11.75v-.25a20,20,0,0,1-6.89-8.62,9.34,9.34,0,0,0-1.54,2.53,1,1,0,0,0,0,.65,13,13,0,0,0,4.72,6.19,1.33,1.33,0,0,0,.92.23C276.41,40.65,277.32,40.36,278.25,40.11ZM287,32.53a17,17,0,0,1-6.31-7.83,7.13,7.13,0,0,0-2.37.94c1.19,3.52,4.86,8,7.35,8.9Zm.37-1.05a4.51,4.51,0,0,0-5.54-6.85A15.36,15.36,0,0,0,287.39,31.48ZM289.44,29a3.62,3.62,0,0,0,2-3.75,3.75,3.75,0,0,0-2.85-3.13,3.15,3.15,0,0,0-3.43,1.11A5.59,5.59,0,0,1,289.44,29Zm-16.3,12a18.65,18.65,0,0,1-4.05-5.3,13.24,13.24,0,0,0-.94,4.92A11.89,11.89,0,0,0,273.14,41Z"/><text class="cls-3" transform="translate(146.65 120)">Franz Simmang</text><polygon class="cls-2" points="146.65 111.04 3.02 110.54 146.65 110.04 146.65 111.04"/><line class="cls-2" x1="311.07" y1="110.54" x2="457.72" y2="110.54"/><polygon class="cls-2" points="311.07 110.04 457.72 110.54 311.07 111.04 311.07 110.04"/></g></g></svg>