<svg xmlns="http://www.w3.org/2000/svg" viewBox="0 0 549.29 387.15"><defs><style>.cls-1{fill:#fff;opacity:0.6;}.cls-2{fill:none;}.cls-3{font-size:60px;letter-spacing:-0.02em;}.cls-3,.cls-4,.cls-8{font-family:TwCenMT-Regular, Tw Cen MT;}.cls-4{font-size:104.36px;letter-spacing:-0.02em;}.cls-5{letter-spacing:-0.04em;}.cls-6{letter-spacing:0.01em;}.cls-7{letter-spacing:-0.02em;}.cls-8{font-size:40px;}.cls-9{letter-spacing:-0.01em;}</style></defs><g id="Ebene_2" data-name="Ebene 2"><g id="Ebene_1-2" data-name="Ebene 1"><path class="cls-1" d="M76.47,162.4C79.65,139.91,116.27,2.5,265.19,2.5S450.06,136.36,454,162.4h76v81.08H450.06c-3.33,13.46-45.38,141.68-184.87,141.68S85.19,263.79,80.37,243.48H.5V162.4Z"/><polygon class="cls-2" points="76.47 162.4 453.95 162.4 450.06 243.48 80.37 243.48 76.47 162.4"/><polygon points="80.37 243.48 40.43 243.78 0.5 243.92 0.06 243.92 0.06 243.48 0 202.94 0.06 162.4 0.06 161.96 0.5 161.97 38.49 162.12 76.47 162.4 38.49 162.69 0.5 162.84 0.93 162.4 0.99 202.94 0.94 243.48 0.5 243.04 40.43 243.19 80.37 243.48"/><polygon points="450.06 243.48 489.99 243.19 529.93 243.04 529.49 243.48 529.43 202.94 529.5 162.4 529.93 162.84 491.94 162.69 453.95 162.4 491.94 162.12 529.93 161.97 530.37 161.96 530.37 162.4 530.43 202.94 530.37 243.48 530.37 243.92 529.93 243.92 489.99 243.78 450.06 243.48"/><path d="M76.43,162.39l1.38-8.29,1.74-8.24c.68-2.72,1.43-5.43,2.14-8.15s1.68-5.37,2.51-8.05A190.72,190.72,0,0,1,198.51,12a192,192,0,0,1,133.38,0,189.66,189.66,0,0,1,114.3,117.71c.84,2.69,1.7,5.36,2.51,8.05s1.46,5.43,2.14,8.15l1.74,8.24,1.37,8.3-1.74-8.22-2.1-8.13-2.41-8c-.89-2.65-1.84-5.28-2.76-7.91A189.66,189.66,0,0,0,430.53,100,192.51,192.51,0,0,0,330.26,16.4,191,191,0,0,0,142.78,49.34a193.36,193.36,0,0,0-42.93,50.6A189.66,189.66,0,0,0,85.44,130.1c-.91,2.63-1.86,5.26-2.75,7.91l-2.42,8-2.1,8.13Z"/><path d="M450.06,243.48a191.61,191.61,0,0,1-25.63,56.9,199.78,199.78,0,0,1-42.56,46,191.75,191.75,0,0,1-55,30.26,187.35,187.35,0,0,1-62,10.53,192.29,192.29,0,0,1-62-10.38,189.41,189.41,0,0,1-55.17-30,193.4,193.4,0,0,1-42.43-46.1,191,191,0,0,1-14.86-27.6q-3.14-7.18-5.67-14.59t-4.38-15q2.17,7.52,4.95,14.81t6.07,14.36a189.13,189.13,0,0,0,15.53,27,191.32,191.32,0,0,0,42.67,44.74A199.44,199.44,0,0,0,175.69,361a191.08,191.08,0,0,0,89.2,22.18,185.14,185.14,0,0,0,60.73-10.1A194.59,194.59,0,0,0,380,343.94a201.88,201.88,0,0,0,58.63-71.44q3.41-7,6.26-14.28T450.06,243.48Z"/><text class="cls-3" transform="translate(131.03 160.86) scale(0.92 1)">Hofladen für </text><text class="cls-4" transform="translate(2.91 235.69) scale(0.92 1)">Im<tspan class="cls-5" x="88.31" y="0">k</tspan><tspan x="129.85" y="0">ereibedar</tspan><tspan class="cls-6" x="532.74" y="0">f</tspan><tspan class="cls-7" x="568.51" y="0"> </tspan></text><text class="cls-8" transform="translate(143.81 274.41)"><tspan class="cls-9">Fr</tspan><tspan x="30.06" y="0">anz Simmang</tspan></text><path d="M330.65,69.15l-.33-.85a4.85,4.85,0,0,1,2.48-.75A8.69,8.69,0,0,1,340,70c0,.15,0,.23,0,.27s-.29.35-.5.6A8.14,8.14,0,0,0,330.65,69.15Z"/><path d="M328.8,57.39l.72-.51a3.57,3.57,0,0,1,1.08,2,8.65,8.65,0,0,1-1.35,7.91l-.82-.57A8,8,0,0,0,328.8,57.39Z"/><path d="M200.78,56.61l.85.52A8.07,8.07,0,0,0,202,66l-.73.57A5.8,5.8,0,0,1,199.85,64,8.67,8.67,0,0,1,200.78,56.61Z"/><path d="M199.8,68.93a8.12,8.12,0,0,0-8.71,1.73l-.66-.6c1.91-2.59,6.8-3.62,9.67-2Z"/><path d="M265.57,46.22q3.36,2,6.73,4c1.44.85,2.86,1.72,4.33,2.52a1.63,1.63,0,0,1,1,1.67c-.06,3.74-.05,7.48-.11,11.22a1.61,1.61,0,0,0,.93,1.67c3.25,1.85,6.47,3.78,9.72,5.64a1.73,1.73,0,0,1,1,1.72c-.06,4-.06,8,0,11.93a1.48,1.48,0,0,1-.85,1.51q-5.29,3-10.55,6a1.5,1.5,0,0,1-1.75,0c-3.37-2-6.76-3.94-10.14-5.91l-.61-.32c-.32.16-.67.34-1,.53-3.26,1.85-6.52,3.69-9.76,5.57a1.64,1.64,0,0,1-1.91,0c-3.42-2-6.87-4-10.32-6a1.59,1.59,0,0,1-.92-1.6q.08-6.06.07-12.13a1.36,1.36,0,0,1,.8-1.34c3.27-1.84,6.51-3.71,9.76-5.57.38-.21.75-.44,1.15-.68V65.38c0-3.68,0-7.36,0-11a1.74,1.74,0,0,1,1-1.75c3.77-2.1,7.51-4.25,11.26-6.38Zm-.34,26.84a3.27,3.27,0,0,0,.34-.14l10.28-5.84a1.05,1.05,0,0,0,.59-1c0-3.77,0-7.55.1-11.32a1.26,1.26,0,0,0-.75-1.26c-3.24-1.87-6.47-3.75-9.69-5.67a1.28,1.28,0,0,0-1.46,0q-4.8,2.79-9.66,5.51a1.41,1.41,0,0,0-.8,1.44c0,3.14,0,6.27,0,9.41v2.46ZM253.66,67.6c-.16.06-.29.09-.41.15-3.4,1.94-6.79,3.89-10.19,5.81a1.12,1.12,0,0,0-.6,1.14c0,3.75,0,7.49-.07,11.23a1.3,1.3,0,0,0,.73,1.28Q248,90,252.74,92.8a1.35,1.35,0,0,0,1.56,0Q259.12,90,264,87.3a1.26,1.26,0,0,0,.74-1.26c0-3.71,0-7.42,0-11.13a1.33,1.33,0,0,0-.78-1.34c-3-1.74-6.07-3.52-9.1-5.28Zm23.23,25.73,10.62-6a1,1,0,0,0,.54-1q0-5.72,0-11.43a1.21,1.21,0,0,0-.69-1.19q-4.87-2.8-9.7-5.66a1.17,1.17,0,0,0-1.37,0q-4.86,2.82-9.76,5.56a1.31,1.31,0,0,0-.76,1.35c0,3.71,0,7.41,0,11.12a1.32,1.32,0,0,0,.81,1.32c3.19,1.83,6.36,3.69,9.54,5.53C276.36,93.05,276.6,93.17,276.89,93.33Z"/><path d="M206.94,80.62v1.26a18.81,18.81,0,0,1-1.82,8.45A7.24,7.24,0,0,1,204,92.07a2.78,2.78,0,0,1-4,.22,5,5,0,0,1-1.6-2.61A17.61,17.61,0,0,1,201,74.33a3.08,3.08,0,0,0,.65-2.18A4.64,4.64,0,0,1,205.9,67a2.23,2.23,0,0,0,1.44-.76,17.68,17.68,0,0,1,15.07-6,4.9,4.9,0,0,1,2.7,1,2.83,2.83,0,0,1,.55,4.23,7.87,7.87,0,0,1-1.48,1.34,19.37,19.37,0,0,1-8.61,3.44c1,.5,1.75.86,2.5,1.31a21.5,21.5,0,0,1,2.31,1.59,16.4,16.4,0,0,1,2,1.86A17.21,17.21,0,0,1,224,77.1a17.91,17.91,0,0,1,2.32,5,18.17,18.17,0,0,1,.54,2.64c.13.89.15,1.78.23,2.76a18,18,0,0,1-11.21-.27A19.62,19.62,0,0,1,206.94,80.62Zm-4.74-6.06a.37.37,0,0,0-.13.1c-.16.21-.32.42-.47.64a17.21,17.21,0,0,0-2.84,8.55,15.22,15.22,0,0,0,.71,5.72,3.77,3.77,0,0,0,1.22,1.92,1.76,1.76,0,0,0,2.52-.16A4.1,4.1,0,0,0,204,90.1a23.18,23.18,0,0,0,1.09-2.8,17.8,17.8,0,0,0,.09-10,2,2,0,0,0-.55-1C203.9,75.69,203.07,75.16,202.2,74.56ZM208.09,67c.81.7,1.54,1.36,2.31,2a1.57,1.57,0,0,0,.74.26,18.28,18.28,0,0,0,12.76-3.55,5.16,5.16,0,0,0,1-1,1.77,1.77,0,0,0-.33-2.58,3.73,3.73,0,0,0-2.12-.81,16.72,16.72,0,0,0-13.62,4.89C208.54,66.46,208.29,66.77,208.09,67Zm1.11,14.53,2.1,2a17.87,17.87,0,0,0,8-10L216.83,72A20.64,20.64,0,0,1,209.2,81.52Zm5.32,4c.65-.49,1.25-.9,1.82-1.36a18.29,18.29,0,0,0,5.36-7.24c.12-.28.25-.72.11-.92a6,6,0,0,0-1.64-1.65,19.45,19.45,0,0,1-7.95,9.83Zm1.35.34,0,.25c.93.25,1.85.54,2.8.73a1.34,1.34,0,0,0,.9-.28,13,13,0,0,0,4.59-5.94,1.28,1.28,0,0,0,.13-.77,6.92,6.92,0,0,0-1.59-2.56A20.22,20.22,0,0,1,215.87,85.88Zm-2.28-15.14A46.9,46.9,0,0,1,210.85,75a49,49,0,0,1-3.67,3.69l1.35,2a19.15,19.15,0,0,0,7.32-9.11Zm-7,6.68c2.21-1.1,5.28-5,5.48-6.92-3-.71-4.49.1-5.56,1.57A4.63,4.63,0,0,0,206.64,77.42Zm2.44-8.22a3.7,3.7,0,0,0-6.38,2.94,3,3,0,0,0,1.94,2.74A5.66,5.66,0,0,1,209.08,69.2ZM226,86.59a14.09,14.09,0,0,0-.91-5c-.46.78-.79,1.43-1.2,2a20.46,20.46,0,0,1-1.4,1.82c-.47.53-1,1-1.54,1.58A11,11,0,0,0,226,86.59Z"/><path d="M314.63,70.5a22.92,22.92,0,0,1-5.83-2c-1-.54-1.94-1.18-2.9-1.79a3.75,3.75,0,0,1-.61-.51c-2-1.87-1.49-4.36,1-5.36a6.13,6.13,0,0,1,1.75-.42,17.67,17.67,0,0,1,15,6,2.42,2.42,0,0,0,1.61.83,4.72,4.72,0,0,1,4.12,5.34,2,2,0,0,0,.43,1.65,17.73,17.73,0,0,1,2.88,15.49,6.56,6.56,0,0,1-.92,2,3,3,0,0,1-5.23-.06,14.33,14.33,0,0,1-2.13-5.89c-.23-1.64-.28-3.31-.42-5.07a18.19,18.19,0,0,1-20,7,17.85,17.85,0,0,1,3-10.37A18.77,18.77,0,0,1,314.63,70.5Zm13.53,4.09c-.36.37-.61.68-.91.94a4.23,4.23,0,0,1-1.07.73,1.59,1.59,0,0,0-.94,1.19,18.08,18.08,0,0,0,1.14,12.87,5.06,5.06,0,0,0,.58.94,1.87,1.87,0,0,0,3.14.07,5.44,5.44,0,0,0,.92-1.75,16,16,0,0,0,.34-7.93A16.49,16.49,0,0,0,328.16,74.59Zm-5.83-7.36a1.88,1.88,0,0,0-.2-.28,16.59,16.59,0,0,0-14.26-5.41,4.19,4.19,0,0,0-1.85.7,1.78,1.78,0,0,0-.39,2.78,5.12,5.12,0,0,0,1,1,18.19,18.19,0,0,0,12.67,3.46,1.69,1.69,0,0,0,.79-.34C320.84,68.52,321.53,67.9,322.33,67.23Zm-1.08,14.49a20.69,20.69,0,0,1-7.67-9.51l-2.45,1.57a18,18,0,0,0,8,9.94Zm-11-7.14c-.27.21-.41.3-.52.41-.29.28-.55.59-.85.85a1,1,0,0,0-.2,1.25A18,18,0,0,0,313,83.4c.89.84,1.88,1.58,2.85,2.38l2.35-1.37A19.49,19.49,0,0,1,310.26,74.58Zm4.32,11.75v-.25a20,20,0,0,1-6.89-8.62A9.44,9.44,0,0,0,306.14,80a.94.94,0,0,0,0,.66,13,13,0,0,0,4.71,6.19,1.34,1.34,0,0,0,.92.23C312.74,86.86,313.65,86.58,314.58,86.33Zm8.78-7.58A16.92,16.92,0,0,1,317,70.92a7.13,7.13,0,0,0-2.37.94c1.19,3.52,4.86,8,7.35,8.9Zm.36-1a4.51,4.51,0,0,0-5.54-6.85A15.36,15.36,0,0,0,323.72,77.7Zm2-2.48a3.62,3.62,0,0,0,2-3.75,3.77,3.77,0,0,0-2.85-3.14,3.17,3.17,0,0,0-3.43,1.12A5.59,5.59,0,0,1,325.77,75.22Zm-16.3,12a18.73,18.73,0,0,1-4.05-5.31,13.29,13.29,0,0,0-.94,4.93A11.89,11.89,0,0,0,309.47,87.23Z"/></g></g></svg>