<svg xmlns="http://www.w3.org/2000/svg" viewBox="0 0 581.74 264.2"><defs><style>.cls-1{fill:#fff;opacity:0.7;}.cls-2{font-size:60px;letter-spacing:-0.02em;}.cls-2,.cls-3,.cls-7{font-family:TwCenMT-Regular, Tw Cen MT;}.cls-3{font-size:104.36px;letter-spacing:-0.02em;}.cls-4{letter-spacing:-0.04em;}.cls-5{letter-spacing:0.01em;}.cls-6{letter-spacing:-0.02em;}.cls-7{font-size:40px;}.cls-8{letter-spacing:-0.01em;}.cls-9{fill:none;stroke:#000;stroke-linecap:round;}</style></defs><g id="Ebene_2" data-name="Ebene 2"><g id="Ebene_1-2" data-name="Ebene 1"><rect class="cls-1" width="581.74" height="264.2" rx="15"/><text class="cls-2" transform="translate(159.97 121.77) scale(0.92 1)">Hofladen für </text><text class="cls-3" transform="translate(31.85 196.6) scale(0.92 1)">Im<tspan class="cls-4" x="88.31" y="0">k</tspan><tspan x="129.85" y="0">ereibedar</tspan><tspan class="cls-5" x="532.74" y="0">f</tspan><tspan class="cls-6" x="568.51" y="0"> </tspan></text><path d="M294.23,10.56q4.29,2.55,8.59,5.09c1.84,1.09,3.66,2.2,5.54,3.22A2.07,2.07,0,0,1,309.6,21c-.08,4.79-.06,9.57-.15,14.35a2.08,2.08,0,0,0,1.19,2.13c4.17,2.36,8.27,4.83,12.43,7.2a2.2,2.2,0,0,1,1.31,2.21c-.07,5.08-.07,10.16-.05,15.24a1.89,1.89,0,0,1-1.08,1.93q-6.78,3.78-13.48,7.67a1.94,1.94,0,0,1-2.24,0c-4.31-2.54-8.64-5-13-7.55l-.79-.42c-.39.22-.84.44-1.28.69-4.16,2.37-8.33,4.71-12.47,7.12a2.1,2.1,0,0,1-2.45,0q-6.56-3.9-13.19-7.67a2,2,0,0,1-1.17-2q.11-7.74.1-15.5a1.75,1.75,0,0,1,1-1.72q6.26-3.53,12.47-7.11c.48-.27.95-.56,1.47-.87,0-.54,0-1,0-1.56,0-4.7.05-9.4,0-14.1a2.24,2.24,0,0,1,1.28-2.24c4.82-2.67,9.6-5.42,14.39-8.15Zm-.45,34.3a4.16,4.16,0,0,0,.44-.17q6.57-3.73,13.15-7.47a1.33,1.33,0,0,0,.74-1.33c0-4.82.06-9.64.13-14.46a1.62,1.62,0,0,0-.95-1.62q-6.21-3.57-12.39-7.23a1.59,1.59,0,0,0-1.86,0c-4.1,2.37-8.21,4.73-12.35,7a1.8,1.8,0,0,0-1,1.84c0,4,0,8,0,12v3.14Zm-14.77-7a4.22,4.22,0,0,0-.52.19c-4.35,2.48-8.68,5-13,7.42A1.45,1.45,0,0,0,264.7,47q0,7.17-.09,14.34a1.63,1.63,0,0,0,.92,1.64q6.18,3.52,12.3,7.15a1.73,1.73,0,0,0,2,0q6.17-3.57,12.36-7a1.61,1.61,0,0,0,.95-1.61q0-7.11.05-14.22a1.71,1.71,0,0,0-1-1.71c-3.9-2.23-7.77-4.5-11.64-6.76Zm29.68,32.88c4.59-2.61,9.07-5.17,13.57-7.71a1.25,1.25,0,0,0,.69-1.24c0-4.87,0-9.73,0-14.6a1.52,1.52,0,0,0-.88-1.52q-6.23-3.59-12.4-7.24a1.5,1.5,0,0,0-1.75,0q-6.21,3.6-12.47,7.1a1.69,1.69,0,0,0-1,1.73q0,7.09,0,14.21a1.69,1.69,0,0,0,1,1.69c4.08,2.33,8.13,4.71,12.2,7.07Z"/><path d="M75.89,72.17l1.09.66a10.31,10.31,0,0,0,.47,11.3l-.93.74a7.41,7.41,0,0,1-1.81-3.26A11.12,11.12,0,0,1,75.89,72.17Z"/><path d="M74.65,87.91c-4.19-1.42-7.88-.79-11.14,2.21l-.84-.77c2.44-3.3,8.69-4.62,12.36-2.51Z"/><path d="M83.77,102.85v1.61a23.91,23.91,0,0,1-2.33,10.79A8.8,8.8,0,0,1,80,117.48a3.56,3.56,0,0,1-5.08.28,6.18,6.18,0,0,1-2-3.33A22.46,22.46,0,0,1,76.2,94.81,4,4,0,0,0,77,92a5.93,5.93,0,0,1,5.42-6.56,2.8,2.8,0,0,0,1.84-1,22.61,22.61,0,0,1,19.26-7.69A6.32,6.32,0,0,1,107,78a3.62,3.62,0,0,1,.7,5.41,10.25,10.25,0,0,1-1.88,1.72,25,25,0,0,1-11,4.39C96,90.18,97,90.65,98,91.22a28.55,28.55,0,0,1,3,2,22.67,22.67,0,0,1,2.52,2.38,24.2,24.2,0,0,1,2.12,2.72,23.47,23.47,0,0,1,1.7,3,24.43,24.43,0,0,1,1.27,3.34,24.11,24.11,0,0,1,.69,3.38c.16,1.13.2,2.28.29,3.52a23,23,0,0,1-14.32-.34A25,25,0,0,1,83.77,102.85Zm-6-7.74s-.09,0-.17.12c-.21.27-.42.54-.6.82A22,22,0,0,0,73.31,107a19.54,19.54,0,0,0,.91,7.32,4.85,4.85,0,0,0,1.56,2.45,2.25,2.25,0,0,0,3.22-.2A5.32,5.32,0,0,0,80.07,115a28.61,28.61,0,0,0,1.38-3.57,22.76,22.76,0,0,0,.12-12.75,2.7,2.7,0,0,0-.7-1.3C79.89,96.55,78.82,95.87,77.72,95.11Zm7.52-9.67c1,.89,2,1.73,3,2.52a1.84,1.84,0,0,0,1,.33,23.27,23.27,0,0,0,16.3-4.54,6.27,6.27,0,0,0,1.27-1.25,2.26,2.26,0,0,0-.43-3.3,4.69,4.69,0,0,0-2.71-1,21.35,21.35,0,0,0-17.4,6.24C85.81,84.75,85.5,85.15,85.24,85.44ZM86.66,104l2.68,2.54A22.92,22.92,0,0,0,99.56,93.79l-3.15-1.94A26.36,26.36,0,0,1,86.66,104Zm6.79,5.14c.84-.63,1.61-1.15,2.33-1.75a23.49,23.49,0,0,0,6.86-9.24c.15-.36.31-.92.14-1.18a7.53,7.53,0,0,0-2.11-2.1,24.84,24.84,0,0,1-10.15,12.55Zm1.74.44,0,.32c1.19.31,2.37.68,3.57.92a1.69,1.69,0,0,0,1.16-.36,16.61,16.61,0,0,0,5.87-7.59,1.64,1.64,0,0,0,.16-1,8.87,8.87,0,0,0-2-3.28A26,26,0,0,1,95.19,109.58ZM92.27,90.22a57,57,0,0,1-3.5,5.47,59.52,59.52,0,0,1-4.69,4.72l1.72,2.51a24.57,24.57,0,0,0,9.36-11.65Zm-8.88,8.53c2.82-1.39,6.74-6.34,7-8.84-3.8-.9-5.75.13-7.12,2A5.89,5.89,0,0,0,83.39,98.75Zm3.12-10.5A4.73,4.73,0,0,0,78.35,92a3.87,3.87,0,0,0,2.49,3.5C81,91.78,82.82,89.36,86.51,88.25Zm21.56,22.23a17.9,17.9,0,0,0-1.18-6.38c-.58,1-1,1.82-1.52,2.59a27.15,27.15,0,0,1-1.79,2.33c-.6.69-1.27,1.31-2,2A14.14,14.14,0,0,0,108.07,110.48Z"/><path d="M501.56,88.47l-.43-1.08a6.23,6.23,0,0,1,3.17-1,11.12,11.12,0,0,1,9.15,3.18c0,.19,0,.3,0,.35-.18.23-.38.45-.65.77A10.4,10.4,0,0,0,501.56,88.47Z"/><path d="M499.19,73.44l.93-.65a4.62,4.62,0,0,1,1.37,2.55,11.1,11.1,0,0,1-1.73,10.12l-1.05-.73A10.25,10.25,0,0,0,499.19,73.44Z"/><path d="M481.08,90.19a28.86,28.86,0,0,1-7.45-2.53c-1.28-.68-2.48-1.5-3.71-2.27a7,7,0,0,1-.78-.66c-2.49-2.39-1.89-5.58,1.31-6.85a7.41,7.41,0,0,1,2.23-.53A22.55,22.55,0,0,1,491.84,85,3.08,3.08,0,0,0,493.9,86a6,6,0,0,1,5.26,6.83,2.6,2.6,0,0,0,.55,2.1,22.65,22.65,0,0,1,3.68,19.81,8.34,8.34,0,0,1-1.17,2.53c-1.82,2.61-4.94,2.58-6.69-.07a18.31,18.31,0,0,1-2.71-7.53c-.3-2.1-.36-4.23-.54-6.48a23.24,23.24,0,0,1-25.58,9,23,23,0,0,1,3.86-13.25A24,24,0,0,1,481.08,90.19Zm17.29,5.24a14.85,14.85,0,0,1-1.16,1.19,5.43,5.43,0,0,1-1.36.94,2,2,0,0,0-1.21,1.52,23.07,23.07,0,0,0,1.46,16.45,6.46,6.46,0,0,0,.74,1.2,2.39,2.39,0,0,0,4,.09,6.93,6.93,0,0,0,1.16-2.24,20.23,20.23,0,0,0,.44-10.13A21,21,0,0,0,498.37,95.43ZM490.92,86a2.66,2.66,0,0,0-.25-.36,21.21,21.21,0,0,0-18.23-6.91,5.4,5.4,0,0,0-2.36.89,2.28,2.28,0,0,0-.5,3.55,6.56,6.56,0,0,0,1.3,1.22,23.26,23.26,0,0,0,16.19,4.42,2,2,0,0,0,1-.44C489,87.66,489.91,86.88,490.92,86Zm-1.38,18.52a26.37,26.37,0,0,1-9.79-12.16l-3.14,2a23,23,0,0,0,10.25,12.7Zm-14-9.13c-.34.27-.52.38-.67.53-.37.36-.7.75-1.08,1.09a1.2,1.2,0,0,0-.26,1.59,23.19,23.19,0,0,0,5.52,8.07c1.14,1.07,2.4,2,3.65,3l3-1.75A24.83,24.83,0,0,1,475.5,95.41Zm5.51,15v-.32a25.51,25.51,0,0,1-8.8-11,11.93,11.93,0,0,0-2,3.23,1.22,1.22,0,0,0,0,.84,16.61,16.61,0,0,0,6,7.9,1.69,1.69,0,0,0,1.18.3C478.66,111.11,479.83,110.75,481,110.43Zm11.22-9.69a21.61,21.61,0,0,1-8.06-10,9.47,9.47,0,0,0-3,1.2c1.53,4.51,6.21,10.2,9.39,11.38Zm.47-1.34a5.77,5.77,0,0,0-7.08-8.76A19.66,19.66,0,0,0,492.7,99.4Zm2.62-3.18a4.6,4.6,0,0,0,2.51-4.78,4.79,4.79,0,0,0-3.63-4,4.06,4.06,0,0,0-4.39,1.42C493.39,89.93,495.23,92.35,495.32,96.22Zm-20.83,15.36a23.89,23.89,0,0,1-5.18-6.78,16.82,16.82,0,0,0-1.2,6.29A15.16,15.16,0,0,0,474.49,111.58Z"/><text class="cls-7" transform="translate(172.75 235.32)"><tspan class="cls-8">Fr</tspan><tspan x="30.06" y="0">anz Simmang</tspan></text><line class="cls-9" x1="41.44" y1="226.79" x2="168.62" y2="226.79"/><line class="cls-9" x1="41.44" y1="44.86" x2="259.59" y2="44.86"/><line class="cls-9" x1="41.44" y1="226.79" x2="41.44" y2="200.04"/><line class="cls-9" x1="41.44" y1="128.87" x2="41.44" y2="44.86"/><line class="cls-9" x1="534.56" y1="201.17" x2="534.62" y2="226.79"/><line class="cls-9" x1="534.56" y1="44.86" x2="534.56" y2="124.63"/><line class="cls-9" x1="534.62" y1="226.79" x2="417.54" y2="226.79"/><line class="cls-9" x1="534.56" y1="44.86" x2="327.59" y2="44.86"/></g></g></svg>